<?xml version="1.0" encoding="UTF-8" standalone="no"?>
<svg xmlns="http://www.w3.org/2000/svg" xmlns:xlink="http://www.w3.org/1999/xlink" width="268.705mm" height="89.878mm" viewBox="45.647614 -263.938965 268.704742 89.877991">
    <path transform="matrix(0.999999,0,0,-1,42.647461,-162.325073)" style="stroke:#000000;stroke-width:0.05mm;fill:none" d="M118.064491,51.218983L133.304489,51.218979L133.32312,51.219212C133.515503,51.224159,133.6987,51.302601,133.834824,51.438641C133.97551,51.579266,134.054504,51.770061,134.054489,51.968979L134.054489,82.448975L134.054077,82.474037L134.052826,82.498962C134.036407,82.748611,133.89621,82.97348,133.679489,83.098503C133.447388,83.232323,133.161621,83.232254,132.929489,83.098503L132.908005,83.085609C132.894028,83.076645,132.880203,83.067459,132.866623,83.057899C132.670609,82.917038,132.554428,82.690369,132.554489,82.448982L132.554489,52.71896L118.814484,52.71896L118.814484,82.448975C118.815132,82.465691,118.815063,82.482422,118.812828,82.498962C118.795723,82.748497,118.656082,82.973404,118.439491,83.098503C118.207352,83.232292,117.921501,83.232521,117.689491,83.098503C117.675102,83.09008,117.660942,83.081276,117.647041,83.072067C117.43943,82.93264,117.315102,82.699066,117.314491,82.448982L117.314491,51.968971L117.31472,51.950348C117.319344,51.757915,117.397942,51.574642,117.534157,51.438641L117.547493,51.425636L117.561111,51.412994L117.574997,51.400723C117.711037,51.283337,117.884811,51.218842,118.064491,51.218983z"/>
    <path transform="matrix(0.999999,0,0,-1,42.647461,-172.35907)" style="stroke:#000000;stroke-width:0.05mm;fill:none" d="M123.584007,15.62348C124.210381,15.423307,124.665039,14.879725,124.751328,14.22783L125.336731,7.86999L124.195663,5.42296L121.73996,5.24402L116.936531,7.4839L113.458717,11.14688L112.210541,13.43915L113.351608,15.886181L117.810707,17.22085C117.851593,17.231518,117.893204,17.239243,117.935204,17.24395C118.061157,17.258278,118.188744,17.245728,118.309547,17.20727L123.584007,15.62348z"/>
    <path transform="matrix(0.999999,0,0,-1,42.647461,-172.35907)" style="stroke:#000000;stroke-width:0.05mm;fill:none" d="M128.834686,11.6556C128.834778,11.881066,128.745239,12.097308,128.585815,12.256744C128.426392,12.416181,128.210159,12.505745,127.984688,12.5056C127.963333,12.50559,127.941971,12.50476,127.920662,12.503197C127.600983,12.479005,127.322067,12.277079,127.199402,11.98088L127.18766,11.950968C127.072212,11.639538,127.148773,11.28939,127.383652,11.05456L127.406792,11.032269C127.650352,10.806463,128.003113,10.743194,128.309967,10.8703C128.627625,11.001805,128.834702,11.311793,128.834686,11.6556z"/>
    <path transform="matrix(0.999999,0,0,-1,42.647461,-172.35907)" style="stroke:#000000;stroke-width:0.05mm;fill:none" d="M103.04393,12.21557L97.824448,13.13591L93.517105,15.77395L91.718155,17.66506L92.187012,20.324039L96.148727,22.76733C96.231407,22.814066,96.320892,22.847574,96.413971,22.866453C96.486382,22.881084,96.56031,22.886778,96.634102,22.883329L102.138748,22.718639C102.795593,22.687426,103.37542,22.28001,103.62751,21.67267L105.838501,15.68298L105.369652,13.024L103.04393,12.21557z"/>
    <path transform="matrix(0.999999,0,0,-1,42.647461,-172.35907)" style="stroke:#000000;stroke-width:0.05mm;fill:none" d="M108.266441,20.024929C108.26638,20.250362,108.176872,20.466562,108.017479,20.62598C107.858063,20.785351,107.641861,20.87483,107.416443,20.874929C107.363388,20.874901,107.310448,20.869999,107.258324,20.86013C106.976646,20.806797,106.740829,20.615082,106.631149,20.35022L106.619423,20.320307C106.503937,20.008886,106.580551,19.658758,106.815399,19.423889L106.838547,19.4016C107.082169,19.175882,107.43486,19.112621,107.741722,19.239639C108.059357,19.371202,108.266487,19.681129,108.266441,20.024929z"/>
    <path transform="matrix(0.999999,0,0,-1,42.647461,-172.35907)" style="stroke:#000000;stroke-width:0.05mm;fill:none" d="M81.392784,23.07029L85.078667,17.856949L85.313988,15.167219L83.276756,13.7844L77.996933,13.322479L73.15358,14.7558L70.926483,16.11688L70.691162,18.806601L73.885513,22.192011C73.991112,22.295916,74.120689,22.372211,74.262833,22.413942C74.28315,22.419859,74.303658,22.425093,74.324318,22.42968L79.684029,23.695299C80.326569,23.835129,80.992096,23.591694,81.392784,23.07029z"/>
    <path transform="matrix(0.999999,0,0,-1,42.647461,-172.35907)" style="stroke:#000000;stroke-width:0.05mm;fill:none" d="M86.329071,22.45936C86.329056,22.684793,86.239517,22.900997,86.080109,23.0604C85.920692,23.219782,85.704498,23.309298,85.479073,23.309361C85.405052,23.309324,85.331345,23.299719,85.259827,23.280642C85.004219,23.212452,84.794975,23.029064,84.693771,22.784639L84.682037,22.754726C84.566635,22.443287,84.643158,22.093159,84.878029,21.85832L84.901176,21.836029C85.144714,21.610178,85.497505,21.546921,85.804352,21.674061C86.121986,21.805622,86.329079,22.115562,86.329071,22.45936z"/>
    <path transform="matrix(0.999999,0,0,-1,42.647461,-172.35907)" style="stroke:#000000;stroke-width:0.05mm;fill:none" d="M102.834732,42.716324L97.385109,41.922642C97.311829,41.913292,97.240036,41.894753,97.171257,41.86779C97.082817,41.833157,97.000435,41.784679,96.927261,41.724121L93.450005,38.629997L93.450005,35.93L95.550003,34.380001L100.25,32.529999L105.550003,32.529999L107.699997,33.73L107.699997,36.43L104.482498,41.944763C104.128754,42.499062,103.487007,42.799561,102.834732,42.716324z"/>
    <path transform="matrix(0.999999,0,0,-1,42.647461,-172.35907)" style="stroke:#000000;stroke-width:0.05mm;fill:none" d="M109.349998,40.98C109.350098,41.449497,108.969498,41.830086,108.5,41.830002C108.405083,41.830196,108.310783,41.814335,108.221184,41.783001C107.991928,41.703289,107.807632,41.529491,107.714699,41.305279L107.702957,41.275368C107.5877,40.963909,107.66423,40.613895,107.898956,40.37896L107.922096,40.35667C108.165611,40.130768,108.518463,40.067482,108.825279,40.194698C109.142868,40.326347,109.350037,40.636208,109.349998,40.98z"/>
    <path transform="matrix(0.999999,0,0,-1,42.647461,-172.35907)" style="stroke:#000000;stroke-width:0.05mm;fill:none" d="M84.834732,44.71632C85.487007,44.799637,86.128761,44.499081,86.482498,43.944759L89.700005,38.43L89.700005,35.73L87.550003,34.529999L82.25,34.529999L77.550003,36.380001L75.449997,37.93L75.449997,40.630001L78.927261,43.724121C78.97612,43.764408,79.029045,43.7995,79.085243,43.828693C79.178886,43.877411,79.280411,43.909168,79.385109,43.922642L84.834732,44.71632z"/>
    <path transform="matrix(0.999999,0,0,-1,42.647461,-172.35907)" style="stroke:#000000;stroke-width:0.05mm;fill:none" d="M91.349998,42.98C91.349983,43.449486,90.96949,43.830112,90.5,43.830002C90.373764,43.830116,90.249077,43.802063,90.135139,43.747723C89.945068,43.657341,89.795197,43.499744,89.714699,43.305279L89.702965,43.275368C89.587425,42.963959,89.664047,42.613781,89.898956,42.37896L89.922104,42.35667C90.165733,42.130962,90.518417,42.067688,90.825279,42.194698C91.14296,42.326195,91.350128,42.636181,91.349998,42.98z"/>
    <path transform="matrix(0.999999,0,0,-1,42.647461,-172.35907)" style="stroke:#000000;stroke-width:0.05mm;fill:none" d="M61.385113,48.922638L66.834732,49.71632C67.487015,49.799614,68.128792,49.499104,68.482498,48.944759L71.699997,43.43L71.699997,40.73L69.550003,39.529999L64.25,39.529999L59.549999,41.380001L57.449997,42.93L57.449997,45.630001L60.927261,48.724121L60.952114,48.743916C61.078163,48.840637,61.227528,48.902351,61.385113,48.922638z"/>
    <path transform="matrix(0.999999,0,0,-1,42.647461,-172.35907)" style="stroke:#000000;stroke-width:0.05mm;fill:none" d="M73.101044,48.581039C72.941681,48.740505,72.725449,48.830105,72.5,48.830002C72.331894,48.829987,72.167587,48.780087,72.027771,48.686749C71.887917,48.593426,71.778885,48.460674,71.714699,48.305279L71.702965,48.275368C71.587563,47.963932,71.664116,47.613823,71.898956,47.37896L71.922104,47.35667C72.165588,47.130741,72.518448,47.067482,72.825279,47.194698L72.854729,47.207554C73.156639,47.346031,73.350037,47.647846,73.349998,47.98C73.350029,48.205433,73.260422,48.421608,73.101044,48.581039z"/>
    <path transform="matrix(0.999999,0,0,-1,42.647461,-172.35907)" style="stroke:#000000;stroke-width:0.05mm;fill:none" d="M48.834728,44.716309L43.385109,43.922642C43.21682,43.901005,43.058094,43.832161,42.927261,43.724121L39.450001,40.630001L39.450001,37.93L41.550003,36.380001L46.25,34.529999L51.550003,34.529999L53.699997,35.73L53.699997,38.43L50.482502,43.944759C50.128799,44.499119,49.487007,44.799675,48.834728,44.716309z"/>
    <path transform="matrix(0.999999,0,0,-1,42.647461,-172.35907)" style="stroke:#000000;stroke-width:0.05mm;fill:none" d="M55.10104,43.581039C54.941662,43.740475,54.725437,43.829983,54.5,43.830002C54.310787,43.829994,54.127003,43.766846,53.977707,43.650604C53.861553,43.560276,53.770908,43.441261,53.714699,43.305279L53.702965,43.275368C53.58757,42.963932,53.664143,42.613842,53.89896,42.37896L53.922104,42.35667C54.165668,42.130867,54.518425,42.067616,54.825279,42.194698L54.854729,42.207554C55.156525,42.346222,55.350033,42.647869,55.349998,42.98C55.350075,43.205444,55.26049,43.421665,55.10104,43.581039z"/>
    <path transform="matrix(0.999999,0,0,-1,42.647461,-172.35907)" style="stroke:#000000;stroke-width:0.05mm;fill:none" d="M30.83473,32.71632C31.487009,32.799591,32.128784,32.499096,32.482498,31.944759L35.700001,26.429998L35.700001,23.73L33.549999,22.530001L28.25,22.530001L23.549999,24.379999L21.450001,25.93L21.450001,28.629999L24.927261,31.724119C25.0581,31.832151,25.216824,31.900974,25.385111,31.92264L30.83473,32.71632z"/>
    <path transform="matrix(0.999999,0,0,-1,42.647461,-172.35907)" style="stroke:#000000;stroke-width:0.05mm;fill:none" d="M37.10104,31.581039C36.941593,31.740391,36.725426,31.829929,36.5,31.83C36.300179,31.830044,36.10675,31.759623,35.953674,31.631184C35.848919,31.543392,35.766914,31.431591,35.714699,31.305281L35.702965,31.275368C35.587559,30.963932,35.664127,30.613829,35.89896,30.37896L35.922104,30.35667C36.165649,30.130836,36.518433,30.067575,36.825279,30.1947L36.854729,30.207552C37.156559,30.346155,37.349998,30.647865,37.349998,30.98C37.349953,31.205429,37.260441,31.421633,37.10104,31.581039z"/>
    <path transform="matrix(0.999999,0,0,-1,42.647461,-172.35907)" style="stroke:#000000;stroke-width:0.05mm;fill:none" d="M15.549999,22.530001L10.25,22.530001L5.55,24.379999L3.45,25.93L3.45,28.629999L6.92726,31.724119C7.058095,31.832157,7.216824,31.900974,7.38511,31.922642L12.83473,32.71632C13.487011,32.799618,14.128792,32.499104,14.4825,31.944759L17.700001,26.429998L17.700001,23.73L15.549999,22.530001z"/>
    <path transform="matrix(0.999999,0,0,-1,42.647461,-172.35907)" style="stroke:#000000;stroke-width:0.05mm;fill:none" d="M19.35,30.98C19.350012,30.647863,19.156569,30.346148,18.854731,30.207552L18.825279,30.1947C18.518427,30.067595,18.165649,30.13084,17.922104,30.35667L17.89896,30.37896C17.664095,30.613804,17.587542,30.963932,17.702963,31.275368L17.714701,31.305281C17.73094,31.344589,17.750153,31.382601,17.772118,31.419022C17.925976,31.674089,18.202122,31.829994,18.5,31.83C18.725464,31.830128,18.941694,31.740559,19.101118,31.581129C19.260544,31.421698,19.350101,31.205465,19.35,30.98z"/>
    <path transform="matrix(0.999999,0,0,-1,42.647461,-172.35907)" style="stroke:#000000;stroke-width:0.05mm;fill:none" d="M97.385109,58.922638L102.834732,59.71632C103.487007,59.799652,104.128777,59.4991,104.482498,58.944759L107.699997,53.43L107.699997,50.73L105.550003,49.529999L100.25,49.529999L95.550003,51.380001L93.450005,52.93L93.450005,55.630001L96.927261,58.724121C96.967926,58.757793,97.011467,58.787857,97.057526,58.813667C97.158669,58.870781,97.26992,58.907696,97.385109,58.922638z"/>
    <path transform="matrix(0.999999,0,0,-1,42.647461,-172.35907)" style="stroke:#000000;stroke-width:0.05mm;fill:none" d="M109.349998,57.98C109.350037,57.647869,109.156517,57.346237,108.854729,57.207554L108.825279,57.194698C108.518433,57.067604,108.165703,57.130913,107.922096,57.35667L107.898956,57.37896C107.664253,57.613899,107.587791,57.963886,107.702957,58.275368L107.714699,58.305279C107.79129,58.489819,107.930313,58.641521,108.107452,58.733936C108.228706,58.796993,108.363327,58.830158,108.5,58.830002C108.969498,58.830101,109.35006,58.449493,109.349998,57.98z"/>
    <path transform="matrix(0.999999,0,0,-1,42.647461,-172.35907)" style="stroke:#000000;stroke-width:0.05mm;fill:none" d="M84.834732,61.716316L79.385109,60.922642C79.23819,60.903687,79.098259,60.848701,78.977592,60.762779C78.960396,60.750454,78.943665,60.737492,78.927261,60.724121L75.449997,57.630001L75.449997,54.93L77.550003,53.379997L82.25,51.529999L87.550003,51.529999L89.700005,52.729996L89.700005,55.43L86.482498,60.944763C86.128815,61.499111,85.487015,61.799515,84.834732,61.716316z"/>
    <path transform="matrix(0.999999,0,0,-1,42.647461,-172.35907)" style="stroke:#000000;stroke-width:0.05mm;fill:none" d="M91.349998,59.98C91.349731,59.647903,91.156479,59.346241,90.854729,59.207554L90.825279,59.194698C90.518471,59.067417,90.165619,59.130768,89.922104,59.35667L89.898956,59.37896C89.664063,59.613785,89.587517,59.963936,89.702965,60.275368L89.714699,60.305279C89.778885,60.460678,89.887924,60.593414,90.027771,60.686749C90.167503,60.780235,90.331879,60.830009,90.5,60.830002C90.969452,60.82996,91.349907,60.449455,91.349998,59.98z"/>
    <path transform="matrix(0.999999,0,0,-1,42.647461,-172.35907)" style="stroke:#000000;stroke-width:0.05mm;fill:none" d="M61.385113,65.922638L66.834732,66.716316C67.487,66.799576,68.128693,66.499023,68.482498,65.944763L71.699997,60.43L71.699997,57.729996L69.550003,56.529999L64.25,56.529999L59.549999,58.379997L57.449997,59.93L57.449997,62.630001L60.927261,65.724121C61.058067,65.832207,61.216801,65.901077,61.385113,65.922638z"/>
    <path transform="matrix(0.999999,0,0,-1,42.647461,-172.35907)" style="stroke:#000000;stroke-width:0.05mm;fill:none" d="M73.101044,65.581039C72.941505,65.74028,72.72541,65.829857,72.5,65.830002C72.289536,65.829956,72.08654,65.751938,71.930344,65.610886C71.836746,65.526222,71.763214,65.421799,71.714699,65.305283L71.702965,65.275368C71.58754,64.963951,71.664207,64.613899,71.898956,64.37896L71.922104,64.356667C72.165596,64.13076,72.518425,64.067566,72.825279,64.194702L72.854729,64.20755C73.15654,64.346184,73.349976,64.647873,73.349998,64.980003C73.350014,65.205444,73.260536,65.421707,73.101044,65.581039z"/>
    <path transform="matrix(0.999999,0,0,-1,42.647461,-172.35907)" style="stroke:#000000;stroke-width:0.05mm;fill:none" d="M50.482502,60.944763L53.699997,55.43L53.699997,52.729996L51.550003,51.529999L46.25,51.529999L41.550003,53.379997L39.450001,54.93L39.450001,57.630001L42.927261,60.724121C43.058128,60.832111,43.216827,60.900959,43.385109,60.922642L48.834728,61.716316C49.487011,61.799656,50.128799,61.499119,50.482502,60.944763z"/>
    <path transform="matrix(0.999999,0,0,-1,42.647461,-172.35907)" style="stroke:#000000;stroke-width:0.05mm;fill:none" d="M55.10104,60.581039C55.260456,60.421654,55.349895,60.205429,55.349998,59.98C55.350014,59.647861,55.156567,59.346149,54.854729,59.207554L54.825279,59.194698C54.518444,59.067543,54.165657,59.130844,53.922104,59.35667L53.89896,59.37896C53.664112,59.613823,53.587502,59.963947,53.702965,60.275368L53.714699,60.305279C53.754986,60.402622,53.813049,60.491611,53.885895,60.567722C54.046215,60.735291,54.268093,60.829933,54.5,60.830002C54.725441,60.830078,54.941635,60.740456,55.10104,60.581039z"/>
    <path transform="matrix(0.999999,0,0,-1,42.647461,-172.35907)" style="stroke:#000000;stroke-width:0.05mm;fill:none" d="M25.385111,48.922638L30.83473,49.71632C31.487009,49.799614,32.128792,49.499104,32.482498,48.944759L35.700001,43.43L35.700001,40.73L33.549999,39.529999L28.25,39.529999L23.549999,41.380001L21.450001,42.93L21.450001,45.630001L24.927261,48.724121C25.058126,48.832111,25.216831,48.900955,25.385111,48.922638z"/>
    <path transform="matrix(0.999999,0,0,-1,42.647461,-172.35907)" style="stroke:#000000;stroke-width:0.05mm;fill:none" d="M37.10104,48.581039C37.260471,48.421654,37.350002,48.205437,37.349998,47.98C37.350033,47.647858,37.156578,47.346134,36.854729,47.207554L36.825279,47.194698C36.518433,47.067577,36.165649,47.130833,35.922104,47.35667L35.89896,47.37896C35.66412,47.613819,35.58757,47.963928,35.702965,48.275368L35.714699,48.305279C35.743038,48.373657,35.780178,48.438038,35.825134,48.496841C35.986027,48.706825,36.235466,48.829994,36.5,48.830002C36.72543,48.829971,36.941601,48.740406,37.10104,48.581039z"/>
    <path transform="matrix(0.999999,0,0,-1,42.647461,-172.35907)" style="stroke:#000000;stroke-width:0.05mm;fill:none" d="M7.38511,48.922638L12.83473,49.71632C13.48701,49.799603,14.128785,49.499096,14.4825,48.944759L17.700001,43.43L17.700001,40.73L15.549999,39.529999L10.25,39.529999L5.55,41.380001L3.45,42.93L3.45,45.630001L6.92726,48.724121C7.058093,48.832157,7.216826,48.900963,7.38511,48.922638z"/>
    <path transform="matrix(0.999999,0,0,-1,42.647461,-172.35907)" style="stroke:#000000;stroke-width:0.05mm;fill:none" d="M19.35,47.98C19.350021,47.647861,19.156572,47.346146,18.854731,47.207554L18.825279,47.194698C18.518435,47.067562,18.165644,47.130825,17.922104,47.35667L17.89896,47.37896C17.664082,47.613792,17.587536,47.963932,17.702963,48.275368L17.714701,48.305279C17.84626,48.62291,18.1562,48.830006,18.5,48.830002C18.725464,48.830132,18.941694,48.740562,19.101118,48.581131C19.260542,48.4217,19.3501,48.205463,19.35,47.98z"/>
    <path transform="matrix(0.999999,0,0,-1,42.647461,-172.35907)" style="stroke:#000000;stroke-width:0.05mm;fill:none" d="M105.550003,66.529999L100.25,66.529999L95.550003,68.379997L93.450005,69.93L93.450005,72.629997L96.927261,75.724121L96.95211,75.743912C97.078041,75.840805,97.227516,75.902374,97.385109,75.922638L102.834732,76.716316C103.487007,76.799576,104.128761,76.499077,104.482498,75.944763L107.699997,70.43L107.699997,67.729996L105.550003,66.529999z"/>
    <path transform="matrix(0.999999,0,0,-1,42.647461,-172.35907)" style="stroke:#000000;stroke-width:0.05mm;fill:none" d="M109.349998,74.980003C109.349823,74.647903,109.156464,74.346298,108.854729,74.20755L108.825279,74.194702C108.518387,74.067688,108.165627,74.130821,107.922096,74.356667L107.898956,74.37896C107.664169,74.613861,107.58757,74.963936,107.702957,75.275368L107.714699,75.305283C107.779053,75.460609,107.887878,75.593491,108.027771,75.686745C108.167267,75.780655,108.331841,75.830276,108.5,75.830002C108.725471,75.830429,108.941711,75.740829,109.101059,75.581314C109.260406,75.421806,109.349792,75.205475,109.349998,74.980003z"/>
    <path transform="matrix(0.999999,0,0,-1,42.647461,-172.35907)" style="stroke:#000000;stroke-width:0.05mm;fill:none" d="M84.834732,78.716316C85.487015,78.799744,86.128853,78.499168,86.482498,77.944763L89.700005,72.43L89.700005,69.730003L87.550003,68.529999L82.25,68.529999L77.550003,70.380005L75.449997,71.93L75.449997,74.629997L78.927261,77.724121C79.058189,77.832024,79.216843,77.900902,79.385109,77.922638L84.834732,78.716316z"/>
    <path transform="matrix(0.999999,0,0,-1,42.647461,-172.35907)" style="stroke:#000000;stroke-width:0.05mm;fill:none" d="M91.349998,76.980003C91.350113,76.647858,91.156555,76.346184,90.854729,76.20755L90.825279,76.194702C90.51844,76.067604,90.165718,76.130936,89.922104,76.356667L89.898956,76.37896C89.664078,76.613785,89.587601,76.963913,89.702965,77.275368L89.714699,77.305283C89.767067,77.431511,89.849037,77.543274,89.953674,77.63118C90.106689,77.759727,90.300156,77.830238,90.5,77.830002C90.725464,77.830025,90.941719,77.740509,91.101173,77.5811C91.260628,77.4217,91.350204,77.205467,91.349998,76.980003z"/>
    <path transform="matrix(0.999999,0,0,-1,42.647461,-172.35907)" style="stroke:#000000;stroke-width:0.05mm;fill:none" d="M68.482498,82.944756L71.699997,77.43L71.699997,74.730003L69.550003,73.529999L64.25,73.529999L59.549999,75.380005L57.449997,76.93L57.449997,79.629997L60.927261,82.724121C61.058048,82.832222,61.216816,82.900993,61.385109,82.922638L66.834732,83.716316C67.487007,83.799545,68.128784,83.499092,68.482498,82.944756z"/>
    <path transform="matrix(0.999999,0,0,-1,42.647461,-172.35907)" style="stroke:#000000;stroke-width:0.05mm;fill:none" d="M73.101044,82.581039C73.26062,82.421776,73.350052,82.205452,73.349998,81.980003C73.349731,81.647903,73.156479,81.346252,72.854729,81.20755L72.825279,81.194702C72.518387,81.067772,72.165695,81.130928,71.922104,81.356667L71.898956,81.37896C71.664223,81.613899,71.587631,81.963928,71.702965,82.275368L71.714699,82.305283C71.750977,82.392998,71.801689,82.474014,71.864822,82.544899C72.026077,82.726341,72.257256,82.830215,72.5,82.830002C72.725456,82.830193,72.941696,82.74054,73.101044,82.581039z"/>
    <path transform="matrix(0.999999,0,0,-1,42.647461,-172.35907)" style="stroke:#000000;stroke-width:0.05mm;fill:none" d="M48.834728,78.716324L43.385109,77.922638C43.216812,77.901024,43.058083,77.832176,42.927261,77.724121L39.450001,74.629997L39.450001,71.93L41.550003,70.380005L46.25,68.529999L51.550003,68.529999L53.699997,69.730003L53.699997,72.43L50.482502,77.944763C50.128784,78.499107,49.487007,78.799637,48.834728,78.716324z"/>
    <path transform="matrix(0.999999,0,0,-1,42.647461,-172.35907)" style="stroke:#000000;stroke-width:0.05mm;fill:none" d="M55.10104,77.581039C55.26062,77.421768,55.350224,77.205467,55.349998,76.980003C55.349712,76.647919,55.156422,76.346336,54.854729,76.20755L54.825279,76.194702C54.518375,76.067863,54.165787,76.131065,53.922104,76.356667L53.89896,76.37896C53.664139,76.613831,53.587612,76.963921,53.702965,77.275368L53.714699,77.305283C53.738945,77.364029,53.769783,77.41983,53.806568,77.471649C53.965942,77.696442,54.224442,77.82991,54.5,77.830002C54.725418,77.829895,54.941563,77.740356,55.10104,77.581039z"/>
    <path transform="matrix(0.999999,0,0,-1,42.647461,-172.35907)" style="stroke:#000000;stroke-width:0.05mm;fill:none" d="M33.549999,56.529999L28.25,56.529999L23.549999,58.379997L21.450001,59.93L21.450001,62.630001L24.927259,65.724121C25.058123,65.832115,25.216837,65.900917,25.385111,65.922638L30.83473,66.716316C31.487009,66.799599,32.128788,66.4991,32.482498,65.944763L35.700001,60.43L35.700001,57.729996L33.549999,56.529999z"/>
    <path transform="matrix(0.999999,0,0,-1,42.647461,-172.35907)" style="stroke:#000000;stroke-width:0.05mm;fill:none" d="M37.10104,65.581039C37.260414,65.421616,37.349949,65.205429,37.349998,64.980003C37.349995,64.647865,37.156574,64.346138,36.854729,64.20755L36.825279,64.194702C36.518452,64.067535,36.165688,64.130875,35.922104,64.356667L35.89896,64.37896C35.664001,64.613747,35.587391,64.963959,35.702965,65.275368L35.714699,65.305283C35.730995,65.344566,35.750107,65.382629,35.772118,65.419022C35.926048,65.674026,36.202137,65.829926,36.5,65.830002C36.725437,65.830025,36.941658,65.740479,37.10104,65.581039z"/>
    <path transform="matrix(0.999999,0,0,-1,42.647461,-172.35907)" style="stroke:#000000;stroke-width:0.05mm;fill:none" d="M15.549999,56.529999L10.25,56.529999L5.55,58.379997L3.45,59.93L3.45,62.630001L6.92726,65.724121C7.05809,65.832161,7.216824,65.90097,7.38511,65.922638L12.83473,66.716316C13.487009,66.799606,14.12879,66.499107,14.4825,65.944763L17.700001,60.43L17.700001,57.729996L15.549999,56.529999z"/>
    <path transform="matrix(0.999999,0,0,-1,42.647461,-172.35907)" style="stroke:#000000;stroke-width:0.05mm;fill:none" d="M19.35,64.980003C19.349966,64.647873,19.156549,64.346169,18.854731,64.20755L18.825279,64.194702C18.518425,64.067635,18.165693,64.130898,17.922104,64.356667L17.89896,64.37896C17.680317,64.597572,17.597633,64.917671,17.683058,65.214828C17.691895,65.245552,17.702421,65.275764,17.714701,65.305283C17.846228,65.622932,18.156197,65.830025,18.5,65.830002C18.725466,65.830124,18.941706,65.74057,19.101133,65.581146C19.260559,65.421715,19.350103,65.205467,19.35,64.980003z"/>
    <path transform="matrix(0.999999,0,0,-1,42.647461,-172.35907)" style="stroke:#000000;stroke-width:0.05mm;fill:none" d="M95.699997,67.379997C95.70015,66.715706,95.313187,66.112228,94.709457,65.835106L94.650558,65.809402C94.036835,65.555252,93.331306,65.681702,92.844208,66.133339L92.79792,66.177917C92.328262,66.647667,92.175117,67.347862,92.40593,67.970734L92.429398,68.030563C92.549828,68.321899,92.74913,68.573875,93.004822,68.75827C93.294479,68.967468,93.6427,69.080063,94,69.080002C94.939011,69.080223,95.700226,68.319008,95.699997,67.379997z"/>
    <path transform="matrix(0.999999,0,0,-1,42.647461,-172.35907)" style="stroke:#000000;stroke-width:0.05mm;fill:none" d="M114.650002,18.58C114.64994,19.030861,114.470863,19.463247,114.152077,19.78208C113.833313,20.100946,113.400879,20.280071,112.949997,20.280001C112.864937,20.279978,112.780006,20.273596,112.695892,20.260962C112.106812,20.171947,111.607323,19.78101,111.379402,19.23056L111.355927,19.170736C111.125053,18.547876,111.278183,17.847603,111.747917,17.37792L111.794212,17.33334C112.281319,16.881691,112.98687,16.755165,113.600563,17.009399C114.235832,17.272518,114.65004,17.892399,114.650002,18.58z"/>
    <path transform="matrix(0.999999,0,0,-1,42.647461,-172.35907)" style="stroke:#000000;stroke-width:0.05mm;fill:none" d="M23.700001,39.48C23.700029,38.815727,23.313135,38.212303,22.709461,37.935104L22.65056,37.909401C22.036867,37.655163,21.331312,37.781685,20.844208,38.233337L20.79792,38.27792C20.328171,38.747597,20.175051,39.447872,20.405928,40.070736L20.429399,40.130562C20.453867,40.189632,20.481638,40.247284,20.512573,40.303238C20.812029,40.844261,21.38163,41.180016,22,41.18C22.939013,41.180229,23.700233,40.41901,23.700001,39.48z"/>
    <path transform="matrix(0.999999,0,0,-1,42.647461,-172.35907)" style="stroke:#000000;stroke-width:0.05mm;fill:none" d="M23.700001,56.48C23.700045,55.815723,23.313148,55.21228,22.709461,54.935104L22.65056,54.909401C22.036871,54.655151,21.33132,54.781696,20.844208,55.233337L20.79792,55.27792C20.328176,55.747601,20.175064,56.447872,20.405928,57.070736L20.429399,57.130562C20.692493,57.765842,21.312393,58.180054,22,58.18C22.45093,58.180218,22.883396,58.001099,23.202255,57.682243C23.521112,57.363392,23.700243,56.930931,23.700001,56.48z"/>
    <path transform="matrix(-1,0,0,-1,321.999664,-88.024414)" style="stroke:#000000;stroke-width:0.05mm;fill:none" d="M166.351807,160.880371C166.351807,159.775803,165.456375,158.880371,164.351807,158.880371L145.00032,158.880371C144.469879,158.880371,143.961151,158.669647,143.586075,158.294556C143.210999,157.919464,143.000305,157.410736,143.00032,156.880295L143.002441,103.17627C143.002335,102.883759,143.066483,102.594788,143.19043,102.329826L150.249512,87.19165C150.710968,86.200394,151.883255,85.763809,152.880615,86.211914L160.222656,89.514404L161.233398,90.00415C172.853455,95.524216,185.736847,97.840836,198.552002,96.7146L205.852051,96.139404C208.280136,95.946419,210.691406,96.678734,212.602051,98.189453L213.172852,98.634521C219.117691,103.17099,226.374283,105.655479,233.852051,105.7146L274.352051,105.7146C274.882507,105.714394,275.391235,105.92514,275.766327,106.300262C276.141388,106.675377,276.352081,107.184143,276.352051,107.7146L276.352051,156.914551C276.351532,158.018982,275.456482,158.914032,274.352051,158.914551L242.352051,158.914551C241.247543,158.915237,240.351852,159.810043,240.352051,160.914551L240.352051,168.914551C240.351883,170.019073,239.456573,170.914383,238.352051,170.914551L224.352051,170.914551C223.821609,170.914536,223.312866,171.125214,222.93779,171.50029C222.562714,171.875366,222.352036,172.384109,222.352051,172.914551L222.352051,173.914551C222.352066,175.019135,221.456635,175.914566,220.352051,175.914551L204.352051,175.914551C203.247498,175.914597,202.352448,175.019104,202.352051,173.914551L202.352051,172.914551C202.352509,172.384064,202.141876,171.875214,201.766678,171.500198C201.391479,171.125183,200.882538,170.91481,200.352051,170.914551L186.052002,170.914551C185.322098,170.912186,184.653793,170.504822,184.317139,169.857178L184.164795,169.648193C183.778763,169.183578,183.206116,168.914749,182.602051,168.914551L168.351807,168.914551C167.247238,168.914551,166.351807,168.019119,166.351807,166.914551L166.351807,160.880371z"/>
    <path transform="matrix(0.999969,0,0,-1,40.651733,-162.187805)" style="stroke:#000000;stroke-width:0.05mm;fill:none" d="M134.201996,41.548069C134.201859,41.813267,134.096527,42.067554,133.909103,42.25518C133.721588,42.44273,133.467209,42.547966,133.201996,42.548069C133.102615,42.548138,133.003769,42.533405,132.908783,42.504162C132.623459,42.416893,132.392181,42.206474,132.278122,41.930759L132.251907,41.860081C132.13414,41.501751,132.228165,41.107658,132.494888,40.840969L132.550156,40.789703C132.836075,40.543633,133.236267,40.479614,133.584686,40.624191C133.958405,40.778877,134.201965,41.143597,134.201996,41.548069z"/>
    <path transform="matrix(0.999969,0,0,-1,40.651733,-162.187805)" style="stroke:#000000;stroke-width:0.05mm;fill:none" d="M131.201996,41.548069C131.201859,41.813274,131.096588,42.067612,130.909103,42.25518C130.721451,42.44257,130.467178,42.547852,130.201996,42.548069C130.102615,42.548126,130.003784,42.533318,129.908783,42.504162C129.62355,42.416729,129.392456,42.206318,129.278122,41.930759L129.251907,41.860081C129.134354,41.501728,129.228348,41.107788,129.494888,40.840969L129.550156,40.789703C129.836273,40.543953,130.236252,40.479782,130.584686,40.624191C130.958359,40.778973,131.201996,41.143604,131.201996,41.548069z"/>
    <path transform="matrix(0.999969,0,0,-1,40.651733,-162.187805)" style="stroke:#000000;stroke-width:0.05mm;fill:none" d="M127.202003,41.548069C127.202202,41.813309,127.096771,42.06773,126.909111,42.25518C126.721481,42.442608,126.467209,42.548023,126.202003,42.548069C126.102623,42.548271,126.003777,42.533344,125.908783,42.504162C125.623573,42.416615,125.392303,42.206387,125.278122,41.930759L125.251907,41.860081C125.134201,41.501728,125.228104,41.107605,125.494888,40.840969L125.550163,40.789703C125.836227,40.543873,126.236259,40.479717,126.584679,40.624191C126.958282,40.77911,127.201973,41.14362,127.202003,41.548069z"/>
    <path transform="matrix(0.999969,0,0,-1,40.651733,-162.187805)" style="stroke:#000000;stroke-width:0.05mm;fill:none" d="M126.101997,46.148071C126.101967,46.700405,125.654327,47.148186,125.101997,47.148071C125.002617,47.148144,124.903763,47.1334,124.808777,47.104164C124.52356,47.016678,124.292427,46.806328,124.178123,46.530762L124.151909,46.460083C124.034157,46.101746,124.128143,45.707638,124.39489,45.440971L124.450157,45.389702C124.736229,45.143925,125.136192,45.079971,125.48468,45.22419C125.858353,45.379021,126.102074,45.743603,126.101997,46.148071z"/>
    <path transform="matrix(0.999865,0,0,-1,40.663849,-161.155823)" style="stroke:#000000;stroke-width:0.05mm;fill:none" d="M121.800003,48.130001C121.800034,48.395226,121.69471,48.649628,121.507111,48.837109C121.319504,49.024536,121.065201,49.129833,120.800003,49.130001C120.676064,49.129997,120.553146,49.107132,120.437683,49.062088C120.18338,48.963234,119.98053,48.764751,119.876122,48.51268L119.849907,48.442005C119.732338,48.083649,119.826317,47.689686,120.092888,47.42289L120.148163,47.371624C120.434181,47.125767,120.83419,47.061855,121.182678,47.20612C121.556374,47.360909,121.80011,47.725521,121.800003,48.130001z"/>
    <path transform="matrix(0.999865,0,0,-1,40.663849,-161.155823)" style="stroke:#000000;stroke-width:0.05mm;fill:none" d="M121.800003,41.630001C121.800034,41.895214,121.694588,42.149517,121.507111,42.337109C121.319458,42.524502,121.065201,42.629955,120.800003,42.630001C120.700623,42.630051,120.601807,42.615177,120.506767,42.586094C120.221603,42.498478,119.990288,42.288307,119.876122,42.01268L119.849907,41.942005C119.732277,41.583649,119.826187,41.18959,120.092888,40.92289L120.148163,40.871624C120.43412,40.625668,120.834213,40.561771,121.182678,40.70612C121.556396,40.860859,121.80011,41.225513,121.800003,41.630001z"/>
    <path transform="matrix(-1,0,0,-1,317.3526,-162.324585)" style="stroke:#000000;stroke-width:0.05mm;fill:none" d="M130.014496,82.448982C130.014206,82.708061,130.147858,82.948997,130.367996,83.085609L130.389496,83.098503C130.621384,83.23278,130.907318,83.232292,131.139496,83.098503C131.371429,82.964455,131.513885,82.716866,131.514496,82.448982L131.514496,51.968971C131.514435,51.770061,131.435516,51.579247,131.294815,51.438641C131.176819,51.320511,131.022644,51.245461,130.856979,51.224701C130.844727,51.223347,130.832474,51.222099,130.82019,51.22105C130.807846,51.220226,130.795486,51.219639,130.783112,51.219212L130.764496,51.218979L115.52449,51.218983C115.338417,51.218666,115.158974,51.288025,115.021111,51.412994L115.007492,51.425636L114.994164,51.438641C114.858147,51.574814,114.779488,51.757946,114.774719,51.950348L114.77449,51.968971L114.77449,82.448975C114.77494,82.707916,114.90844,82.948341,115.127998,83.085609L115.14949,83.098503C115.381592,83.232368,115.667442,83.232452,115.89949,83.098503C116.123543,82.968643,116.265221,82.732849,116.274071,82.474037L116.27449,82.448982L116.27449,52.71896L130.014481,52.71896L130.014496,82.448982z"/>
    <path transform="matrix(-1,0,0,-1,317.3526,-172.35907)" style="stroke:#000000;stroke-width:0.05mm;fill:none" d="M128.908875,12.04568L130.752716,7.77191L129.611649,5.32488L127.053337,4.8076L122.011864,5.11724L117.20842,7.35711L115.766998,9.35331L116.908073,11.800341L122.154747,15.438641C122.375687,15.579239,122.62616,15.666841,122.886574,15.694529C123.267273,15.735151,123.650543,15.64602,123.97422,15.44153L128.577835,12.4191C128.721207,12.328369,128.835938,12.198881,128.908875,12.04568z"/>
    <path transform="matrix(-1,0,0,-1,317.3526,-172.35907)" style="stroke:#000000;stroke-width:0.05mm;fill:none" d="M118.865311,16.304399C118.865311,16.529837,118.775772,16.746052,118.616348,16.905439C118.456993,17.064903,118.240753,17.154457,118.015312,17.1544C117.983353,17.154366,117.951401,17.152546,117.919617,17.149019C117.612396,17.114214,117.348289,16.915348,117.230011,16.629681L117.218277,16.599768C117.102882,16.288328,117.179413,15.93821,117.414268,15.70336L117.437424,15.681069C117.680969,15.455235,118.03376,15.391931,118.340591,15.5191C118.658241,15.650622,118.865303,15.960599,118.865311,16.304399z"/>
    <path transform="matrix(-1,0,0,-1,317.3526,-172.35907)" style="stroke:#000000;stroke-width:0.05mm;fill:none" d="M108.208183,20.64093L111.095322,16.99L110.626457,14.33102L108.289223,13.16923L103.339378,12.163481L98.119888,13.08381L96.210938,14.63893L96.679794,17.297911L100.80603,22.17017C101.051109,22.437357,101.375282,22.619064,101.731079,22.688774C102.007736,22.743061,102.293549,22.727623,102.562752,22.643869L107.791763,20.91593C107.953712,20.865335,108.098007,20.769949,108.208183,20.64093z"/>
    <path transform="matrix(-1,0,0,-1,317.3526,-172.35907)" style="stroke:#000000;stroke-width:0.05mm;fill:none" d="M96.583557,22.785061C96.520012,22.785019,96.456665,22.777925,96.394699,22.763859C96.125984,22.702723,95.90361,22.515005,95.798264,22.260349L95.786522,22.230436C95.671097,21.919001,95.747658,21.568871,95.982521,21.334021L96.005661,21.311731C96.249237,21.085951,96.601982,21.022705,96.908836,21.149771C97.226524,21.281231,97.433578,21.591257,97.433563,21.93507C97.433769,22.160536,97.344185,22.376762,97.184731,22.536165C97.025276,22.695568,96.809021,22.785088,96.583557,22.785061z"/>
    <path transform="matrix(-1,0,0,-1,317.3526,-172.35907)" style="stroke:#000000;stroke-width:0.05mm;fill:none" d="M80.11293,23.73283C79.931252,23.740089,79.74958,23.718113,79.574867,23.667763C79.12812,23.539015,78.753624,23.232847,78.538673,22.820589L75.814064,17.0464L76.049377,14.35667L78.295792,13.348619L83.575623,13.81055L88.096504,16.063139L90.053413,17.79027L89.8181,20.479988L86.084404,23.25927C85.944633,23.355463,85.780525,23.410187,85.610992,23.41713L80.11293,23.73283z"/>
    <path transform="matrix(-1,0,0,-1,317.3526,-172.35907)" style="stroke:#000000;stroke-width:0.05mm;fill:none" d="M75.370934,21.500641C75.370949,21.726078,75.28138,21.942276,75.121971,22.101681C74.962532,22.261042,74.746353,22.350594,74.520927,22.350639C74.446907,22.350649,74.373207,22.341011,74.301689,22.321922C74.046074,22.25374,73.83683,22.070347,73.735626,21.82592L73.723892,21.796007C73.608521,21.48456,73.685043,21.134451,73.919891,20.899599L73.943031,20.87731C74.186577,20.651474,74.539368,20.58819,74.846207,20.71534C75.163818,20.846945,75.370934,21.156847,75.370934,21.500641z"/>
    <path transform="matrix(-1,0,0,-1,317.3526,-172.35907)" style="stroke:#000000;stroke-width:0.05mm;fill:none" d="M103.265266,42.716309C102.985611,42.75214,102.701439,42.717678,102.438431,42.616116C102.100182,42.485611,101.812531,42.250378,101.6175,41.944763L98.400002,36.43L98.400002,33.73L100.550003,32.529999L105.849998,32.529999L110.550003,34.380001L112.650002,35.93L112.650002,38.629997L109.172737,41.724121C109.041779,41.831978,108.883163,41.900906,108.71489,41.922642L103.265266,42.716309z"/>
    <path transform="matrix(-1,0,0,-1,317.3526,-172.35907)" style="stroke:#000000;stroke-width:0.05mm;fill:none" d="M98.349998,40.98C98.350128,41.205444,98.26049,41.421658,98.101044,41.581039C97.941582,41.740383,97.725426,41.829964,97.5,41.830002C97.394646,41.830097,97.290215,41.810455,97.192024,41.772274C96.975845,41.688297,96.803406,41.519566,96.714699,41.305279L96.702965,41.275368C96.587517,40.963943,96.664108,40.613819,96.898956,40.37896L96.922104,40.35667C97.165733,40.130939,97.518456,40.067535,97.825279,40.194698C98.142906,40.32626,98.349991,40.636204,98.349998,40.98z"/>
    <path transform="matrix(-1,0,0,-1,317.3526,-172.35907)" style="stroke:#000000;stroke-width:0.05mm;fill:none" d="M91.172745,43.724121L94.650002,40.630001L94.650002,37.93L92.550003,36.380001L87.849998,34.529999L82.550003,34.529999L80.400002,35.73L80.400002,38.43L83.617493,43.944759C83.779877,44.199417,84.007278,44.406136,84.276215,44.543575C84.580986,44.699448,84.925713,44.759674,85.265266,44.716309L90.71489,43.922638C90.883156,43.900871,91.041901,43.832134,91.172745,43.724121z"/>
    <path transform="matrix(-1,0,0,-1,317.3526,-172.35907)" style="stroke:#000000;stroke-width:0.05mm;fill:none" d="M80.349998,42.98C80.350136,42.647842,80.156624,42.346081,79.854729,42.207554L79.825279,42.194698C79.518417,42.067642,79.165672,42.130878,78.922104,42.35667L78.898956,42.37896C78.664139,42.613834,78.587593,42.963924,78.702965,43.275368L78.714699,43.305279C78.791176,43.48988,78.93026,43.64159,79.107452,43.733936C79.228638,43.797146,79.363319,43.830074,79.5,43.830002C79.725464,43.830162,79.941689,43.740582,80.101105,43.581142C80.260521,43.421703,80.350067,43.205463,80.349998,42.98z"/>
    <path transform="matrix(-1,0,0,-1,317.3526,-172.35907)" style="stroke:#000000;stroke-width:0.05mm;fill:none" d="M67.265266,49.716309C66.844978,49.769993,66.419815,49.6647,66.073112,49.421146C65.891586,49.293633,65.736786,49.131798,65.6175,48.944759L62.399998,43.43L62.399998,40.73L64.550003,39.529999L69.849998,39.529999L74.550003,41.380001L76.650002,42.93L76.650002,45.630001L73.172745,48.724121C73.041962,48.832241,72.883209,48.9011,72.71489,48.922642L67.265266,49.716309z"/>
    <path transform="matrix(-1,0,0,-1,317.3526,-172.35907)" style="stroke:#000000;stroke-width:0.05mm;fill:none" d="M62.10104,48.581039C61.941639,48.740448,61.725433,48.829975,61.5,48.830002C61.310791,48.82996,61.127003,48.766838,60.977707,48.650604C60.861629,48.560192,60.770988,48.441219,60.714699,48.305279L60.702965,48.275368C60.587578,47.963932,60.664162,47.613853,60.89896,47.37896L60.922104,47.35667C61.16563,47.130821,61.518414,47.067627,61.825279,47.194698L61.854729,47.207554C62.156555,47.346184,62.350075,47.647861,62.349998,47.98C62.349976,48.205429,62.260399,48.421597,62.10104,48.581039z"/>
    <path transform="matrix(-1,0,0,-1,317.3526,-172.35907)" style="stroke:#000000;stroke-width:0.05mm;fill:none" d="M55.172737,43.724121L58.649998,40.630001L58.649998,37.93L56.550003,36.380001L51.849998,34.529999L46.550003,34.529999L44.400002,35.73L44.400002,38.43L47.6175,43.944759C47.704529,44.081169,47.810596,44.204437,47.932465,44.310879C48.298363,44.630302,48.783474,44.777836,49.26527,44.716309L54.71489,43.922638C54.883175,43.900951,55.04195,43.832218,55.172737,43.724121z"/>
    <path transform="matrix(-1,0,0,-1,317.3526,-172.35907)" style="stroke:#000000;stroke-width:0.05mm;fill:none" d="M44.10104,43.581039C43.941647,43.740463,43.725437,43.830025,43.5,43.830002C43.278831,43.830044,43.066338,43.743877,42.907742,43.589725C42.824684,43.509056,42.759003,43.412254,42.714699,43.305279L42.702965,43.275368C42.587585,42.963928,42.664135,42.613831,42.89896,42.37896L42.922104,42.35667C43.165688,42.130901,43.518414,42.067661,43.825279,42.194698L43.854729,42.207554C44.15659,42.346115,44.350037,42.647858,44.349998,42.98C44.349976,43.205433,44.260445,43.421635,44.10104,43.581039z"/>
    <path transform="matrix(-1,0,0,-1,317.3526,-172.35907)" style="stroke:#000000;stroke-width:0.05mm;fill:none" d="M37.172741,31.724119L40.650002,28.629999L40.650002,25.93L38.549999,24.379999L33.849998,22.530001L28.549999,22.530001L26.400002,23.73L26.400002,26.429998L29.6175,31.944759C29.682934,32.047367,29.759214,32.142639,29.845018,32.228939C30.217106,32.603069,30.741863,32.783157,31.26527,32.716309L36.71489,31.922642C36.883179,31.900991,37.041901,31.832153,37.172741,31.724119z"/>
    <path transform="matrix(-1,0,0,-1,317.3526,-172.35907)" style="stroke:#000000;stroke-width:0.05mm;fill:none" d="M26.35,30.98C26.350031,30.647861,26.156574,30.346142,25.854731,30.207552L25.825279,30.1947C25.518425,30.067606,25.165649,30.13084,24.922104,30.35667L24.89896,30.37896C24.664099,30.613811,24.587507,30.963942,24.702963,31.275368L24.714701,31.305281C24.747,31.383335,24.790773,31.456131,24.844564,31.521263C25.006048,31.716795,25.246407,31.83,25.5,31.83C25.969505,31.830116,26.350107,31.449505,26.35,30.98z"/>
    <path transform="matrix(-1,0,0,-1,317.3526,-172.35907)" style="stroke:#000000;stroke-width:0.05mm;fill:none" d="M19.172741,31.724119L22.650002,28.629999L22.650002,25.93L20.550001,24.379999L15.85,22.530001L10.549999,22.530001L8.4,23.73L8.4,26.429998L11.617499,31.944759C11.971205,32.499107,12.612989,32.799618,13.26527,32.71632L18.71489,31.922642C18.883181,31.900986,19.041916,31.832172,19.172741,31.724119z"/>
    <path transform="matrix(-1,0,0,-1,317.3526,-172.35907)" style="stroke:#000000;stroke-width:0.05mm;fill:none" d="M8.10104,31.581039C8.260451,31.421638,8.350008,31.205435,8.35,30.98C8.350017,30.647861,8.156571,30.346142,7.85473,30.207552L7.82528,30.1947C7.518434,30.067579,7.165657,30.130844,6.922104,30.35667L6.89896,30.37896C6.68832,30.589584,6.603308,30.895102,6.674874,31.184256C6.685113,31.225534,6.698421,31.265989,6.7147,31.305281C6.84625,31.622919,7.156199,31.830017,7.5,31.83C7.725434,31.83,7.941633,31.740444,8.10104,31.581039z"/>
    <path transform="matrix(-1,0,0,-1,317.3526,-172.35907)" style="stroke:#000000;stroke-width:0.05mm;fill:none" d="M103.265266,59.716309C102.90564,59.762402,102.540733,59.692001,102.223923,59.515675C101.97747,59.378746,101.769127,59.182449,101.6175,58.944759L98.400002,53.43L98.400002,50.73L100.550003,49.529999L105.849998,49.529999L110.550003,51.380001L112.650002,52.93L112.650002,55.630001L109.172737,58.724121C109.041924,58.832161,108.883163,58.90089,108.71489,58.922642L103.265266,59.716309z"/>
    <path transform="matrix(-1,0,0,-1,317.3526,-172.35907)" style="stroke:#000000;stroke-width:0.05mm;fill:none" d="M98.101044,58.581039L98.08593,58.595779L98.070496,58.610107C97.914177,58.75161,97.710854,58.829906,97.5,58.830002C97.352875,58.830002,97.208321,58.791695,97.080315,58.719166C96.91568,58.625881,96.787071,58.480118,96.714699,58.305279L96.702965,58.275368C96.587555,57.963917,96.664001,57.613728,96.898956,57.37896L96.922104,57.35667C97.165543,57.130657,97.518478,57.067364,97.825279,57.194698L97.854729,57.207554C98.156662,57.34602,98.350174,57.647831,98.349998,57.98C98.349915,58.205425,98.260445,58.421638,98.101044,58.581039z"/>
    <path transform="matrix(-1,0,0,-1,317.3526,-172.35907)" style="stroke:#000000;stroke-width:0.05mm;fill:none" d="M91.172745,60.724121L94.650002,57.630001L94.650002,54.93L92.550003,53.379997L87.849998,51.529999L82.550003,51.529999L80.400002,52.729996L80.400002,55.43L83.617493,60.944763C83.736748,61.131824,83.891548,61.293674,84.073112,61.421146C84.419815,61.664696,84.844978,61.769981,85.265266,61.716309L90.71489,60.922642C90.883163,60.900906,91.041893,60.832134,91.172745,60.724121z"/>
    <path transform="matrix(-1,0,0,-1,317.3526,-172.35907)" style="stroke:#000000;stroke-width:0.05mm;fill:none" d="M80.349998,59.98C80.34977,59.647903,80.156456,59.346291,79.854729,59.207554L79.825279,59.194698C79.518433,59.067574,79.165665,59.130856,78.922104,59.35667L78.898956,59.37896C78.664063,59.6138,78.587372,59.963974,78.702965,60.275368L78.714699,60.305279C78.774948,60.450935,78.874527,60.576988,79.002411,60.669132C79.14724,60.773727,79.32135,60.830013,79.5,60.830002C79.969505,60.830162,80.350052,60.449505,80.349998,59.98z"/>
    <path transform="matrix(-1,0,0,-1,317.3526,-172.35907)" style="stroke:#000000;stroke-width:0.05mm;fill:none" d="M73.172745,65.724121L76.650002,62.630001L76.650002,59.93L74.550003,58.379997L69.849998,56.529999L64.550003,56.529999L62.399998,57.729996L62.399998,60.43L65.6175,65.944763C65.693733,66.064285,65.78466,66.173767,65.888077,66.270737C66.257736,66.617172,66.762733,66.780571,67.265266,66.716309L72.71489,65.922638C72.883202,65.901039,73.042015,65.832314,73.172745,65.724121z"/>
    <path transform="matrix(-1,0,0,-1,317.3526,-172.35907)" style="stroke:#000000;stroke-width:0.05mm;fill:none" d="M62.10104,65.581039C62.260532,65.421707,62.349998,65.205444,62.349998,64.980003C62.350052,64.647858,62.156597,64.346107,61.854729,64.20755L61.825279,64.194702C61.518433,64.067566,61.165627,64.130798,60.922104,64.356667L60.89896,64.37896C60.664013,64.613747,60.587475,64.963943,60.702965,65.275368L60.714699,65.305283C60.754879,65.402679,60.812912,65.491737,60.885895,65.567726C61.046192,65.735336,61.268082,65.83007,61.5,65.830002C61.725437,65.830078,61.941612,65.740425,62.10104,65.581039z"/>
    <path transform="matrix(-1,0,0,-1,317.3526,-172.35907)" style="stroke:#000000;stroke-width:0.05mm;fill:none" d="M55.172737,60.724121L58.649998,57.630001L58.649998,54.93L56.550003,53.379997L51.849998,51.529999L46.550003,51.529999L44.400002,52.729996L44.400002,55.43L47.6175,60.944763C47.65041,60.996346,47.686043,61.04615,47.72435,61.093864C48.094566,61.555504,48.678288,61.791267,49.26527,61.716309L54.71489,60.922642C54.883198,60.901093,55.041912,60.832172,55.172737,60.724121z"/>
    <path transform="matrix(-1,0,0,-1,317.3526,-172.35907)" style="stroke:#000000;stroke-width:0.05mm;fill:none" d="M44.10104,60.581039C44.260433,60.421635,44.349873,60.205425,44.349998,59.98C44.350067,59.64785,44.156605,59.346096,43.854729,59.207554L43.825279,59.194698C43.518456,59.067516,43.165676,59.130859,42.922104,59.35667L42.89896,59.37896C42.664043,59.61377,42.587498,59.96394,42.702965,60.275368L42.714699,60.305279C42.742905,60.373722,42.780029,60.438145,42.825134,60.496841C42.985989,60.70686,43.235458,60.830021,43.5,60.830002C43.72543,60.829967,43.941597,60.740398,44.10104,60.581039z"/>
    <path transform="matrix(-1,0,0,-1,317.3526,-172.35907)" style="stroke:#000000;stroke-width:0.05mm;fill:none" d="M31.26527,49.716309C30.612993,49.799629,29.97121,49.499104,29.6175,48.944759L26.400002,43.43L26.400002,40.73L28.549999,39.529999L33.849998,39.529999L38.549999,41.380001L40.650002,42.93L40.650002,45.630001L37.172741,48.724121C37.041908,48.832161,36.883175,48.900967,36.71489,48.922642L31.26527,49.716309z"/>
    <path transform="matrix(-1,0,0,-1,317.3526,-172.35907)" style="stroke:#000000;stroke-width:0.05mm;fill:none" d="M26.35,47.98C26.350063,47.64785,26.156605,47.346096,25.854731,47.207554L25.825279,47.194698C25.518423,47.067623,25.16567,47.130871,24.922104,47.35667L24.89896,47.37896C24.664087,47.613804,24.587509,47.96394,24.702963,48.275368L24.714701,48.305279C24.726913,48.334824,24.740801,48.363651,24.756289,48.391617C24.906017,48.662128,25.190815,48.830017,25.5,48.830002C25.9695,48.830059,26.350132,48.449501,26.35,47.98z"/>
    <path transform="matrix(-1,0,0,-1,317.3526,-172.35907)" style="stroke:#000000;stroke-width:0.05mm;fill:none" d="M19.172741,48.724121L22.650002,45.630001L22.650002,42.93L20.550001,41.380001L15.85,39.529999L10.549999,39.529999L8.4,40.73L8.4,43.43L11.617499,48.944759C11.97121,49.4991,12.612991,49.799603,13.26527,49.716309L18.71489,48.922638C18.883179,48.900986,19.041908,48.832161,19.172741,48.724121z"/>
    <path transform="matrix(-1,0,0,-1,317.3526,-172.35907)" style="stroke:#000000;stroke-width:0.05mm;fill:none" d="M8.10104,48.581039C8.260446,48.421635,8.349987,48.205433,8.35,47.98C8.350029,47.647861,8.156569,47.346149,7.85473,47.207554L7.82528,47.194698C7.518436,47.067566,7.165652,47.130836,6.922104,47.35667L6.89896,47.37896C6.704104,47.573807,6.615799,47.851021,6.662019,48.122681C6.672698,48.185326,6.69036,48.246578,6.7147,48.305279C6.846248,48.622921,7.156198,48.830025,7.5,48.830002C7.725434,48.829994,7.941634,48.740444,8.10104,48.581039z"/>
    <path transform="matrix(-1,0,0,-1,317.3526,-172.35907)" style="stroke:#000000;stroke-width:0.05mm;fill:none" d="M109.172737,75.724121L112.650002,72.629997L112.650002,69.93L110.550003,68.379997L105.849998,66.529999L100.550003,66.529999L98.400002,67.729996L98.400002,70.43L101.6175,75.944763C101.736794,76.131805,101.891541,76.293694,102.073112,76.42115C102.419762,76.664795,102.844978,76.770004,103.265266,76.716309L108.71489,75.922638C108.883141,75.900787,109.041893,75.832115,109.172737,75.724121z"/>
    <path transform="matrix(-1,0,0,-1,317.3526,-172.35907)" style="stroke:#000000;stroke-width:0.05mm;fill:none" d="M98.101044,75.581039C97.941696,75.740532,97.725449,75.830101,97.5,75.830002C97.310806,75.829887,97.12709,75.766701,96.977707,75.650604C96.861534,75.56031,96.771103,75.441177,96.714699,75.305283L96.702965,75.275368C96.587425,74.963974,96.664169,74.613884,96.898956,74.37896L96.922104,74.356667C97.165642,74.130821,97.51844,74.067543,97.825279,74.194702L97.854729,74.20755C98.156601,74.346077,98.34996,74.647865,98.349998,74.980003C98.350212,75.20546,98.260582,75.42173,98.101044,75.581039z"/>
    <path transform="matrix(-1,0,0,-1,317.3526,-172.35907)" style="stroke:#000000;stroke-width:0.05mm;fill:none" d="M85.265266,78.716309C84.783478,78.777824,84.298431,78.630203,83.932465,78.310875C83.810486,78.204559,83.704422,78.081245,83.617493,77.944763L80.400002,72.43L80.400002,69.730003L82.550003,68.529999L87.849998,68.529999L92.550003,70.380005L94.650002,71.93L94.650002,74.629997L91.172745,77.724121C91.04187,77.832085,90.883141,77.900795,90.71489,77.922638L85.265266,78.716309z"/>
    <path transform="matrix(-1,0,0,-1,317.3526,-172.35907)" style="stroke:#000000;stroke-width:0.05mm;fill:none" d="M80.349998,76.980003C80.350151,76.647858,80.156532,76.346237,79.854729,76.20755L79.825279,76.194702C79.518478,76.06736,79.165558,76.130676,78.922104,76.356667L78.898956,76.37896C78.664078,76.6138,78.587456,76.963951,78.702965,77.275368L78.714699,77.305283C78.75882,77.412346,78.824593,77.509132,78.907745,77.589722C79.066513,77.743645,79.27887,77.829811,79.5,77.830002C79.725464,77.829865,79.941734,77.740395,80.101227,77.581032C80.260719,77.421669,80.350365,77.205467,80.349998,76.980003z"/>
    <path transform="matrix(-1,0,0,-1,317.3526,-172.35907)" style="stroke:#000000;stroke-width:0.05mm;fill:none" d="M73.172745,82.724121L76.650002,79.629997L76.650002,76.93L74.550003,75.380005L69.849998,73.529999L64.550003,73.529999L62.399998,74.730003L62.399998,77.43L65.6175,82.944756C65.661308,83.01339,65.709961,83.078804,65.763107,83.14048C66.135567,83.57222,66.699654,83.788498,67.265266,83.716309L72.71489,82.922638C72.883148,82.900841,73.041824,82.832031,73.172745,82.724121z"/>
    <path transform="matrix(-1,0,0,-1,317.3526,-172.35907)" style="stroke:#000000;stroke-width:0.05mm;fill:none" d="M62.10104,82.581039C62.260498,82.421677,62.349991,82.205437,62.349998,81.980003C62.349846,81.647873,62.156616,81.346031,61.854729,81.20755L61.825279,81.194702C61.518353,81.06781,61.165562,81.130753,60.922104,81.356667L60.89896,81.37896C60.664227,81.613914,60.587494,81.963966,60.702965,82.275368L60.714699,82.305283C60.742977,82.373688,60.78017,82.438042,60.825134,82.496841C60.985916,82.706924,61.235455,82.829979,61.5,82.830002C61.725441,82.83007,61.941658,82.740479,62.10104,82.581039z"/>
    <path transform="matrix(-1,0,0,-1,317.3526,-172.35907)" style="stroke:#000000;stroke-width:0.05mm;fill:none" d="M49.26527,78.716309C48.612988,78.799591,47.971172,78.49913,47.6175,77.944763L44.400002,72.43L44.400002,69.730003L46.550003,68.529999L51.849998,68.529999L56.550003,70.380005L58.649998,71.93L58.649998,74.629997L55.172737,77.724121C55.041885,77.83213,54.883175,77.900963,54.71489,77.922638L49.26527,78.716309z"/>
    <path transform="matrix(-1,0,0,-1,317.3526,-172.35907)" style="stroke:#000000;stroke-width:0.05mm;fill:none" d="M44.10104,77.581039C44.26046,77.421646,44.35001,77.205437,44.349998,76.980003C44.350098,76.64785,44.15662,76.346077,43.854729,76.20755L43.825279,76.194702C43.518429,76.067574,43.165619,76.130791,42.922104,76.356667L42.89896,76.37896C42.664028,76.613754,42.587479,76.963943,42.702965,77.275368L42.714699,77.305283C42.731014,77.344559,42.750191,77.382584,42.772118,77.419022C42.926052,77.674034,43.202129,77.829994,43.5,77.830002C43.725437,77.830009,43.94165,77.740463,44.10104,77.581039z"/>
    <path transform="matrix(-1,0,0,-1,317.3526,-172.35907)" style="stroke:#000000;stroke-width:0.05mm;fill:none" d="M37.172741,65.724121L40.650002,62.630001L40.650002,59.93L38.549999,58.379997L33.849998,56.529999L28.549999,56.529999L26.400002,57.729996L26.400002,60.43L29.6175,65.944763C29.971216,66.4991,30.612993,66.799591,31.26527,66.716309L36.71489,65.922638C36.883186,65.901024,37.041927,65.832191,37.172741,65.724121z"/>
    <path transform="matrix(-1,0,0,-1,317.3526,-172.35907)" style="stroke:#000000;stroke-width:0.05mm;fill:none" d="M26.35,64.980003C26.349995,64.647865,26.156561,64.346153,25.854731,64.20755L25.825279,64.194702C25.518421,64.067627,25.16567,64.130867,24.922104,64.356667L24.89896,64.37896C24.664085,64.6138,24.587534,64.963936,24.702963,65.275368L24.714701,65.305283C24.846252,65.622925,25.156195,65.830063,25.5,65.830002C25.969492,65.830101,26.350039,65.449493,26.35,64.980003z"/>
    <path transform="matrix(-1,0,0,-1,317.3526,-172.35907)" style="stroke:#000000;stroke-width:0.05mm;fill:none" d="M19.172741,65.724121L22.650002,62.630001L22.650002,59.93L20.550001,58.379997L15.85,56.529999L10.549999,56.529999L8.4,57.729996L8.4,60.43L11.617499,65.944763C11.971198,66.499115,12.612991,66.799614,13.26527,66.716309L18.71489,65.922638C18.883183,65.901016,19.041883,65.83213,19.172741,65.724121z"/>
    <path transform="matrix(-1,0,0,-1,317.3526,-172.35907)" style="stroke:#000000;stroke-width:0.05mm;fill:none" d="M8.10104,65.581039C8.260457,65.421646,8.350011,65.205437,8.35,64.980003C8.35002,64.647865,8.156576,64.346138,7.85473,64.20755L7.82528,64.194702C7.518436,64.067581,7.165664,64.130852,6.922104,64.356667L6.89896,64.37896C6.711907,64.566017,6.622592,64.829491,6.657334,65.091736C6.667072,65.165115,6.686364,65.2369,6.7147,65.305283C6.846244,65.622925,7.156198,65.830032,7.5,65.830002C7.725433,65.829979,7.941635,65.740448,8.10104,65.581039z"/>
    <path transform="matrix(-1,0,0,-1,317.3526,-172.35907)" style="stroke:#000000;stroke-width:0.05mm;fill:none" d="M95.699997,67.379997C95.70015,66.715706,95.313187,66.112228,94.709457,65.835106L94.650558,65.809402C94.036835,65.555252,93.331306,65.681702,92.844208,66.133339L92.79792,66.177917C92.328262,66.647667,92.175117,67.347862,92.40593,67.970734L92.429398,68.030563C92.549828,68.321899,92.74913,68.573875,93.004822,68.75827C93.294479,68.967468,93.6427,69.080063,94,69.080002C94.939011,69.080223,95.700226,68.319008,95.699997,67.379997z"/>
    <path transform="matrix(-1,0,0,-1,317.3526,-172.35907)" style="stroke:#000000;stroke-width:0.05mm;fill:none" d="M114.650002,18.58C114.64994,19.030861,114.470863,19.463247,114.152077,19.78208C113.833313,20.100946,113.400879,20.280071,112.949997,20.280001C112.864937,20.279978,112.780006,20.273596,112.695892,20.260962C112.106812,20.171947,111.607323,19.78101,111.379402,19.23056L111.355927,19.170736C111.125053,18.547876,111.278183,17.847603,111.747917,17.37792L111.794212,17.33334C112.281319,16.881691,112.98687,16.755165,113.600563,17.009399C114.235832,17.272518,114.65004,17.892399,114.650002,18.58z"/>
    <path transform="matrix(-1,0,0,-1,317.3526,-172.35907)" style="stroke:#000000;stroke-width:0.05mm;fill:none" d="M23.700001,39.48C23.700029,38.815727,23.313135,38.212303,22.709461,37.935104L22.65056,37.909401C22.036867,37.655163,21.331312,37.781685,20.844208,38.233337L20.79792,38.27792C20.328171,38.747597,20.175051,39.447872,20.405928,40.070736L20.429399,40.130562C20.453867,40.189632,20.481638,40.247284,20.512573,40.303238C20.812029,40.844261,21.38163,41.180016,22,41.18C22.939013,41.180229,23.700233,40.41901,23.700001,39.48z"/>
    <path transform="matrix(-1,0,0,-1,317.3526,-172.35907)" style="stroke:#000000;stroke-width:0.05mm;fill:none" d="M23.700001,56.48C23.700045,55.815723,23.313148,55.21228,22.709461,54.935104L22.65056,54.909401C22.036871,54.655151,21.33132,54.781696,20.844208,55.233337L20.79792,55.27792C20.328176,55.747601,20.175064,56.447872,20.405928,57.070736L20.429399,57.130562C20.692493,57.765842,21.312393,58.180054,22,58.18C22.45093,58.180218,22.883396,58.001099,23.202255,57.682243C23.521112,57.363392,23.700243,56.930931,23.700001,56.48z"/>
    <path transform="matrix(1,0,0,-1,38.000305,-88.024414)" style="stroke:#000000;stroke-width:0.05mm;fill:none" d="M166.351807,160.880371C166.351807,159.775803,165.456375,158.880371,164.351807,158.880371L145.00032,158.880371C144.469879,158.880371,143.961151,158.669647,143.586075,158.294556C143.210999,157.919464,143.000305,157.410736,143.00032,156.880295L143.002441,103.17627C143.002335,102.883759,143.066483,102.594788,143.19043,102.329826L150.249512,87.19165C150.710968,86.200394,151.883255,85.763809,152.880615,86.211914L160.222656,89.514404L161.233398,90.00415C172.853455,95.524216,185.736847,97.840836,198.552002,96.7146L205.852051,96.139404C208.280136,95.946419,210.691406,96.678734,212.602051,98.189453L213.172852,98.634521C219.117691,103.17099,226.374283,105.655479,233.852051,105.7146L274.352051,105.7146C274.882507,105.714394,275.391235,105.92514,275.766327,106.300262C276.141388,106.675377,276.352081,107.184143,276.352051,107.7146L276.352051,156.914551C276.351532,158.018982,275.456482,158.914032,274.352051,158.914551L242.352051,158.914551C241.247543,158.915237,240.351852,159.810043,240.352051,160.914551L240.352051,168.914551C240.351883,170.019073,239.456573,170.914383,238.352051,170.914551L224.352051,170.914551C223.821609,170.914536,223.312866,171.125214,222.93779,171.50029C222.562714,171.875366,222.352036,172.384109,222.352051,172.914551L222.352051,173.914551C222.352066,175.019135,221.456635,175.914566,220.352051,175.914551L204.352051,175.914551C203.247498,175.914597,202.352448,175.019104,202.352051,173.914551L202.352051,172.914551C202.352509,172.384064,202.141876,171.875214,201.766678,171.500198C201.391479,171.125183,200.882538,170.91481,200.352051,170.914551L186.052002,170.914551C185.322098,170.912186,184.653793,170.504822,184.317139,169.857178L184.164795,169.648193C183.778763,169.183578,183.206116,168.914749,182.602051,168.914551L168.351807,168.914551C167.247238,168.914551,166.351807,168.019119,166.351807,166.914551L166.351807,160.880371z"/>
    <path transform="matrix(-0.999976,0,0,-1,319.349976,-160.087769)" style="stroke:#000000;stroke-width:0.05mm;fill:none" d="M134.201996,48.24807C134.202042,48.513283,134.096558,48.767567,133.909103,48.955181C133.721512,49.142651,133.467209,49.248074,133.201996,49.24807C133.102615,49.248127,133.003784,49.23333,132.908783,49.204163C132.623459,49.116867,132.392059,48.906536,132.278122,48.63076L132.251907,48.560081C132.134064,48.201763,132.228088,47.807617,132.494888,47.54097L132.550156,47.489704C132.836273,47.243961,133.236252,47.179806,133.584686,47.324188C133.958328,47.479023,134.201935,47.843616,134.201996,48.24807z"/>
    <path transform="matrix(-0.999976,0,0,-1,319.349976,-160.087769)" style="stroke:#000000;stroke-width:0.05mm;fill:none" d="M131.201996,48.24807C131.202118,48.513313,131.096817,48.767788,130.909103,48.955181C130.721542,49.142685,130.467209,49.248035,130.201996,49.24807C130.102615,49.248119,130.003815,49.233242,129.908783,49.204163C129.62355,49.116707,129.392334,48.906376,129.278122,48.63076L129.251907,48.560081C129.134201,48.201729,129.228088,47.80759,129.494888,47.54097L129.550156,47.489704C129.836182,47.243813,130.236237,47.179775,130.584686,47.324188C130.95842,47.478882,131.202057,47.843586,131.201996,48.24807z"/>
    <path transform="matrix(-0.999976,0,0,-1,319.349976,-160.087769)" style="stroke:#000000;stroke-width:0.05mm;fill:none" d="M127.202003,48.24807C127.202103,48.513298,127.096718,48.767696,126.909111,48.955181C126.721512,49.142651,126.467216,49.248104,126.202003,49.24807C126.078056,49.248161,125.955193,49.22509,125.839684,49.180157C125.585388,49.081284,125.382553,48.882813,125.278122,48.63076L125.251907,48.560081C125.134407,48.201691,125.228149,47.807621,125.494888,47.54097L125.550163,47.489704C125.836128,47.243729,126.236237,47.17971,126.584679,47.324188C126.958344,47.479015,127.202057,47.843601,127.202003,48.24807z"/>
    <path transform="matrix(-0.999976,0,0,-1,319.349976,-160.087769)" style="stroke:#000000;stroke-width:0.05mm;fill:none" d="M126.101997,43.648071C126.10202,43.913326,125.996696,44.16774,125.809174,44.355331C125.621643,44.542927,125.367249,44.648323,125.101997,44.648071C125.002609,44.648239,124.903778,44.633362,124.808777,44.604164C124.523582,44.516624,124.29245,44.306309,124.178123,44.030762L124.151909,43.960083C124.034286,43.601727,124.12822,43.207695,124.39489,42.940971L124.450157,42.889702C124.73616,42.643768,125.136253,42.5797,125.48468,42.72419C125.858391,42.878929,126.102043,43.243595,126.101997,43.648071z"/>
    <path transform="matrix(-0.99987,0,0,-1,319.337158,-161.155823)" style="stroke:#000000;stroke-width:0.05mm;fill:none" d="M121.800003,48.130001C121.800034,48.395226,121.69471,48.649628,121.507111,48.837109C121.319504,49.024536,121.065201,49.129833,120.800003,49.130001C120.676064,49.129997,120.553146,49.107132,120.437683,49.062088C120.18338,48.963234,119.98053,48.764751,119.876122,48.51268L119.849907,48.442005C119.732338,48.083649,119.826317,47.689686,120.092888,47.42289L120.148163,47.371624C120.434181,47.125767,120.83419,47.061855,121.182678,47.20612C121.556374,47.360909,121.80011,47.725521,121.800003,48.130001z"/>
    <path transform="matrix(-0.99987,0,0,-1,319.337158,-161.155823)" style="stroke:#000000;stroke-width:0.05mm;fill:none" d="M121.800003,41.630001C121.800034,41.895214,121.694588,42.149517,121.507111,42.337109C121.319458,42.524502,121.065201,42.629955,120.800003,42.630001C120.700623,42.630051,120.601807,42.615177,120.506767,42.586094C120.221603,42.498478,119.990288,42.288307,119.876122,42.01268L119.849907,41.942005C119.732277,41.583649,119.826187,41.18959,120.092888,40.92289L120.148163,40.871624C120.43412,40.625668,120.834213,40.561771,121.182678,40.70612C121.556396,40.860859,121.80011,41.225513,121.800003,41.630001z"/>
</svg>
