<?xml version="1.0" encoding="UTF-8" standalone="no"?>
<svg xmlns="http://www.w3.org/2000/svg" xmlns:xlink="http://www.w3.org/1999/xlink" width="267.770mm" height="89.780mm" viewBox="-275.885010 -308.078064 267.769989 89.780090">
    <path transform="matrix(1,0,0,-1,-143.53302,-216.498047)" style="stroke:#000000;stroke-width:0.05mm;fill:none" d="M126.261238,1.97546L126.355217,1.936106C127.337334,1.554244,128.447174,2.00002,128.892258,2.95514L135.232513,16.55175C135.45668,17.032486,135.480713,17.582584,135.299286,18.08103C135.117859,18.57947,134.745895,18.985472,134.265137,19.209599L114.730118,28.31893C113.709381,28.794859,113.041206,29.802399,112.999977,30.927885L112.997971,31.036831L113.000214,82.580002C113.000504,83.110504,112.789757,83.619286,112.414627,83.994408C112.039513,84.369522,111.530724,84.580238,111.000214,84.580002L96.75,84.580002C96.05471,84.579994,95.407761,84.935631,95.035088,85.522606L94.999977,85.579987C94.657043,86.197357,94.006218,86.580116,93.300003,86.580002L79,86.580002C78.503853,86.579933,78.025383,86.764328,77.657654,87.097397L77.585793,87.165787C77.234978,87.516617,77.027061,87.985298,77.002457,88.480827L77,88.580002L77,89.580002C77.000153,90.110504,76.789467,90.619316,76.414368,90.994469C76.039276,91.369621,75.530502,91.580391,75,91.580002L59,91.580002C58.334888,91.580406,57.713127,91.24987,57.341568,90.698219C57.118412,90.368042,56.999416,89.978516,57,89.580002L57,88.580002C57.000057,88.083855,56.815701,87.605362,56.482601,87.237656L56.414211,87.165787C56.063385,86.814972,55.5947,86.607079,55.099174,86.582458L55,86.580002L41,86.580002C40.231304,86.580124,39.530544,86.139755,39.19722,85.447083C39.067024,85.176598,38.999596,84.880196,39,84.580002L39,76.580002C38.999989,76.08387,38.815594,75.605446,38.482601,75.237656L38.414211,75.165787C38.063412,74.814941,37.594704,74.607056,37.099174,74.582458L37,74.580002L5,74.580002C4.469565,74.580009,3.960856,74.369293,3.58579,73.994209C3.234962,73.643394,3.027058,73.174706,3.002458,72.679176L3,72.580002L3,23.380001L3.002458,23.280827C3.027062,22.785301,3.234967,22.316608,3.58579,21.96579L3.657654,21.897402C4.025439,21.564405,4.503864,21.379997,5,21.379999L45.5,21.380001C53.225616,21.319019,60.707691,18.669483,66.75,13.855L67.113991,13.580883C68.966225,12.253511,71.228424,11.62442,73.5,11.805L80.800003,12.38C82.035019,12.488533,83.272644,12.565269,84.511597,12.610117C96.488579,13.043514,108.38517,10.490108,119.129402,5.18L126.261238,1.97546z"/>
    <path transform="matrix(1,0,0,-1,-143.53302,-216.498047)" style="stroke:#000000;stroke-width:0.05mm;fill:none" d="M96,47.98L110,47.98L110,33.98L96,33.98L96,47.98z"/>
    <path transform="matrix(1,0,0,-1,-143.53302,-216.498047)" style="stroke:#000000;stroke-width:0.05mm;fill:none" d="M78,49.980003L92,49.980003L92,35.98L78,35.98L78,49.980003z"/>
    <path transform="matrix(1,0,0,-1,-143.53302,-216.498047)" style="stroke:#000000;stroke-width:0.05mm;fill:none" d="M24,37.98L38,37.98L38,23.98L24,23.98L24,37.98z"/>
    <path transform="matrix(1,0,0,-1,-143.53302,-216.498047)" style="stroke:#000000;stroke-width:0.05mm;fill:none" d="M42,83.979996L56,83.979996L56,69.980003L42,69.980003L42,83.979996z"/>
    <path transform="matrix(1,0,0,-1,-143.53302,-216.498047)" style="stroke:#000000;stroke-width:0.05mm;fill:none" d="M6,54.980003L20,54.980003L20,40.98L6,40.98L6,54.980003z"/>
    <path transform="matrix(1,0,0,-1,-143.53302,-216.498047)" style="stroke:#000000;stroke-width:0.05mm;fill:none" d="M78,83.979996L92,83.979996L92,69.980003L78,69.980003L78,83.979996z"/>
    <path transform="matrix(1,0,0,-1,-143.53302,-216.498047)" style="stroke:#000000;stroke-width:0.05mm;fill:none" d="M42,66.979996L56,66.979996L56,52.98L42,52.98L42,66.979996z"/>
    <path transform="matrix(1,0,0,-1,-143.53302,-216.498047)" style="stroke:#000000;stroke-width:0.05mm;fill:none" d="M72.41655,28.343269L86.363266,29.56345L87.58345,15.616731L73.636734,14.396549L72.41655,28.343269z"/>
    <path transform="matrix(1,0,0,-1,-143.53302,-216.498047)" style="stroke:#000000;stroke-width:0.05mm;fill:none" d="M24,71.979996L38,71.979996L38,57.98L24,57.98L24,71.979996z"/>
    <path transform="matrix(1,0,0,-1,-143.53302,-216.498047)" style="stroke:#000000;stroke-width:0.05mm;fill:none" d="M78,66.979996L92,66.979996L92,52.98L78,52.98L78,66.979996z"/>
    <path transform="matrix(1,0,0,-1,-143.53302,-216.498047)" style="stroke:#000000;stroke-width:0.05mm;fill:none" d="M60,54.980003L74,54.980003L74,40.98L60,40.98L60,54.980003z"/>
    <path transform="matrix(1,0,0,-1,-143.53302,-216.498047)" style="stroke:#000000;stroke-width:0.05mm;fill:none" d="M60,88.979996L74,88.979996L74,74.980003L60,74.980003L60,88.979996z"/>
    <path transform="matrix(1,0,0,-1,-143.53302,-216.498047)" style="stroke:#000000;stroke-width:0.05mm;fill:none" d="M42,49.980003L56,49.980003L56,35.98L42,35.98L42,49.980003z"/>
    <path transform="matrix(1,0,0,-1,-143.53302,-216.498047)" style="stroke:#000000;stroke-width:0.05mm;fill:none" d="M96,64.980003L110,64.980003L110,50.98L96,50.98L96,64.980003z"/>
    <path transform="matrix(1,0,0,-1,-143.53302,-216.498047)" style="stroke:#000000;stroke-width:0.05mm;fill:none" d="M119.614166,23.28248L132.30249,17.365829L126.385834,4.67752L113.697517,10.59417L119.614166,23.28248z"/>
    <path transform="matrix(1,0,0,-1,-143.53302,-216.498047)" style="stroke:#000000;stroke-width:0.05mm;fill:none" d="M24,54.980003L38,54.980003L38,40.98L24,40.98L24,54.980003z"/>
    <path transform="matrix(1,0,0,-1,-143.53302,-216.498047)" style="stroke:#000000;stroke-width:0.05mm;fill:none" d="M96,81.979996L110,81.979996L110,67.979996L96,67.979996L96,81.979996z"/>
    <path transform="matrix(1,0,0,-1,-143.53302,-216.498047)" style="stroke:#000000;stroke-width:0.05mm;fill:none" d="M6,37.98L20,37.98L20,23.98L6,23.98L6,37.98z"/>
    <path transform="matrix(1,0,0,-1,-143.53302,-216.498047)" style="stroke:#000000;stroke-width:0.05mm;fill:none" d="M60,71.979996L74,71.979996L74,57.98L60,57.98L60,71.979996z"/>
    <path transform="matrix(1,0,0,-1,-143.53302,-216.498047)" style="stroke:#000000;stroke-width:0.05mm;fill:none" d="M6,71.979996L20,71.979996L20,57.98L6,57.98L6,71.979996z"/>
    <path transform="matrix(1,0,0,-1,-143.53302,-216.498047)" style="stroke:#000000;stroke-width:0.05mm;fill:none" d="M96.321877,29.089191L110.109177,26.658119L107.678123,12.87081L93.890808,15.30188L96.321877,29.089191z"/>
    <circle transform="matrix(-1,0,0,1,-121.532013,-272.98056)" style="stroke:#000000;stroke-width:0.05mm;fill:none" r="1.049993" cx="0" cy="0"/>
    <circle transform="matrix(-1,0,0,1,-121.532013,-255.98056)" style="stroke:#000000;stroke-width:0.05mm;fill:none" r="1.049993" cx="0" cy="0"/>
    <circle transform="matrix(-1,0,0,1,-49.532017,-283.98056)" style="stroke:#000000;stroke-width:0.05mm;fill:none" r="1.049993" cx="0" cy="0"/>
    <circle transform="matrix(-1,0,0,1,-30.582016,-235.080566)" style="stroke:#000000;stroke-width:0.05mm;fill:none" r="1.049993" cx="0" cy="0"/>
    <path transform="matrix(-1,0,0,-1,-140.46701,-216.498047)" style="stroke:#000000;stroke-width:0.05mm;fill:none" d="M126.261238,1.97546L126.355217,1.936106C127.337334,1.554244,128.447174,2.00002,128.892258,2.95514L135.232513,16.55175C135.45668,17.032486,135.480713,17.582584,135.299286,18.08103C135.117859,18.57947,134.745895,18.985472,134.265137,19.209599L114.730118,28.31893C113.709381,28.794859,113.041206,29.802399,112.999977,30.927885L112.997971,31.036831L113.000214,82.580002C113.000504,83.110504,112.789757,83.619286,112.414627,83.994408C112.039513,84.369522,111.530724,84.580238,111.000214,84.580002L96.75,84.580002C96.05471,84.579994,95.407761,84.935631,95.035088,85.522606L94.999977,85.579987C94.657043,86.197357,94.006218,86.580116,93.300003,86.580002L79,86.580002C78.503853,86.579933,78.025383,86.764328,77.657654,87.097397L77.585793,87.165787C77.234978,87.516617,77.027061,87.985298,77.002457,88.480827L77,88.580002L77,89.580002C77.000153,90.110504,76.789467,90.619316,76.414368,90.994469C76.039276,91.369621,75.530502,91.580391,75,91.580002L59,91.580002C58.334888,91.580406,57.713127,91.24987,57.341568,90.698219C57.118412,90.368042,56.999416,89.978516,57,89.580002L57,88.580002C57.000057,88.083855,56.815701,87.605362,56.482601,87.237656L56.414211,87.165787C56.063385,86.814972,55.5947,86.607079,55.099174,86.582458L55,86.580002L41,86.580002C40.231304,86.580124,39.530544,86.139755,39.19722,85.447083C39.067024,85.176598,38.999596,84.880196,39,84.580002L39,76.580002C38.999989,76.08387,38.815594,75.605446,38.482601,75.237656L38.414211,75.165787C38.063412,74.814941,37.594704,74.607056,37.099174,74.582458L37,74.580002L5,74.580002C4.469565,74.580009,3.960856,74.369293,3.58579,73.994209C3.234962,73.643394,3.027058,73.174706,3.002458,72.679176L3,72.580002L3,23.380001L3.002458,23.280827C3.027062,22.785301,3.234967,22.316608,3.58579,21.96579L3.657654,21.897402C4.025439,21.564405,4.503864,21.379997,5,21.379999L45.5,21.380001C53.225616,21.319019,60.707691,18.669483,66.75,13.855L67.113991,13.580883C68.966225,12.253511,71.228424,11.62442,73.5,11.805L80.800003,12.38C82.035019,12.488533,83.272644,12.565269,84.511597,12.610117C96.488579,13.043514,108.38517,10.490108,119.129402,5.18L126.261238,1.97546z"/>
    <path transform="matrix(-1,0,0,-1,-140.46701,-216.498047)" style="stroke:#000000;stroke-width:0.05mm;fill:none" d="M96,47.98L110,47.98L110,33.98L96,33.98L96,47.98z"/>
    <path transform="matrix(-1,0,0,-1,-140.46701,-216.498047)" style="stroke:#000000;stroke-width:0.05mm;fill:none" d="M78,49.980003L92,49.980003L92,35.98L78,35.98L78,49.980003z"/>
    <path transform="matrix(-1,0,0,-1,-140.46701,-216.498047)" style="stroke:#000000;stroke-width:0.05mm;fill:none" d="M24,37.98L38,37.98L38,23.98L24,23.98L24,37.98z"/>
    <path transform="matrix(-1,0,0,-1,-140.46701,-216.498047)" style="stroke:#000000;stroke-width:0.05mm;fill:none" d="M42,83.979996L56,83.979996L56,69.980003L42,69.980003L42,83.979996z"/>
    <path transform="matrix(-1,0,0,-1,-140.46701,-216.498047)" style="stroke:#000000;stroke-width:0.05mm;fill:none" d="M6,54.980003L20,54.980003L20,40.98L6,40.98L6,54.980003z"/>
    <path transform="matrix(-1,0,0,-1,-140.46701,-216.498047)" style="stroke:#000000;stroke-width:0.05mm;fill:none" d="M78,83.979996L92,83.979996L92,69.980003L78,69.980003L78,83.979996z"/>
    <path transform="matrix(-1,0,0,-1,-140.46701,-216.498047)" style="stroke:#000000;stroke-width:0.05mm;fill:none" d="M42,66.979996L56,66.979996L56,52.98L42,52.98L42,66.979996z"/>
    <path transform="matrix(-1,0,0,-1,-140.46701,-216.498047)" style="stroke:#000000;stroke-width:0.05mm;fill:none" d="M72.41655,28.343269L86.363266,29.56345L87.58345,15.616731L73.636734,14.396549L72.41655,28.343269z"/>
    <path transform="matrix(-1,0,0,-1,-140.46701,-216.498047)" style="stroke:#000000;stroke-width:0.05mm;fill:none" d="M24,71.979996L38,71.979996L38,57.98L24,57.98L24,71.979996z"/>
    <path transform="matrix(-1,0,0,-1,-140.46701,-216.498047)" style="stroke:#000000;stroke-width:0.05mm;fill:none" d="M78,66.979996L92,66.979996L92,52.98L78,52.98L78,66.979996z"/>
    <path transform="matrix(-1,0,0,-1,-140.46701,-216.498047)" style="stroke:#000000;stroke-width:0.05mm;fill:none" d="M60,54.980003L74,54.980003L74,40.98L60,40.98L60,54.980003z"/>
    <path transform="matrix(-1,0,0,-1,-140.46701,-216.498047)" style="stroke:#000000;stroke-width:0.05mm;fill:none" d="M60,88.979996L74,88.979996L74,74.980003L60,74.980003L60,88.979996z"/>
    <path transform="matrix(-1,0,0,-1,-140.46701,-216.498047)" style="stroke:#000000;stroke-width:0.05mm;fill:none" d="M42,49.980003L56,49.980003L56,35.98L42,35.98L42,49.980003z"/>
    <path transform="matrix(-1,0,0,-1,-140.46701,-216.498047)" style="stroke:#000000;stroke-width:0.05mm;fill:none" d="M96,64.980003L110,64.980003L110,50.98L96,50.98L96,64.980003z"/>
    <path transform="matrix(-1,0,0,-1,-140.46701,-216.498047)" style="stroke:#000000;stroke-width:0.05mm;fill:none" d="M119.614166,23.28248L132.30249,17.365829L126.385834,4.67752L113.697517,10.59417L119.614166,23.28248z"/>
    <path transform="matrix(-1,0,0,-1,-140.46701,-216.498047)" style="stroke:#000000;stroke-width:0.05mm;fill:none" d="M24,54.980003L38,54.980003L38,40.98L24,40.98L24,54.980003z"/>
    <path transform="matrix(-1,0,0,-1,-140.46701,-216.498047)" style="stroke:#000000;stroke-width:0.05mm;fill:none" d="M96,81.979996L110,81.979996L110,67.979996L96,67.979996L96,81.979996z"/>
    <path transform="matrix(-1,0,0,-1,-140.46701,-216.498047)" style="stroke:#000000;stroke-width:0.05mm;fill:none" d="M6,37.98L20,37.98L20,23.98L6,23.98L6,37.98z"/>
    <path transform="matrix(-1,0,0,-1,-140.46701,-216.498047)" style="stroke:#000000;stroke-width:0.05mm;fill:none" d="M60,71.979996L74,71.979996L74,57.98L60,57.98L60,71.979996z"/>
    <path transform="matrix(-1,0,0,-1,-140.46701,-216.498047)" style="stroke:#000000;stroke-width:0.05mm;fill:none" d="M6,71.979996L20,71.979996L20,57.98L6,57.98L6,71.979996z"/>
    <path transform="matrix(-1,0,0,-1,-140.46701,-216.498047)" style="stroke:#000000;stroke-width:0.05mm;fill:none" d="M96.321877,29.089191L110.109177,26.658119L107.678123,12.87081L93.890808,15.30188L96.321877,29.089191z"/>
    <circle transform="translate(-162.468018,-272.98056)" style="stroke:#000000;stroke-width:0.05mm;fill:none" r="1.049993" cx="0" cy="0"/>
    <circle transform="translate(-162.468018,-255.98056)" style="stroke:#000000;stroke-width:0.05mm;fill:none" r="1.049993" cx="0" cy="0"/>
    <circle transform="translate(-234.468018,-283.98056)" style="stroke:#000000;stroke-width:0.05mm;fill:none" r="1.049993" cx="0" cy="0"/>
    <circle transform="translate(-253.418015,-235.080566)" style="stroke:#000000;stroke-width:0.05mm;fill:none" r="1.049993" cx="0" cy="0"/>
</svg>
