  0
SECTION
  2
HEADER
  9
$ACADVER
  1
AC1009
  0
ENDSEC
  0
SECTION
  2
ENTITIES
  0
POLYLINE
  5
90
  8
Layer_1
  62
0
  66
1
  10
0
  20
0
  30
0
  0
VERTEX
  5
90
  8
Layer_1
  10
341.05997
  20
290.24565
  42
0.19898692
  0
VERTEX
  5
91
  8
Layer_1
  10
341.12006
  20
291.62202
  42
0.17322481
  0
VERTEX
  5
92
  8
Layer_1
  10
340.3468
  20
292.55457
  42
0.022788682
  0
VERTEX
  5
93
  8
Layer_1
  10
340.18927
  20
292.63774
  0
VERTEX
  5
94
  8
Layer_1
  10
320.487
  20
301.82536
  42
-0.28170483
  0
VERTEX
  5
95
  8
Layer_1
  10
318.72803
  20
304.47931
  0
VERTEX
  5
96
  8
Layer_1
  10
318.72601
  20
304.59012
  0
VERTEX
  5
97
  8
Layer_1
  10
318.72601
  20
356.23836
  42
0.19889318
  0
VERTEX
  5
98
  8
Layer_1
  10
318.19879
  20
357.51115
  42
0.17329653
  0
VERTEX
  5
99
  8
Layer_1
  10
317.10391
  20
358.02956
  42
0.02479774
  0
VERTEX
  5
9a
  8
Layer_1
  10
316.92599
  20
358.03836
  0
VERTEX
  5
9b
  8
Layer_1
  10
302.37601
  20
358.03836
  42
-0.25674111
  0
VERTEX
  5
9c
  8
Layer_1
  10
300.66107
  20
358.98097
  0
VERTEX
  5
9d
  8
Layer_1
  10
300.62598
  20
359.03835
  42
0.24526425
  0
VERTEX
  5
9e
  8
Layer_1
  10
299.12296
  20
360.0284
  42
0.025322643
  0
VERTEX
  5
9f
  8
Layer_1
  10
298.92599
  20
360.03836
  0
VERTEX
  5
a0
  8
Layer_1
  10
284.62601
  20
360.03836
  42
-0.18606085
  0
VERTEX
  5
a1
  8
Layer_1
  10
283.28366
  20
360.55576
  0
VERTEX
  5
a2
  8
Layer_1
  10
283.21179
  20
360.62415
  42
-0.18605817
  0
VERTEX
  5
a3
  8
Layer_1
  10
282.62845
  20
361.93919
  0
VERTEX
  5
a4
  8
Layer_1
  10
282.62601
  20
362.03836
  0
VERTEX
  5
a5
  8
Layer_1
  10
282.62601
  20
363.03836
  42
0.3846208
  0
VERTEX
  5
a6
  8
Layer_1
  10
280.83051
  20
365.02803
  42
0.025274176
  0
VERTEX
  5
a7
  8
Layer_1
  10
280.62601
  20
365.03836
  0
VERTEX
  5
a8
  8
Layer_1
  10
264.62601
  20
365.03836
  0
VERTEX
  5
a9
  8
Layer_1
  10
264.52682
  20
365.0359
  42
0.18605901
  0
VERTEX
  5
aa
  8
Layer_1
  10
263.21179
  20
364.45258
  0
VERTEX
  5
ab
  8
Layer_1
  10
263.1434
  20
364.38071
  42
0.18605439
  0
VERTEX
  5
ac
  8
Layer_1
  10
262.62601
  20
363.03836
  0
VERTEX
  5
ad
  8
Layer_1
  10
262.62601
  20
362.03836
  42
-0.1989187
  0
VERTEX
  5
ae
  8
Layer_1
  10
262.04022
  20
360.62415
  42
-0.1989134
  0
VERTEX
  5
af
  8
Layer_1
  10
260.62601
  20
360.03836
  0
VERTEX
  5
b0
  8
Layer_1
  10
246.62601
  20
360.03836
  0
VERTEX
  5
b1
  8
Layer_1
  10
246.52682
  20
360.0359
  42
0.18605239
  0
VERTEX
  5
b2
  8
Layer_1
  10
245.21179
  20
359.45258
  0
VERTEX
  5
b3
  8
Layer_1
  10
245.1434
  20
359.38071
  42
0.18604836
  0
VERTEX
  5
b4
  8
Layer_1
  10
244.62601
  20
358.03836
  0
VERTEX
  5
b5
  8
Layer_1
  10
244.62601
  20
350.03836
  42
-0.19891424
  0
VERTEX
  5
b6
  8
Layer_1
  10
244.04022
  20
348.62415
  42
-0.19891209
  0
VERTEX
  5
b7
  8
Layer_1
  10
242.62601
  20
348.03836
  0
VERTEX
  5
b8
  8
Layer_1
  10
210.62601
  20
348.03836
  0
VERTEX
  5
b9
  8
Layer_1
  10
210.52682
  20
348.0359
  42
0.18605397
  0
VERTEX
  5
ba
  8
Layer_1
  10
209.21179
  20
347.45258
  0
VERTEX
  5
bb
  8
Layer_1
  10
209.1434
  20
347.38071
  42
0.18605358
  0
VERTEX
  5
bc
  8
Layer_1
  10
208.62601
  20
346.03836
  0
VERTEX
  5
bd
  8
Layer_1
  10
208.62601
  20
296.83836
  42
0.19891493
  0
VERTEX
  5
be
  8
Layer_1
  10
209.21179
  20
295.42415
  42
0.19891369
  0
VERTEX
  5
bf
  8
Layer_1
  10
210.62601
  20
294.83836
  0
VERTEX
  5
c0
  8
Layer_1
  10
251.12601
  20
294.83836
  42
-0.1623896
  0
VERTEX
  5
c1
  8
Layer_1
  10
271.80536
  20
287.75836
  0
VERTEX
  5
c2
  8
Layer_1
  10
272.37601
  20
287.31335
  42
0.18930697
  0
VERTEX
  5
c3
  8
Layer_1
  10
279.12601
  20
285.26337
  0
VERTEX
  5
c4
  8
Layer_1
  10
286.42599
  20
285.83836
  42
-0.1331542
  0
VERTEX
  5
c5
  8
Layer_1
  10
323.63812
  20
279.17867
  0
VERTEX
  5
c6
  8
Layer_1
  10
324.7554
  20
278.63837
  0
VERTEX
  5
c7
  8
Layer_1
  10
332.13986
  20
275.31693
  42
0.41035534
  0
VERTEX
  5
c8
  8
Layer_1
  10
334.50934
  20
276.19791
  0
VERTEX
  5
c9
  8
Layer_1
  10
341.05997
  20
290.24565
  0
SEQEND
  0
POLYLINE
  5
cb
  8
Layer_0
  62
5
  66
1
  10
0
  20
0
  30
0
  0
VERTEX
  5
cb
  8
Layer_0
  10
301.62601
  20
321.43835
  0
VERTEX
  5
cc
  8
Layer_0
  10
315.62601
  20
321.43835
  0
VERTEX
  5
cd
  8
Layer_0
  10
315.62601
  20
307.43835
  0
VERTEX
  5
ce
  8
Layer_0
  10
301.62601
  20
307.43835
  0
VERTEX
  5
cf
  8
Layer_0
  10
301.62601
  20
321.43835
  0
SEQEND
  0
POLYLINE
  5
d1
  8
Layer_0
  62
5
  66
1
  10
0
  20
0
  30
0
  0
VERTEX
  5
d1
  8
Layer_0
  10
283.62601
  20
323.43835
  0
VERTEX
  5
d2
  8
Layer_0
  10
297.62601
  20
323.43835
  0
VERTEX
  5
d3
  8
Layer_0
  10
297.62601
  20
309.43835
  0
VERTEX
  5
d4
  8
Layer_0
  10
283.62601
  20
309.43835
  0
VERTEX
  5
d5
  8
Layer_0
  10
283.62601
  20
323.43835
  0
SEQEND
  0
POLYLINE
  5
d7
  8
Layer_0
  62
5
  66
1
  10
0
  20
0
  30
0
  0
VERTEX
  5
d7
  8
Layer_0
  10
229.62601
  20
311.43835
  0
VERTEX
  5
d8
  8
Layer_0
  10
243.62601
  20
311.43835
  0
VERTEX
  5
d9
  8
Layer_0
  10
243.62601
  20
297.43835
  0
VERTEX
  5
da
  8
Layer_0
  10
229.62601
  20
297.43835
  0
VERTEX
  5
db
  8
Layer_0
  10
229.62601
  20
311.43835
  0
SEQEND
  0
POLYLINE
  5
dd
  8
Layer_0
  62
5
  66
1
  10
0
  20
0
  30
0
  0
VERTEX
  5
dd
  8
Layer_0
  10
247.62601
  20
357.43837
  0
VERTEX
  5
de
  8
Layer_0
  10
261.62601
  20
357.43837
  0
VERTEX
  5
df
  8
Layer_0
  10
261.62601
  20
343.43837
  0
VERTEX
  5
e0
  8
Layer_0
  10
247.62601
  20
343.43837
  0
VERTEX
  5
e1
  8
Layer_0
  10
247.62601
  20
357.43837
  0
SEQEND
  0
POLYLINE
  5
e3
  8
Layer_0
  62
5
  66
1
  10
0
  20
0
  30
0
  0
VERTEX
  5
e3
  8
Layer_0
  10
211.62601
  20
328.43835
  0
VERTEX
  5
e4
  8
Layer_0
  10
225.62601
  20
328.43835
  0
VERTEX
  5
e5
  8
Layer_0
  10
225.62601
  20
314.43835
  0
VERTEX
  5
e6
  8
Layer_0
  10
211.62601
  20
314.43835
  0
VERTEX
  5
e7
  8
Layer_0
  10
211.62601
  20
328.43835
  0
SEQEND
  0
POLYLINE
  5
e9
  8
Layer_0
  62
5
  66
1
  10
0
  20
0
  30
0
  0
VERTEX
  5
e9
  8
Layer_0
  10
283.62601
  20
357.43837
  0
VERTEX
  5
ea
  8
Layer_0
  10
297.62601
  20
357.43837
  0
VERTEX
  5
eb
  8
Layer_0
  10
297.62601
  20
343.43837
  0
VERTEX
  5
ec
  8
Layer_0
  10
283.62601
  20
343.43837
  0
VERTEX
  5
ed
  8
Layer_0
  10
283.62601
  20
357.43837
  0
SEQEND
  0
POLYLINE
  5
ef
  8
Layer_0
  62
5
  66
1
  10
0
  20
0
  30
0
  0
VERTEX
  5
ef
  8
Layer_0
  10
247.62601
  20
340.43837
  0
VERTEX
  5
f0
  8
Layer_0
  10
261.62601
  20
340.43837
  0
VERTEX
  5
f1
  8
Layer_0
  10
261.62601
  20
326.43835
  0
VERTEX
  5
f2
  8
Layer_0
  10
247.62601
  20
326.43835
  0
VERTEX
  5
f3
  8
Layer_0
  10
247.62601
  20
340.43837
  0
SEQEND
  0
POLYLINE
  5
f5
  8
Layer_0
  62
5
  66
1
  10
0
  20
0
  30
0
  0
VERTEX
  5
f5
  8
Layer_0
  10
278.04254
  20
301.80164
  0
VERTEX
  5
f6
  8
Layer_0
  10
291.98926
  20
303.02182
  0
VERTEX
  5
f7
  8
Layer_0
  10
293.20947
  20
289.07509
  0
VERTEX
  5
f8
  8
Layer_0
  10
279.26273
  20
287.85492
  0
VERTEX
  5
f9
  8
Layer_0
  10
278.04254
  20
301.80164
  0
SEQEND
  0
POLYLINE
  5
fb
  8
Layer_0
  62
5
  66
1
  10
0
  20
0
  30
0
  0
VERTEX
  5
fb
  8
Layer_0
  10
229.62601
  20
345.43837
  0
VERTEX
  5
fc
  8
Layer_0
  10
243.62601
  20
345.43837
  0
VERTEX
  5
fd
  8
Layer_0
  10
243.62601
  20
331.43835
  0
VERTEX
  5
fe
  8
Layer_0
  10
229.62601
  20
331.43835
  0
VERTEX
  5
ff
  8
Layer_0
  10
229.62601
  20
345.43837
  0
SEQEND
  0
POLYLINE
  5
101
  8
Layer_0
  62
5
  66
1
  10
0
  20
0
  30
0
  0
VERTEX
  5
101
  8
Layer_0
  10
283.62601
  20
340.43837
  0
VERTEX
  5
102
  8
Layer_0
  10
297.62601
  20
340.43837
  0
VERTEX
  5
103
  8
Layer_0
  10
297.62601
  20
326.43835
  0
VERTEX
  5
104
  8
Layer_0
  10
283.62601
  20
326.43835
  0
VERTEX
  5
105
  8
Layer_0
  10
283.62601
  20
340.43837
  0
SEQEND
  0
POLYLINE
  5
107
  8
Layer_0
  62
5
  66
1
  10
0
  20
0
  30
0
  0
VERTEX
  5
107
  8
Layer_0
  10
265.62601
  20
328.43835
  0
VERTEX
  5
108
  8
Layer_0
  10
279.62601
  20
328.43835
  0
VERTEX
  5
109
  8
Layer_0
  10
279.62601
  20
314.43835
  0
VERTEX
  5
10a
  8
Layer_0
  10
265.62601
  20
314.43835
  0
VERTEX
  5
10b
  8
Layer_0
  10
265.62601
  20
328.43835
  0
SEQEND
  0
POLYLINE
  5
10d
  8
Layer_0
  62
5
  66
1
  10
0
  20
0
  30
0
  0
VERTEX
  5
10d
  8
Layer_0
  10
265.62601
  20
362.43837
  0
VERTEX
  5
10e
  8
Layer_0
  10
279.62601
  20
362.43837
  0
VERTEX
  5
10f
  8
Layer_0
  10
279.62601
  20
348.43837
  0
VERTEX
  5
110
  8
Layer_0
  10
265.62601
  20
348.43837
  0
VERTEX
  5
111
  8
Layer_0
  10
265.62601
  20
362.43837
  0
SEQEND
  0
POLYLINE
  5
113
  8
Layer_0
  62
5
  66
1
  10
0
  20
0
  30
0
  0
VERTEX
  5
113
  8
Layer_0
  10
247.62601
  20
323.43835
  0
VERTEX
  5
114
  8
Layer_0
  10
261.62601
  20
323.43835
  0
VERTEX
  5
115
  8
Layer_0
  10
261.62601
  20
309.43835
  0
VERTEX
  5
116
  8
Layer_0
  10
247.62601
  20
309.43835
  0
VERTEX
  5
117
  8
Layer_0
  10
247.62601
  20
323.43835
  0
SEQEND
  0
POLYLINE
  5
119
  8
Layer_0
  62
5
  66
1
  10
0
  20
0
  30
0
  0
VERTEX
  5
119
  8
Layer_0
  10
301.62601
  20
338.43837
  0
VERTEX
  5
11a
  8
Layer_0
  10
315.62601
  20
338.43837
  0
VERTEX
  5
11b
  8
Layer_0
  10
315.62601
  20
324.43835
  0
VERTEX
  5
11c
  8
Layer_0
  10
301.62601
  20
324.43835
  0
VERTEX
  5
11d
  8
Layer_0
  10
301.62601
  20
338.43837
  0
SEQEND
  0
POLYLINE
  5
11f
  8
Layer_0
  62
5
  66
1
  10
0
  20
0
  30
0
  0
VERTEX
  5
11f
  8
Layer_0
  10
325.24017
  20
296.74084
  0
VERTEX
  5
120
  8
Layer_0
  10
337.92847
  20
290.82419
  0
VERTEX
  5
121
  8
Layer_0
  10
332.01181
  20
278.13588
  0
VERTEX
  5
122
  8
Layer_0
  10
319.32352
  20
284.05254
  0
VERTEX
  5
123
  8
Layer_0
  10
325.24017
  20
296.74084
  0
SEQEND
  0
POLYLINE
  5
125
  8
Layer_0
  62
5
  66
1
  10
0
  20
0
  30
0
  0
VERTEX
  5
125
  8
Layer_0
  10
229.62601
  20
328.43835
  0
VERTEX
  5
126
  8
Layer_0
  10
243.62601
  20
328.43835
  0
VERTEX
  5
127
  8
Layer_0
  10
243.62601
  20
314.43835
  0
VERTEX
  5
128
  8
Layer_0
  10
229.62601
  20
314.43835
  0
VERTEX
  5
129
  8
Layer_0
  10
229.62601
  20
328.43835
  0
SEQEND
  0
POLYLINE
  5
12b
  8
Layer_0
  62
5
  66
1
  10
0
  20
0
  30
0
  0
VERTEX
  5
12b
  8
Layer_0
  10
301.62601
  20
355.43837
  0
VERTEX
  5
12c
  8
Layer_0
  10
315.62601
  20
355.43837
  0
VERTEX
  5
12d
  8
Layer_0
  10
315.62601
  20
341.43837
  0
VERTEX
  5
12e
  8
Layer_0
  10
301.62601
  20
341.43837
  0
VERTEX
  5
12f
  8
Layer_0
  10
301.62601
  20
355.43837
  0
SEQEND
  0
POLYLINE
  5
131
  8
Layer_0
  62
5
  66
1
  10
0
  20
0
  30
0
  0
VERTEX
  5
131
  8
Layer_0
  10
211.62601
  20
311.43837
  0
VERTEX
  5
132
  8
Layer_0
  10
225.62601
  20
311.43837
  0
VERTEX
  5
133
  8
Layer_0
  10
225.62601
  20
297.43835
  0
VERTEX
  5
134
  8
Layer_0
  10
211.62601
  20
297.43835
  0
VERTEX
  5
135
  8
Layer_0
  10
211.62601
  20
311.43837
  0
SEQEND
  0
POLYLINE
  5
137
  8
Layer_0
  62
5
  66
1
  10
0
  20
0
  30
0
  0
VERTEX
  5
137
  8
Layer_0
  10
265.62601
  20
345.43837
  0
VERTEX
  5
138
  8
Layer_0
  10
279.62601
  20
345.43837
  0
VERTEX
  5
139
  8
Layer_0
  10
279.62601
  20
331.43835
  0
VERTEX
  5
13a
  8
Layer_0
  10
265.62601
  20
331.43835
  0
VERTEX
  5
13b
  8
Layer_0
  10
265.62601
  20
345.43837
  0
SEQEND
  0
POLYLINE
  5
13d
  8
Layer_0
  62
5
  66
1
  10
0
  20
0
  30
0
  0
VERTEX
  5
13d
  8
Layer_0
  10
211.62601
  20
345.43837
  0
VERTEX
  5
13e
  8
Layer_0
  10
225.62601
  20
345.43837
  0
VERTEX
  5
13f
  8
Layer_0
  10
225.62601
  20
331.43835
  0
VERTEX
  5
140
  8
Layer_0
  10
211.62601
  20
331.43835
  0
VERTEX
  5
141
  8
Layer_0
  10
211.62601
  20
345.43837
  0
SEQEND
  0
POLYLINE
  5
143
  8
Layer_0
  62
5
  66
1
  10
0
  20
0
  30
0
  0
VERTEX
  5
143
  8
Layer_0
  10
301.94788
  20
302.54755
  0
VERTEX
  5
144
  8
Layer_0
  10
315.7352
  20
300.11649
  0
VERTEX
  5
145
  8
Layer_0
  10
313.30411
  20
286.32916
  0
VERTEX
  5
146
  8
Layer_0
  10
299.51682
  20
288.76025
  0
VERTEX
  5
147
  8
Layer_0
  10
301.94788
  20
302.54755
  0
SEQEND
  0
POLYLINE
  5
149
  8
Layer_1
  62
0
  66
1
  10
0
  20
0
  30
0
  0
VERTEX
  5
149
  8
Layer_1
  10
74.192017
  20
290.24565
  42
-0.19898692
  0
VERTEX
  5
14a
  8
Layer_1
  10
74.131958
  20
291.62202
  42
-0.17322481
  0
VERTEX
  5
14b
  8
Layer_1
  10
74.905212
  20
292.55457
  42
-0.022788682
  0
VERTEX
  5
14c
  8
Layer_1
  10
75.062744
  20
292.63774
  0
VERTEX
  5
14d
  8
Layer_1
  10
94.765015
  20
301.82536
  42
0.28170483
  0
VERTEX
  5
14e
  8
Layer_1
  10
96.523987
  20
304.47931
  0
VERTEX
  5
14f
  8
Layer_1
  10
96.526001
  20
304.59012
  0
VERTEX
  5
150
  8
Layer_1
  10
96.526001
  20
356.23836
  42
-0.19889318
  0
VERTEX
  5
151
  8
Layer_1
  10
97.053223
  20
357.51115
  42
-0.17329653
  0
VERTEX
  5
152
  8
Layer_1
  10
98.148071
  20
358.02956
  42
-0.02479774
  0
VERTEX
  5
153
  8
Layer_1
  10
98.325989
  20
358.03836
  0
VERTEX
  5
154
  8
Layer_1
  10
112.87604
  20
358.03836
  42
0.25674111
  0
VERTEX
  5
155
  8
Layer_1
  10
114.59094
  20
358.98097
  0
VERTEX
  5
156
  8
Layer_1
  10
114.62604
  20
359.03835
  42
-0.24526425
  0
VERTEX
  5
157
  8
Layer_1
  10
116.12909
  20
360.0284
  42
-0.025322643
  0
VERTEX
  5
158
  8
Layer_1
  10
116.32599
  20
360.03836
  0
VERTEX
  5
159
  8
Layer_1
  10
130.62604
  20
360.03836
  42
0.18606085
  0
VERTEX
  5
15a
  8
Layer_1
  10
131.96838
  20
360.55576
  0
VERTEX
  5
15b
  8
Layer_1
  10
132.04022
  20
360.62415
  42
0.18605817
  0
VERTEX
  5
15c
  8
Layer_1
  10
132.62354
  20
361.93919
  0
VERTEX
  5
15d
  8
Layer_1
  10
132.62604
  20
362.03836
  0
VERTEX
  5
15e
  8
Layer_1
  10
132.62604
  20
363.03836
  42
-0.3846208
  0
VERTEX
  5
15f
  8
Layer_1
  10
134.42151
  20
365.02803
  42
-0.025274176
  0
VERTEX
  5
160
  8
Layer_1
  10
134.62604
  20
365.03836
  0
VERTEX
  5
161
  8
Layer_1
  10
150.62604
  20
365.03836
  0
VERTEX
  5
162
  8
Layer_1
  10
150.72522
  20
365.0359
  42
-0.18605901
  0
VERTEX
  5
163
  8
Layer_1
  10
152.04022
  20
364.45258
  0
VERTEX
  5
164
  8
Layer_1
  10
152.10864
  20
364.38071
  42
-0.18605439
  0
VERTEX
  5
165
  8
Layer_1
  10
152.62604
  20
363.03836
  0
VERTEX
  5
166
  8
Layer_1
  10
152.62604
  20
362.03836
  42
0.1989187
  0
VERTEX
  5
167
  8
Layer_1
  10
153.21179
  20
360.62415
  42
0.1989134
  0
VERTEX
  5
168
  8
Layer_1
  10
154.62604
  20
360.03836
  0
VERTEX
  5
169
  8
Layer_1
  10
168.62604
  20
360.03836
  0
VERTEX
  5
16a
  8
Layer_1
  10
168.72522
  20
360.0359
  42
-0.18605239
  0
VERTEX
  5
16b
  8
Layer_1
  10
170.04022
  20
359.45258
  0
VERTEX
  5
16c
  8
Layer_1
  10
170.10864
  20
359.38071
  42
-0.18604836
  0
VERTEX
  5
16d
  8
Layer_1
  10
170.62604
  20
358.03836
  0
VERTEX
  5
16e
  8
Layer_1
  10
170.62604
  20
350.03836
  42
0.19891424
  0
VERTEX
  5
16f
  8
Layer_1
  10
171.21179
  20
348.62415
  42
0.19891209
  0
VERTEX
  5
170
  8
Layer_1
  10
172.62604
  20
348.03836
  0
VERTEX
  5
171
  8
Layer_1
  10
204.62601
  20
348.03836
  0
VERTEX
  5
172
  8
Layer_1
  10
204.72519
  20
348.0359
  42
-0.18605397
  0
VERTEX
  5
173
  8
Layer_1
  10
206.04022
  20
347.45258
  0
VERTEX
  5
174
  8
Layer_1
  10
206.10861
  20
347.38071
  42
-0.18605358
  0
VERTEX
  5
175
  8
Layer_1
  10
206.62601
  20
346.03836
  0
VERTEX
  5
176
  8
Layer_1
  10
206.62601
  20
296.83836
  42
-0.19891493
  0
VERTEX
  5
177
  8
Layer_1
  10
206.04022
  20
295.42415
  42
-0.19891369
  0
VERTEX
  5
178
  8
Layer_1
  10
204.62601
  20
294.83836
  0
VERTEX
  5
179
  8
Layer_1
  10
164.12604
  20
294.83836
  42
0.1623896
  0
VERTEX
  5
17a
  8
Layer_1
  10
143.44666
  20
287.75836
  0
VERTEX
  5
17b
  8
Layer_1
  10
142.87604
  20
287.31335
  42
-0.18930697
  0
VERTEX
  5
17c
  8
Layer_1
  10
136.12604
  20
285.26337
  0
VERTEX
  5
17d
  8
Layer_1
  10
128.82599
  20
285.83836
  42
0.1331542
  0
VERTEX
  5
17e
  8
Layer_1
  10
91.613892
  20
279.17867
  0
VERTEX
  5
17f
  8
Layer_1
  10
90.496582
  20
278.63837
  0
VERTEX
  5
180
  8
Layer_1
  10
83.112122
  20
275.31693
  42
-0.41035534
  0
VERTEX
  5
181
  8
Layer_1
  10
80.742676
  20
276.19791
  0
VERTEX
  5
182
  8
Layer_1
  10
74.192017
  20
290.24565
  0
SEQEND
  0
POLYLINE
  5
184
  8
Layer_0
  62
5
  66
1
  10
0
  20
0
  30
0
  0
VERTEX
  5
184
  8
Layer_0
  10
113.62604
  20
321.43835
  0
VERTEX
  5
185
  8
Layer_0
  10
99.626038
  20
321.43835
  0
VERTEX
  5
186
  8
Layer_0
  10
99.626038
  20
307.43835
  0
VERTEX
  5
187
  8
Layer_0
  10
113.62604
  20
307.43835
  0
VERTEX
  5
188
  8
Layer_0
  10
113.62604
  20
321.43835
  0
SEQEND
  0
POLYLINE
  5
18a
  8
Layer_0
  62
5
  66
1
  10
0
  20
0
  30
0
  0
VERTEX
  5
18a
  8
Layer_0
  10
131.62604
  20
323.43835
  0
VERTEX
  5
18b
  8
Layer_0
  10
117.62604
  20
323.43835
  0
VERTEX
  5
18c
  8
Layer_0
  10
117.62604
  20
309.43835
  0
VERTEX
  5
18d
  8
Layer_0
  10
131.62604
  20
309.43835
  0
VERTEX
  5
18e
  8
Layer_0
  10
131.62604
  20
323.43835
  0
SEQEND
  0
POLYLINE
  5
190
  8
Layer_0
  62
5
  66
1
  10
0
  20
0
  30
0
  0
VERTEX
  5
190
  8
Layer_0
  10
185.62604
  20
311.43835
  0
VERTEX
  5
191
  8
Layer_0
  10
171.62604
  20
311.43835
  0
VERTEX
  5
192
  8
Layer_0
  10
171.62604
  20
297.43835
  0
VERTEX
  5
193
  8
Layer_0
  10
185.62604
  20
297.43835
  0
VERTEX
  5
194
  8
Layer_0
  10
185.62604
  20
311.43835
  0
SEQEND
  0
POLYLINE
  5
196
  8
Layer_0
  62
5
  66
1
  10
0
  20
0
  30
0
  0
VERTEX
  5
196
  8
Layer_0
  10
167.62604
  20
357.43837
  0
VERTEX
  5
197
  8
Layer_0
  10
153.62604
  20
357.43837
  0
VERTEX
  5
198
  8
Layer_0
  10
153.62604
  20
343.43837
  0
VERTEX
  5
199
  8
Layer_0
  10
167.62604
  20
343.43837
  0
VERTEX
  5
19a
  8
Layer_0
  10
167.62604
  20
357.43837
  0
SEQEND
  0
POLYLINE
  5
19c
  8
Layer_0
  62
5
  66
1
  10
0
  20
0
  30
0
  0
VERTEX
  5
19c
  8
Layer_0
  10
203.62601
  20
328.43835
  0
VERTEX
  5
19d
  8
Layer_0
  10
189.62601
  20
328.43835
  0
VERTEX
  5
19e
  8
Layer_0
  10
189.62601
  20
314.43835
  0
VERTEX
  5
19f
  8
Layer_0
  10
203.62601
  20
314.43835
  0
VERTEX
  5
1a0
  8
Layer_0
  10
203.62601
  20
328.43835
  0
SEQEND
  0
POLYLINE
  5
1a2
  8
Layer_0
  62
5
  66
1
  10
0
  20
0
  30
0
  0
VERTEX
  5
1a2
  8
Layer_0
  10
131.62604
  20
357.43837
  0
VERTEX
  5
1a3
  8
Layer_0
  10
117.62604
  20
357.43837
  0
VERTEX
  5
1a4
  8
Layer_0
  10
117.62604
  20
343.43837
  0
VERTEX
  5
1a5
  8
Layer_0
  10
131.62604
  20
343.43837
  0
VERTEX
  5
1a6
  8
Layer_0
  10
131.62604
  20
357.43837
  0
SEQEND
  0
POLYLINE
  5
1a8
  8
Layer_0
  62
5
  66
1
  10
0
  20
0
  30
0
  0
VERTEX
  5
1a8
  8
Layer_0
  10
167.62604
  20
340.43837
  0
VERTEX
  5
1a9
  8
Layer_0
  10
153.62604
  20
340.43837
  0
VERTEX
  5
1aa
  8
Layer_0
  10
153.62604
  20
326.43835
  0
VERTEX
  5
1ab
  8
Layer_0
  10
167.62604
  20
326.43835
  0
VERTEX
  5
1ac
  8
Layer_0
  10
167.62604
  20
340.43837
  0
SEQEND
  0
POLYLINE
  5
1ae
  8
Layer_0
  62
5
  66
1
  10
0
  20
0
  30
0
  0
VERTEX
  5
1ae
  8
Layer_0
  10
137.20947
  20
301.80164
  0
VERTEX
  5
1af
  8
Layer_0
  10
123.26276
  20
303.02182
  0
VERTEX
  5
1b0
  8
Layer_0
  10
122.04254
  20
289.07509
  0
VERTEX
  5
1b1
  8
Layer_0
  10
135.98926
  20
287.85492
  0
VERTEX
  5
1b2
  8
Layer_0
  10
137.20947
  20
301.80164
  0
SEQEND
  0
POLYLINE
  5
1b4
  8
Layer_0
  62
5
  66
1
  10
0
  20
0
  30
0
  0
VERTEX
  5
1b4
  8
Layer_0
  10
185.62604
  20
345.43837
  0
VERTEX
  5
1b5
  8
Layer_0
  10
171.62604
  20
345.43837
  0
VERTEX
  5
1b6
  8
Layer_0
  10
171.62604
  20
331.43835
  0
VERTEX
  5
1b7
  8
Layer_0
  10
185.62604
  20
331.43835
  0
VERTEX
  5
1b8
  8
Layer_0
  10
185.62604
  20
345.43837
  0
SEQEND
  0
POLYLINE
  5
1ba
  8
Layer_0
  62
5
  66
1
  10
0
  20
0
  30
0
  0
VERTEX
  5
1ba
  8
Layer_0
  10
131.62604
  20
340.43837
  0
VERTEX
  5
1bb
  8
Layer_0
  10
117.62604
  20
340.43837
  0
VERTEX
  5
1bc
  8
Layer_0
  10
117.62604
  20
326.43835
  0
VERTEX
  5
1bd
  8
Layer_0
  10
131.62604
  20
326.43835
  0
VERTEX
  5
1be
  8
Layer_0
  10
131.62604
  20
340.43837
  0
SEQEND
  0
POLYLINE
  5
1c0
  8
Layer_0
  62
5
  66
1
  10
0
  20
0
  30
0
  0
VERTEX
  5
1c0
  8
Layer_0
  10
149.62604
  20
328.43835
  0
VERTEX
  5
1c1
  8
Layer_0
  10
135.62604
  20
328.43835
  0
VERTEX
  5
1c2
  8
Layer_0
  10
135.62604
  20
314.43835
  0
VERTEX
  5
1c3
  8
Layer_0
  10
149.62604
  20
314.43835
  0
VERTEX
  5
1c4
  8
Layer_0
  10
149.62604
  20
328.43835
  0
SEQEND
  0
POLYLINE
  5
1c6
  8
Layer_0
  62
5
  66
1
  10
0
  20
0
  30
0
  0
VERTEX
  5
1c6
  8
Layer_0
  10
149.62604
  20
362.43837
  0
VERTEX
  5
1c7
  8
Layer_0
  10
135.62604
  20
362.43837
  0
VERTEX
  5
1c8
  8
Layer_0
  10
135.62604
  20
348.43837
  0
VERTEX
  5
1c9
  8
Layer_0
  10
149.62604
  20
348.43837
  0
VERTEX
  5
1ca
  8
Layer_0
  10
149.62604
  20
362.43837
  0
SEQEND
  0
POLYLINE
  5
1cc
  8
Layer_0
  62
5
  66
1
  10
0
  20
0
  30
0
  0
VERTEX
  5
1cc
  8
Layer_0
  10
167.62604
  20
323.43835
  0
VERTEX
  5
1cd
  8
Layer_0
  10
153.62604
  20
323.43835
  0
VERTEX
  5
1ce
  8
Layer_0
  10
153.62604
  20
309.43835
  0
VERTEX
  5
1cf
  8
Layer_0
  10
167.62604
  20
309.43835
  0
VERTEX
  5
1d0
  8
Layer_0
  10
167.62604
  20
323.43835
  0
SEQEND
  0
POLYLINE
  5
1d2
  8
Layer_0
  62
5
  66
1
  10
0
  20
0
  30
0
  0
VERTEX
  5
1d2
  8
Layer_0
  10
113.62604
  20
338.43837
  0
VERTEX
  5
1d3
  8
Layer_0
  10
99.626038
  20
338.43837
  0
VERTEX
  5
1d4
  8
Layer_0
  10
99.626038
  20
324.43835
  0
VERTEX
  5
1d5
  8
Layer_0
  10
113.62604
  20
324.43835
  0
VERTEX
  5
1d6
  8
Layer_0
  10
113.62604
  20
338.43837
  0
SEQEND
  0
POLYLINE
  5
1d8
  8
Layer_0
  62
5
  66
1
  10
0
  20
0
  30
0
  0
VERTEX
  5
1d8
  8
Layer_0
  10
90.011841
  20
296.74084
  0
VERTEX
  5
1d9
  8
Layer_0
  10
77.323547
  20
290.82419
  0
VERTEX
  5
1da
  8
Layer_0
  10
83.240173
  20
278.13588
  0
VERTEX
  5
1db
  8
Layer_0
  10
95.928467
  20
284.05254
  0
VERTEX
  5
1dc
  8
Layer_0
  10
90.011841
  20
296.74084
  0
SEQEND
  0
POLYLINE
  5
1de
  8
Layer_0
  62
5
  66
1
  10
0
  20
0
  30
0
  0
VERTEX
  5
1de
  8
Layer_0
  10
185.62604
  20
328.43835
  0
VERTEX
  5
1df
  8
Layer_0
  10
171.62604
  20
328.43835
  0
VERTEX
  5
1e0
  8
Layer_0
  10
171.62604
  20
314.43835
  0
VERTEX
  5
1e1
  8
Layer_0
  10
185.62604
  20
314.43835
  0
VERTEX
  5
1e2
  8
Layer_0
  10
185.62604
  20
328.43835
  0
SEQEND
  0
POLYLINE
  5
1e4
  8
Layer_0
  62
5
  66
1
  10
0
  20
0
  30
0
  0
VERTEX
  5
1e4
  8
Layer_0
  10
113.62604
  20
355.43837
  0
VERTEX
  5
1e5
  8
Layer_0
  10
99.626038
  20
355.43837
  0
VERTEX
  5
1e6
  8
Layer_0
  10
99.626038
  20
341.43837
  0
VERTEX
  5
1e7
  8
Layer_0
  10
113.62604
  20
341.43837
  0
VERTEX
  5
1e8
  8
Layer_0
  10
113.62604
  20
355.43837
  0
SEQEND
  0
POLYLINE
  5
1ea
  8
Layer_0
  62
5
  66
1
  10
0
  20
0
  30
0
  0
VERTEX
  5
1ea
  8
Layer_0
  10
203.62601
  20
311.43837
  0
VERTEX
  5
1eb
  8
Layer_0
  10
189.62601
  20
311.43837
  0
VERTEX
  5
1ec
  8
Layer_0
  10
189.62601
  20
297.43835
  0
VERTEX
  5
1ed
  8
Layer_0
  10
203.62601
  20
297.43835
  0
VERTEX
  5
1ee
  8
Layer_0
  10
203.62601
  20
311.43837
  0
SEQEND
  0
POLYLINE
  5
1f0
  8
Layer_0
  62
5
  66
1
  10
0
  20
0
  30
0
  0
VERTEX
  5
1f0
  8
Layer_0
  10
149.62604
  20
345.43837
  0
VERTEX
  5
1f1
  8
Layer_0
  10
135.62604
  20
345.43837
  0
VERTEX
  5
1f2
  8
Layer_0
  10
135.62604
  20
331.43835
  0
VERTEX
  5
1f3
  8
Layer_0
  10
149.62604
  20
331.43835
  0
VERTEX
  5
1f4
  8
Layer_0
  10
149.62604
  20
345.43837
  0
SEQEND
  0
POLYLINE
  5
1f6
  8
Layer_0
  62
5
  66
1
  10
0
  20
0
  30
0
  0
VERTEX
  5
1f6
  8
Layer_0
  10
203.62601
  20
345.43837
  0
VERTEX
  5
1f7
  8
Layer_0
  10
189.62601
  20
345.43837
  0
VERTEX
  5
1f8
  8
Layer_0
  10
189.62601
  20
331.43835
  0
VERTEX
  5
1f9
  8
Layer_0
  10
203.62601
  20
331.43835
  0
VERTEX
  5
1fa
  8
Layer_0
  10
203.62601
  20
345.43837
  0
SEQEND
  0
POLYLINE
  5
1fc
  8
Layer_0
  62
5
  66
1
  10
0
  20
0
  30
0
  0
VERTEX
  5
1fc
  8
Layer_0
  10
113.30414
  20
302.54755
  0
VERTEX
  5
1fd
  8
Layer_0
  10
99.516846
  20
300.11649
  0
VERTEX
  5
1fe
  8
Layer_0
  10
101.94788
  20
286.32916
  0
VERTEX
  5
1ff
  8
Layer_0
  10
115.73523
  20
288.76025
  0
VERTEX
  5
200
  8
Layer_0
  10
113.30414
  20
302.54755
  0
SEQEND
  0
ENDSEC
  0
EOF
