  0
SECTION
  2
HEADER
  9
$ACADVER
  1
AC1009
  0
ENDSEC
  0
SECTION
  2
ENTITIES
  0
POLYLINE
  5
90
  8
Layer_0
  62
5
  66
1
  10
0
  20
0
  30
0
  0
VERTEX
  5
90
  8
Layer_0
  10
226.8483
  20
424.15945
  42
0.30364367
  0
VERTEX
  5
91
  8
Layer_0
  10
228.04837
  20
423.92046
  42
0.30326949
  0
VERTEX
  5
92
  8
Layer_0
  10
228.72815
  20
424.939
  42
0.1354881
  0
VERTEX
  5
93
  8
Layer_0
  10
228.57193
  20
425.50503
  42
0.061676805
  0
VERTEX
  5
94
  8
Layer_0
  10
228.40561
  20
425.71856
  0
VERTEX
  5
95
  8
Layer_0
  10
228.36606
  20
425.75626
  42
0.18620669
  0
VERTEX
  5
96
  8
Layer_0
  10
227.62695
  20
426.04146
  0
VERTEX
  5
97
  8
Layer_0
  10
227.58533
  20
426.04068
  42
0.29318596
  0
VERTEX
  5
98
  8
Layer_0
  10
226.60959
  20
425.36089
  0
VERTEX
  5
99
  8
Layer_0
  10
226.59436
  20
425.3221
  42
0.29282537
  0
VERTEX
  5
9a
  8
Layer_0
  10
226.8483
  20
424.15945
  0
SEQEND
  0
POLYLINE
  5
9c
  8
Layer_0
  62
5
  66
1
  10
0
  20
0
  30
0
  0
VERTEX
  5
9c
  8
Layer_0
  10
317.79865
  20
386.25888
  0
VERTEX
  5
9d
  8
Layer_0
  10
317.82864
  20
386.22995
  42
0.29355445
  0
VERTEX
  5
9e
  8
Layer_0
  10
318.99872
  20
386.01978
  42
0.30332877
  0
VERTEX
  5
9f
  8
Layer_0
  10
319.67853
  20
387.0388
  42
0.19859072
  0
VERTEX
  5
a0
  8
Layer_0
  10
319.35599
  20
387.81874
  42
0.048162245
  0
VERTEX
  5
a1
  8
Layer_0
  10
319.18826
  20
387.95648
  42
0.14853305
  0
VERTEX
  5
a2
  8
Layer_0
  10
318.57733
  20
388.14178
  0
VERTEX
  5
a3
  8
Layer_0
  10
318.53571
  20
388.14101
  42
0.29333454
  0
VERTEX
  5
a4
  8
Layer_0
  10
317.55994
  20
387.46091
  0
VERTEX
  5
a5
  8
Layer_0
  10
317.54474
  20
387.42209
  42
0.29276204
  0
VERTEX
  5
a6
  8
Layer_0
  10
317.79865
  20
386.25888
  0
SEQEND
  0
POLYLINE
  5
a8
  8
Layer_0
  62
5
  66
1
  10
0
  20
0
  30
0
  0
VERTEX
  5
a8
  8
Layer_0
  10
226.8483
  20
407.1595
  42
0.30363805
  0
VERTEX
  5
a9
  8
Layer_0
  10
228.04837
  20
406.92052
  42
0.30326773
  0
VERTEX
  5
aa
  8
Layer_0
  10
228.72815
  20
407.93905
  42
0.098408832
  0
VERTEX
  5
ab
  8
Layer_0
  10
228.64432
  20
408.36095
  42
0.098479927
  0
VERTEX
  5
ac
  8
Layer_0
  10
228.40561
  20
408.71861
  0
VERTEX
  5
ad
  8
Layer_0
  10
228.36606
  20
408.7563
  42
0.18621272
  0
VERTEX
  5
ae
  8
Layer_0
  10
227.62695
  20
409.0415
  0
VERTEX
  5
af
  8
Layer_0
  10
227.58533
  20
409.04073
  42
0.2931802
  0
VERTEX
  5
b0
  8
Layer_0
  10
226.60959
  20
408.36095
  0
VERTEX
  5
b1
  8
Layer_0
  10
226.59436
  20
408.32214
  42
0.29284169
  0
VERTEX
  5
b2
  8
Layer_0
  10
226.8483
  20
407.1595
  0
SEQEND
  0
POLYLINE
  5
b4
  8
Layer_0
  62
5
  66
1
  10
0
  20
0
  30
0
  0
VERTEX
  5
b4
  8
Layer_0
  10
300.72821
  20
435.83883
  42
0.19871303
  0
VERTEX
  5
b5
  8
Layer_0
  10
300.4057
  20
436.61877
  42
0.12335224
  0
VERTEX
  5
b6
  8
Layer_0
  10
299.9473
  20
436.89415
  42
0.074043193
  0
VERTEX
  5
b7
  8
Layer_0
  10
299.62701
  20
436.94183
  0
VERTEX
  5
b8
  8
Layer_0
  10
299.58539
  20
436.94104
  42
0.29323138
  0
VERTEX
  5
b9
  8
Layer_0
  10
298.60962
  20
436.26093
  0
VERTEX
  5
ba
  8
Layer_0
  10
298.59442
  20
436.22211
  42
0.2927323
  0
VERTEX
  5
bb
  8
Layer_0
  10
298.84833
  20
435.05889
  0
VERTEX
  5
bc
  8
Layer_0
  10
298.87833
  20
435.02997
  42
0.29347906
  0
VERTEX
  5
bd
  8
Layer_0
  10
300.04843
  20
434.81979
  42
0.30325501
  0
VERTEX
  5
be
  8
Layer_0
  10
300.72821
  20
435.83883
  0
SEQEND
  0
POLYLINE
  5
c0
  8
Layer_1
  62
0
  66
1
  10
0
  20
0
  30
0
  0
VERTEX
  5
c0
  8
Layer_1
  10
341.05997
  20
385.24585
  42
0.19898692
  0
VERTEX
  5
c1
  8
Layer_1
  10
341.12006
  20
386.62222
  42
0.17322481
  0
VERTEX
  5
c2
  8
Layer_1
  10
340.3468
  20
387.55477
  42
0.022788682
  0
VERTEX
  5
c3
  8
Layer_1
  10
340.18927
  20
387.63794
  0
VERTEX
  5
c4
  8
Layer_1
  10
320.487
  20
396.82556
  42
-0.28170483
  0
VERTEX
  5
c5
  8
Layer_1
  10
318.72803
  20
399.47951
  0
VERTEX
  5
c6
  8
Layer_1
  10
318.72601
  20
399.59032
  0
VERTEX
  5
c7
  8
Layer_1
  10
318.72601
  20
451.23856
  42
0.19889318
  0
VERTEX
  5
c8
  8
Layer_1
  10
318.19879
  20
452.51135
  42
0.17329653
  0
VERTEX
  5
c9
  8
Layer_1
  10
317.10391
  20
453.02975
  42
0.02479774
  0
VERTEX
  5
ca
  8
Layer_1
  10
316.92599
  20
453.03856
  0
VERTEX
  5
cb
  8
Layer_1
  10
302.37601
  20
453.03856
  42
-0.25674111
  0
VERTEX
  5
cc
  8
Layer_1
  10
300.66107
  20
453.98116
  0
VERTEX
  5
cd
  8
Layer_1
  10
300.62598
  20
454.03855
  42
0.24526425
  0
VERTEX
  5
ce
  8
Layer_1
  10
299.12296
  20
455.02859
  42
0.025322643
  0
VERTEX
  5
cf
  8
Layer_1
  10
298.92599
  20
455.03856
  0
VERTEX
  5
d0
  8
Layer_1
  10
284.62601
  20
455.03856
  42
-0.18606085
  0
VERTEX
  5
d1
  8
Layer_1
  10
283.28366
  20
455.55596
  0
VERTEX
  5
d2
  8
Layer_1
  10
283.21179
  20
455.62435
  42
-0.18605817
  0
VERTEX
  5
d3
  8
Layer_1
  10
282.62845
  20
456.93939
  0
VERTEX
  5
d4
  8
Layer_1
  10
282.62601
  20
457.03856
  0
VERTEX
  5
d5
  8
Layer_1
  10
282.62601
  20
458.03856
  42
0.3846208
  0
VERTEX
  5
d6
  8
Layer_1
  10
280.83051
  20
460.02824
  42
0.025274176
  0
VERTEX
  5
d7
  8
Layer_1
  10
280.62601
  20
460.03856
  0
VERTEX
  5
d8
  8
Layer_1
  10
264.62601
  20
460.03856
  0
VERTEX
  5
d9
  8
Layer_1
  10
264.52682
  20
460.0361
  42
0.18605901
  0
VERTEX
  5
da
  8
Layer_1
  10
263.21179
  20
459.45277
  0
VERTEX
  5
db
  8
Layer_1
  10
263.1434
  20
459.38091
  42
0.18605439
  0
VERTEX
  5
dc
  8
Layer_1
  10
262.62601
  20
458.03856
  0
VERTEX
  5
dd
  8
Layer_1
  10
262.62601
  20
457.03856
  42
-0.1989187
  0
VERTEX
  5
de
  8
Layer_1
  10
262.04022
  20
455.62435
  42
-0.1989134
  0
VERTEX
  5
df
  8
Layer_1
  10
260.62601
  20
455.03856
  0
VERTEX
  5
e0
  8
Layer_1
  10
246.62601
  20
455.03856
  0
VERTEX
  5
e1
  8
Layer_1
  10
246.52682
  20
455.0361
  42
0.18605239
  0
VERTEX
  5
e2
  8
Layer_1
  10
245.21179
  20
454.45277
  0
VERTEX
  5
e3
  8
Layer_1
  10
245.1434
  20
454.38091
  42
0.18604836
  0
VERTEX
  5
e4
  8
Layer_1
  10
244.62601
  20
453.03856
  0
VERTEX
  5
e5
  8
Layer_1
  10
244.62601
  20
445.03856
  42
-0.19891424
  0
VERTEX
  5
e6
  8
Layer_1
  10
244.04022
  20
443.62435
  42
-0.19891209
  0
VERTEX
  5
e7
  8
Layer_1
  10
242.62601
  20
443.03856
  0
VERTEX
  5
e8
  8
Layer_1
  10
210.62601
  20
443.03856
  0
VERTEX
  5
e9
  8
Layer_1
  10
210.52682
  20
443.0361
  42
0.18605397
  0
VERTEX
  5
ea
  8
Layer_1
  10
209.21179
  20
442.45277
  0
VERTEX
  5
eb
  8
Layer_1
  10
209.1434
  20
442.38091
  42
0.18605358
  0
VERTEX
  5
ec
  8
Layer_1
  10
208.62601
  20
441.03856
  0
VERTEX
  5
ed
  8
Layer_1
  10
208.62601
  20
391.83856
  42
0.19891493
  0
VERTEX
  5
ee
  8
Layer_1
  10
209.21179
  20
390.42435
  42
0.19891369
  0
VERTEX
  5
ef
  8
Layer_1
  10
210.62601
  20
389.83856
  0
VERTEX
  5
f0
  8
Layer_1
  10
251.12601
  20
389.83856
  42
-0.1623896
  0
VERTEX
  5
f1
  8
Layer_1
  10
271.80536
  20
382.75856
  0
VERTEX
  5
f2
  8
Layer_1
  10
272.37601
  20
382.31356
  42
0.18930697
  0
VERTEX
  5
f3
  8
Layer_1
  10
279.12601
  20
380.26357
  0
VERTEX
  5
f4
  8
Layer_1
  10
286.42599
  20
380.83856
  42
-0.1331542
  0
VERTEX
  5
f5
  8
Layer_1
  10
323.63812
  20
374.17886
  0
VERTEX
  5
f6
  8
Layer_1
  10
324.7554
  20
373.63857
  0
VERTEX
  5
f7
  8
Layer_1
  10
332.13986
  20
370.31711
  42
0.41035534
  0
VERTEX
  5
f8
  8
Layer_1
  10
334.50934
  20
371.1981
  0
VERTEX
  5
f9
  8
Layer_1
  10
341.05997
  20
385.24585
  0
SEQEND
  0
POLYLINE
  5
fb
  8
Layer_0
  62
5
  66
1
  10
0
  20
0
  30
0
  0
VERTEX
  5
fb
  8
Layer_0
  10
301.62601
  20
416.43856
  0
VERTEX
  5
fc
  8
Layer_0
  10
315.62601
  20
416.43856
  0
VERTEX
  5
fd
  8
Layer_0
  10
315.62601
  20
402.43856
  0
VERTEX
  5
fe
  8
Layer_0
  10
301.62601
  20
402.43856
  0
VERTEX
  5
ff
  8
Layer_0
  10
301.62601
  20
416.43856
  0
SEQEND
  0
POLYLINE
  5
101
  8
Layer_0
  62
5
  66
1
  10
0
  20
0
  30
0
  0
VERTEX
  5
101
  8
Layer_0
  10
283.62601
  20
418.43856
  0
VERTEX
  5
102
  8
Layer_0
  10
297.62601
  20
418.43856
  0
VERTEX
  5
103
  8
Layer_0
  10
297.62601
  20
404.43856
  0
VERTEX
  5
104
  8
Layer_0
  10
283.62601
  20
404.43856
  0
VERTEX
  5
105
  8
Layer_0
  10
283.62601
  20
418.43856
  0
SEQEND
  0
POLYLINE
  5
107
  8
Layer_0
  62
5
  66
1
  10
0
  20
0
  30
0
  0
VERTEX
  5
107
  8
Layer_0
  10
229.62601
  20
406.43856
  0
VERTEX
  5
108
  8
Layer_0
  10
243.62601
  20
406.43856
  0
VERTEX
  5
109
  8
Layer_0
  10
243.62601
  20
392.43856
  0
VERTEX
  5
10a
  8
Layer_0
  10
229.62601
  20
392.43856
  0
VERTEX
  5
10b
  8
Layer_0
  10
229.62601
  20
406.43856
  0
SEQEND
  0
POLYLINE
  5
10d
  8
Layer_0
  62
5
  66
1
  10
0
  20
0
  30
0
  0
VERTEX
  5
10d
  8
Layer_0
  10
247.62601
  20
452.43856
  0
VERTEX
  5
10e
  8
Layer_0
  10
261.62601
  20
452.43856
  0
VERTEX
  5
10f
  8
Layer_0
  10
261.62601
  20
438.43856
  0
VERTEX
  5
110
  8
Layer_0
  10
247.62601
  20
438.43856
  0
VERTEX
  5
111
  8
Layer_0
  10
247.62601
  20
452.43856
  0
SEQEND
  0
POLYLINE
  5
113
  8
Layer_0
  62
5
  66
1
  10
0
  20
0
  30
0
  0
VERTEX
  5
113
  8
Layer_0
  10
211.62601
  20
423.43856
  0
VERTEX
  5
114
  8
Layer_0
  10
225.62601
  20
423.43856
  0
VERTEX
  5
115
  8
Layer_0
  10
225.62601
  20
409.43856
  0
VERTEX
  5
116
  8
Layer_0
  10
211.62601
  20
409.43856
  0
VERTEX
  5
117
  8
Layer_0
  10
211.62601
  20
423.43856
  0
SEQEND
  0
POLYLINE
  5
119
  8
Layer_0
  62
5
  66
1
  10
0
  20
0
  30
0
  0
VERTEX
  5
119
  8
Layer_0
  10
283.62601
  20
452.43856
  0
VERTEX
  5
11a
  8
Layer_0
  10
297.62601
  20
452.43856
  0
VERTEX
  5
11b
  8
Layer_0
  10
297.62601
  20
438.43856
  0
VERTEX
  5
11c
  8
Layer_0
  10
283.62601
  20
438.43856
  0
VERTEX
  5
11d
  8
Layer_0
  10
283.62601
  20
452.43856
  0
SEQEND
  0
POLYLINE
  5
11f
  8
Layer_0
  62
5
  66
1
  10
0
  20
0
  30
0
  0
VERTEX
  5
11f
  8
Layer_0
  10
247.62601
  20
435.43856
  0
VERTEX
  5
120
  8
Layer_0
  10
261.62601
  20
435.43856
  0
VERTEX
  5
121
  8
Layer_0
  10
261.62601
  20
421.43856
  0
VERTEX
  5
122
  8
Layer_0
  10
247.62601
  20
421.43856
  0
VERTEX
  5
123
  8
Layer_0
  10
247.62601
  20
435.43856
  0
SEQEND
  0
POLYLINE
  5
125
  8
Layer_0
  62
5
  66
1
  10
0
  20
0
  30
0
  0
VERTEX
  5
125
  8
Layer_0
  10
278.04254
  20
396.80183
  0
VERTEX
  5
126
  8
Layer_0
  10
291.98926
  20
398.02202
  0
VERTEX
  5
127
  8
Layer_0
  10
293.20947
  20
384.07529
  0
VERTEX
  5
128
  8
Layer_0
  10
279.26273
  20
382.85511
  0
VERTEX
  5
129
  8
Layer_0
  10
278.04254
  20
396.80183
  0
SEQEND
  0
POLYLINE
  5
12b
  8
Layer_0
  62
5
  66
1
  10
0
  20
0
  30
0
  0
VERTEX
  5
12b
  8
Layer_0
  10
229.62601
  20
440.43856
  0
VERTEX
  5
12c
  8
Layer_0
  10
243.62601
  20
440.43856
  0
VERTEX
  5
12d
  8
Layer_0
  10
243.62601
  20
426.43856
  0
VERTEX
  5
12e
  8
Layer_0
  10
229.62601
  20
426.43856
  0
VERTEX
  5
12f
  8
Layer_0
  10
229.62601
  20
440.43856
  0
SEQEND
  0
POLYLINE
  5
131
  8
Layer_0
  62
5
  66
1
  10
0
  20
0
  30
0
  0
VERTEX
  5
131
  8
Layer_0
  10
283.62601
  20
435.43856
  0
VERTEX
  5
132
  8
Layer_0
  10
297.62601
  20
435.43856
  0
VERTEX
  5
133
  8
Layer_0
  10
297.62601
  20
421.43856
  0
VERTEX
  5
134
  8
Layer_0
  10
283.62601
  20
421.43856
  0
VERTEX
  5
135
  8
Layer_0
  10
283.62601
  20
435.43856
  0
SEQEND
  0
POLYLINE
  5
137
  8
Layer_0
  62
5
  66
1
  10
0
  20
0
  30
0
  0
VERTEX
  5
137
  8
Layer_0
  10
265.62601
  20
423.43856
  0
VERTEX
  5
138
  8
Layer_0
  10
279.62601
  20
423.43856
  0
VERTEX
  5
139
  8
Layer_0
  10
279.62601
  20
409.43856
  0
VERTEX
  5
13a
  8
Layer_0
  10
265.62601
  20
409.43856
  0
VERTEX
  5
13b
  8
Layer_0
  10
265.62601
  20
423.43856
  0
SEQEND
  0
POLYLINE
  5
13d
  8
Layer_0
  62
5
  66
1
  10
0
  20
0
  30
0
  0
VERTEX
  5
13d
  8
Layer_0
  10
265.62601
  20
457.43856
  0
VERTEX
  5
13e
  8
Layer_0
  10
279.62601
  20
457.43856
  0
VERTEX
  5
13f
  8
Layer_0
  10
279.62601
  20
443.43856
  0
VERTEX
  5
140
  8
Layer_0
  10
265.62601
  20
443.43856
  0
VERTEX
  5
141
  8
Layer_0
  10
265.62601
  20
457.43856
  0
SEQEND
  0
POLYLINE
  5
143
  8
Layer_0
  62
5
  66
1
  10
0
  20
0
  30
0
  0
VERTEX
  5
143
  8
Layer_0
  10
247.62601
  20
418.43856
  0
VERTEX
  5
144
  8
Layer_0
  10
261.62601
  20
418.43856
  0
VERTEX
  5
145
  8
Layer_0
  10
261.62601
  20
404.43856
  0
VERTEX
  5
146
  8
Layer_0
  10
247.62601
  20
404.43856
  0
VERTEX
  5
147
  8
Layer_0
  10
247.62601
  20
418.43856
  0
SEQEND
  0
POLYLINE
  5
149
  8
Layer_0
  62
5
  66
1
  10
0
  20
0
  30
0
  0
VERTEX
  5
149
  8
Layer_0
  10
301.62601
  20
433.43856
  0
VERTEX
  5
14a
  8
Layer_0
  10
315.62601
  20
433.43856
  0
VERTEX
  5
14b
  8
Layer_0
  10
315.62601
  20
419.43856
  0
VERTEX
  5
14c
  8
Layer_0
  10
301.62601
  20
419.43856
  0
VERTEX
  5
14d
  8
Layer_0
  10
301.62601
  20
433.43856
  0
SEQEND
  0
POLYLINE
  5
14f
  8
Layer_0
  62
5
  66
1
  10
0
  20
0
  30
0
  0
VERTEX
  5
14f
  8
Layer_0
  10
325.24017
  20
391.74104
  0
VERTEX
  5
150
  8
Layer_0
  10
337.92847
  20
385.82439
  0
VERTEX
  5
151
  8
Layer_0
  10
332.01181
  20
373.13608
  0
VERTEX
  5
152
  8
Layer_0
  10
319.32352
  20
379.05273
  0
VERTEX
  5
153
  8
Layer_0
  10
325.24017
  20
391.74104
  0
SEQEND
  0
POLYLINE
  5
155
  8
Layer_0
  62
5
  66
1
  10
0
  20
0
  30
0
  0
VERTEX
  5
155
  8
Layer_0
  10
229.62601
  20
423.43856
  0
VERTEX
  5
156
  8
Layer_0
  10
243.62601
  20
423.43856
  0
VERTEX
  5
157
  8
Layer_0
  10
243.62601
  20
409.43856
  0
VERTEX
  5
158
  8
Layer_0
  10
229.62601
  20
409.43856
  0
VERTEX
  5
159
  8
Layer_0
  10
229.62601
  20
423.43856
  0
SEQEND
  0
POLYLINE
  5
15b
  8
Layer_0
  62
5
  66
1
  10
0
  20
0
  30
0
  0
VERTEX
  5
15b
  8
Layer_0
  10
301.62601
  20
450.43856
  0
VERTEX
  5
15c
  8
Layer_0
  10
315.62601
  20
450.43856
  0
VERTEX
  5
15d
  8
Layer_0
  10
315.62601
  20
436.43856
  0
VERTEX
  5
15e
  8
Layer_0
  10
301.62601
  20
436.43856
  0
VERTEX
  5
15f
  8
Layer_0
  10
301.62601
  20
450.43856
  0
SEQEND
  0
POLYLINE
  5
161
  8
Layer_0
  62
5
  66
1
  10
0
  20
0
  30
0
  0
VERTEX
  5
161
  8
Layer_0
  10
211.62601
  20
406.43857
  0
VERTEX
  5
162
  8
Layer_0
  10
225.62601
  20
406.43857
  0
VERTEX
  5
163
  8
Layer_0
  10
225.62601
  20
392.43856
  0
VERTEX
  5
164
  8
Layer_0
  10
211.62601
  20
392.43856
  0
VERTEX
  5
165
  8
Layer_0
  10
211.62601
  20
406.43857
  0
SEQEND
  0
POLYLINE
  5
167
  8
Layer_0
  62
5
  66
1
  10
0
  20
0
  30
0
  0
VERTEX
  5
167
  8
Layer_0
  10
265.62601
  20
440.43856
  0
VERTEX
  5
168
  8
Layer_0
  10
279.62601
  20
440.43856
  0
VERTEX
  5
169
  8
Layer_0
  10
279.62601
  20
426.43856
  0
VERTEX
  5
16a
  8
Layer_0
  10
265.62601
  20
426.43856
  0
VERTEX
  5
16b
  8
Layer_0
  10
265.62601
  20
440.43856
  0
SEQEND
  0
POLYLINE
  5
16d
  8
Layer_0
  62
5
  66
1
  10
0
  20
0
  30
0
  0
VERTEX
  5
16d
  8
Layer_0
  10
211.62601
  20
440.43856
  0
VERTEX
  5
16e
  8
Layer_0
  10
225.62601
  20
440.43856
  0
VERTEX
  5
16f
  8
Layer_0
  10
225.62601
  20
426.43856
  0
VERTEX
  5
170
  8
Layer_0
  10
211.62601
  20
426.43856
  0
VERTEX
  5
171
  8
Layer_0
  10
211.62601
  20
440.43856
  0
SEQEND
  0
POLYLINE
  5
173
  8
Layer_0
  62
5
  66
1
  10
0
  20
0
  30
0
  0
VERTEX
  5
173
  8
Layer_0
  10
301.94788
  20
397.54775
  0
VERTEX
  5
174
  8
Layer_0
  10
315.7352
  20
395.11668
  0
VERTEX
  5
175
  8
Layer_0
  10
313.30411
  20
381.32937
  0
VERTEX
  5
176
  8
Layer_0
  10
299.51682
  20
383.76044
  0
VERTEX
  5
177
  8
Layer_0
  10
301.94788
  20
397.54775
  0
SEQEND
  0
POLYLINE
  5
179
  8
Layer_0
  62
5
  66
1
  10
0
  20
0
  30
0
  0
VERTEX
  5
179
  8
Layer_0
  10
188.40469
  20
424.15945
  42
-0.30364367
  0
VERTEX
  5
17a
  8
Layer_0
  10
187.20465
  20
423.92046
  42
-0.30326949
  0
VERTEX
  5
17b
  8
Layer_0
  10
186.52484
  20
424.939
  42
-0.1354881
  0
VERTEX
  5
17c
  8
Layer_0
  10
186.68103
  20
425.50503
  42
-0.061676805
  0
VERTEX
  5
17d
  8
Layer_0
  10
186.84735
  20
425.71856
  0
VERTEX
  5
17e
  8
Layer_0
  10
186.88696
  20
425.75626
  42
-0.18620669
  0
VERTEX
  5
17f
  8
Layer_0
  10
187.62604
  20
426.04146
  0
VERTEX
  5
180
  8
Layer_0
  10
187.66766
  20
426.04068
  42
-0.29318596
  0
VERTEX
  5
181
  8
Layer_0
  10
188.6434
  20
425.36089
  0
VERTEX
  5
182
  8
Layer_0
  10
188.65863
  20
425.3221
  42
-0.29282537
  0
VERTEX
  5
183
  8
Layer_0
  10
188.40469
  20
424.15945
  0
SEQEND
  0
POLYLINE
  5
185
  8
Layer_0
  62
5
  66
1
  10
0
  20
0
  30
0
  0
VERTEX
  5
185
  8
Layer_0
  10
97.454346
  20
386.25888
  0
VERTEX
  5
186
  8
Layer_0
  10
97.424377
  20
386.22995
  42
-0.29355445
  0
VERTEX
  5
187
  8
Layer_0
  10
96.254272
  20
386.01978
  42
-0.30332877
  0
VERTEX
  5
188
  8
Layer_0
  10
95.574463
  20
387.0388
  42
-0.19859072
  0
VERTEX
  5
189
  8
Layer_0
  10
95.897034
  20
387.81874
  42
-0.048162245
  0
VERTEX
  5
18a
  8
Layer_0
  10
96.064758
  20
387.95648
  42
-0.14853305
  0
VERTEX
  5
18b
  8
Layer_0
  10
96.675659
  20
388.14178
  0
VERTEX
  5
18c
  8
Layer_0
  10
96.717285
  20
388.14101
  42
-0.29333454
  0
VERTEX
  5
18d
  8
Layer_0
  10
97.693054
  20
387.46091
  0
VERTEX
  5
18e
  8
Layer_0
  10
97.708252
  20
387.42209
  42
-0.29276204
  0
VERTEX
  5
18f
  8
Layer_0
  10
97.454346
  20
386.25888
  0
SEQEND
  0
POLYLINE
  5
191
  8
Layer_0
  62
5
  66
1
  10
0
  20
0
  30
0
  0
VERTEX
  5
191
  8
Layer_0
  10
188.40469
  20
407.1595
  42
-0.30363805
  0
VERTEX
  5
192
  8
Layer_0
  10
187.20465
  20
406.92052
  42
-0.30326773
  0
VERTEX
  5
193
  8
Layer_0
  10
186.52484
  20
407.93905
  42
-0.098408832
  0
VERTEX
  5
194
  8
Layer_0
  10
186.60864
  20
408.36095
  42
-0.098479927
  0
VERTEX
  5
195
  8
Layer_0
  10
186.84735
  20
408.71861
  0
VERTEX
  5
196
  8
Layer_0
  10
186.88696
  20
408.7563
  42
-0.18621272
  0
VERTEX
  5
197
  8
Layer_0
  10
187.62604
  20
409.0415
  0
VERTEX
  5
198
  8
Layer_0
  10
187.66766
  20
409.04073
  42
-0.2931802
  0
VERTEX
  5
199
  8
Layer_0
  10
188.6434
  20
408.36095
  0
VERTEX
  5
19a
  8
Layer_0
  10
188.65863
  20
408.32214
  42
-0.29284169
  0
VERTEX
  5
19b
  8
Layer_0
  10
188.40469
  20
407.1595
  0
SEQEND
  0
POLYLINE
  5
19d
  8
Layer_0
  62
5
  66
1
  10
0
  20
0
  30
0
  0
VERTEX
  5
19d
  8
Layer_0
  10
114.52478
  20
435.83883
  42
-0.19871303
  0
VERTEX
  5
19e
  8
Layer_0
  10
114.84735
  20
436.61877
  42
-0.12335224
  0
VERTEX
  5
19f
  8
Layer_0
  10
115.30573
  20
436.89415
  42
-0.074043193
  0
VERTEX
  5
1a0
  8
Layer_0
  10
115.62604
  20
436.94183
  0
VERTEX
  5
1a1
  8
Layer_0
  10
115.6676
  20
436.94104
  42
-0.29323138
  0
VERTEX
  5
1a2
  8
Layer_0
  10
116.64337
  20
436.26093
  0
VERTEX
  5
1a3
  8
Layer_0
  10
116.65857
  20
436.22211
  42
-0.2927323
  0
VERTEX
  5
1a4
  8
Layer_0
  10
116.40466
  20
435.05889
  0
VERTEX
  5
1a5
  8
Layer_0
  10
116.37469
  20
435.02997
  42
-0.29347906
  0
VERTEX
  5
1a6
  8
Layer_0
  10
115.20459
  20
434.81979
  42
-0.30325501
  0
VERTEX
  5
1a7
  8
Layer_0
  10
114.52478
  20
435.83883
  0
SEQEND
  0
POLYLINE
  5
1a9
  8
Layer_1
  62
0
  66
1
  10
0
  20
0
  30
0
  0
VERTEX
  5
1a9
  8
Layer_1
  10
74.192017
  20
385.24585
  42
-0.19898692
  0
VERTEX
  5
1aa
  8
Layer_1
  10
74.131958
  20
386.62222
  42
-0.17322481
  0
VERTEX
  5
1ab
  8
Layer_1
  10
74.905212
  20
387.55477
  42
-0.022788682
  0
VERTEX
  5
1ac
  8
Layer_1
  10
75.062744
  20
387.63794
  0
VERTEX
  5
1ad
  8
Layer_1
  10
94.765015
  20
396.82556
  42
0.28170483
  0
VERTEX
  5
1ae
  8
Layer_1
  10
96.523987
  20
399.47951
  0
VERTEX
  5
1af
  8
Layer_1
  10
96.526001
  20
399.59032
  0
VERTEX
  5
1b0
  8
Layer_1
  10
96.526001
  20
451.23856
  42
-0.19889318
  0
VERTEX
  5
1b1
  8
Layer_1
  10
97.053223
  20
452.51135
  42
-0.17329653
  0
VERTEX
  5
1b2
  8
Layer_1
  10
98.148071
  20
453.02975
  42
-0.02479774
  0
VERTEX
  5
1b3
  8
Layer_1
  10
98.325989
  20
453.03856
  0
VERTEX
  5
1b4
  8
Layer_1
  10
112.87604
  20
453.03856
  42
0.25674111
  0
VERTEX
  5
1b5
  8
Layer_1
  10
114.59094
  20
453.98116
  0
VERTEX
  5
1b6
  8
Layer_1
  10
114.62604
  20
454.03855
  42
-0.24526425
  0
VERTEX
  5
1b7
  8
Layer_1
  10
116.12909
  20
455.02859
  42
-0.025322643
  0
VERTEX
  5
1b8
  8
Layer_1
  10
116.32599
  20
455.03856
  0
VERTEX
  5
1b9
  8
Layer_1
  10
130.62604
  20
455.03856
  42
0.18606085
  0
VERTEX
  5
1ba
  8
Layer_1
  10
131.96838
  20
455.55596
  0
VERTEX
  5
1bb
  8
Layer_1
  10
132.04022
  20
455.62435
  42
0.18605817
  0
VERTEX
  5
1bc
  8
Layer_1
  10
132.62354
  20
456.93939
  0
VERTEX
  5
1bd
  8
Layer_1
  10
132.62604
  20
457.03856
  0
VERTEX
  5
1be
  8
Layer_1
  10
132.62604
  20
458.03856
  42
-0.3846208
  0
VERTEX
  5
1bf
  8
Layer_1
  10
134.42151
  20
460.02824
  42
-0.025274176
  0
VERTEX
  5
1c0
  8
Layer_1
  10
134.62604
  20
460.03856
  0
VERTEX
  5
1c1
  8
Layer_1
  10
150.62604
  20
460.03856
  0
VERTEX
  5
1c2
  8
Layer_1
  10
150.72522
  20
460.0361
  42
-0.18605901
  0
VERTEX
  5
1c3
  8
Layer_1
  10
152.04022
  20
459.45277
  0
VERTEX
  5
1c4
  8
Layer_1
  10
152.10864
  20
459.38091
  42
-0.18605439
  0
VERTEX
  5
1c5
  8
Layer_1
  10
152.62604
  20
458.03856
  0
VERTEX
  5
1c6
  8
Layer_1
  10
152.62604
  20
457.03856
  42
0.1989187
  0
VERTEX
  5
1c7
  8
Layer_1
  10
153.21179
  20
455.62435
  42
0.1989134
  0
VERTEX
  5
1c8
  8
Layer_1
  10
154.62604
  20
455.03856
  0
VERTEX
  5
1c9
  8
Layer_1
  10
168.62604
  20
455.03856
  0
VERTEX
  5
1ca
  8
Layer_1
  10
168.72522
  20
455.0361
  42
-0.18605239
  0
VERTEX
  5
1cb
  8
Layer_1
  10
170.04022
  20
454.45277
  0
VERTEX
  5
1cc
  8
Layer_1
  10
170.10864
  20
454.38091
  42
-0.18604836
  0
VERTEX
  5
1cd
  8
Layer_1
  10
170.62604
  20
453.03856
  0
VERTEX
  5
1ce
  8
Layer_1
  10
170.62604
  20
445.03856
  42
0.19891424
  0
VERTEX
  5
1cf
  8
Layer_1
  10
171.21179
  20
443.62435
  42
0.19891209
  0
VERTEX
  5
1d0
  8
Layer_1
  10
172.62604
  20
443.03856
  0
VERTEX
  5
1d1
  8
Layer_1
  10
204.62601
  20
443.03856
  0
VERTEX
  5
1d2
  8
Layer_1
  10
204.72519
  20
443.0361
  42
-0.18605397
  0
VERTEX
  5
1d3
  8
Layer_1
  10
206.04022
  20
442.45277
  0
VERTEX
  5
1d4
  8
Layer_1
  10
206.10861
  20
442.38091
  42
-0.18605358
  0
VERTEX
  5
1d5
  8
Layer_1
  10
206.62601
  20
441.03856
  0
VERTEX
  5
1d6
  8
Layer_1
  10
206.62601
  20
391.83856
  42
-0.19891493
  0
VERTEX
  5
1d7
  8
Layer_1
  10
206.04022
  20
390.42435
  42
-0.19891369
  0
VERTEX
  5
1d8
  8
Layer_1
  10
204.62601
  20
389.83856
  0
VERTEX
  5
1d9
  8
Layer_1
  10
164.12604
  20
389.83856
  42
0.1623896
  0
VERTEX
  5
1da
  8
Layer_1
  10
143.44666
  20
382.75856
  0
VERTEX
  5
1db
  8
Layer_1
  10
142.87604
  20
382.31356
  42
-0.18930697
  0
VERTEX
  5
1dc
  8
Layer_1
  10
136.12604
  20
380.26357
  0
VERTEX
  5
1dd
  8
Layer_1
  10
128.82599
  20
380.83856
  42
0.1331542
  0
VERTEX
  5
1de
  8
Layer_1
  10
91.613892
  20
374.17886
  0
VERTEX
  5
1df
  8
Layer_1
  10
90.496582
  20
373.63857
  0
VERTEX
  5
1e0
  8
Layer_1
  10
83.112122
  20
370.31711
  42
-0.41035534
  0
VERTEX
  5
1e1
  8
Layer_1
  10
80.742676
  20
371.1981
  0
VERTEX
  5
1e2
  8
Layer_1
  10
74.192017
  20
385.24585
  0
SEQEND
  0
POLYLINE
  5
1e4
  8
Layer_0
  62
5
  66
1
  10
0
  20
0
  30
0
  0
VERTEX
  5
1e4
  8
Layer_0
  10
113.62604
  20
416.43856
  0
VERTEX
  5
1e5
  8
Layer_0
  10
99.626038
  20
416.43856
  0
VERTEX
  5
1e6
  8
Layer_0
  10
99.626038
  20
402.43856
  0
VERTEX
  5
1e7
  8
Layer_0
  10
113.62604
  20
402.43856
  0
VERTEX
  5
1e8
  8
Layer_0
  10
113.62604
  20
416.43856
  0
SEQEND
  0
POLYLINE
  5
1ea
  8
Layer_0
  62
5
  66
1
  10
0
  20
0
  30
0
  0
VERTEX
  5
1ea
  8
Layer_0
  10
131.62604
  20
418.43856
  0
VERTEX
  5
1eb
  8
Layer_0
  10
117.62604
  20
418.43856
  0
VERTEX
  5
1ec
  8
Layer_0
  10
117.62604
  20
404.43856
  0
VERTEX
  5
1ed
  8
Layer_0
  10
131.62604
  20
404.43856
  0
VERTEX
  5
1ee
  8
Layer_0
  10
131.62604
  20
418.43856
  0
SEQEND
  0
POLYLINE
  5
1f0
  8
Layer_0
  62
5
  66
1
  10
0
  20
0
  30
0
  0
VERTEX
  5
1f0
  8
Layer_0
  10
185.62604
  20
406.43856
  0
VERTEX
  5
1f1
  8
Layer_0
  10
171.62604
  20
406.43856
  0
VERTEX
  5
1f2
  8
Layer_0
  10
171.62604
  20
392.43856
  0
VERTEX
  5
1f3
  8
Layer_0
  10
185.62604
  20
392.43856
  0
VERTEX
  5
1f4
  8
Layer_0
  10
185.62604
  20
406.43856
  0
SEQEND
  0
POLYLINE
  5
1f6
  8
Layer_0
  62
5
  66
1
  10
0
  20
0
  30
0
  0
VERTEX
  5
1f6
  8
Layer_0
  10
167.62604
  20
452.43856
  0
VERTEX
  5
1f7
  8
Layer_0
  10
153.62604
  20
452.43856
  0
VERTEX
  5
1f8
  8
Layer_0
  10
153.62604
  20
438.43856
  0
VERTEX
  5
1f9
  8
Layer_0
  10
167.62604
  20
438.43856
  0
VERTEX
  5
1fa
  8
Layer_0
  10
167.62604
  20
452.43856
  0
SEQEND
  0
POLYLINE
  5
1fc
  8
Layer_0
  62
5
  66
1
  10
0
  20
0
  30
0
  0
VERTEX
  5
1fc
  8
Layer_0
  10
203.62601
  20
423.43856
  0
VERTEX
  5
1fd
  8
Layer_0
  10
189.62601
  20
423.43856
  0
VERTEX
  5
1fe
  8
Layer_0
  10
189.62601
  20
409.43856
  0
VERTEX
  5
1ff
  8
Layer_0
  10
203.62601
  20
409.43856
  0
VERTEX
  5
200
  8
Layer_0
  10
203.62601
  20
423.43856
  0
SEQEND
  0
POLYLINE
  5
202
  8
Layer_0
  62
5
  66
1
  10
0
  20
0
  30
0
  0
VERTEX
  5
202
  8
Layer_0
  10
131.62604
  20
452.43856
  0
VERTEX
  5
203
  8
Layer_0
  10
117.62604
  20
452.43856
  0
VERTEX
  5
204
  8
Layer_0
  10
117.62604
  20
438.43856
  0
VERTEX
  5
205
  8
Layer_0
  10
131.62604
  20
438.43856
  0
VERTEX
  5
206
  8
Layer_0
  10
131.62604
  20
452.43856
  0
SEQEND
  0
POLYLINE
  5
208
  8
Layer_0
  62
5
  66
1
  10
0
  20
0
  30
0
  0
VERTEX
  5
208
  8
Layer_0
  10
167.62604
  20
435.43856
  0
VERTEX
  5
209
  8
Layer_0
  10
153.62604
  20
435.43856
  0
VERTEX
  5
20a
  8
Layer_0
  10
153.62604
  20
421.43856
  0
VERTEX
  5
20b
  8
Layer_0
  10
167.62604
  20
421.43856
  0
VERTEX
  5
20c
  8
Layer_0
  10
167.62604
  20
435.43856
  0
SEQEND
  0
POLYLINE
  5
20e
  8
Layer_0
  62
5
  66
1
  10
0
  20
0
  30
0
  0
VERTEX
  5
20e
  8
Layer_0
  10
137.20947
  20
396.80183
  0
VERTEX
  5
20f
  8
Layer_0
  10
123.26276
  20
398.02202
  0
VERTEX
  5
210
  8
Layer_0
  10
122.04254
  20
384.07529
  0
VERTEX
  5
211
  8
Layer_0
  10
135.98926
  20
382.85511
  0
VERTEX
  5
212
  8
Layer_0
  10
137.20947
  20
396.80183
  0
SEQEND
  0
POLYLINE
  5
214
  8
Layer_0
  62
5
  66
1
  10
0
  20
0
  30
0
  0
VERTEX
  5
214
  8
Layer_0
  10
185.62604
  20
440.43856
  0
VERTEX
  5
215
  8
Layer_0
  10
171.62604
  20
440.43856
  0
VERTEX
  5
216
  8
Layer_0
  10
171.62604
  20
426.43856
  0
VERTEX
  5
217
  8
Layer_0
  10
185.62604
  20
426.43856
  0
VERTEX
  5
218
  8
Layer_0
  10
185.62604
  20
440.43856
  0
SEQEND
  0
POLYLINE
  5
21a
  8
Layer_0
  62
5
  66
1
  10
0
  20
0
  30
0
  0
VERTEX
  5
21a
  8
Layer_0
  10
131.62604
  20
435.43856
  0
VERTEX
  5
21b
  8
Layer_0
  10
117.62604
  20
435.43856
  0
VERTEX
  5
21c
  8
Layer_0
  10
117.62604
  20
421.43856
  0
VERTEX
  5
21d
  8
Layer_0
  10
131.62604
  20
421.43856
  0
VERTEX
  5
21e
  8
Layer_0
  10
131.62604
  20
435.43856
  0
SEQEND
  0
POLYLINE
  5
220
  8
Layer_0
  62
5
  66
1
  10
0
  20
0
  30
0
  0
VERTEX
  5
220
  8
Layer_0
  10
149.62604
  20
423.43856
  0
VERTEX
  5
221
  8
Layer_0
  10
135.62604
  20
423.43856
  0
VERTEX
  5
222
  8
Layer_0
  10
135.62604
  20
409.43856
  0
VERTEX
  5
223
  8
Layer_0
  10
149.62604
  20
409.43856
  0
VERTEX
  5
224
  8
Layer_0
  10
149.62604
  20
423.43856
  0
SEQEND
  0
POLYLINE
  5
226
  8
Layer_0
  62
5
  66
1
  10
0
  20
0
  30
0
  0
VERTEX
  5
226
  8
Layer_0
  10
149.62604
  20
457.43856
  0
VERTEX
  5
227
  8
Layer_0
  10
135.62604
  20
457.43856
  0
VERTEX
  5
228
  8
Layer_0
  10
135.62604
  20
443.43856
  0
VERTEX
  5
229
  8
Layer_0
  10
149.62604
  20
443.43856
  0
VERTEX
  5
22a
  8
Layer_0
  10
149.62604
  20
457.43856
  0
SEQEND
  0
POLYLINE
  5
22c
  8
Layer_0
  62
5
  66
1
  10
0
  20
0
  30
0
  0
VERTEX
  5
22c
  8
Layer_0
  10
167.62604
  20
418.43856
  0
VERTEX
  5
22d
  8
Layer_0
  10
153.62604
  20
418.43856
  0
VERTEX
  5
22e
  8
Layer_0
  10
153.62604
  20
404.43856
  0
VERTEX
  5
22f
  8
Layer_0
  10
167.62604
  20
404.43856
  0
VERTEX
  5
230
  8
Layer_0
  10
167.62604
  20
418.43856
  0
SEQEND
  0
POLYLINE
  5
232
  8
Layer_0
  62
5
  66
1
  10
0
  20
0
  30
0
  0
VERTEX
  5
232
  8
Layer_0
  10
113.62604
  20
433.43856
  0
VERTEX
  5
233
  8
Layer_0
  10
99.626038
  20
433.43856
  0
VERTEX
  5
234
  8
Layer_0
  10
99.626038
  20
419.43856
  0
VERTEX
  5
235
  8
Layer_0
  10
113.62604
  20
419.43856
  0
VERTEX
  5
236
  8
Layer_0
  10
113.62604
  20
433.43856
  0
SEQEND
  0
POLYLINE
  5
238
  8
Layer_0
  62
5
  66
1
  10
0
  20
0
  30
0
  0
VERTEX
  5
238
  8
Layer_0
  10
90.011841
  20
391.74104
  0
VERTEX
  5
239
  8
Layer_0
  10
77.323547
  20
385.82439
  0
VERTEX
  5
23a
  8
Layer_0
  10
83.240173
  20
373.13608
  0
VERTEX
  5
23b
  8
Layer_0
  10
95.928467
  20
379.05273
  0
VERTEX
  5
23c
  8
Layer_0
  10
90.011841
  20
391.74104
  0
SEQEND
  0
POLYLINE
  5
23e
  8
Layer_0
  62
5
  66
1
  10
0
  20
0
  30
0
  0
VERTEX
  5
23e
  8
Layer_0
  10
185.62604
  20
423.43856
  0
VERTEX
  5
23f
  8
Layer_0
  10
171.62604
  20
423.43856
  0
VERTEX
  5
240
  8
Layer_0
  10
171.62604
  20
409.43856
  0
VERTEX
  5
241
  8
Layer_0
  10
185.62604
  20
409.43856
  0
VERTEX
  5
242
  8
Layer_0
  10
185.62604
  20
423.43856
  0
SEQEND
  0
POLYLINE
  5
244
  8
Layer_0
  62
5
  66
1
  10
0
  20
0
  30
0
  0
VERTEX
  5
244
  8
Layer_0
  10
113.62604
  20
450.43856
  0
VERTEX
  5
245
  8
Layer_0
  10
99.626038
  20
450.43856
  0
VERTEX
  5
246
  8
Layer_0
  10
99.626038
  20
436.43856
  0
VERTEX
  5
247
  8
Layer_0
  10
113.62604
  20
436.43856
  0
VERTEX
  5
248
  8
Layer_0
  10
113.62604
  20
450.43856
  0
SEQEND
  0
POLYLINE
  5
24a
  8
Layer_0
  62
5
  66
1
  10
0
  20
0
  30
0
  0
VERTEX
  5
24a
  8
Layer_0
  10
203.62601
  20
406.43857
  0
VERTEX
  5
24b
  8
Layer_0
  10
189.62601
  20
406.43857
  0
VERTEX
  5
24c
  8
Layer_0
  10
189.62601
  20
392.43856
  0
VERTEX
  5
24d
  8
Layer_0
  10
203.62601
  20
392.43856
  0
VERTEX
  5
24e
  8
Layer_0
  10
203.62601
  20
406.43857
  0
SEQEND
  0
POLYLINE
  5
250
  8
Layer_0
  62
5
  66
1
  10
0
  20
0
  30
0
  0
VERTEX
  5
250
  8
Layer_0
  10
149.62604
  20
440.43856
  0
VERTEX
  5
251
  8
Layer_0
  10
135.62604
  20
440.43856
  0
VERTEX
  5
252
  8
Layer_0
  10
135.62604
  20
426.43856
  0
VERTEX
  5
253
  8
Layer_0
  10
149.62604
  20
426.43856
  0
VERTEX
  5
254
  8
Layer_0
  10
149.62604
  20
440.43856
  0
SEQEND
  0
POLYLINE
  5
256
  8
Layer_0
  62
5
  66
1
  10
0
  20
0
  30
0
  0
VERTEX
  5
256
  8
Layer_0
  10
203.62601
  20
440.43856
  0
VERTEX
  5
257
  8
Layer_0
  10
189.62601
  20
440.43856
  0
VERTEX
  5
258
  8
Layer_0
  10
189.62601
  20
426.43856
  0
VERTEX
  5
259
  8
Layer_0
  10
203.62601
  20
426.43856
  0
VERTEX
  5
25a
  8
Layer_0
  10
203.62601
  20
440.43856
  0
SEQEND
  0
POLYLINE
  5
25c
  8
Layer_0
  62
5
  66
1
  10
0
  20
0
  30
0
  0
VERTEX
  5
25c
  8
Layer_0
  10
113.30414
  20
397.54775
  0
VERTEX
  5
25d
  8
Layer_0
  10
99.516846
  20
395.11668
  0
VERTEX
  5
25e
  8
Layer_0
  10
101.94788
  20
381.32937
  0
VERTEX
  5
25f
  8
Layer_0
  10
115.73523
  20
383.76044
  0
VERTEX
  5
260
  8
Layer_0
  10
113.30414
  20
397.54775
  0
SEQEND
  0
ENDSEC
  0
EOF
