  0
SECTION
  2
HEADER
  9
$ACADVER
  1
AC1009
  0
ENDSEC
  0
SECTION
  2
ENTITIES
  0
POLYLINE
  5
90
  8
Layer_1
  62
0
  66
1
  10
0
  20
0
  30
0
  0
VERTEX
  5
90
  8
Layer_1
  10
585.22781
  20
421.1757
  0
VERTEX
  5
91
  8
Layer_1
  10
585.16702
  20
421.1193
  42
-0.28279252
  0
VERTEX
  5
92
  8
Layer_1
  10
584.02904
  20
420.93725
  42
-0.30314075
  0
VERTEX
  5
93
  8
Layer_1
  10
583.34999
  20
421.95351
  42
-0.24951751
  0
VERTEX
  5
94
  8
Layer_1
  10
583.83498
  20
422.86565
  42
-0.14937051
  0
VERTEX
  5
95
  8
Layer_1
  10
584.45
  20
423.05351
  0
VERTEX
  5
96
  8
Layer_1
  10
584.53285
  20
423.0504
  42
-0.28271011
  0
VERTEX
  5
97
  8
Layer_1
  10
585.46626
  20
422.37447
  0
VERTEX
  5
98
  8
Layer_1
  10
585.49509
  20
422.29672
  42
-0.28305676
  0
VERTEX
  5
99
  8
Layer_1
  10
585.22781
  20
421.1757
  0
SEQEND
  0
POLYLINE
  5
9b
  8
Layer_1
  62
0
  66
1
  10
0
  20
0
  30
0
  0
VERTEX
  5
9b
  8
Layer_1
  10
602.29999
  20
470.75351
  0
VERTEX
  5
9c
  8
Layer_1
  10
602.30032
  20
470.78083
  42
-0.19257971
  0
VERTEX
  5
9d
  8
Layer_1
  10
602.62218
  20
471.53133
  0
VERTEX
  5
9e
  8
Layer_1
  10
602.64172
  20
471.55041
  42
-0.19245524
  0
VERTEX
  5
9f
  8
Layer_1
  10
603.39999
  20
471.85352
  0
VERTEX
  5
a0
  8
Layer_1
  10
603.48285
  20
471.8504
  42
-0.28291463
  0
VERTEX
  5
a1
  8
Layer_1
  10
604.41626
  20
471.17447
  0
VERTEX
  5
a2
  8
Layer_1
  10
604.4451
  20
471.09672
  42
-0.28291194
  0
VERTEX
  5
a3
  8
Layer_1
  10
604.17781
  20
469.9757
  0
VERTEX
  5
a4
  8
Layer_1
  10
604.11702
  20
469.9193
  42
-0.28296759
  0
VERTEX
  5
a5
  8
Layer_1
  10
602.97903
  20
469.73725
  42
-0.30348134
  0
VERTEX
  5
a6
  8
Layer_1
  10
602.29999
  20
470.75351
  0
SEQEND
  0
POLYLINE
  5
a8
  8
Layer_1
  62
0
  66
1
  10
0
  20
0
  30
0
  0
VERTEX
  5
a8
  8
Layer_1
  10
674.97904
  20
441.83725
  42
-0.30337576
  0
VERTEX
  5
a9
  8
Layer_1
  10
674.29999
  20
442.85352
  0
VERTEX
  5
aa
  8
Layer_1
  10
674.30033
  20
442.88083
  42
-0.19239753
  0
VERTEX
  5
ab
  8
Layer_1
  10
674.62217
  20
443.63133
  0
VERTEX
  5
ac
  8
Layer_1
  10
674.64173
  20
443.65041
  42
-0.19242752
  0
VERTEX
  5
ad
  8
Layer_1
  10
675.39999
  20
443.95351
  0
VERTEX
  5
ae
  8
Layer_1
  10
675.48285
  20
443.95041
  42
-0.28291536
  0
VERTEX
  5
af
  8
Layer_1
  10
676.41626
  20
443.27447
  0
VERTEX
  5
b0
  8
Layer_1
  10
676.44509
  20
443.19672
  42
-0.28284939
  0
VERTEX
  5
b1
  8
Layer_1
  10
676.17781
  20
442.0757
  42
-0.30339584
  0
VERTEX
  5
b2
  8
Layer_1
  10
674.97904
  20
441.83725
  0
SEQEND
  0
POLYLINE
  5
b4
  8
Layer_1
  62
0
  66
1
  10
0
  20
0
  30
0
  0
VERTEX
  5
b4
  8
Layer_1
  10
674.97904
  20
458.83725
  42
-0.30334786
  0
VERTEX
  5
b5
  8
Layer_1
  10
674.29999
  20
459.85352
  0
VERTEX
  5
b6
  8
Layer_1
  10
674.30033
  20
459.88083
  42
-0.19248121
  0
VERTEX
  5
b7
  8
Layer_1
  10
674.62217
  20
460.63133
  0
VERTEX
  5
b8
  8
Layer_1
  10
674.64173
  20
460.65041
  42
-0.19246618
  0
VERTEX
  5
b9
  8
Layer_1
  10
675.39999
  20
460.95351
  0
VERTEX
  5
ba
  8
Layer_1
  10
675.48285
  20
460.95041
  42
-0.28290357
  0
VERTEX
  5
bb
  8
Layer_1
  10
676.41626
  20
460.27447
  0
VERTEX
  5
bc
  8
Layer_1
  10
676.44509
  20
460.19672
  42
-0.28287753
  0
VERTEX
  5
bd
  8
Layer_1
  10
676.17781
  20
459.0757
  42
-0.30339183
  0
VERTEX
  5
be
  8
Layer_1
  10
674.97904
  20
458.83725
  0
SEQEND
  0
POLYLINE
  5
c0
  8
Layer_1
  62
0
  66
1
  10
0
  20
0
  30
0
  0
VERTEX
  5
c0
  8
Layer_1
  10
630.65001
  20
417.22849
  42
-0.18930598
  0
VERTEX
  5
c1
  8
Layer_1
  10
623.89999
  20
415.17851
  0
VERTEX
  5
c2
  8
Layer_1
  10
616.59999
  20
415.75351
  42
0.13315375
  0
VERTEX
  5
c3
  8
Layer_1
  10
579.38786
  20
409.09381
  0
VERTEX
  5
c4
  8
Layer_1
  10
578.27058
  20
408.55351
  0
VERTEX
  5
c5
  8
Layer_1
  10
570.88612
  20
405.23206
  42
-0.37710084
  0
VERTEX
  5
c6
  8
Layer_1
  10
568.45
  20
405.90351
  0
VERTEX
  5
c7
  8
Layer_1
  10
555.96594
  20
422.86562
  42
-0.16379782
  0
VERTEX
  5
c8
  8
Layer_1
  10
555.59999
  20
423.95351
  0
VERTEX
  5
c9
  8
Layer_1
  10
555.59999
  20
425.15351
  0
VERTEX
  5
ca
  8
Layer_1
  10
555.59999
  20
486.15351
  42
-0.19892471
  0
VERTEX
  5
cb
  8
Layer_1
  10
556.1272
  20
487.42631
  42
-0.17329738
  0
VERTEX
  5
cc
  8
Layer_1
  10
557.22209
  20
487.94471
  42
-0.024556453
  0
VERTEX
  5
cd
  8
Layer_1
  10
557.39999
  20
487.95352
  0
VERTEX
  5
ce
  8
Layer_1
  10
600.64999
  20
487.95352
  42
0.25674603
  0
VERTEX
  5
cf
  8
Layer_1
  10
602.36487
  20
488.89614
  0
VERTEX
  5
d0
  8
Layer_1
  10
602.39996
  20
488.95353
  42
-0.24524197
  0
VERTEX
  5
d1
  8
Layer_1
  10
603.90305
  20
489.94354
  42
-0.025362375
  0
VERTEX
  5
d2
  8
Layer_1
  10
604.09999
  20
489.95352
  0
VERTEX
  5
d3
  8
Layer_1
  10
618.39999
  20
489.95352
  42
0.18606449
  0
VERTEX
  5
d4
  8
Layer_1
  10
619.74234
  20
490.47091
  0
VERTEX
  5
d5
  8
Layer_1
  10
619.81421
  20
490.5393
  42
0.18604923
  0
VERTEX
  5
d6
  8
Layer_1
  10
620.39754
  20
491.85434
  0
VERTEX
  5
d7
  8
Layer_1
  10
620.39999
  20
491.95352
  0
VERTEX
  5
d8
  8
Layer_1
  10
620.39999
  20
492.95352
  42
-0.19891402
  0
VERTEX
  5
d9
  8
Layer_1
  10
620.98578
  20
494.36773
  42
-0.18605248
  0
VERTEX
  5
da
  8
Layer_1
  10
622.30081
  20
494.95106
  0
VERTEX
  5
db
  8
Layer_1
  10
622.39999
  20
494.95352
  0
VERTEX
  5
dc
  8
Layer_1
  10
638.39999
  20
494.95352
  0
VERTEX
  5
dd
  8
Layer_1
  10
638.49916
  20
494.95106
  42
-0.18605107
  0
VERTEX
  5
de
  8
Layer_1
  10
639.81421
  20
494.36773
  0
VERTEX
  5
df
  8
Layer_1
  10
639.88259
  20
494.29586
  42
-0.18605207
  0
VERTEX
  5
e0
  8
Layer_1
  10
640.39999
  20
492.95352
  0
VERTEX
  5
e1
  8
Layer_1
  10
640.39999
  20
491.95352
  42
0.19891792
  0
VERTEX
  5
e2
  8
Layer_1
  10
640.98577
  20
490.5393
  42
0.19891991
  0
VERTEX
  5
e3
  8
Layer_1
  10
642.39999
  20
489.95352
  0
VERTEX
  5
e4
  8
Layer_1
  10
656.39999
  20
489.95352
  0
VERTEX
  5
e5
  8
Layer_1
  10
656.49916
  20
489.95106
  42
-0.18604911
  0
VERTEX
  5
e6
  8
Layer_1
  10
657.81421
  20
489.36773
  0
VERTEX
  5
e7
  8
Layer_1
  10
657.88259
  20
489.29586
  42
-0.18605282
  0
VERTEX
  5
e8
  8
Layer_1
  10
658.39999
  20
487.95352
  0
VERTEX
  5
e9
  8
Layer_1
  10
658.39999
  20
479.95351
  42
0.1989226
  0
VERTEX
  5
ea
  8
Layer_1
  10
658.98577
  20
478.5393
  42
0.19891727
  0
VERTEX
  5
eb
  8
Layer_1
  10
660.39999
  20
477.95351
  0
VERTEX
  5
ec
  8
Layer_1
  10
692.39999
  20
477.95351
  0
VERTEX
  5
ed
  8
Layer_1
  10
692.49916
  20
477.95106
  42
-0.18605531
  0
VERTEX
  5
ee
  8
Layer_1
  10
693.8142
  20
477.36773
  0
VERTEX
  5
ef
  8
Layer_1
  10
693.88259
  20
477.29586
  42
-0.18605367
  0
VERTEX
  5
f0
  8
Layer_1
  10
694.39999
  20
475.95351
  0
VERTEX
  5
f1
  8
Layer_1
  10
694.39999
  20
426.75351
  42
-0.19891517
  0
VERTEX
  5
f2
  8
Layer_1
  10
693.8142
  20
425.3393
  42
-0.19891336
  0
VERTEX
  5
f3
  8
Layer_1
  10
692.39999
  20
424.75351
  0
VERTEX
  5
f4
  8
Layer_1
  10
651.89999
  20
424.75351
  42
0.16238897
  0
VERTEX
  5
f5
  8
Layer_1
  10
631.22064
  20
417.67352
  0
VERTEX
  5
f6
  8
Layer_1
  10
630.65001
  20
417.22849
  0
SEQEND
  0
POLYLINE
  5
f8
  8
Layer_1
  62
0
  66
1
  10
0
  20
0
  30
0
  0
VERTEX
  5
f8
  8
Layer_1
  10
575.20711
  20
467.74641
  42
-0.19878147
  0
VERTEX
  5
f9
  8
Layer_1
  10
574.49998
  20
467.45351
  0
VERTEX
  5
fa
  8
Layer_1
  10
566.29999
  20
467.45351
  0
VERTEX
  5
fb
  8
Layer_1
  10
566.27516
  20
467.45382
  42
-0.19238623
  0
VERTEX
  5
fc
  8
Layer_1
  10
565.59288
  20
467.74641
  0
VERTEX
  5
fd
  8
Layer_1
  10
565.57555
  20
467.76418
  42
-0.19269855
  0
VERTEX
  5
fe
  8
Layer_1
  10
565.29999
  20
468.45351
  0
VERTEX
  5
ff
  8
Layer_1
  10
565.3071
  20
474.05352
  0
VERTEX
  5
100
  8
Layer_1
  10
565.3074
  20
474.07835
  42
-0.19248199
  0
VERTEX
  5
101
  8
Layer_1
  10
565.59999
  20
474.76062
  0
VERTEX
  5
102
  8
Layer_1
  10
565.61777
  20
474.77797
  42
-0.19254247
  0
VERTEX
  5
103
  8
Layer_1
  10
566.3071
  20
475.05352
  0
VERTEX
  5
104
  8
Layer_1
  10
574.49998
  20
475.05352
  42
-0.19899504
  0
VERTEX
  5
105
  8
Layer_1
  10
575.20711
  20
474.76062
  42
-0.19902772
  0
VERTEX
  5
106
  8
Layer_1
  10
575.49998
  20
474.05352
  0
VERTEX
  5
107
  8
Layer_1
  10
575.49998
  20
468.45351
  42
-0.19884413
  0
VERTEX
  5
108
  8
Layer_1
  10
575.20711
  20
467.74641
  0
SEQEND
  0
POLYLINE
  5
10a
  8
Layer_1
  62
0
  66
1
  10
0
  20
0
  30
0
  0
VERTEX
  5
10a
  8
Layer_1
  10
523.9722
  20
421.1757
  0
VERTEX
  5
10b
  8
Layer_1
  10
524.03299
  20
421.1193
  42
0.28279252
  0
VERTEX
  5
10c
  8
Layer_1
  10
525.17096
  20
420.93725
  42
0.30314075
  0
VERTEX
  5
10d
  8
Layer_1
  10
525.85002
  20
421.95351
  42
0.24951751
  0
VERTEX
  5
10e
  8
Layer_1
  10
525.36504
  20
422.86565
  42
0.14937051
  0
VERTEX
  5
10f
  8
Layer_1
  10
524.75002
  20
423.05351
  0
VERTEX
  5
110
  8
Layer_1
  10
524.66716
  20
423.0504
  42
0.28271011
  0
VERTEX
  5
111
  8
Layer_1
  10
523.73375
  20
422.37447
  0
VERTEX
  5
112
  8
Layer_1
  10
523.70493
  20
422.29672
  42
0.28305676
  0
VERTEX
  5
113
  8
Layer_1
  10
523.9722
  20
421.1757
  0
SEQEND
  0
POLYLINE
  5
115
  8
Layer_1
  62
0
  66
1
  10
0
  20
0
  30
0
  0
VERTEX
  5
115
  8
Layer_1
  10
506.90002
  20
470.75351
  0
VERTEX
  5
116
  8
Layer_1
  10
506.89969
  20
470.78083
  42
0.19257971
  0
VERTEX
  5
117
  8
Layer_1
  10
506.57784
  20
471.53133
  0
VERTEX
  5
118
  8
Layer_1
  10
506.55829
  20
471.55041
  42
0.19245524
  0
VERTEX
  5
119
  8
Layer_1
  10
505.80002
  20
471.85352
  0
VERTEX
  5
11a
  8
Layer_1
  10
505.71716
  20
471.8504
  42
0.28291463
  0
VERTEX
  5
11b
  8
Layer_1
  10
504.78375
  20
471.17447
  0
VERTEX
  5
11c
  8
Layer_1
  10
504.75491
  20
471.09672
  42
0.28291194
  0
VERTEX
  5
11d
  8
Layer_1
  10
505.0222
  20
469.9757
  0
VERTEX
  5
11e
  8
Layer_1
  10
505.08299
  20
469.9193
  42
0.28296759
  0
VERTEX
  5
11f
  8
Layer_1
  10
506.22098
  20
469.73725
  42
0.30348134
  0
VERTEX
  5
120
  8
Layer_1
  10
506.90002
  20
470.75351
  0
SEQEND
  0
POLYLINE
  5
122
  8
Layer_1
  62
0
  66
1
  10
0
  20
0
  30
0
  0
VERTEX
  5
122
  8
Layer_1
  10
434.22098
  20
441.83725
  42
0.30337576
  0
VERTEX
  5
123
  8
Layer_1
  10
434.90002
  20
442.85352
  0
VERTEX
  5
124
  8
Layer_1
  10
434.89969
  20
442.88083
  42
0.19239753
  0
VERTEX
  5
125
  8
Layer_1
  10
434.57782
  20
443.63133
  0
VERTEX
  5
126
  8
Layer_1
  10
434.55829
  20
443.65041
  42
0.19242752
  0
VERTEX
  5
127
  8
Layer_1
  10
433.80002
  20
443.95351
  0
VERTEX
  5
128
  8
Layer_1
  10
433.71716
  20
443.95041
  42
0.28291536
  0
VERTEX
  5
129
  8
Layer_1
  10
432.78375
  20
443.27447
  0
VERTEX
  5
12a
  8
Layer_1
  10
432.75491
  20
443.19672
  42
0.28284939
  0
VERTEX
  5
12b
  8
Layer_1
  10
433.02222
  20
442.0757
  42
0.30339584
  0
VERTEX
  5
12c
  8
Layer_1
  10
434.22098
  20
441.83725
  0
SEQEND
  0
POLYLINE
  5
12e
  8
Layer_1
  62
0
  66
1
  10
0
  20
0
  30
0
  0
VERTEX
  5
12e
  8
Layer_1
  10
434.22098
  20
458.83725
  42
0.30334786
  0
VERTEX
  5
12f
  8
Layer_1
  10
434.90002
  20
459.85352
  0
VERTEX
  5
130
  8
Layer_1
  10
434.89969
  20
459.88083
  42
0.19248121
  0
VERTEX
  5
131
  8
Layer_1
  10
434.57782
  20
460.63133
  0
VERTEX
  5
132
  8
Layer_1
  10
434.55829
  20
460.65041
  42
0.19246618
  0
VERTEX
  5
133
  8
Layer_1
  10
433.80002
  20
460.95351
  0
VERTEX
  5
134
  8
Layer_1
  10
433.71716
  20
460.95041
  42
0.28290357
  0
VERTEX
  5
135
  8
Layer_1
  10
432.78375
  20
460.27447
  0
VERTEX
  5
136
  8
Layer_1
  10
432.75491
  20
460.19672
  42
0.28287753
  0
VERTEX
  5
137
  8
Layer_1
  10
433.02222
  20
459.0757
  42
0.30339183
  0
VERTEX
  5
138
  8
Layer_1
  10
434.22098
  20
458.83725
  0
SEQEND
  0
POLYLINE
  5
13a
  8
Layer_1
  62
0
  66
1
  10
0
  20
0
  30
0
  0
VERTEX
  5
13a
  8
Layer_1
  10
478.55
  20
417.22849
  42
0.18930598
  0
VERTEX
  5
13b
  8
Layer_1
  10
485.30002
  20
415.17851
  0
VERTEX
  5
13c
  8
Layer_1
  10
492.60002
  20
415.75351
  42
-0.13315375
  0
VERTEX
  5
13d
  8
Layer_1
  10
529.81215
  20
409.09381
  0
VERTEX
  5
13e
  8
Layer_1
  10
530.92941
  20
408.55351
  0
VERTEX
  5
13f
  8
Layer_1
  10
538.31389
  20
405.23206
  42
0.37710084
  0
VERTEX
  5
140
  8
Layer_1
  10
540.75002
  20
405.90351
  0
VERTEX
  5
141
  8
Layer_1
  10
553.23407
  20
422.86562
  42
0.16379782
  0
VERTEX
  5
142
  8
Layer_1
  10
553.60002
  20
423.95351
  0
VERTEX
  5
143
  8
Layer_1
  10
553.60002
  20
425.15351
  0
VERTEX
  5
144
  8
Layer_1
  10
553.60002
  20
486.15351
  42
0.19892471
  0
VERTEX
  5
145
  8
Layer_1
  10
553.07281
  20
487.42631
  42
0.17329738
  0
VERTEX
  5
146
  8
Layer_1
  10
551.97792
  20
487.94471
  42
0.024556453
  0
VERTEX
  5
147
  8
Layer_1
  10
551.80002
  20
487.95352
  0
VERTEX
  5
148
  8
Layer_1
  10
508.55002
  20
487.95352
  42
-0.25674603
  0
VERTEX
  5
149
  8
Layer_1
  10
506.83514
  20
488.89614
  0
VERTEX
  5
14a
  8
Layer_1
  10
506.80005
  20
488.95353
  42
0.24524197
  0
VERTEX
  5
14b
  8
Layer_1
  10
505.29697
  20
489.94354
  42
0.025362375
  0
VERTEX
  5
14c
  8
Layer_1
  10
505.10002
  20
489.95352
  0
VERTEX
  5
14d
  8
Layer_1
  10
490.80002
  20
489.95352
  42
-0.18606449
  0
VERTEX
  5
14e
  8
Layer_1
  10
489.45767
  20
490.47091
  0
VERTEX
  5
14f
  8
Layer_1
  10
489.3858
  20
490.5393
  42
-0.18604923
  0
VERTEX
  5
150
  8
Layer_1
  10
488.80247
  20
491.85434
  0
VERTEX
  5
151
  8
Layer_1
  10
488.80002
  20
491.95352
  0
VERTEX
  5
152
  8
Layer_1
  10
488.80002
  20
492.95352
  42
0.19891402
  0
VERTEX
  5
153
  8
Layer_1
  10
488.21423
  20
494.36773
  42
0.18605248
  0
VERTEX
  5
154
  8
Layer_1
  10
486.8992
  20
494.95106
  0
VERTEX
  5
155
  8
Layer_1
  10
486.80002
  20
494.95352
  0
VERTEX
  5
156
  8
Layer_1
  10
470.80002
  20
494.95352
  0
VERTEX
  5
157
  8
Layer_1
  10
470.70084
  20
494.95106
  42
0.18605107
  0
VERTEX
  5
158
  8
Layer_1
  10
469.3858
  20
494.36773
  0
VERTEX
  5
159
  8
Layer_1
  10
469.31741
  20
494.29586
  42
0.18605207
  0
VERTEX
  5
15a
  8
Layer_1
  10
468.80002
  20
492.95352
  0
VERTEX
  5
15b
  8
Layer_1
  10
468.80002
  20
491.95352
  42
-0.19891792
  0
VERTEX
  5
15c
  8
Layer_1
  10
468.21423
  20
490.5393
  42
-0.19891991
  0
VERTEX
  5
15d
  8
Layer_1
  10
466.80002
  20
489.95352
  0
VERTEX
  5
15e
  8
Layer_1
  10
452.80002
  20
489.95352
  0
VERTEX
  5
15f
  8
Layer_1
  10
452.70084
  20
489.95106
  42
0.18604911
  0
VERTEX
  5
160
  8
Layer_1
  10
451.3858
  20
489.36773
  0
VERTEX
  5
161
  8
Layer_1
  10
451.31741
  20
489.29586
  42
0.18605282
  0
VERTEX
  5
162
  8
Layer_1
  10
450.80002
  20
487.95352
  0
VERTEX
  5
163
  8
Layer_1
  10
450.80002
  20
479.95351
  42
-0.1989226
  0
VERTEX
  5
164
  8
Layer_1
  10
450.21423
  20
478.5393
  42
-0.19891727
  0
VERTEX
  5
165
  8
Layer_1
  10
448.80002
  20
477.95351
  0
VERTEX
  5
166
  8
Layer_1
  10
416.80002
  20
477.95351
  0
VERTEX
  5
167
  8
Layer_1
  10
416.70084
  20
477.95106
  42
0.18605531
  0
VERTEX
  5
168
  8
Layer_1
  10
415.3858
  20
477.36773
  0
VERTEX
  5
169
  8
Layer_1
  10
415.31741
  20
477.29586
  42
0.18605367
  0
VERTEX
  5
16a
  8
Layer_1
  10
414.80002
  20
475.95351
  0
VERTEX
  5
16b
  8
Layer_1
  10
414.80002
  20
426.75351
  42
0.19891517
  0
VERTEX
  5
16c
  8
Layer_1
  10
415.3858
  20
425.3393
  42
0.19891336
  0
VERTEX
  5
16d
  8
Layer_1
  10
416.80002
  20
424.75351
  0
VERTEX
  5
16e
  8
Layer_1
  10
457.30002
  20
424.75351
  42
-0.16238897
  0
VERTEX
  5
16f
  8
Layer_1
  10
477.97937
  20
417.67352
  0
VERTEX
  5
170
  8
Layer_1
  10
478.55
  20
417.22849
  0
SEQEND
  0
POLYLINE
  5
172
  8
Layer_1
  62
0
  66
1
  10
0
  20
0
  30
0
  0
VERTEX
  5
172
  8
Layer_1
  10
533.9929
  20
467.74641
  42
0.19878147
  0
VERTEX
  5
173
  8
Layer_1
  10
534.70001
  20
467.45351
  0
VERTEX
  5
174
  8
Layer_1
  10
542.90002
  20
467.45351
  0
VERTEX
  5
175
  8
Layer_1
  10
542.92485
  20
467.45382
  42
0.19238623
  0
VERTEX
  5
176
  8
Layer_1
  10
543.60713
  20
467.74641
  0
VERTEX
  5
177
  8
Layer_1
  10
543.62447
  20
467.76418
  42
0.19269855
  0
VERTEX
  5
178
  8
Layer_1
  10
543.90002
  20
468.45351
  0
VERTEX
  5
179
  8
Layer_1
  10
543.89291
  20
474.05352
  0
VERTEX
  5
17a
  8
Layer_1
  10
543.89261
  20
474.07835
  42
0.19248199
  0
VERTEX
  5
17b
  8
Layer_1
  10
543.60002
  20
474.76062
  0
VERTEX
  5
17c
  8
Layer_1
  10
543.58224
  20
474.77797
  42
0.19254247
  0
VERTEX
  5
17d
  8
Layer_1
  10
542.89291
  20
475.05352
  0
VERTEX
  5
17e
  8
Layer_1
  10
534.70001
  20
475.05352
  42
0.19899504
  0
VERTEX
  5
17f
  8
Layer_1
  10
533.9929
  20
474.76062
  42
0.19902772
  0
VERTEX
  5
180
  8
Layer_1
  10
533.70001
  20
474.05352
  0
VERTEX
  5
181
  8
Layer_1
  10
533.70001
  20
468.45351
  42
0.19884413
  0
VERTEX
  5
182
  8
Layer_1
  10
533.9929
  20
467.74641
  0
SEQEND
  0
ENDSEC
  0
EOF
