<?xml version="1.0" encoding="UTF-8" standalone="no"?>
<svg xmlns="http://www.w3.org/2000/svg" xmlns:xlink="http://www.w3.org/1999/xlink" width="268.703mm" height="89.878mm" viewBox="-600.351746 -257.939026 268.703491 89.878021">
    <circle transform="matrix(1,-0.000001,0.000001,1,-441.598206,-184.943451)" style="stroke:#000000;stroke-width:0.05mm;fill:none" r="1.049997" cx="0" cy="0"/>
    <circle transform="matrix(1,-0.000001,0.000001,1,-350.648193,-222.843475)" style="stroke:#000000;stroke-width:0.05mm;fill:none" r="1.049997" cx="0" cy="0"/>
    <circle transform="matrix(1,-0.000001,0.000001,1,-350.648193,-205.843475)" style="stroke:#000000;stroke-width:0.05mm;fill:none" r="1.049997" cx="0" cy="0"/>
    <circle transform="matrix(1,-0.000001,0.000001,1,-422.648193,-233.743439)" style="stroke:#000000;stroke-width:0.05mm;fill:none" r="1.049997" cx="0" cy="0"/>
    <path transform="matrix(1,-0,-0,-1,-608.000244,-82.024368)" style="stroke:#000000;stroke-width:0.05mm;fill:none" d="M166.351807,160.880371C166.351807,159.775803,165.456375,158.880371,164.351807,158.880371L145.00032,158.880371C144.469879,158.880371,143.961151,158.669647,143.586075,158.294556C143.210999,157.919464,143.000305,157.410736,143.00032,156.880295L143.002441,103.17627C143.002335,102.883759,143.066483,102.594788,143.19043,102.329826L150.249512,87.19165C150.710968,86.200394,151.883255,85.763809,152.880615,86.211914L160.222656,89.514404L161.233398,90.00415C172.853455,95.524216,185.736847,97.840836,198.552002,96.7146L205.852051,96.139404C208.280136,95.946419,210.691406,96.678734,212.602051,98.189453L213.172852,98.634521C219.117691,103.17099,226.374283,105.655479,233.852051,105.7146L274.352051,105.7146C274.882507,105.714394,275.391235,105.92514,275.766327,106.300262C276.141388,106.675377,276.352081,107.184143,276.352051,107.7146L276.352051,156.914551C276.351532,158.018982,275.456482,158.914032,274.352051,158.914551L242.352051,158.914551C241.247543,158.915237,240.351852,159.810043,240.352051,160.914551L240.352051,168.914551C240.351883,170.019073,239.456573,170.914383,238.352051,170.914551L224.352051,170.914551C223.821609,170.914536,223.312866,171.125214,222.93779,171.50029C222.562714,171.875366,222.352036,172.384109,222.352051,172.914551L222.352051,173.914551C222.352066,175.019135,221.456635,175.914566,220.352051,175.914551L204.352051,175.914551C203.247498,175.914597,202.352448,175.019104,202.352051,173.914551L202.352051,172.914551C202.352509,172.384064,202.141876,171.875214,201.766678,171.500198C201.391479,171.125183,200.882538,170.91481,200.352051,170.914551L186.052002,170.914551C185.322098,170.912186,184.653793,170.504822,184.317139,169.857178L184.164795,169.648193C183.778763,169.183578,183.206116,168.914749,182.602051,168.914551L168.351807,168.914551C167.247238,168.914551,166.351807,168.019119,166.351807,166.914551L166.351807,160.880371z"/>
    <circle transform="matrix(-1,-0.000001,-0.000001,1,-490.401794,-184.943451)" style="stroke:#000000;stroke-width:0.05mm;fill:none" r="1.049997" cx="0" cy="0"/>
    <circle transform="matrix(-1,-0.000001,-0.000001,1,-581.351807,-222.843475)" style="stroke:#000000;stroke-width:0.05mm;fill:none" r="1.049997" cx="0" cy="0"/>
    <circle transform="matrix(-1,-0.000001,-0.000001,1,-581.351807,-205.843475)" style="stroke:#000000;stroke-width:0.05mm;fill:none" r="1.049997" cx="0" cy="0"/>
    <circle transform="matrix(-1,-0.000001,-0.000001,1,-509.351807,-233.743439)" style="stroke:#000000;stroke-width:0.05mm;fill:none" r="1.049997" cx="0" cy="0"/>
    <path transform="matrix(-1,-0,0,-1,-323.999756,-82.024368)" style="stroke:#000000;stroke-width:0.05mm;fill:none" d="M166.351807,160.880371C166.351807,159.775803,165.456375,158.880371,164.351807,158.880371L145.00032,158.880371C144.469879,158.880371,143.961151,158.669647,143.586075,158.294556C143.210999,157.919464,143.000305,157.410736,143.00032,156.880295L143.002441,103.17627C143.002335,102.883759,143.066483,102.594788,143.19043,102.329826L150.249512,87.19165C150.710968,86.200394,151.883255,85.763809,152.880615,86.211914L160.222656,89.514404L161.233398,90.00415C172.853455,95.524216,185.736847,97.840836,198.552002,96.7146L205.852051,96.139404C208.280136,95.946419,210.691406,96.678734,212.602051,98.189453L213.172852,98.634521C219.117691,103.17099,226.374283,105.655479,233.852051,105.7146L274.352051,105.7146C274.882507,105.714394,275.391235,105.92514,275.766327,106.300262C276.141388,106.675377,276.352081,107.184143,276.352051,107.7146L276.352051,156.914551C276.351532,158.018982,275.456482,158.914032,274.352051,158.914551L242.352051,158.914551C241.247543,158.915237,240.351852,159.810043,240.352051,160.914551L240.352051,168.914551C240.351883,170.019073,239.456573,170.914383,238.352051,170.914551L224.352051,170.914551C223.821609,170.914536,223.312866,171.125214,222.93779,171.50029C222.562714,171.875366,222.352036,172.384109,222.352051,172.914551L222.352051,173.914551C222.352066,175.019135,221.456635,175.914566,220.352051,175.914551L204.352051,175.914551C203.247498,175.914597,202.352448,175.019104,202.352051,173.914551L202.352051,172.914551C202.352509,172.384064,202.141876,171.875214,201.766678,171.500198C201.391479,171.125183,200.882538,170.91481,200.352051,170.914551L186.052002,170.914551C185.322098,170.912186,184.653793,170.504822,184.317139,169.857178L184.164795,169.648193C183.778763,169.183578,183.206116,168.914749,182.602051,168.914551L168.351807,168.914551C167.247238,168.914551,166.351807,168.019119,166.351807,166.914551L166.351807,160.880371z"/>
</svg>
