  0
SECTION
  2
HEADER
  9
$ACADVER
  1
AC1009
  0
ENDSEC
  0
SECTION
  2
ENTITIES
  0
POLYLINE
  5
90
  8
Layer_0
  62
0
  66
1
  10
0
  20
0
  30
0
  0
VERTEX
  5
90
  8
Layer_0
  10
682.72822
  20
718.47351
  0
VERTEX
  5
91
  8
Layer_0
  10
682.8222
  20
718.43416
  42
0.39522898
  0
VERTEX
  5
92
  8
Layer_0
  10
685.35924
  20
719.45319
  0
VERTEX
  5
93
  8
Layer_0
  10
691.69949
  20
733.0498
  42
0.19891417
  0
VERTEX
  5
94
  8
Layer_0
  10
691.76627
  20
734.57907
  42
0.19893214
  0
VERTEX
  5
95
  8
Layer_0
  10
690.73212
  20
735.70764
  0
VERTEX
  5
96
  8
Layer_0
  10
671.1971
  20
744.81697
  42
-0.28157831
  0
VERTEX
  5
97
  8
Layer_0
  10
669.46696
  20
747.42593
  0
VERTEX
  5
98
  8
Layer_0
  10
669.46495
  20
747.53488
  0
VERTEX
  5
99
  8
Layer_0
  10
669.46719
  20
799.07806
  42
0.19905704
  0
VERTEX
  5
9a
  8
Layer_0
  10
668.88161
  20
800.49246
  42
0.19902823
  0
VERTEX
  5
9b
  8
Layer_0
  10
667.46719
  20
801.07806
  0
VERTEX
  5
9c
  8
Layer_0
  10
653.21698
  20
801.07806
  42
-0.25670514
  0
VERTEX
  5
9d
  8
Layer_0
  10
651.50207
  20
802.02066
  0
VERTEX
  5
9e
  8
Layer_0
  10
651.46696
  20
802.07803
  42
0.27243549
  0
VERTEX
  5
9f
  8
Layer_0
  10
649.76698
  20
803.07806
  0
VERTEX
  5
a0
  8
Layer_0
  10
635.46698
  20
803.07806
  42
-0.18613565
  0
VERTEX
  5
a1
  8
Layer_0
  10
634.12463
  20
803.59546
  0
VERTEX
  5
a2
  8
Layer_0
  10
634.05277
  20
803.66382
  42
-0.18604386
  0
VERTEX
  5
a3
  8
Layer_0
  10
633.46944
  20
804.97888
  0
VERTEX
  5
a4
  8
Layer_0
  10
633.46698
  20
805.07806
  0
VERTEX
  5
a5
  8
Layer_0
  10
633.46698
  20
806.07806
  42
0.19896862
  0
VERTEX
  5
a6
  8
Layer_0
  10
632.88135
  20
807.49252
  42
0.19912414
  0
VERTEX
  5
a7
  8
Layer_0
  10
631.46698
  20
808.07806
  0
VERTEX
  5
a8
  8
Layer_0
  10
615.46698
  20
808.07806
  42
0.24966627
  0
VERTEX
  5
a9
  8
Layer_0
  10
613.80855
  20
807.19626
  42
0.15006388
  0
VERTEX
  5
aa
  8
Layer_0
  10
613.46698
  20
806.07806
  0
VERTEX
  5
ab
  8
Layer_0
  10
613.46698
  20
805.07806
  42
-0.18614949
  0
VERTEX
  5
ac
  8
Layer_0
  10
612.94958
  20
803.73572
  0
VERTEX
  5
ad
  8
Layer_0
  10
612.8812
  20
803.66382
  42
-0.18603722
  0
VERTEX
  5
ae
  8
Layer_0
  10
611.56615
  20
803.08051
  0
VERTEX
  5
af
  8
Layer_0
  10
611.46698
  20
803.07806
  0
VERTEX
  5
b0
  8
Layer_0
  10
597.46698
  20
803.07806
  42
0.28821711
  0
VERTEX
  5
b1
  8
Layer_0
  10
595.6642
  20
801.94513
  42
0.11296606
  0
VERTEX
  5
b2
  8
Layer_0
  10
595.46698
  20
801.07806
  0
VERTEX
  5
b3
  8
Layer_0
  10
595.46698
  20
793.07806
  42
-0.18604304
  0
VERTEX
  5
b4
  8
Layer_0
  10
594.94958
  20
791.73572
  0
VERTEX
  5
b5
  8
Layer_0
  10
594.8812
  20
791.66382
  42
-0.18607033
  0
VERTEX
  5
b6
  8
Layer_0
  10
593.56615
  20
791.08051
  0
VERTEX
  5
b7
  8
Layer_0
  10
593.46698
  20
791.07806
  0
VERTEX
  5
b8
  8
Layer_0
  10
561.46698
  20
791.07806
  42
0.1989223
  0
VERTEX
  5
b9
  8
Layer_0
  10
560.05276
  20
790.49225
  42
0.18605656
  0
VERTEX
  5
ba
  8
Layer_0
  10
559.46944
  20
789.17722
  0
VERTEX
  5
bb
  8
Layer_0
  10
559.46698
  20
789.07806
  0
VERTEX
  5
bc
  8
Layer_0
  10
559.46698
  20
739.87805
  0
VERTEX
  5
bd
  8
Layer_0
  10
559.46944
  20
739.77887
  42
0.18605177
  0
VERTEX
  5
be
  8
Layer_0
  10
560.05276
  20
738.46384
  0
VERTEX
  5
bf
  8
Layer_0
  10
560.12463
  20
738.39545
  42
0.18605348
  0
VERTEX
  5
c0
  8
Layer_0
  10
561.46698
  20
737.87805
  0
VERTEX
  5
c1
  8
Layer_0
  10
601.96698
  20
737.87805
  42
-0.16777066
  0
VERTEX
  5
c2
  8
Layer_0
  10
623.21698
  20
730.35304
  0
VERTEX
  5
c3
  8
Layer_0
  10
623.58097
  20
730.07893
  42
0.17710013
  0
VERTEX
  5
c4
  8
Layer_0
  10
629.96698
  20
728.30304
  0
VERTEX
  5
c5
  8
Layer_0
  10
637.26698
  20
728.87805
  42
-0.012868829
  0
VERTEX
  5
c6
  8
Layer_0
  10
640.97858
  20
729.10817
  42
-0.12443383
  0
VERTEX
  5
c7
  8
Layer_0
  10
675.59638
  20
721.67804
  0
VERTEX
  5
c8
  8
Layer_0
  10
682.72822
  20
718.47351
  0
SEQEND
  0
POLYLINE
  5
ca
  8
Layer_0
  62
0
  66
1
  10
0
  20
0
  30
0
  0
VERTEX
  5
ca
  8
Layer_0
  10
652.46698
  20
764.47806
  0
VERTEX
  5
cb
  8
Layer_0
  10
666.46698
  20
764.47806
  0
VERTEX
  5
cc
  8
Layer_0
  10
666.46698
  20
750.47804
  0
VERTEX
  5
cd
  8
Layer_0
  10
652.46698
  20
750.47804
  0
VERTEX
  5
ce
  8
Layer_0
  10
652.46698
  20
764.47806
  0
SEQEND
  0
POLYLINE
  5
d0
  8
Layer_0
  62
0
  66
1
  10
0
  20
0
  30
0
  0
VERTEX
  5
d0
  8
Layer_0
  10
634.46698
  20
766.47806
  0
VERTEX
  5
d1
  8
Layer_0
  10
648.46698
  20
766.47806
  0
VERTEX
  5
d2
  8
Layer_0
  10
648.46698
  20
752.47804
  0
VERTEX
  5
d3
  8
Layer_0
  10
634.46698
  20
752.47804
  0
VERTEX
  5
d4
  8
Layer_0
  10
634.46698
  20
766.47806
  0
SEQEND
  0
POLYLINE
  5
d6
  8
Layer_0
  62
0
  66
1
  10
0
  20
0
  30
0
  0
VERTEX
  5
d6
  8
Layer_0
  10
580.46698
  20
754.47804
  0
VERTEX
  5
d7
  8
Layer_0
  10
594.46698
  20
754.47804
  0
VERTEX
  5
d8
  8
Layer_0
  10
594.46698
  20
740.47804
  0
VERTEX
  5
d9
  8
Layer_0
  10
580.46698
  20
740.47804
  0
VERTEX
  5
da
  8
Layer_0
  10
580.46698
  20
754.47804
  0
SEQEND
  0
POLYLINE
  5
dc
  8
Layer_0
  62
0
  66
1
  10
0
  20
0
  30
0
  0
VERTEX
  5
dc
  8
Layer_0
  10
598.46698
  20
800.47803
  0
VERTEX
  5
dd
  8
Layer_0
  10
612.46698
  20
800.47803
  0
VERTEX
  5
de
  8
Layer_0
  10
612.46698
  20
786.47806
  0
VERTEX
  5
df
  8
Layer_0
  10
598.46698
  20
786.47806
  0
VERTEX
  5
e0
  8
Layer_0
  10
598.46698
  20
800.47803
  0
SEQEND
  0
POLYLINE
  5
e2
  8
Layer_0
  62
0
  66
1
  10
0
  20
0
  30
0
  0
VERTEX
  5
e2
  8
Layer_0
  10
562.46698
  20
771.47806
  0
VERTEX
  5
e3
  8
Layer_0
  10
576.46698
  20
771.47806
  0
VERTEX
  5
e4
  8
Layer_0
  10
576.46698
  20
757.47806
  0
VERTEX
  5
e5
  8
Layer_0
  10
562.46698
  20
757.47806
  0
VERTEX
  5
e6
  8
Layer_0
  10
562.46698
  20
771.47806
  0
SEQEND
  0
POLYLINE
  5
e8
  8
Layer_0
  62
0
  66
1
  10
0
  20
0
  30
0
  0
VERTEX
  5
e8
  8
Layer_0
  10
634.46698
  20
800.47803
  0
VERTEX
  5
e9
  8
Layer_0
  10
648.46698
  20
800.47803
  0
VERTEX
  5
ea
  8
Layer_0
  10
648.46698
  20
786.47806
  0
VERTEX
  5
eb
  8
Layer_0
  10
634.46698
  20
786.47806
  0
VERTEX
  5
ec
  8
Layer_0
  10
634.46698
  20
800.47803
  0
SEQEND
  0
POLYLINE
  5
ee
  8
Layer_0
  62
0
  66
1
  10
0
  20
0
  30
0
  0
VERTEX
  5
ee
  8
Layer_0
  10
598.46698
  20
783.47803
  0
VERTEX
  5
ef
  8
Layer_0
  10
612.46698
  20
783.47803
  0
VERTEX
  5
f0
  8
Layer_0
  10
612.46698
  20
769.47806
  0
VERTEX
  5
f1
  8
Layer_0
  10
598.46698
  20
769.47806
  0
VERTEX
  5
f2
  8
Layer_0
  10
598.46698
  20
783.47803
  0
SEQEND
  0
POLYLINE
  5
f4
  8
Layer_0
  62
0
  66
1
  10
0
  20
0
  30
0
  0
VERTEX
  5
f4
  8
Layer_0
  10
628.88353
  20
744.84131
  0
VERTEX
  5
f5
  8
Layer_0
  10
642.83025
  20
746.06149
  0
VERTEX
  5
f6
  8
Layer_0
  10
644.05043
  20
732.11478
  0
VERTEX
  5
f7
  8
Layer_0
  10
630.10371
  20
730.89459
  0
VERTEX
  5
f8
  8
Layer_0
  10
628.88353
  20
744.84131
  0
SEQEND
  0
POLYLINE
  5
fa
  8
Layer_0
  62
0
  66
1
  10
0
  20
0
  30
0
  0
VERTEX
  5
fa
  8
Layer_0
  10
580.46698
  20
788.47803
  0
VERTEX
  5
fb
  8
Layer_0
  10
594.46698
  20
788.47803
  0
VERTEX
  5
fc
  8
Layer_0
  10
594.46698
  20
774.47806
  0
VERTEX
  5
fd
  8
Layer_0
  10
580.46698
  20
774.47806
  0
VERTEX
  5
fe
  8
Layer_0
  10
580.46698
  20
788.47803
  0
SEQEND
  0
POLYLINE
  5
100
  8
Layer_0
  62
0
  66
1
  10
0
  20
0
  30
0
  0
VERTEX
  5
100
  8
Layer_0
  10
634.46698
  20
783.47803
  0
VERTEX
  5
101
  8
Layer_0
  10
648.46698
  20
783.47803
  0
VERTEX
  5
102
  8
Layer_0
  10
648.46698
  20
769.47806
  0
VERTEX
  5
103
  8
Layer_0
  10
634.46698
  20
769.47806
  0
VERTEX
  5
104
  8
Layer_0
  10
634.46698
  20
783.47803
  0
SEQEND
  0
POLYLINE
  5
106
  8
Layer_0
  62
0
  66
1
  10
0
  20
0
  30
0
  0
VERTEX
  5
106
  8
Layer_0
  10
616.46698
  20
771.47806
  0
VERTEX
  5
107
  8
Layer_0
  10
630.46698
  20
771.47806
  0
VERTEX
  5
108
  8
Layer_0
  10
630.46698
  20
757.47806
  0
VERTEX
  5
109
  8
Layer_0
  10
616.46698
  20
757.47806
  0
VERTEX
  5
10a
  8
Layer_0
  10
616.46698
  20
771.47806
  0
SEQEND
  0
POLYLINE
  5
10c
  8
Layer_0
  62
0
  66
1
  10
0
  20
0
  30
0
  0
VERTEX
  5
10c
  8
Layer_0
  10
616.46698
  20
805.47803
  0
VERTEX
  5
10d
  8
Layer_0
  10
630.46698
  20
805.47803
  0
VERTEX
  5
10e
  8
Layer_0
  10
630.46698
  20
791.47806
  0
VERTEX
  5
10f
  8
Layer_0
  10
616.46698
  20
791.47806
  0
VERTEX
  5
110
  8
Layer_0
  10
616.46698
  20
805.47803
  0
SEQEND
  0
POLYLINE
  5
112
  8
Layer_0
  62
0
  66
1
  10
0
  20
0
  30
0
  0
VERTEX
  5
112
  8
Layer_0
  10
598.46698
  20
766.47806
  0
VERTEX
  5
113
  8
Layer_0
  10
612.46698
  20
766.47806
  0
VERTEX
  5
114
  8
Layer_0
  10
612.46698
  20
752.47804
  0
VERTEX
  5
115
  8
Layer_0
  10
598.46698
  20
752.47804
  0
VERTEX
  5
116
  8
Layer_0
  10
598.46698
  20
766.47806
  0
SEQEND
  0
POLYLINE
  5
118
  8
Layer_0
  62
0
  66
1
  10
0
  20
0
  30
0
  0
VERTEX
  5
118
  8
Layer_0
  10
652.46698
  20
781.47806
  0
VERTEX
  5
119
  8
Layer_0
  10
666.46698
  20
781.47806
  0
VERTEX
  5
11a
  8
Layer_0
  10
666.46698
  20
767.47806
  0
VERTEX
  5
11b
  8
Layer_0
  10
652.46698
  20
767.47806
  0
VERTEX
  5
11c
  8
Layer_0
  10
652.46698
  20
781.47806
  0
SEQEND
  0
POLYLINE
  5
11e
  8
Layer_0
  62
0
  66
1
  10
0
  20
0
  30
0
  0
VERTEX
  5
11e
  8
Layer_0
  10
676.08115
  20
739.78053
  0
VERTEX
  5
11f
  8
Layer_0
  10
688.76947
  20
733.86388
  0
VERTEX
  5
120
  8
Layer_0
  10
682.85281
  20
721.17557
  0
VERTEX
  5
121
  8
Layer_0
  10
670.1645
  20
727.09222
  0
VERTEX
  5
122
  8
Layer_0
  10
676.08115
  20
739.78053
  0
SEQEND
  0
POLYLINE
  5
124
  8
Layer_0
  62
0
  66
1
  10
0
  20
0
  30
0
  0
VERTEX
  5
124
  8
Layer_0
  10
580.46698
  20
771.47806
  0
VERTEX
  5
125
  8
Layer_0
  10
594.46698
  20
771.47806
  0
VERTEX
  5
126
  8
Layer_0
  10
594.46698
  20
757.47806
  0
VERTEX
  5
127
  8
Layer_0
  10
580.46698
  20
757.47806
  0
VERTEX
  5
128
  8
Layer_0
  10
580.46698
  20
771.47806
  0
SEQEND
  0
POLYLINE
  5
12a
  8
Layer_0
  62
0
  66
1
  10
0
  20
0
  30
0
  0
VERTEX
  5
12a
  8
Layer_0
  10
652.46698
  20
798.47803
  0
VERTEX
  5
12b
  8
Layer_0
  10
666.46698
  20
798.47803
  0
VERTEX
  5
12c
  8
Layer_0
  10
666.46698
  20
784.47803
  0
VERTEX
  5
12d
  8
Layer_0
  10
652.46698
  20
784.47803
  0
VERTEX
  5
12e
  8
Layer_0
  10
652.46698
  20
798.47803
  0
SEQEND
  0
POLYLINE
  5
130
  8
Layer_0
  62
0
  66
1
  10
0
  20
0
  30
0
  0
VERTEX
  5
130
  8
Layer_0
  10
562.46698
  20
754.47804
  0
VERTEX
  5
131
  8
Layer_0
  10
576.46698
  20
754.47804
  0
VERTEX
  5
132
  8
Layer_0
  10
576.46698
  20
740.47804
  0
VERTEX
  5
133
  8
Layer_0
  10
562.46698
  20
740.47804
  0
VERTEX
  5
134
  8
Layer_0
  10
562.46698
  20
754.47804
  0
SEQEND
  0
POLYLINE
  5
136
  8
Layer_0
  62
0
  66
1
  10
0
  20
0
  30
0
  0
VERTEX
  5
136
  8
Layer_0
  10
616.46698
  20
788.47803
  0
VERTEX
  5
137
  8
Layer_0
  10
630.46698
  20
788.47803
  0
VERTEX
  5
138
  8
Layer_0
  10
630.46698
  20
774.47806
  0
VERTEX
  5
139
  8
Layer_0
  10
616.46698
  20
774.47806
  0
VERTEX
  5
13a
  8
Layer_0
  10
616.46698
  20
788.47803
  0
SEQEND
  0
POLYLINE
  5
13c
  8
Layer_0
  62
0
  66
1
  10
0
  20
0
  30
0
  0
VERTEX
  5
13c
  8
Layer_0
  10
562.46698
  20
788.47803
  0
VERTEX
  5
13d
  8
Layer_0
  10
576.46698
  20
788.47803
  0
VERTEX
  5
13e
  8
Layer_0
  10
576.46698
  20
774.47806
  0
VERTEX
  5
13f
  8
Layer_0
  10
562.46698
  20
774.47806
  0
VERTEX
  5
140
  8
Layer_0
  10
562.46698
  20
788.47803
  0
SEQEND
  0
POLYLINE
  5
142
  8
Layer_0
  62
0
  66
1
  10
0
  20
0
  30
0
  0
VERTEX
  5
142
  8
Layer_0
  10
652.78886
  20
745.58723
  0
VERTEX
  5
143
  8
Layer_0
  10
666.57616
  20
743.15616
  0
VERTEX
  5
144
  8
Layer_0
  10
664.1451
  20
729.36885
  0
VERTEX
  5
145
  8
Layer_0
  10
650.35779
  20
731.79993
  0
VERTEX
  5
146
  8
Layer_0
  10
652.78886
  20
745.58723
  0
SEQEND
  0
CIRCLE
  5
148
  8
Layer_0
  62
0
  10
578.46802
  20
772.98059
  30
0
  40
1.0499933
  0
CIRCLE
  5
148
  8
Layer_0
  62
0
  10
578.46802
  20
755.98059
  30
0
  40
1.0499933
  0
CIRCLE
  5
148
  8
Layer_0
  62
0
  10
650.46796
  20
783.98059
  30
0
  40
1.0499933
  0
CIRCLE
  5
148
  8
Layer_0
  62
0
  10
669.41797
  20
735.08057
  30
0
  40
1.0499933
  0
POLYLINE
  5
148
  8
Layer_0
  62
0
  66
1
  10
0
  20
0
  30
0
  0
VERTEX
  5
148
  8
Layer_0
  10
433.27176
  20
718.47351
  0
VERTEX
  5
149
  8
Layer_0
  10
433.17776
  20
718.43416
  42
-0.39522898
  0
VERTEX
  5
14a
  8
Layer_0
  10
430.64075
  20
719.45319
  0
VERTEX
  5
14b
  8
Layer_0
  10
424.30048
  20
733.0498
  42
-0.19891417
  0
VERTEX
  5
14c
  8
Layer_0
  10
424.2337
  20
734.57907
  42
-0.19893214
  0
VERTEX
  5
14d
  8
Layer_0
  10
425.26785
  20
735.70764
  0
VERTEX
  5
14e
  8
Layer_0
  10
444.80287
  20
744.81697
  42
0.28157831
  0
VERTEX
  5
14f
  8
Layer_0
  10
446.53302
  20
747.42593
  0
VERTEX
  5
150
  8
Layer_0
  10
446.53502
  20
747.53488
  0
VERTEX
  5
151
  8
Layer_0
  10
446.53278
  20
799.07806
  42
-0.19905704
  0
VERTEX
  5
152
  8
Layer_0
  10
447.11836
  20
800.49246
  42
-0.19902823
  0
VERTEX
  5
153
  8
Layer_0
  10
448.53278
  20
801.07806
  0
VERTEX
  5
154
  8
Layer_0
  10
462.78299
  20
801.07806
  42
0.25670514
  0
VERTEX
  5
155
  8
Layer_0
  10
464.49789
  20
802.02066
  0
VERTEX
  5
156
  8
Layer_0
  10
464.53302
  20
802.07803
  42
-0.27243549
  0
VERTEX
  5
157
  8
Layer_0
  10
466.23299
  20
803.07806
  0
VERTEX
  5
158
  8
Layer_0
  10
480.53299
  20
803.07806
  42
0.18613565
  0
VERTEX
  5
159
  8
Layer_0
  10
481.87534
  20
803.59546
  0
VERTEX
  5
15a
  8
Layer_0
  10
481.9472
  20
803.66382
  42
0.18604386
  0
VERTEX
  5
15b
  8
Layer_0
  10
482.53053
  20
804.97888
  0
VERTEX
  5
15c
  8
Layer_0
  10
482.53299
  20
805.07806
  0
VERTEX
  5
15d
  8
Layer_0
  10
482.53299
  20
806.07806
  42
-0.19896862
  0
VERTEX
  5
15e
  8
Layer_0
  10
483.11862
  20
807.49252
  42
-0.19912414
  0
VERTEX
  5
15f
  8
Layer_0
  10
484.53299
  20
808.07806
  0
VERTEX
  5
160
  8
Layer_0
  10
500.53299
  20
808.07806
  42
-0.24966627
  0
VERTEX
  5
161
  8
Layer_0
  10
502.19142
  20
807.19626
  42
-0.15006388
  0
VERTEX
  5
162
  8
Layer_0
  10
502.53299
  20
806.07806
  0
VERTEX
  5
163
  8
Layer_0
  10
502.53299
  20
805.07806
  42
0.18614949
  0
VERTEX
  5
164
  8
Layer_0
  10
503.05038
  20
803.73572
  0
VERTEX
  5
165
  8
Layer_0
  10
503.11877
  20
803.66382
  42
0.18603722
  0
VERTEX
  5
166
  8
Layer_0
  10
504.43381
  20
803.08051
  0
VERTEX
  5
167
  8
Layer_0
  10
504.53299
  20
803.07806
  0
VERTEX
  5
168
  8
Layer_0
  10
518.53299
  20
803.07806
  42
-0.28821711
  0
VERTEX
  5
169
  8
Layer_0
  10
520.33577
  20
801.94513
  42
-0.11296606
  0
VERTEX
  5
16a
  8
Layer_0
  10
520.53299
  20
801.07806
  0
VERTEX
  5
16b
  8
Layer_0
  10
520.53299
  20
793.07806
  42
0.18604304
  0
VERTEX
  5
16c
  8
Layer_0
  10
521.05038
  20
791.73572
  0
VERTEX
  5
16d
  8
Layer_0
  10
521.11877
  20
791.66382
  42
0.18607033
  0
VERTEX
  5
16e
  8
Layer_0
  10
522.43381
  20
791.08051
  0
VERTEX
  5
16f
  8
Layer_0
  10
522.53299
  20
791.07806
  0
VERTEX
  5
170
  8
Layer_0
  10
554.53299
  20
791.07806
  42
-0.1989223
  0
VERTEX
  5
171
  8
Layer_0
  10
555.9472
  20
790.49225
  42
-0.18605656
  0
VERTEX
  5
172
  8
Layer_0
  10
556.53053
  20
789.17722
  0
VERTEX
  5
173
  8
Layer_0
  10
556.53299
  20
789.07806
  0
VERTEX
  5
174
  8
Layer_0
  10
556.53299
  20
739.87805
  0
VERTEX
  5
175
  8
Layer_0
  10
556.53053
  20
739.77887
  42
-0.18605177
  0
VERTEX
  5
176
  8
Layer_0
  10
555.9472
  20
738.46384
  0
VERTEX
  5
177
  8
Layer_0
  10
555.87534
  20
738.39545
  42
-0.18605348
  0
VERTEX
  5
178
  8
Layer_0
  10
554.53299
  20
737.87805
  0
VERTEX
  5
179
  8
Layer_0
  10
514.03299
  20
737.87805
  42
0.16777066
  0
VERTEX
  5
17a
  8
Layer_0
  10
492.78299
  20
730.35304
  0
VERTEX
  5
17b
  8
Layer_0
  10
492.41901
  20
730.07893
  42
-0.17710013
  0
VERTEX
  5
17c
  8
Layer_0
  10
486.03299
  20
728.30304
  0
VERTEX
  5
17d
  8
Layer_0
  10
478.73299
  20
728.87805
  42
0.012868829
  0
VERTEX
  5
17e
  8
Layer_0
  10
475.02139
  20
729.10817
  42
0.12443383
  0
VERTEX
  5
17f
  8
Layer_0
  10
440.40359
  20
721.67804
  0
VERTEX
  5
180
  8
Layer_0
  10
433.27176
  20
718.47351
  0
SEQEND
  0
POLYLINE
  5
182
  8
Layer_0
  62
0
  66
1
  10
0
  20
0
  30
0
  0
VERTEX
  5
182
  8
Layer_0
  10
463.53299
  20
764.47806
  0
VERTEX
  5
183
  8
Layer_0
  10
449.53299
  20
764.47806
  0
VERTEX
  5
184
  8
Layer_0
  10
449.53299
  20
750.47804
  0
VERTEX
  5
185
  8
Layer_0
  10
463.53299
  20
750.47804
  0
VERTEX
  5
186
  8
Layer_0
  10
463.53299
  20
764.47806
  0
SEQEND
  0
POLYLINE
  5
188
  8
Layer_0
  62
0
  66
1
  10
0
  20
0
  30
0
  0
VERTEX
  5
188
  8
Layer_0
  10
481.53299
  20
766.47806
  0
VERTEX
  5
189
  8
Layer_0
  10
467.53299
  20
766.47806
  0
VERTEX
  5
18a
  8
Layer_0
  10
467.53299
  20
752.47804
  0
VERTEX
  5
18b
  8
Layer_0
  10
481.53299
  20
752.47804
  0
VERTEX
  5
18c
  8
Layer_0
  10
481.53299
  20
766.47806
  0
SEQEND
  0
POLYLINE
  5
18e
  8
Layer_0
  62
0
  66
1
  10
0
  20
0
  30
0
  0
VERTEX
  5
18e
  8
Layer_0
  10
535.53299
  20
754.47804
  0
VERTEX
  5
18f
  8
Layer_0
  10
521.53299
  20
754.47804
  0
VERTEX
  5
190
  8
Layer_0
  10
521.53299
  20
740.47804
  0
VERTEX
  5
191
  8
Layer_0
  10
535.53299
  20
740.47804
  0
VERTEX
  5
192
  8
Layer_0
  10
535.53299
  20
754.47804
  0
SEQEND
  0
POLYLINE
  5
194
  8
Layer_0
  62
0
  66
1
  10
0
  20
0
  30
0
  0
VERTEX
  5
194
  8
Layer_0
  10
517.53299
  20
800.47803
  0
VERTEX
  5
195
  8
Layer_0
  10
503.53299
  20
800.47803
  0
VERTEX
  5
196
  8
Layer_0
  10
503.53299
  20
786.47806
  0
VERTEX
  5
197
  8
Layer_0
  10
517.53299
  20
786.47806
  0
VERTEX
  5
198
  8
Layer_0
  10
517.53299
  20
800.47803
  0
SEQEND
  0
POLYLINE
  5
19a
  8
Layer_0
  62
0
  66
1
  10
0
  20
0
  30
0
  0
VERTEX
  5
19a
  8
Layer_0
  10
553.53299
  20
771.47806
  0
VERTEX
  5
19b
  8
Layer_0
  10
539.53299
  20
771.47806
  0
VERTEX
  5
19c
  8
Layer_0
  10
539.53299
  20
757.47806
  0
VERTEX
  5
19d
  8
Layer_0
  10
553.53299
  20
757.47806
  0
VERTEX
  5
19e
  8
Layer_0
  10
553.53299
  20
771.47806
  0
SEQEND
  0
POLYLINE
  5
1a0
  8
Layer_0
  62
0
  66
1
  10
0
  20
0
  30
0
  0
VERTEX
  5
1a0
  8
Layer_0
  10
481.53299
  20
800.47803
  0
VERTEX
  5
1a1
  8
Layer_0
  10
467.53299
  20
800.47803
  0
VERTEX
  5
1a2
  8
Layer_0
  10
467.53299
  20
786.47806
  0
VERTEX
  5
1a3
  8
Layer_0
  10
481.53299
  20
786.47806
  0
VERTEX
  5
1a4
  8
Layer_0
  10
481.53299
  20
800.47803
  0
SEQEND
  0
POLYLINE
  5
1a6
  8
Layer_0
  62
0
  66
1
  10
0
  20
0
  30
0
  0
VERTEX
  5
1a6
  8
Layer_0
  10
517.53299
  20
783.47803
  0
VERTEX
  5
1a7
  8
Layer_0
  10
503.53299
  20
783.47803
  0
VERTEX
  5
1a8
  8
Layer_0
  10
503.53299
  20
769.47806
  0
VERTEX
  5
1a9
  8
Layer_0
  10
517.53299
  20
769.47806
  0
VERTEX
  5
1aa
  8
Layer_0
  10
517.53299
  20
783.47803
  0
SEQEND
  0
POLYLINE
  5
1ac
  8
Layer_0
  62
0
  66
1
  10
0
  20
0
  30
0
  0
VERTEX
  5
1ac
  8
Layer_0
  10
487.11644
  20
744.84131
  0
VERTEX
  5
1ad
  8
Layer_0
  10
473.16972
  20
746.06149
  0
VERTEX
  5
1ae
  8
Layer_0
  10
471.94954
  20
732.11478
  0
VERTEX
  5
1af
  8
Layer_0
  10
485.89626
  20
730.89459
  0
VERTEX
  5
1b0
  8
Layer_0
  10
487.11644
  20
744.84131
  0
SEQEND
  0
POLYLINE
  5
1b2
  8
Layer_0
  62
0
  66
1
  10
0
  20
0
  30
0
  0
VERTEX
  5
1b2
  8
Layer_0
  10
535.53299
  20
788.47803
  0
VERTEX
  5
1b3
  8
Layer_0
  10
521.53299
  20
788.47803
  0
VERTEX
  5
1b4
  8
Layer_0
  10
521.53299
  20
774.47806
  0
VERTEX
  5
1b5
  8
Layer_0
  10
535.53299
  20
774.47806
  0
VERTEX
  5
1b6
  8
Layer_0
  10
535.53299
  20
788.47803
  0
SEQEND
  0
POLYLINE
  5
1b8
  8
Layer_0
  62
0
  66
1
  10
0
  20
0
  30
0
  0
VERTEX
  5
1b8
  8
Layer_0
  10
481.53299
  20
783.47803
  0
VERTEX
  5
1b9
  8
Layer_0
  10
467.53299
  20
783.47803
  0
VERTEX
  5
1ba
  8
Layer_0
  10
467.53299
  20
769.47806
  0
VERTEX
  5
1bb
  8
Layer_0
  10
481.53299
  20
769.47806
  0
VERTEX
  5
1bc
  8
Layer_0
  10
481.53299
  20
783.47803
  0
SEQEND
  0
POLYLINE
  5
1be
  8
Layer_0
  62
0
  66
1
  10
0
  20
0
  30
0
  0
VERTEX
  5
1be
  8
Layer_0
  10
499.53299
  20
771.47806
  0
VERTEX
  5
1bf
  8
Layer_0
  10
485.53299
  20
771.47806
  0
VERTEX
  5
1c0
  8
Layer_0
  10
485.53299
  20
757.47806
  0
VERTEX
  5
1c1
  8
Layer_0
  10
499.53299
  20
757.47806
  0
VERTEX
  5
1c2
  8
Layer_0
  10
499.53299
  20
771.47806
  0
SEQEND
  0
POLYLINE
  5
1c4
  8
Layer_0
  62
0
  66
1
  10
0
  20
0
  30
0
  0
VERTEX
  5
1c4
  8
Layer_0
  10
499.53299
  20
805.47803
  0
VERTEX
  5
1c5
  8
Layer_0
  10
485.53299
  20
805.47803
  0
VERTEX
  5
1c6
  8
Layer_0
  10
485.53299
  20
791.47806
  0
VERTEX
  5
1c7
  8
Layer_0
  10
499.53299
  20
791.47806
  0
VERTEX
  5
1c8
  8
Layer_0
  10
499.53299
  20
805.47803
  0
SEQEND
  0
POLYLINE
  5
1ca
  8
Layer_0
  62
0
  66
1
  10
0
  20
0
  30
0
  0
VERTEX
  5
1ca
  8
Layer_0
  10
517.53299
  20
766.47806
  0
VERTEX
  5
1cb
  8
Layer_0
  10
503.53299
  20
766.47806
  0
VERTEX
  5
1cc
  8
Layer_0
  10
503.53299
  20
752.47804
  0
VERTEX
  5
1cd
  8
Layer_0
  10
517.53299
  20
752.47804
  0
VERTEX
  5
1ce
  8
Layer_0
  10
517.53299
  20
766.47806
  0
SEQEND
  0
POLYLINE
  5
1d0
  8
Layer_0
  62
0
  66
1
  10
0
  20
0
  30
0
  0
VERTEX
  5
1d0
  8
Layer_0
  10
463.53299
  20
781.47806
  0
VERTEX
  5
1d1
  8
Layer_0
  10
449.53299
  20
781.47806
  0
VERTEX
  5
1d2
  8
Layer_0
  10
449.53299
  20
767.47806
  0
VERTEX
  5
1d3
  8
Layer_0
  10
463.53299
  20
767.47806
  0
VERTEX
  5
1d4
  8
Layer_0
  10
463.53299
  20
781.47806
  0
SEQEND
  0
POLYLINE
  5
1d6
  8
Layer_0
  62
0
  66
1
  10
0
  20
0
  30
0
  0
VERTEX
  5
1d6
  8
Layer_0
  10
439.91882
  20
739.78053
  0
VERTEX
  5
1d7
  8
Layer_0
  10
427.2305
  20
733.86388
  0
VERTEX
  5
1d8
  8
Layer_0
  10
433.14716
  20
721.17557
  0
VERTEX
  5
1d9
  8
Layer_0
  10
445.83548
  20
727.09222
  0
VERTEX
  5
1da
  8
Layer_0
  10
439.91882
  20
739.78053
  0
SEQEND
  0
POLYLINE
  5
1dc
  8
Layer_0
  62
0
  66
1
  10
0
  20
0
  30
0
  0
VERTEX
  5
1dc
  8
Layer_0
  10
535.53299
  20
771.47806
  0
VERTEX
  5
1dd
  8
Layer_0
  10
521.53299
  20
771.47806
  0
VERTEX
  5
1de
  8
Layer_0
  10
521.53299
  20
757.47806
  0
VERTEX
  5
1df
  8
Layer_0
  10
535.53299
  20
757.47806
  0
VERTEX
  5
1e0
  8
Layer_0
  10
535.53299
  20
771.47806
  0
SEQEND
  0
POLYLINE
  5
1e2
  8
Layer_0
  62
0
  66
1
  10
0
  20
0
  30
0
  0
VERTEX
  5
1e2
  8
Layer_0
  10
463.53299
  20
798.47803
  0
VERTEX
  5
1e3
  8
Layer_0
  10
449.53299
  20
798.47803
  0
VERTEX
  5
1e4
  8
Layer_0
  10
449.53299
  20
784.47803
  0
VERTEX
  5
1e5
  8
Layer_0
  10
463.53299
  20
784.47803
  0
VERTEX
  5
1e6
  8
Layer_0
  10
463.53299
  20
798.47803
  0
SEQEND
  0
POLYLINE
  5
1e8
  8
Layer_0
  62
0
  66
1
  10
0
  20
0
  30
0
  0
VERTEX
  5
1e8
  8
Layer_0
  10
553.53299
  20
754.47804
  0
VERTEX
  5
1e9
  8
Layer_0
  10
539.53299
  20
754.47804
  0
VERTEX
  5
1ea
  8
Layer_0
  10
539.53299
  20
740.47804
  0
VERTEX
  5
1eb
  8
Layer_0
  10
553.53299
  20
740.47804
  0
VERTEX
  5
1ec
  8
Layer_0
  10
553.53299
  20
754.47804
  0
SEQEND
  0
POLYLINE
  5
1ee
  8
Layer_0
  62
0
  66
1
  10
0
  20
0
  30
0
  0
VERTEX
  5
1ee
  8
Layer_0
  10
499.53299
  20
788.47803
  0
VERTEX
  5
1ef
  8
Layer_0
  10
485.53299
  20
788.47803
  0
VERTEX
  5
1f0
  8
Layer_0
  10
485.53299
  20
774.47806
  0
VERTEX
  5
1f1
  8
Layer_0
  10
499.53299
  20
774.47806
  0
VERTEX
  5
1f2
  8
Layer_0
  10
499.53299
  20
788.47803
  0
SEQEND
  0
POLYLINE
  5
1f4
  8
Layer_0
  62
0
  66
1
  10
0
  20
0
  30
0
  0
VERTEX
  5
1f4
  8
Layer_0
  10
553.53299
  20
788.47803
  0
VERTEX
  5
1f5
  8
Layer_0
  10
539.53299
  20
788.47803
  0
VERTEX
  5
1f6
  8
Layer_0
  10
539.53299
  20
774.47806
  0
VERTEX
  5
1f7
  8
Layer_0
  10
553.53299
  20
774.47806
  0
VERTEX
  5
1f8
  8
Layer_0
  10
553.53299
  20
788.47803
  0
SEQEND
  0
POLYLINE
  5
1fa
  8
Layer_0
  62
0
  66
1
  10
0
  20
0
  30
0
  0
VERTEX
  5
1fa
  8
Layer_0
  10
463.21112
  20
745.58723
  0
VERTEX
  5
1fb
  8
Layer_0
  10
449.42381
  20
743.15616
  0
VERTEX
  5
1fc
  8
Layer_0
  10
451.85486
  20
729.36885
  0
VERTEX
  5
1fd
  8
Layer_0
  10
465.64218
  20
731.79993
  0
VERTEX
  5
1fe
  8
Layer_0
  10
463.21112
  20
745.58723
  0
SEQEND
  0
CIRCLE
  5
200
  8
Layer_0
  62
0
  10
537.53198
  20
772.98059
  30
0
  40
1.0499933
  0
CIRCLE
  5
200
  8
Layer_0
  62
0
  10
537.53198
  20
755.98059
  30
0
  40
1.0499933
  0
CIRCLE
  5
200
  8
Layer_0
  62
0
  10
465.53198
  20
783.98059
  30
0
  40
1.0499933
  0
CIRCLE
  5
200
  8
Layer_0
  62
0
  10
446.58197
  20
735.08057
  30
0
  40
1.0499933
  0
ENDSEC
  0
EOF
