  0
SECTION
  2
HEADER
  9
$ACADVER
  1
AC1009
  0
ENDSEC
  0
SECTION
  2
ENTITIES
  0
POLYLINE
  5
90
  8
Layer_0
  62
0
  66
1
  10
0
  20
0
  30
0
  0
VERTEX
  5
90
  8
Layer_0
  10
860.71182
  20
713.54405
  0
VERTEX
  5
91
  8
Layer_0
  10
875.95181
  20
713.54405
  0
VERTEX
  5
92
  8
Layer_0
  10
875.97044
  20
713.54428
  42
0.19215863
  0
VERTEX
  5
93
  8
Layer_0
  10
876.48215
  20
713.76372
  42
0.19898856
  0
VERTEX
  5
94
  8
Layer_0
  10
876.70181
  20
714.29405
  0
VERTEX
  5
95
  8
Layer_0
  10
876.70181
  20
744.77405
  0
VERTEX
  5
96
  8
Layer_0
  10
876.7014
  20
744.7991
  0
VERTEX
  5
97
  8
Layer_0
  10
876.70015
  20
744.82404
  42
0.25052065
  0
VERTEX
  5
98
  8
Layer_0
  10
876.32681
  20
745.42358
  42
0.26755556
  0
VERTEX
  5
99
  8
Layer_0
  10
875.57681
  20
745.42358
  0
VERTEX
  5
9a
  8
Layer_0
  10
875.55533
  20
745.41068
  42
0.010768417
  0
VERTEX
  5
9b
  8
Layer_0
  10
875.51395
  20
745.38297
  42
0.24152073
  0
VERTEX
  5
9c
  8
Layer_0
  10
875.20181
  20
744.77405
  0
VERTEX
  5
9d
  8
Layer_0
  10
875.20181
  20
715.04404
  0
VERTEX
  5
9e
  8
Layer_0
  10
861.46182
  20
715.04404
  0
VERTEX
  5
9f
  8
Layer_0
  10
861.46182
  20
744.77405
  42
0.043304323
  0
VERTEX
  5
a0
  8
Layer_0
  10
861.46017
  20
744.82404
  42
0.24964599
  0
VERTEX
  5
a1
  8
Layer_0
  10
861.08682
  20
745.42358
  42
0.26780236
  0
VERTEX
  5
a2
  8
Layer_0
  10
860.33682
  20
745.42358
  42
0.013874454
  0
VERTEX
  5
a3
  8
Layer_0
  10
860.29437
  20
745.39714
  42
0.24921524
  0
VERTEX
  5
a4
  8
Layer_0
  10
859.96182
  20
744.77405
  0
VERTEX
  5
a5
  8
Layer_0
  10
859.96182
  20
714.29404
  0
VERTEX
  5
a6
  8
Layer_0
  10
859.96207
  20
714.27542
  42
0.1928801
  0
VERTEX
  5
a7
  8
Layer_0
  10
860.18149
  20
713.76372
  0
VERTEX
  5
a8
  8
Layer_0
  10
860.19482
  20
713.7507
  0
VERTEX
  5
a9
  8
Layer_0
  10
860.20845
  20
713.73807
  0
VERTEX
  5
aa
  8
Layer_0
  10
860.22234
  20
713.7258
  42
0.18008725
  0
VERTEX
  5
ab
  8
Layer_0
  10
860.71182
  20
713.54405
  0
SEQEND
  0
POLYLINE
  5
ad
  8
Layer_0
  62
0
  66
1
  10
0
  20
0
  30
0
  0
VERTEX
  5
ad
  8
Layer_0
  10
866.23135
  20
687.98254
  42
-0.29023034
  0
VERTEX
  5
ae
  8
Layer_0
  10
867.39865
  20
686.5869
  0
VERTEX
  5
af
  8
Layer_0
  10
867.98407
  20
680.22906
  0
VERTEX
  5
b0
  8
Layer_0
  10
866.843
  20
677.78203
  0
VERTEX
  5
b1
  8
Layer_0
  10
864.3873
  20
677.60309
  0
VERTEX
  5
b2
  8
Layer_0
  10
859.58386
  20
679.84297
  0
VERTEX
  5
b3
  8
Layer_0
  10
856.10606
  20
683.50595
  0
VERTEX
  5
b4
  8
Layer_0
  10
854.85788
  20
685.79822
  0
VERTEX
  5
b5
  8
Layer_0
  10
855.99896
  20
688.24525
  0
VERTEX
  5
b6
  8
Layer_0
  10
860.45804
  20
689.57993
  42
-0.035918455
  0
VERTEX
  5
b7
  8
Layer_0
  10
860.58255
  20
689.60303
  42
-0.10576042
  0
VERTEX
  5
b8
  8
Layer_0
  10
860.95688
  20
689.56635
  0
VERTEX
  5
b9
  8
Layer_0
  10
866.23135
  20
687.98254
  0
SEQEND
  0
POLYLINE
  5
bb
  8
Layer_0
  62
0
  66
1
  10
0
  20
0
  30
0
  0
VERTEX
  5
bb
  8
Layer_0
  10
871.48201
  20
684.01466
  42
0.19900766
  0
VERTEX
  5
bc
  8
Layer_0
  10
871.23314
  20
684.61581
  42
0.1990897
  0
VERTEX
  5
bd
  8
Layer_0
  10
870.63202
  20
684.86467
  42
0.018195851
  0
VERTEX
  5
be
  8
Layer_0
  10
870.56799
  20
684.86227
  42
0.28286014
  0
VERTEX
  5
bf
  8
Layer_0
  10
869.84674
  20
684.33995
  0
VERTEX
  5
c0
  8
Layer_0
  10
869.83499
  20
684.31004
  42
0.29311104
  0
VERTEX
  5
c1
  8
Layer_0
  10
870.03098
  20
683.41364
  0
VERTEX
  5
c2
  8
Layer_0
  10
870.05412
  20
683.39134
  42
0.29305626
  0
VERTEX
  5
c3
  8
Layer_0
  10
870.95729
  20
683.22937
  42
0.30341227
  0
VERTEX
  5
c4
  8
Layer_0
  10
871.48201
  20
684.01466
  0
SEQEND
  0
POLYLINE
  5
c6
  8
Layer_0
  62
0
  66
1
  10
0
  20
0
  30
0
  0
VERTEX
  5
c6
  8
Layer_0
  10
845.69128
  20
684.57465
  0
VERTEX
  5
c7
  8
Layer_0
  10
840.4718
  20
685.49498
  0
VERTEX
  5
c8
  8
Layer_0
  10
836.16447
  20
688.13303
  0
VERTEX
  5
c9
  8
Layer_0
  10
834.36552
  20
690.02412
  0
VERTEX
  5
ca
  8
Layer_0
  10
834.83438
  20
692.68311
  0
VERTEX
  5
cb
  8
Layer_0
  10
838.79608
  20
695.1264
  42
-0.078755365
  0
VERTEX
  5
cc
  8
Layer_0
  10
839.06134
  20
695.22552
  42
-0.061596349
  0
VERTEX
  5
cd
  8
Layer_0
  10
839.28146
  20
695.2424
  0
VERTEX
  5
ce
  8
Layer_0
  10
844.7861
  20
695.07771
  42
-0.29023022
  0
VERTEX
  5
cf
  8
Layer_0
  10
846.27487
  20
694.03174
  0
VERTEX
  5
d0
  8
Layer_0
  10
848.48586
  20
688.04205
  0
VERTEX
  5
d1
  8
Layer_0
  10
848.017
  20
685.38307
  0
VERTEX
  5
d2
  8
Layer_0
  10
845.69128
  20
684.57465
  0
SEQEND
  0
POLYLINE
  5
d4
  8
Layer_0
  62
0
  66
1
  10
0
  20
0
  30
0
  0
VERTEX
  5
d4
  8
Layer_0
  10
850.91379
  20
692.384
  42
0.19882166
  0
VERTEX
  5
d5
  8
Layer_0
  10
850.66483
  20
692.98505
  42
0.19876083
  0
VERTEX
  5
d6
  8
Layer_0
  10
850.0638
  20
693.23399
  42
0.046677801
  0
VERTEX
  5
d7
  8
Layer_0
  10
849.90567
  20
693.21921
  42
0.25296393
  0
VERTEX
  5
d8
  8
Layer_0
  10
849.2785
  20
692.70929
  0
VERTEX
  5
d9
  8
Layer_0
  10
849.26678
  20
692.67938
  42
0.29310275
  0
VERTEX
  5
da
  8
Layer_0
  10
849.46275
  20
691.78296
  0
VERTEX
  5
db
  8
Layer_0
  10
849.4859
  20
691.76067
  42
0.29290039
  0
VERTEX
  5
dc
  8
Layer_0
  10
850.38907
  20
691.59871
  42
0.30338687
  0
VERTEX
  5
dd
  8
Layer_0
  10
850.91379
  20
692.384
  0
SEQEND
  0
POLYLINE
  5
df
  8
Layer_0
  62
0
  66
1
  10
0
  20
0
  30
0
  0
VERTEX
  5
df
  8
Layer_0
  10
824.04016
  20
695.42935
  0
VERTEX
  5
e0
  8
Layer_0
  10
827.72604
  20
690.21602
  0
VERTEX
  5
e1
  8
Layer_0
  10
827.96136
  20
687.52629
  0
VERTEX
  5
e2
  8
Layer_0
  10
825.92413
  20
686.14346
  0
VERTEX
  5
e3
  8
Layer_0
  10
820.64432
  20
685.68155
  0
VERTEX
  5
e4
  8
Layer_0
  10
815.80096
  20
687.11487
  0
VERTEX
  5
e5
  8
Layer_0
  10
813.57388
  20
688.47595
  0
VERTEX
  5
e6
  8
Layer_0
  10
813.33855
  20
691.16566
  0
VERTEX
  5
e7
  8
Layer_0
  10
816.5329
  20
694.55109
  42
-0.12356176
  0
VERTEX
  5
e8
  8
Layer_0
  10
816.91022
  20
694.77301
  42
-0.016224605
  0
VERTEX
  5
e9
  8
Layer_0
  10
816.9717
  20
694.78876
  0
VERTEX
  5
ea
  8
Layer_0
  10
822.33141
  20
696.05437
  42
-0.29022318
  0
VERTEX
  5
eb
  8
Layer_0
  10
824.04016
  20
695.42935
  0
SEQEND
  0
POLYLINE
  5
ed
  8
Layer_0
  62
0
  66
1
  10
0
  20
0
  30
0
  0
VERTEX
  5
ed
  8
Layer_0
  10
828.97644
  20
694.81844
  42
0.19889931
  0
VERTEX
  5
ee
  8
Layer_0
  10
828.72748
  20
695.41946
  42
0.19881195
  0
VERTEX
  5
ef
  8
Layer_0
  10
828.12645
  20
695.66843
  42
0.06513925
  0
VERTEX
  5
f0
  8
Layer_0
  10
827.9072
  20
695.63971
  42
0.23349327
  0
VERTEX
  5
f1
  8
Layer_0
  10
827.34115
  20
695.14371
  0
VERTEX
  5
f2
  8
Layer_0
  10
827.32941
  20
695.1138
  42
0.29306388
  0
VERTEX
  5
f3
  8
Layer_0
  10
827.52541
  20
694.21739
  0
VERTEX
  5
f4
  8
Layer_0
  10
827.54855
  20
694.1951
  42
0.293124
  0
VERTEX
  5
f5
  8
Layer_0
  10
828.45172
  20
694.03313
  42
0.30335798
  0
VERTEX
  5
f6
  8
Layer_0
  10
828.97644
  20
694.81844
  0
SEQEND
  0
POLYLINE
  5
f8
  8
Layer_0
  62
0
  66
1
  10
0
  20
0
  30
0
  0
VERTEX
  5
f8
  8
Layer_0
  10
845.48209
  20
715.07539
  0
VERTEX
  5
f9
  8
Layer_0
  10
840.03247
  20
714.28171
  42
0.061752938
  0
VERTEX
  5
fa
  8
Layer_0
  10
839.81862
  20
714.22687
  42
0.079691816
  0
VERTEX
  5
fb
  8
Layer_0
  10
839.57462
  20
714.08319
  0
VERTEX
  5
fc
  8
Layer_0
  10
836.09738
  20
710.98907
  0
VERTEX
  5
fd
  8
Layer_0
  10
836.09738
  20
708.28906
  0
VERTEX
  5
fe
  8
Layer_0
  10
838.19736
  20
706.73907
  0
VERTEX
  5
ff
  8
Layer_0
  10
842.89737
  20
704.88907
  0
VERTEX
  5
100
  8
Layer_0
  10
848.19736
  20
704.88907
  0
VERTEX
  5
101
  8
Layer_0
  10
850.34735
  20
706.08907
  0
VERTEX
  5
102
  8
Layer_0
  10
850.34735
  20
708.78906
  0
VERTEX
  5
103
  8
Layer_0
  10
847.12985
  20
714.30383
  42
0.29018079
  0
VERTEX
  5
104
  8
Layer_0
  10
845.48209
  20
715.07539
  0
SEQEND
  0
POLYLINE
  5
106
  8
Layer_0
  62
0
  66
1
  10
0
  20
0
  30
0
  0
VERTEX
  5
106
  8
Layer_0
  10
851.99734
  20
713.33907
  42
0.4143278
  0
VERTEX
  5
107
  8
Layer_0
  10
851.14735
  20
714.18907
  42
0.084819249
  0
VERTEX
  5
108
  8
Layer_0
  10
850.86853
  20
714.14207
  42
0.21398914
  0
VERTEX
  5
109
  8
Layer_0
  10
850.36206
  20
713.66435
  0
VERTEX
  5
10a
  8
Layer_0
  10
850.35031
  20
713.63443
  42
0.29280736
  0
VERTEX
  5
10b
  8
Layer_0
  10
850.54631
  20
712.73804
  0
VERTEX
  5
10c
  8
Layer_0
  10
850.56946
  20
712.71574
  42
0.29323475
  0
VERTEX
  5
10d
  8
Layer_0
  10
851.47263
  20
712.55377
  42
0.30330393
  0
VERTEX
  5
10e
  8
Layer_0
  10
851.99734
  20
713.33907
  0
SEQEND
  0
POLYLINE
  5
110
  8
Layer_0
  62
0
  66
1
  10
0
  20
0
  30
0
  0
VERTEX
  5
110
  8
Layer_0
  10
827.48211
  20
717.07539
  42
-0.29022128
  0
VERTEX
  5
111
  8
Layer_0
  10
829.12988
  20
716.30383
  0
VERTEX
  5
112
  8
Layer_0
  10
832.34738
  20
710.78906
  0
VERTEX
  5
113
  8
Layer_0
  10
832.34738
  20
708.08907
  0
VERTEX
  5
114
  8
Layer_0
  10
830.19737
  20
706.88907
  0
VERTEX
  5
115
  8
Layer_0
  10
824.89738
  20
706.88907
  0
VERTEX
  5
116
  8
Layer_0
  10
820.19739
  20
708.73907
  0
VERTEX
  5
117
  8
Layer_0
  10
818.09738
  20
710.28906
  0
VERTEX
  5
118
  8
Layer_0
  10
818.09738
  20
712.98907
  0
VERTEX
  5
119
  8
Layer_0
  10
821.57465
  20
716.08319
  42
-0.052655816
  0
VERTEX
  5
11a
  8
Layer_0
  10
821.73262
  20
716.18776
  42
-0.088159233
  0
VERTEX
  5
11b
  8
Layer_0
  10
822.03249
  20
716.28171
  0
VERTEX
  5
11c
  8
Layer_0
  10
827.48211
  20
717.07539
  0
SEQEND
  0
POLYLINE
  5
11e
  8
Layer_0
  62
0
  66
1
  10
0
  20
0
  30
0
  0
VERTEX
  5
11e
  8
Layer_0
  10
833.99738
  20
715.33907
  42
0.41427306
  0
VERTEX
  5
11f
  8
Layer_0
  10
833.14737
  20
716.18907
  42
0.11194674
  0
VERTEX
  5
120
  8
Layer_0
  10
832.7825
  20
716.1068
  42
0.18570662
  0
VERTEX
  5
121
  8
Layer_0
  10
832.36206
  20
715.66435
  0
VERTEX
  5
122
  8
Layer_0
  10
832.35034
  20
715.63443
  42
0.29320977
  0
VERTEX
  5
123
  8
Layer_0
  10
832.54633
  20
714.73804
  0
VERTEX
  5
124
  8
Layer_0
  10
832.56947
  20
714.71574
  42
0.29288467
  0
VERTEX
  5
125
  8
Layer_0
  10
833.47266
  20
714.55377
  42
0.3035164
  0
VERTEX
  5
126
  8
Layer_0
  10
833.99738
  20
715.33907
  0
SEQEND
  0
POLYLINE
  5
128
  8
Layer_0
  62
0
  66
1
  10
0
  20
0
  30
0
  0
VERTEX
  5
128
  8
Layer_0
  10
804.03252
  20
721.28171
  0
VERTEX
  5
129
  8
Layer_0
  10
809.48212
  20
722.07539
  42
-0.2902272
  0
VERTEX
  5
12a
  8
Layer_0
  10
811.12989
  20
721.30383
  0
VERTEX
  5
12b
  8
Layer_0
  10
814.34738
  20
715.78906
  0
VERTEX
  5
12c
  8
Layer_0
  10
814.34738
  20
713.08907
  0
VERTEX
  5
12d
  8
Layer_0
  10
812.1974
  20
711.88907
  0
VERTEX
  5
12e
  8
Layer_0
  10
806.89739
  20
711.88907
  0
VERTEX
  5
12f
  8
Layer_0
  10
802.1974
  20
713.73907
  0
VERTEX
  5
130
  8
Layer_0
  10
800.0974
  20
715.28906
  0
VERTEX
  5
131
  8
Layer_0
  10
800.0974
  20
717.98907
  0
VERTEX
  5
132
  8
Layer_0
  10
803.57466
  20
721.08319
  0
VERTEX
  5
133
  8
Layer_0
  10
803.59952
  20
721.10298
  42
-0.1323836
  0
VERTEX
  5
134
  8
Layer_0
  10
804.03252
  20
721.28171
  0
SEQEND
  0
POLYLINE
  5
136
  8
Layer_0
  62
0
  66
1
  10
0
  20
0
  30
0
  0
VERTEX
  5
136
  8
Layer_0
  10
815.74843
  20
720.94011
  42
0.1991152
  0
VERTEX
  5
137
  8
Layer_0
  10
815.14738
  20
721.18907
  42
0.14820646
  0
VERTEX
  5
138
  8
Layer_0
  10
814.67516
  20
721.04582
  42
0.1487478
  0
VERTEX
  5
139
  8
Layer_0
  10
814.36208
  20
720.66435
  0
VERTEX
  5
13a
  8
Layer_0
  10
814.35035
  20
720.63443
  42
0.293033
  0
VERTEX
  5
13b
  8
Layer_0
  10
814.54634
  20
719.73804
  0
VERTEX
  5
13c
  8
Layer_0
  10
814.56949
  20
719.71574
  42
0.29326294
  0
VERTEX
  5
13d
  8
Layer_0
  10
815.47266
  20
719.55377
  0
VERTEX
  5
13e
  8
Layer_0
  10
815.50211
  20
719.56662
  42
0.29321181
  0
VERTEX
  5
13f
  8
Layer_0
  10
815.99738
  20
720.33907
  42
0.19890388
  0
VERTEX
  5
140
  8
Layer_0
  10
815.74843
  20
720.94011
  0
SEQEND
  0
POLYLINE
  5
142
  8
Layer_0
  62
0
  66
1
  10
0
  20
0
  30
0
  0
VERTEX
  5
142
  8
Layer_0
  10
791.48214
  20
717.07538
  0
VERTEX
  5
143
  8
Layer_0
  10
786.03252
  20
716.28171
  42
0.14153375
  0
VERTEX
  5
144
  8
Layer_0
  10
785.57468
  20
716.08319
  0
VERTEX
  5
145
  8
Layer_0
  10
782.09743
  20
712.98907
  0
VERTEX
  5
146
  8
Layer_0
  10
782.09743
  20
710.28906
  0
VERTEX
  5
147
  8
Layer_0
  10
784.19742
  20
708.73907
  0
VERTEX
  5
148
  8
Layer_0
  10
788.89742
  20
706.88907
  0
VERTEX
  5
149
  8
Layer_0
  10
794.19741
  20
706.88907
  0
VERTEX
  5
14a
  8
Layer_0
  10
796.3474
  20
708.08907
  0
VERTEX
  5
14b
  8
Layer_0
  10
796.3474
  20
710.78906
  0
VERTEX
  5
14c
  8
Layer_0
  10
793.12991
  20
716.30383
  42
0.29026174
  0
VERTEX
  5
14d
  8
Layer_0
  10
791.48214
  20
717.07538
  0
SEQEND
  0
POLYLINE
  5
14f
  8
Layer_0
  62
0
  66
1
  10
0
  20
0
  30
0
  0
VERTEX
  5
14f
  8
Layer_0
  10
797.74844
  20
715.94011
  42
0.19893716
  0
VERTEX
  5
150
  8
Layer_0
  10
797.14741
  20
716.18907
  42
0.16690297
  0
VERTEX
  5
151
  8
Layer_0
  10
796.62511
  20
716.00967
  42
0.13019233
  0
VERTEX
  5
152
  8
Layer_0
  10
796.36211
  20
715.66435
  0
VERTEX
  5
153
  8
Layer_0
  10
796.35037
  20
715.63443
  42
0.2930029
  0
VERTEX
  5
154
  8
Layer_0
  10
796.54637
  20
714.73804
  0
VERTEX
  5
155
  8
Layer_0
  10
796.56951
  20
714.71574
  42
0.29303499
  0
VERTEX
  5
156
  8
Layer_0
  10
797.47269
  20
714.55377
  0
VERTEX
  5
157
  8
Layer_0
  10
797.50214
  20
714.56662
  42
0.29302799
  0
VERTEX
  5
158
  8
Layer_0
  10
797.99741
  20
715.33907
  42
0.19906238
  0
VERTEX
  5
159
  8
Layer_0
  10
797.74844
  20
715.94011
  0
SEQEND
  0
POLYLINE
  5
15b
  8
Layer_0
  62
0
  66
1
  10
0
  20
0
  30
0
  0
VERTEX
  5
15b
  8
Layer_0
  10
773.48216
  20
705.07539
  42
-0.2902137
  0
VERTEX
  5
15c
  8
Layer_0
  10
775.12993
  20
704.30383
  0
VERTEX
  5
15d
  8
Layer_0
  10
778.34743
  20
698.78906
  0
VERTEX
  5
15e
  8
Layer_0
  10
778.34743
  20
696.08907
  0
VERTEX
  5
15f
  8
Layer_0
  10
776.19743
  20
694.88907
  0
VERTEX
  5
160
  8
Layer_0
  10
770.89743
  20
694.88907
  0
VERTEX
  5
161
  8
Layer_0
  10
766.19743
  20
696.73907
  0
VERTEX
  5
162
  8
Layer_0
  10
764.09744
  20
698.28906
  0
VERTEX
  5
163
  8
Layer_0
  10
764.09744
  20
700.98907
  0
VERTEX
  5
164
  8
Layer_0
  10
767.5747
  20
704.08319
  42
-0.14147642
  0
VERTEX
  5
165
  8
Layer_0
  10
768.03255
  20
704.28171
  0
VERTEX
  5
166
  8
Layer_0
  10
773.48216
  20
705.07539
  0
SEQEND
  0
POLYLINE
  5
168
  8
Layer_0
  62
0
  66
1
  10
0
  20
0
  30
0
  0
VERTEX
  5
168
  8
Layer_0
  10
779.74846
  20
703.94011
  42
0.1987534
  0
VERTEX
  5
169
  8
Layer_0
  10
779.14742
  20
704.18907
  42
0.17637658
  0
VERTEX
  5
16a
  8
Layer_0
  10
778.6011
  20
703.99025
  42
0.12090331
  0
VERTEX
  5
16b
  8
Layer_0
  10
778.36212
  20
703.66435
  0
VERTEX
  5
16c
  8
Layer_0
  10
778.35039
  20
703.63443
  42
0.2930282
  0
VERTEX
  5
16d
  8
Layer_0
  10
778.54639
  20
702.73804
  0
VERTEX
  5
16e
  8
Layer_0
  10
778.56953
  20
702.71574
  42
0.29309795
  0
VERTEX
  5
16f
  8
Layer_0
  10
779.4727
  20
702.55377
  0
VERTEX
  5
170
  8
Layer_0
  10
779.50215
  20
702.56662
  42
0.29305981
  0
VERTEX
  5
171
  8
Layer_0
  10
779.99742
  20
703.33907
  42
0.1988548
  0
VERTEX
  5
172
  8
Layer_0
  10
779.74846
  20
703.94011
  0
SEQEND
  0
POLYLINE
  5
174
  8
Layer_0
  62
0
  66
1
  10
0
  20
0
  30
0
  0
VERTEX
  5
174
  8
Layer_0
  10
758.19744
  20
694.88907
  0
VERTEX
  5
175
  8
Layer_0
  10
752.89745
  20
694.88907
  0
VERTEX
  5
176
  8
Layer_0
  10
748.19746
  20
696.73907
  0
VERTEX
  5
177
  8
Layer_0
  10
746.09746
  20
698.28906
  0
VERTEX
  5
178
  8
Layer_0
  10
746.09746
  20
700.98907
  0
VERTEX
  5
179
  8
Layer_0
  10
749.57471
  20
704.08319
  42
-0.14148377
  0
VERTEX
  5
17a
  8
Layer_0
  10
750.03256
  20
704.28171
  0
VERTEX
  5
17b
  8
Layer_0
  10
755.48218
  20
705.07539
  42
-0.2902282
  0
VERTEX
  5
17c
  8
Layer_0
  10
757.12995
  20
704.30383
  0
VERTEX
  5
17d
  8
Layer_0
  10
760.34744
  20
698.78906
  0
VERTEX
  5
17e
  8
Layer_0
  10
760.34744
  20
696.08907
  0
VERTEX
  5
17f
  8
Layer_0
  10
758.19744
  20
694.88907
  0
SEQEND
  0
POLYLINE
  5
181
  8
Layer_0
  62
0
  66
1
  10
0
  20
0
  30
0
  0
VERTEX
  5
181
  8
Layer_0
  10
761.99744
  20
703.33907
  42
-0.29307743
  0
VERTEX
  5
182
  8
Layer_0
  10
761.50217
  20
702.56662
  0
VERTEX
  5
183
  8
Layer_0
  10
761.47272
  20
702.55377
  42
-0.29307947
  0
VERTEX
  5
184
  8
Layer_0
  10
760.56955
  20
702.71574
  0
VERTEX
  5
185
  8
Layer_0
  10
760.5464
  20
702.73804
  42
-0.29307297
  0
VERTEX
  5
186
  8
Layer_0
  10
760.35041
  20
703.63443
  0
VERTEX
  5
187
  8
Layer_0
  10
760.36214
  20
703.66435
  42
-0.037748544
  0
VERTEX
  5
188
  8
Layer_0
  10
760.41956
  20
703.77809
  42
-0.26281307
  0
VERTEX
  5
189
  8
Layer_0
  10
761.14744
  20
704.18907
  42
-0.19906447
  0
VERTEX
  5
18a
  8
Layer_0
  10
761.74856
  20
703.9402
  42
-0.1990241
  0
VERTEX
  5
18b
  8
Layer_0
  10
761.99744
  20
703.33907
  0
SEQEND
  0
POLYLINE
  5
18d
  8
Layer_0
  62
0
  66
1
  10
0
  20
0
  30
0
  0
VERTEX
  5
18d
  8
Layer_0
  10
840.03247
  20
731.28171
  0
VERTEX
  5
18e
  8
Layer_0
  10
845.48209
  20
732.07539
  42
-0.29023705
  0
VERTEX
  5
18f
  8
Layer_0
  10
847.12985
  20
731.30383
  0
VERTEX
  5
190
  8
Layer_0
  10
850.34735
  20
725.78906
  0
VERTEX
  5
191
  8
Layer_0
  10
850.34735
  20
723.08907
  0
VERTEX
  5
192
  8
Layer_0
  10
848.19736
  20
721.88907
  0
VERTEX
  5
193
  8
Layer_0
  10
842.89737
  20
721.88907
  0
VERTEX
  5
194
  8
Layer_0
  10
838.19736
  20
723.73907
  0
VERTEX
  5
195
  8
Layer_0
  10
836.09738
  20
725.28906
  0
VERTEX
  5
196
  8
Layer_0
  10
836.09738
  20
727.98907
  0
VERTEX
  5
197
  8
Layer_0
  10
839.57462
  20
731.08319
  42
-0.045239747
  0
VERTEX
  5
198
  8
Layer_0
  10
839.7049
  20
731.17273
  42
-0.096560325
  0
VERTEX
  5
199
  8
Layer_0
  10
840.03247
  20
731.28171
  0
SEQEND
  0
POLYLINE
  5
19b
  8
Layer_0
  62
0
  66
1
  10
0
  20
0
  30
0
  0
VERTEX
  5
19b
  8
Layer_0
  10
851.99734
  20
730.33907
  42
-0.29301717
  0
VERTEX
  5
19c
  8
Layer_0
  10
851.50208
  20
729.56662
  0
VERTEX
  5
19d
  8
Layer_0
  10
851.47263
  20
729.55377
  42
-0.29299526
  0
VERTEX
  5
19e
  8
Layer_0
  10
850.56946
  20
729.71574
  0
VERTEX
  5
19f
  8
Layer_0
  10
850.54631
  20
729.73804
  42
-0.29271525
  0
VERTEX
  5
1a0
  8
Layer_0
  10
850.35031
  20
730.63443
  0
VERTEX
  5
1a1
  8
Layer_0
  10
850.36206
  20
730.66435
  42
-0.17591395
  0
VERTEX
  5
1a2
  8
Layer_0
  10
850.75481
  20
731.093
  42
-0.12075581
  0
VERTEX
  5
1a3
  8
Layer_0
  10
851.14735
  20
731.18907
  42
-0.41431352
  0
VERTEX
  5
1a4
  8
Layer_0
  10
851.99734
  20
730.33907
  0
SEQEND
  0
POLYLINE
  5
1a6
  8
Layer_0
  62
0
  66
1
  10
0
  20
0
  30
0
  0
VERTEX
  5
1a6
  8
Layer_0
  10
827.48211
  20
734.07538
  0
VERTEX
  5
1a7
  8
Layer_0
  10
822.03249
  20
733.28171
  42
0.12323517
  0
VERTEX
  5
1a8
  8
Layer_0
  10
821.62498
  20
733.12186
  42
0.015508021
  0
VERTEX
  5
1a9
  8
Layer_0
  10
821.57465
  20
733.08319
  0
VERTEX
  5
1aa
  8
Layer_0
  10
818.09738
  20
729.98907
  0
VERTEX
  5
1ab
  8
Layer_0
  10
818.09738
  20
727.28906
  0
VERTEX
  5
1ac
  8
Layer_0
  10
820.19739
  20
725.73907
  0
VERTEX
  5
1ad
  8
Layer_0
  10
824.89738
  20
723.88907
  0
VERTEX
  5
1ae
  8
Layer_0
  10
830.19737
  20
723.88907
  0
VERTEX
  5
1af
  8
Layer_0
  10
832.34738
  20
725.08907
  0
VERTEX
  5
1b0
  8
Layer_0
  10
832.34738
  20
727.78906
  0
VERTEX
  5
1b1
  8
Layer_0
  10
829.12988
  20
733.30383
  42
0.290197
  0
VERTEX
  5
1b2
  8
Layer_0
  10
827.48211
  20
734.07538
  0
SEQEND
  0
POLYLINE
  5
1b4
  8
Layer_0
  62
0
  66
1
  10
0
  20
0
  30
0
  0
VERTEX
  5
1b4
  8
Layer_0
  10
833.99738
  20
732.33907
  42
-0.29275188
  0
VERTEX
  5
1b5
  8
Layer_0
  10
833.50211
  20
731.56662
  0
VERTEX
  5
1b6
  8
Layer_0
  10
833.47266
  20
731.55377
  42
-0.2932861
  0
VERTEX
  5
1b7
  8
Layer_0
  10
832.56947
  20
731.71574
  0
VERTEX
  5
1b8
  8
Layer_0
  10
832.54633
  20
731.73804
  42
-0.29312208
  0
VERTEX
  5
1b9
  8
Layer_0
  10
832.35034
  20
732.63443
  0
VERTEX
  5
1ba
  8
Layer_0
  10
832.36206
  20
732.66435
  42
-0.14872911
  0
VERTEX
  5
1bb
  8
Layer_0
  10
832.67514
  20
733.04582
  42
-0.14850011
  0
VERTEX
  5
1bc
  8
Layer_0
  10
833.14737
  20
733.18907
  42
-0.41413027
  0
VERTEX
  5
1bd
  8
Layer_0
  10
833.99738
  20
732.33907
  0
SEQEND
  0
POLYLINE
  5
1bf
  8
Layer_0
  62
0
  66
1
  10
0
  20
0
  30
0
  0
VERTEX
  5
1bf
  8
Layer_0
  10
804.03252
  20
738.28171
  0
VERTEX
  5
1c0
  8
Layer_0
  10
809.48212
  20
739.07538
  42
-0.29016088
  0
VERTEX
  5
1c1
  8
Layer_0
  10
811.12989
  20
738.30383
  0
VERTEX
  5
1c2
  8
Layer_0
  10
814.34738
  20
732.78906
  0
VERTEX
  5
1c3
  8
Layer_0
  10
814.34738
  20
730.08907
  0
VERTEX
  5
1c4
  8
Layer_0
  10
812.1974
  20
728.88907
  0
VERTEX
  5
1c5
  8
Layer_0
  10
806.89739
  20
728.88907
  0
VERTEX
  5
1c6
  8
Layer_0
  10
802.1974
  20
730.73907
  0
VERTEX
  5
1c7
  8
Layer_0
  10
800.0974
  20
732.28906
  0
VERTEX
  5
1c8
  8
Layer_0
  10
800.0974
  20
734.98907
  0
VERTEX
  5
1c9
  8
Layer_0
  10
803.57466
  20
738.08319
  42
-0.14173046
  0
VERTEX
  5
1ca
  8
Layer_0
  10
804.03252
  20
738.28171
  0
SEQEND
  0
POLYLINE
  5
1cc
  8
Layer_0
  62
0
  66
1
  10
0
  20
0
  30
0
  0
VERTEX
  5
1cc
  8
Layer_0
  10
815.74843
  20
737.94011
  42
0.19850282
  0
VERTEX
  5
1cd
  8
Layer_0
  10
815.14738
  20
738.18907
  42
0.18565933
  0
VERTEX
  5
1ce
  8
Layer_0
  10
814.57773
  20
737.96996
  42
0.11067977
  0
VERTEX
  5
1cf
  8
Layer_0
  10
814.36208
  20
737.66435
  0
VERTEX
  5
1d0
  8
Layer_0
  10
814.35035
  20
737.63443
  42
0.29295895
  0
VERTEX
  5
1d1
  8
Layer_0
  10
814.54634
  20
736.73804
  0
VERTEX
  5
1d2
  8
Layer_0
  10
814.56949
  20
736.71573
  42
0.29317733
  0
VERTEX
  5
1d3
  8
Layer_0
  10
815.47266
  20
736.55377
  0
VERTEX
  5
1d4
  8
Layer_0
  10
815.50211
  20
736.56662
  42
0.29301193
  0
VERTEX
  5
1d5
  8
Layer_0
  10
815.99738
  20
737.33908
  42
0.19906043
  0
VERTEX
  5
1d6
  8
Layer_0
  10
815.74843
  20
737.94011
  0
SEQEND
  0
POLYLINE
  5
1d8
  8
Layer_0
  62
0
  66
1
  10
0
  20
0
  30
0
  0
VERTEX
  5
1d8
  8
Layer_0
  10
793.12991
  20
733.30383
  0
VERTEX
  5
1d9
  8
Layer_0
  10
796.3474
  20
727.78906
  0
VERTEX
  5
1da
  8
Layer_0
  10
796.3474
  20
725.08907
  0
VERTEX
  5
1db
  8
Layer_0
  10
794.19741
  20
723.88907
  0
VERTEX
  5
1dc
  8
Layer_0
  10
788.89742
  20
723.88907
  0
VERTEX
  5
1dd
  8
Layer_0
  10
784.19742
  20
725.73907
  0
VERTEX
  5
1de
  8
Layer_0
  10
782.09743
  20
727.28906
  0
VERTEX
  5
1df
  8
Layer_0
  10
782.09743
  20
729.98907
  0
VERTEX
  5
1e0
  8
Layer_0
  10
785.57468
  20
733.08319
  42
-0.14137373
  0
VERTEX
  5
1e1
  8
Layer_0
  10
786.03252
  20
733.28171
  0
VERTEX
  5
1e2
  8
Layer_0
  10
791.48214
  20
734.07538
  42
-0.29024978
  0
VERTEX
  5
1e3
  8
Layer_0
  10
793.12991
  20
733.30383
  0
SEQEND
  0
POLYLINE
  5
1e5
  8
Layer_0
  62
0
  66
1
  10
0
  20
0
  30
0
  0
VERTEX
  5
1e5
  8
Layer_0
  10
797.74844
  20
732.94011
  42
-0.19881837
  0
VERTEX
  5
1e6
  8
Layer_0
  10
797.99741
  20
732.33907
  42
-0.29308055
  0
VERTEX
  5
1e7
  8
Layer_0
  10
797.50214
  20
731.56662
  0
VERTEX
  5
1e8
  8
Layer_0
  10
797.47269
  20
731.55377
  42
-0.29311577
  0
VERTEX
  5
1e9
  8
Layer_0
  10
796.56951
  20
731.71574
  0
VERTEX
  5
1ea
  8
Layer_0
  10
796.54637
  20
731.73804
  42
-0.29308852
  0
VERTEX
  5
1eb
  8
Layer_0
  10
796.35037
  20
732.63443
  0
VERTEX
  5
1ec
  8
Layer_0
  10
796.36211
  20
732.66435
  42
-0.093036675
  0
VERTEX
  5
1ed
  8
Layer_0
  10
796.5333
  20
732.92679
  42
-0.20458568
  0
VERTEX
  5
1ee
  8
Layer_0
  10
797.14741
  20
733.18907
  42
-0.19900978
  0
VERTEX
  5
1ef
  8
Layer_0
  10
797.74844
  20
732.94011
  0
SEQEND
  0
POLYLINE
  5
1f1
  8
Layer_0
  62
0
  66
1
  10
0
  20
0
  30
0
  0
VERTEX
  5
1f1
  8
Layer_0
  10
768.03255
  20
721.28171
  0
VERTEX
  5
1f2
  8
Layer_0
  10
773.48216
  20
722.07539
  42
-0.2902274
  0
VERTEX
  5
1f3
  8
Layer_0
  10
775.12993
  20
721.30383
  0
VERTEX
  5
1f4
  8
Layer_0
  10
778.34743
  20
715.78906
  0
VERTEX
  5
1f5
  8
Layer_0
  10
778.34743
  20
713.08907
  0
VERTEX
  5
1f6
  8
Layer_0
  10
776.19743
  20
711.88907
  0
VERTEX
  5
1f7
  8
Layer_0
  10
770.89743
  20
711.88907
  0
VERTEX
  5
1f8
  8
Layer_0
  10
766.19743
  20
713.73907
  0
VERTEX
  5
1f9
  8
Layer_0
  10
764.09744
  20
715.28906
  0
VERTEX
  5
1fa
  8
Layer_0
  10
764.09744
  20
717.98907
  0
VERTEX
  5
1fb
  8
Layer_0
  10
767.5747
  20
721.08319
  42
-0.14137519
  0
VERTEX
  5
1fc
  8
Layer_0
  10
768.03255
  20
721.28171
  0
SEQEND
  0
POLYLINE
  5
1fe
  8
Layer_0
  62
0
  66
1
  10
0
  20
0
  30
0
  0
VERTEX
  5
1fe
  8
Layer_0
  10
779.74846
  20
720.94011
  42
-0.19895395
  0
VERTEX
  5
1ff
  8
Layer_0
  10
779.99742
  20
720.33907
  42
-0.29311138
  0
VERTEX
  5
200
  8
Layer_0
  10
779.50215
  20
719.56662
  0
VERTEX
  5
201
  8
Layer_0
  10
779.4727
  20
719.55377
  42
-0.29309736
  0
VERTEX
  5
202
  8
Layer_0
  10
778.56953
  20
719.71574
  0
VERTEX
  5
203
  8
Layer_0
  10
778.54639
  20
719.73804
  42
-0.29302827
  0
VERTEX
  5
204
  8
Layer_0
  10
778.35039
  20
720.63443
  0
VERTEX
  5
205
  8
Layer_0
  10
778.36212
  20
720.66435
  42
-0.06504801
  0
VERTEX
  5
206
  8
Layer_0
  10
778.47256
  20
720.85591
  42
-0.23334463
  0
VERTEX
  5
207
  8
Layer_0
  10
779.14742
  20
721.18907
  42
-0.19881823
  0
VERTEX
  5
208
  8
Layer_0
  10
779.74846
  20
720.94011
  0
SEQEND
  0
POLYLINE
  5
20a
  8
Layer_0
  62
0
  66
1
  10
0
  20
0
  30
0
  0
VERTEX
  5
20a
  8
Layer_0
  10
750.03256
  20
721.28171
  0
VERTEX
  5
20b
  8
Layer_0
  10
755.48218
  20
722.07539
  42
-0.290218
  0
VERTEX
  5
20c
  8
Layer_0
  10
757.12995
  20
721.30383
  0
VERTEX
  5
20d
  8
Layer_0
  10
760.34744
  20
715.78906
  0
VERTEX
  5
20e
  8
Layer_0
  10
760.34744
  20
713.08907
  0
VERTEX
  5
20f
  8
Layer_0
  10
758.19744
  20
711.88907
  0
VERTEX
  5
210
  8
Layer_0
  10
752.89745
  20
711.88907
  0
VERTEX
  5
211
  8
Layer_0
  10
748.19746
  20
713.73907
  0
VERTEX
  5
212
  8
Layer_0
  10
746.09746
  20
715.28906
  0
VERTEX
  5
213
  8
Layer_0
  10
746.09746
  20
717.98907
  0
VERTEX
  5
214
  8
Layer_0
  10
749.57471
  20
721.08319
  42
-0.14147156
  0
VERTEX
  5
215
  8
Layer_0
  10
750.03256
  20
721.28171
  0
SEQEND
  0
POLYLINE
  5
217
  8
Layer_0
  62
0
  66
1
  10
0
  20
0
  30
0
  0
VERTEX
  5
217
  8
Layer_0
  10
761.99744
  20
720.33907
  42
-0.29308936
  0
VERTEX
  5
218
  8
Layer_0
  10
761.50217
  20
719.56662
  0
VERTEX
  5
219
  8
Layer_0
  10
761.47272
  20
719.55377
  42
-0.29311723
  0
VERTEX
  5
21a
  8
Layer_0
  10
760.56955
  20
719.71574
  0
VERTEX
  5
21b
  8
Layer_0
  10
760.5464
  20
719.73804
  42
-0.29309168
  0
VERTEX
  5
21c
  8
Layer_0
  10
760.35041
  20
720.63443
  0
VERTEX
  5
21d
  8
Layer_0
  10
760.36214
  20
720.66435
  42
-0.30335539
  0
VERTEX
  5
21e
  8
Layer_0
  10
761.14744
  20
721.18907
  42
-0.19906823
  0
VERTEX
  5
21f
  8
Layer_0
  10
761.74856
  20
720.9402
  42
-0.19902035
  0
VERTEX
  5
220
  8
Layer_0
  10
761.99744
  20
720.33907
  0
SEQEND
  0
POLYLINE
  5
222
  8
Layer_0
  62
0
  66
1
  10
0
  20
0
  30
0
  0
VERTEX
  5
222
  8
Layer_0
  10
848.19736
  20
738.88907
  0
VERTEX
  5
223
  8
Layer_0
  10
842.89737
  20
738.88907
  0
VERTEX
  5
224
  8
Layer_0
  10
838.19736
  20
740.73907
  0
VERTEX
  5
225
  8
Layer_0
  10
836.09738
  20
742.28906
  0
VERTEX
  5
226
  8
Layer_0
  10
836.09738
  20
744.98907
  0
VERTEX
  5
227
  8
Layer_0
  10
839.57462
  20
748.08319
  0
VERTEX
  5
228
  8
Layer_0
  10
839.59947
  20
748.10298
  42
-0.13275481
  0
VERTEX
  5
229
  8
Layer_0
  10
840.03247
  20
748.28171
  0
VERTEX
  5
22a
  8
Layer_0
  10
845.48209
  20
749.07538
  42
-0.29019619
  0
VERTEX
  5
22b
  8
Layer_0
  10
847.12985
  20
748.30383
  0
VERTEX
  5
22c
  8
Layer_0
  10
850.34735
  20
742.78906
  0
VERTEX
  5
22d
  8
Layer_0
  10
850.34735
  20
740.08907
  0
VERTEX
  5
22e
  8
Layer_0
  10
848.19736
  20
738.88907
  0
SEQEND
  0
POLYLINE
  5
230
  8
Layer_0
  62
0
  66
1
  10
0
  20
0
  30
0
  0
VERTEX
  5
230
  8
Layer_0
  10
851.99734
  20
747.33908
  42
-0.29277618
  0
VERTEX
  5
231
  8
Layer_0
  10
851.50208
  20
746.56662
  0
VERTEX
  5
232
  8
Layer_0
  10
851.47263
  20
746.55377
  42
-0.29301544
  0
VERTEX
  5
233
  8
Layer_0
  10
850.56946
  20
746.71573
  0
VERTEX
  5
234
  8
Layer_0
  10
850.54631
  20
746.73804
  42
-0.29296947
  0
VERTEX
  5
235
  8
Layer_0
  10
850.35031
  20
747.63443
  0
VERTEX
  5
236
  8
Layer_0
  10
850.36206
  20
747.66435
  42
-0.14859117
  0
VERTEX
  5
237
  8
Layer_0
  10
850.67513
  20
748.04581
  42
-0.14964061
  0
VERTEX
  5
238
  8
Layer_0
  10
851.14735
  20
748.18907
  42
-0.19954185
  0
VERTEX
  5
239
  8
Layer_0
  10
851.74841
  20
747.94038
  42
-0.19854423
  0
VERTEX
  5
23a
  8
Layer_0
  10
851.99734
  20
747.33908
  0
SEQEND
  0
POLYLINE
  5
23c
  8
Layer_0
  62
0
  66
1
  10
0
  20
0
  30
0
  0
VERTEX
  5
23c
  8
Layer_0
  10
827.48211
  20
751.07538
  42
-0.29031653
  0
VERTEX
  5
23d
  8
Layer_0
  10
829.12988
  20
750.30383
  0
VERTEX
  5
23e
  8
Layer_0
  10
832.34738
  20
744.78906
  0
VERTEX
  5
23f
  8
Layer_0
  10
832.34738
  20
742.08908
  0
VERTEX
  5
240
  8
Layer_0
  10
830.19737
  20
740.88907
  0
VERTEX
  5
241
  8
Layer_0
  10
824.89738
  20
740.88907
  0
VERTEX
  5
242
  8
Layer_0
  10
820.19739
  20
742.73907
  0
VERTEX
  5
243
  8
Layer_0
  10
818.09738
  20
744.28906
  0
VERTEX
  5
244
  8
Layer_0
  10
818.09738
  20
746.98907
  0
VERTEX
  5
245
  8
Layer_0
  10
821.57465
  20
750.08319
  42
-0.1411311
  0
VERTEX
  5
246
  8
Layer_0
  10
822.03249
  20
750.28171
  0
VERTEX
  5
247
  8
Layer_0
  10
827.48211
  20
751.07538
  0
SEQEND
  0
POLYLINE
  5
249
  8
Layer_0
  62
0
  66
1
  10
0
  20
0
  30
0
  0
VERTEX
  5
249
  8
Layer_0
  10
833.99738
  20
749.33908
  42
-0.29312938
  0
VERTEX
  5
24a
  8
Layer_0
  10
833.50211
  20
748.56662
  0
VERTEX
  5
24b
  8
Layer_0
  10
833.47266
  20
748.55377
  42
-0.29298028
  0
VERTEX
  5
24c
  8
Layer_0
  10
832.56947
  20
748.71573
  0
VERTEX
  5
24d
  8
Layer_0
  10
832.54633
  20
748.73804
  42
-0.29304244
  0
VERTEX
  5
24e
  8
Layer_0
  10
832.35034
  20
749.63443
  0
VERTEX
  5
24f
  8
Layer_0
  10
832.36206
  20
749.66435
  42
-0.12027968
  0
VERTEX
  5
250
  8
Layer_0
  10
832.60104
  20
749.99025
  42
-0.17678312
  0
VERTEX
  5
251
  8
Layer_0
  10
833.14737
  20
750.18907
  42
-0.19890157
  0
VERTEX
  5
252
  8
Layer_0
  10
833.74854
  20
749.94017
  42
-0.19919323
  0
VERTEX
  5
253
  8
Layer_0
  10
833.99738
  20
749.33908
  0
SEQEND
  0
POLYLINE
  5
255
  8
Layer_0
  62
0
  66
1
  10
0
  20
0
  30
0
  0
VERTEX
  5
255
  8
Layer_0
  10
811.12989
  20
755.30383
  0
VERTEX
  5
256
  8
Layer_0
  10
814.34738
  20
749.78906
  0
VERTEX
  5
257
  8
Layer_0
  10
814.34738
  20
747.08908
  0
VERTEX
  5
258
  8
Layer_0
  10
812.1974
  20
745.88907
  0
VERTEX
  5
259
  8
Layer_0
  10
806.89739
  20
745.88907
  0
VERTEX
  5
25a
  8
Layer_0
  10
802.1974
  20
747.73907
  0
VERTEX
  5
25b
  8
Layer_0
  10
800.0974
  20
749.28906
  0
VERTEX
  5
25c
  8
Layer_0
  10
800.0974
  20
751.98907
  0
VERTEX
  5
25d
  8
Layer_0
  10
803.57466
  20
755.08319
  42
-0.14163765
  0
VERTEX
  5
25e
  8
Layer_0
  10
804.03251
  20
755.28171
  0
VERTEX
  5
25f
  8
Layer_0
  10
809.48212
  20
756.07538
  42
-0.29019674
  0
VERTEX
  5
260
  8
Layer_0
  10
811.12989
  20
755.30383
  0
SEQEND
  0
POLYLINE
  5
262
  8
Layer_0
  62
0
  66
1
  10
0
  20
0
  30
0
  0
VERTEX
  5
262
  8
Layer_0
  10
815.74843
  20
754.94011
  42
-0.19922879
  0
VERTEX
  5
263
  8
Layer_0
  10
815.99738
  20
754.33908
  42
-0.29274055
  0
VERTEX
  5
264
  8
Layer_0
  10
815.50211
  20
753.56662
  0
VERTEX
  5
265
  8
Layer_0
  10
815.47266
  20
753.55377
  42
-0.29285412
  0
VERTEX
  5
266
  8
Layer_0
  10
814.56949
  20
753.71573
  0
VERTEX
  5
267
  8
Layer_0
  10
814.54634
  20
753.73804
  42
-0.29287346
  0
VERTEX
  5
268
  8
Layer_0
  10
814.35035
  20
754.63443
  0
VERTEX
  5
269
  8
Layer_0
  10
814.36208
  20
754.66435
  42
-0.084062157
  0
VERTEX
  5
26a
  8
Layer_0
  10
814.51221
  20
754.90396
  42
-0.21448045
  0
VERTEX
  5
26b
  8
Layer_0
  10
815.14738
  20
755.18907
  42
-0.19925676
  0
VERTEX
  5
26c
  8
Layer_0
  10
815.74843
  20
754.94011
  0
SEQEND
  0
POLYLINE
  5
26e
  8
Layer_0
  62
0
  66
1
  10
0
  20
0
  30
0
  0
VERTEX
  5
26e
  8
Layer_0
  10
791.48214
  20
751.07539
  0
VERTEX
  5
26f
  8
Layer_0
  10
786.03252
  20
750.28171
  42
0.14159797
  0
VERTEX
  5
270
  8
Layer_0
  10
785.57468
  20
750.08319
  0
VERTEX
  5
271
  8
Layer_0
  10
782.09743
  20
746.98907
  0
VERTEX
  5
272
  8
Layer_0
  10
782.09743
  20
744.28906
  0
VERTEX
  5
273
  8
Layer_0
  10
784.19742
  20
742.73907
  0
VERTEX
  5
274
  8
Layer_0
  10
788.89742
  20
740.88907
  0
VERTEX
  5
275
  8
Layer_0
  10
794.19741
  20
740.88907
  0
VERTEX
  5
276
  8
Layer_0
  10
796.3474
  20
742.08908
  0
VERTEX
  5
277
  8
Layer_0
  10
796.3474
  20
744.78906
  0
VERTEX
  5
278
  8
Layer_0
  10
793.12991
  20
750.30383
  42
0.29023122
  0
VERTEX
  5
279
  8
Layer_0
  10
791.48214
  20
751.07539
  0
SEQEND
  0
POLYLINE
  5
27b
  8
Layer_0
  62
0
  66
1
  10
0
  20
0
  30
0
  0
VERTEX
  5
27b
  8
Layer_0
  10
797.74844
  20
749.94011
  42
-0.19942357
  0
VERTEX
  5
27c
  8
Layer_0
  10
797.99741
  20
749.33908
  42
-0.2926431
  0
VERTEX
  5
27d
  8
Layer_0
  10
797.50214
  20
748.56662
  0
VERTEX
  5
27e
  8
Layer_0
  10
797.47269
  20
748.55377
  42
-0.2926482
  0
VERTEX
  5
27f
  8
Layer_0
  10
796.56951
  20
748.71573
  0
VERTEX
  5
280
  8
Layer_0
  10
796.54637
  20
748.73804
  42
-0.2929763
  0
VERTEX
  5
281
  8
Layer_0
  10
796.35037
  20
749.63443
  0
VERTEX
  5
282
  8
Layer_0
  10
796.36211
  20
749.66435
  42
-0.056534042
  0
VERTEX
  5
283
  8
Layer_0
  10
796.45398
  20
749.83072
  42
-0.24305718
  0
VERTEX
  5
284
  8
Layer_0
  10
797.14741
  20
750.18907
  42
-0.19865875
  0
VERTEX
  5
285
  8
Layer_0
  10
797.74844
  20
749.94011
  0
SEQEND
  0
POLYLINE
  5
287
  8
Layer_0
  62
0
  66
1
  10
0
  20
0
  30
0
  0
VERTEX
  5
287
  8
Layer_0
  10
776.19743
  20
728.88907
  0
VERTEX
  5
288
  8
Layer_0
  10
770.89743
  20
728.88907
  0
VERTEX
  5
289
  8
Layer_0
  10
766.19743
  20
730.73907
  0
VERTEX
  5
28a
  8
Layer_0
  10
764.09744
  20
732.28906
  0
VERTEX
  5
28b
  8
Layer_0
  10
764.09744
  20
734.98907
  0
VERTEX
  5
28c
  8
Layer_0
  10
767.57469
  20
738.08319
  42
-0.14132348
  0
VERTEX
  5
28d
  8
Layer_0
  10
768.03255
  20
738.28171
  0
VERTEX
  5
28e
  8
Layer_0
  10
773.48216
  20
739.07538
  42
-0.2902197
  0
VERTEX
  5
28f
  8
Layer_0
  10
775.12993
  20
738.30383
  0
VERTEX
  5
290
  8
Layer_0
  10
778.34743
  20
732.78906
  0
VERTEX
  5
291
  8
Layer_0
  10
778.34743
  20
730.08907
  0
VERTEX
  5
292
  8
Layer_0
  10
776.19743
  20
728.88907
  0
SEQEND
  0
POLYLINE
  5
294
  8
Layer_0
  62
0
  66
1
  10
0
  20
0
  30
0
  0
VERTEX
  5
294
  8
Layer_0
  10
779.74846
  20
737.94011
  42
-0.19881464
  0
VERTEX
  5
295
  8
Layer_0
  10
779.99742
  20
737.33908
  42
-0.29307323
  0
VERTEX
  5
296
  8
Layer_0
  10
779.50215
  20
736.56662
  0
VERTEX
  5
297
  8
Layer_0
  10
779.4727
  20
736.55377
  42
-0.29308926
  0
VERTEX
  5
298
  8
Layer_0
  10
778.56953
  20
736.71573
  0
VERTEX
  5
299
  8
Layer_0
  10
778.54639
  20
736.73804
  42
-0.29328458
  0
VERTEX
  5
29a
  8
Layer_0
  10
778.35039
  20
737.63443
  0
VERTEX
  5
29b
  8
Layer_0
  10
778.36212
  20
737.66435
  42
-0.03769922
  0
VERTEX
  5
29c
  8
Layer_0
  10
778.41954
  20
737.77809
  42
-0.26266489
  0
VERTEX
  5
29d
  8
Layer_0
  10
779.14742
  20
738.18907
  42
-0.19898553
  0
VERTEX
  5
29e
  8
Layer_0
  10
779.74846
  20
737.94011
  0
SEQEND
  0
POLYLINE
  5
2a0
  8
Layer_0
  62
0
  66
1
  10
0
  20
0
  30
0
  0
VERTEX
  5
2a0
  8
Layer_0
  10
758.19744
  20
728.88907
  0
VERTEX
  5
2a1
  8
Layer_0
  10
752.89745
  20
728.88907
  0
VERTEX
  5
2a2
  8
Layer_0
  10
748.19746
  20
730.73907
  0
VERTEX
  5
2a3
  8
Layer_0
  10
746.09746
  20
732.28906
  0
VERTEX
  5
2a4
  8
Layer_0
  10
746.09746
  20
734.98907
  0
VERTEX
  5
2a5
  8
Layer_0
  10
749.57471
  20
738.08319
  42
-0.14149045
  0
VERTEX
  5
2a6
  8
Layer_0
  10
750.03256
  20
738.28171
  0
VERTEX
  5
2a7
  8
Layer_0
  10
755.48218
  20
739.07538
  42
-0.29022451
  0
VERTEX
  5
2a8
  8
Layer_0
  10
757.12995
  20
738.30383
  0
VERTEX
  5
2a9
  8
Layer_0
  10
760.34744
  20
732.78906
  0
VERTEX
  5
2aa
  8
Layer_0
  10
760.34744
  20
730.08907
  0
VERTEX
  5
2ab
  8
Layer_0
  10
758.19744
  20
728.88907
  0
SEQEND
  0
POLYLINE
  5
2ad
  8
Layer_0
  62
0
  66
1
  10
0
  20
0
  30
0
  0
VERTEX
  5
2ad
  8
Layer_0
  10
761.99744
  20
737.33908
  42
-0.29301651
  0
VERTEX
  5
2ae
  8
Layer_0
  10
761.50217
  20
736.56662
  0
VERTEX
  5
2af
  8
Layer_0
  10
761.47272
  20
736.55377
  42
-0.29298911
  0
VERTEX
  5
2b0
  8
Layer_0
  10
760.56955
  20
736.71573
  0
VERTEX
  5
2b1
  8
Layer_0
  10
760.5464
  20
736.73804
  42
-0.27283015
  0
VERTEX
  5
2b2
  8
Layer_0
  10
760.3305
  20
737.5739
  42
-0.028547834
  0
VERTEX
  5
2b3
  8
Layer_0
  10
760.36214
  20
737.66435
  42
-0.30340012
  0
VERTEX
  5
2b4
  8
Layer_0
  10
761.14744
  20
738.18907
  42
-0.1990501
  0
VERTEX
  5
2b5
  8
Layer_0
  10
761.74857
  20
737.94022
  42
-0.1990263
  0
VERTEX
  5
2b6
  8
Layer_0
  10
761.99744
  20
737.33908
  0
SEQEND
  0
POLYLINE
  5
2b8
  8
Layer_0
  62
0
  66
1
  10
0
  20
0
  30
0
  0
VERTEX
  5
2b8
  8
Layer_0
  10
838.34735
  20
739.73907
  42
-0.29316505
  0
VERTEX
  5
2b9
  8
Layer_0
  10
837.35681
  20
738.19418
  0
VERTEX
  5
2ba
  8
Layer_0
  10
837.29791
  20
738.16847
  42
-0.29304447
  0
VERTEX
  5
2bb
  8
Layer_0
  10
835.49158
  20
738.4924
  0
VERTEX
  5
2bc
  8
Layer_0
  10
835.44528
  20
738.53699
  42
-0.29302269
  0
VERTEX
  5
2bd
  8
Layer_0
  10
835.0533
  20
740.3298
  0
VERTEX
  5
2be
  8
Layer_0
  10
835.07677
  20
740.38963
  42
-0.13939975
  0
VERTEX
  5
2bf
  8
Layer_0
  10
835.65219
  20
741.11734
  42
-0.15770276
  0
VERTEX
  5
2c0
  8
Layer_0
  10
836.64737
  20
741.43907
  42
-0.41435397
  0
VERTEX
  5
2c1
  8
Layer_0
  10
838.34735
  20
739.73907
  0
SEQEND
  0
POLYLINE
  5
2c3
  8
Layer_0
  62
0
  66
1
  10
0
  20
0
  30
0
  0
VERTEX
  5
2c3
  8
Layer_0
  10
857.29735
  20
690.93907
  42
0.1988584
  0
VERTEX
  5
2c4
  8
Layer_0
  10
856.79942
  20
692.14114
  42
0.19899516
  0
VERTEX
  5
2c5
  8
Layer_0
  10
855.59735
  20
692.63907
  42
0.037222326
  0
VERTEX
  5
2c6
  8
Layer_0
  10
855.34323
  20
692.62003
  42
0.26287972
  0
VERTEX
  5
2c7
  8
Layer_0
  10
854.02675
  20
691.58963
  0
VERTEX
  5
2c8
  8
Layer_0
  10
854.00327
  20
691.5298
  42
0.29308904
  0
VERTEX
  5
2c9
  8
Layer_0
  10
854.39526
  20
689.73698
  0
VERTEX
  5
2ca
  8
Layer_0
  10
854.44156
  20
689.69241
  42
0.29308224
  0
VERTEX
  5
2cb
  8
Layer_0
  10
856.24791
  20
689.36847
  42
0.30336847
  0
VERTEX
  5
2cc
  8
Layer_0
  10
857.29735
  20
690.93907
  0
SEQEND
  0
POLYLINE
  5
2ce
  8
Layer_0
  62
0
  66
1
  10
0
  20
0
  30
0
  0
VERTEX
  5
2ce
  8
Layer_0
  10
766.34743
  20
711.83907
  42
-0.29307661
  0
VERTEX
  5
2cf
  8
Layer_0
  10
765.3569
  20
710.29417
  0
VERTEX
  5
2d0
  8
Layer_0
  10
765.298
  20
710.26846
  42
-0.29308535
  0
VERTEX
  5
2d1
  8
Layer_0
  10
763.49165
  20
710.59241
  0
VERTEX
  5
2d2
  8
Layer_0
  10
763.44536
  20
710.63699
  42
-0.29309603
  0
VERTEX
  5
2d3
  8
Layer_0
  10
763.05337
  20
712.42981
  0
VERTEX
  5
2d4
  8
Layer_0
  10
763.07684
  20
712.48962
  42
-0.028094973
  0
VERTEX
  5
2d5
  8
Layer_0
  10
763.16001
  20
712.66231
  42
-0.2728046
  0
VERTEX
  5
2d6
  8
Layer_0
  10
764.64744
  20
713.53906
  42
-0.41435754
  0
VERTEX
  5
2d7
  8
Layer_0
  10
766.34743
  20
711.83907
  0
SEQEND
  0
POLYLINE
  5
2d9
  8
Layer_0
  62
0
  66
1
  10
0
  20
0
  30
0
  0
VERTEX
  5
2d9
  8
Layer_0
  10
766.34743
  20
728.83907
  42
-0.29309362
  0
VERTEX
  5
2da
  8
Layer_0
  10
765.3569
  20
727.29417
  0
VERTEX
  5
2db
  8
Layer_0
  10
765.298
  20
727.26846
  42
-0.29308472
  0
VERTEX
  5
2dc
  8
Layer_0
  10
763.49165
  20
727.59241
  0
VERTEX
  5
2dd
  8
Layer_0
  10
763.44536
  20
727.63699
  42
-0.29308815
  0
VERTEX
  5
2de
  8
Layer_0
  10
763.05337
  20
729.42981
  0
VERTEX
  5
2df
  8
Layer_0
  10
763.07684
  20
729.48962
  42
-0.30338555
  0
VERTEX
  5
2e0
  8
Layer_0
  10
764.64744
  20
730.53906
  42
-0.19903627
  0
VERTEX
  5
2e1
  8
Layer_0
  10
765.84969
  20
730.04132
  42
-0.19905418
  0
VERTEX
  5
2e2
  8
Layer_0
  10
766.34743
  20
728.83907
  0
SEQEND
  0
POLYLINE
  5
2e4
  8
Layer_0
  62
0
  66
1
  10
0
  20
0
  30
0
  0
VERTEX
  5
2e4
  8
Layer_0
  10
855.64786
  20
748.90479
  42
0.41421356
  0
VERTEX
  5
2e5
  8
Layer_0
  10
857.64786
  20
746.90479
  0
VERTEX
  5
2e6
  8
Layer_0
  10
876.99934
  20
746.90479
  42
-0.19891765
  0
VERTEX
  5
2e7
  8
Layer_0
  10
878.41359
  20
746.31897
  42
-0.19891456
  0
VERTEX
  5
2e8
  8
Layer_0
  10
878.99934
  20
744.90471
  0
VERTEX
  5
2e9
  8
Layer_0
  10
878.99722
  20
691.20068
  42
-0.10991881
  0
VERTEX
  5
2ea
  8
Layer_0
  10
878.80923
  20
690.35425
  0
VERTEX
  5
2eb
  8
Layer_0
  10
871.75015
  20
675.21606
  42
-0.41028649
  0
VERTEX
  5
2ec
  8
Layer_0
  10
869.11905
  20
674.23633
  0
VERTEX
  5
2ed
  8
Layer_0
  10
861.77701
  20
677.53882
  0
VERTEX
  5
2ee
  8
Layer_0
  10
860.76627
  20
678.02856
  42
0.133572
  0
VERTEX
  5
2ef
  8
Layer_0
  10
823.44766
  20
684.73901
  0
VERTEX
  5
2f0
  8
Layer_0
  10
816.14761
  20
684.16382
  42
-0.18930115
  0
VERTEX
  5
2f1
  8
Layer_0
  10
809.39761
  20
686.21387
  0
VERTEX
  5
2f2
  8
Layer_0
  10
808.82681
  20
686.65894
  42
0.16238578
  0
VERTEX
  5
2f3
  8
Layer_0
  10
788.14761
  20
693.73901
  0
VERTEX
  5
2f4
  8
Layer_0
  10
747.64761
  20
693.73901
  42
-0.19902387
  0
VERTEX
  5
2f5
  8
Layer_0
  10
746.23334
  20
694.32468
  42
-0.19890882
  0
VERTEX
  5
2f6
  8
Layer_0
  10
745.64761
  20
695.73901
  0
VERTEX
  5
2f7
  8
Layer_0
  10
745.64761
  20
744.93896
  42
-0.41393842
  0
VERTEX
  5
2f8
  8
Layer_0
  10
747.64761
  20
746.93896
  0
VERTEX
  5
2f9
  8
Layer_0
  10
779.64761
  20
746.93896
  42
0.41408409
  0
VERTEX
  5
2fa
  8
Layer_0
  10
781.64761
  20
748.93896
  0
VERTEX
  5
2fb
  8
Layer_0
  10
781.64761
  20
756.93896
  42
-0.41412455
  0
VERTEX
  5
2fc
  8
Layer_0
  10
783.64761
  20
758.93896
  0
VERTEX
  5
2fd
  8
Layer_0
  10
797.64761
  20
758.93896
  42
0.19891984
  0
VERTEX
  5
2fe
  8
Layer_0
  10
799.06187
  20
759.52472
  42
0.19891984
  0
VERTEX
  5
2ff
  8
Layer_0
  10
799.64761
  20
760.93896
  0
VERTEX
  5
300
  8
Layer_0
  10
799.64761
  20
761.93896
  42
-0.41422165
  0
VERTEX
  5
301
  8
Layer_0
  10
801.64761
  20
763.93896
  0
VERTEX
  5
302
  8
Layer_0
  10
817.64761
  20
763.93896
  42
-0.4141205
  0
VERTEX
  5
303
  8
Layer_0
  10
819.64761
  20
761.93896
  0
VERTEX
  5
304
  8
Layer_0
  10
819.64761
  20
760.93896
  42
0.19920008
  0
VERTEX
  5
305
  8
Layer_0
  10
820.23299
  20
759.5246
  42
0.19872186
  0
VERTEX
  5
306
  8
Layer_0
  10
821.64761
  20
758.93896
  0
VERTEX
  5
307
  8
Layer_0
  10
835.94766
  20
758.93896
  42
-0.2789618
  0
VERTEX
  5
308
  8
Layer_0
  10
837.68253
  20
757.88159
  0
VERTEX
  5
309
  8
Layer_0
  10
837.83487
  20
757.67261
  42
0.22288147
  0
VERTEX
  5
30a
  8
Layer_0
  10
839.39761
  20
756.93896
  0
VERTEX
  5
30b
  8
Layer_0
  10
853.64786
  20
756.93896
  42
-0.41421356
  0
VERTEX
  5
30c
  8
Layer_0
  10
855.64786
  20
754.93896
  0
VERTEX
  5
30d
  8
Layer_0
  10
855.64786
  20
748.90479
  0
SEQEND
  0
POLYLINE
  5
30f
  8
Layer_0
  62
0
  66
1
  10
0
  20
0
  30
0
  0
VERTEX
  5
30f
  8
Layer_0
  10
874.84958
  20
703.73587
  42
0.19863368
  0
VERTEX
  5
310
  8
Layer_0
  10
874.5567
  20
704.44299
  42
0.19883924
  0
VERTEX
  5
311
  8
Layer_0
  10
873.84961
  20
704.73587
  42
0.074980607
  0
VERTEX
  5
312
  8
Layer_0
  10
873.55641
  20
704.69197
  42
0.22407274
  0
VERTEX
  5
313
  8
Layer_0
  10
872.92577
  20
704.11856
  0
VERTEX
  5
314
  8
Layer_0
  10
872.89955
  20
704.04788
  42
0.28295126
  0
VERTEX
  5
315
  8
Layer_0
  10
873.14252
  20
703.02878
  0
VERTEX
  5
316
  8
Layer_0
  10
873.19778
  20
702.97751
  42
0.28322541
  0
VERTEX
  5
317
  8
Layer_0
  10
874.23228
  20
702.812
  42
0.30339369
  0
VERTEX
  5
318
  8
Layer_0
  10
874.84958
  20
703.73587
  0
SEQEND
  0
POLYLINE
  5
31a
  8
Layer_0
  62
0
  66
1
  10
0
  20
0
  30
0
  0
VERTEX
  5
31a
  8
Layer_0
  10
871.84967
  20
703.73587
  42
0.19871563
  0
VERTEX
  5
31b
  8
Layer_0
  10
871.55679
  20
704.44299
  42
0.19852091
  0
VERTEX
  5
31c
  8
Layer_0
  10
870.8497
  20
704.73587
  42
0.074728155
  0
VERTEX
  5
31d
  8
Layer_0
  10
870.5565
  20
704.69197
  42
0.2236352
  0
VERTEX
  5
31e
  8
Layer_0
  10
869.92586
  20
704.11856
  0
VERTEX
  5
31f
  8
Layer_0
  10
869.89964
  20
704.04788
  42
0.28264252
  0
VERTEX
  5
320
  8
Layer_0
  10
870.14261
  20
703.02878
  0
VERTEX
  5
321
  8
Layer_0
  10
870.19788
  20
702.97751
  42
0.28284371
  0
VERTEX
  5
322
  8
Layer_0
  10
871.23238
  20
702.812
  42
0.30334299
  0
VERTEX
  5
323
  8
Layer_0
  10
871.84967
  20
703.73587
  0
SEQEND
  0
POLYLINE
  5
325
  8
Layer_0
  62
0
  66
1
  10
0
  20
0
  30
0
  0
VERTEX
  5
325
  8
Layer_0
  10
867.84979
  20
703.73587
  42
0.19924809
  0
VERTEX
  5
326
  8
Layer_0
  10
867.55692
  20
704.44299
  42
0.19873144
  0
VERTEX
  5
327
  8
Layer_0
  10
866.84982
  20
704.73587
  42
0.075165116
  0
VERTEX
  5
328
  8
Layer_0
  10
866.55661
  20
704.69197
  42
0.22368018
  0
VERTEX
  5
329
  8
Layer_0
  10
865.92598
  20
704.11856
  0
VERTEX
  5
32a
  8
Layer_0
  10
865.89977
  20
704.04788
  42
0.28296257
  0
VERTEX
  5
32b
  8
Layer_0
  10
866.14273
  20
703.02878
  0
VERTEX
  5
32c
  8
Layer_0
  10
866.19801
  20
702.97751
  42
0.28295919
  0
VERTEX
  5
32d
  8
Layer_0
  10
867.2325
  20
702.812
  42
0.30321902
  0
VERTEX
  5
32e
  8
Layer_0
  10
867.84979
  20
703.73587
  0
SEQEND
  0
POLYLINE
  5
330
  8
Layer_0
  62
0
  66
1
  10
0
  20
0
  30
0
  0
VERTEX
  5
330
  8
Layer_0
  10
866.74983
  20
708.33588
  42
0.41425807
  0
VERTEX
  5
331
  8
Layer_0
  10
865.74986
  20
709.33588
  42
0.074971811
  0
VERTEX
  5
332
  8
Layer_0
  10
865.45665
  20
709.29196
  42
0.22361371
  0
VERTEX
  5
333
  8
Layer_0
  10
864.82602
  20
708.71857
  0
VERTEX
  5
334
  8
Layer_0
  10
864.7998
  20
708.64789
  42
0.28296235
  0
VERTEX
  5
335
  8
Layer_0
  10
865.04279
  20
707.62878
  0
VERTEX
  5
336
  8
Layer_0
  10
865.09804
  20
707.57751
  42
0.28273878
  0
VERTEX
  5
337
  8
Layer_0
  10
866.13254
  20
707.41199
  42
0.30336356
  0
VERTEX
  5
338
  8
Layer_0
  10
866.74983
  20
708.33588
  0
SEQEND
  0
POLYLINE
  5
33a
  8
Layer_0
  62
0
  66
1
  10
0
  20
0
  30
0
  0
VERTEX
  5
33a
  8
Layer_0
  10
862.44742
  20
709.28583
  42
0.19900668
  0
VERTEX
  5
33b
  8
Layer_0
  10
862.15457
  20
709.99294
  42
0.19864115
  0
VERTEX
  5
33c
  8
Layer_0
  10
861.44756
  20
710.28583
  42
0.093261675
  0
VERTEX
  5
33d
  8
Layer_0
  10
861.0853
  20
710.21791
  42
0.2046265
  0
VERTEX
  5
33e
  8
Layer_0
  10
860.5238
  20
709.6685
  0
VERTEX
  5
33f
  8
Layer_0
  10
860.49759
  20
709.59782
  42
0.28265673
  0
VERTEX
  5
340
  8
Layer_0
  10
860.74054
  20
708.5787
  0
VERTEX
  5
341
  8
Layer_0
  10
860.79581
  20
708.52745
  42
0.28286127
  0
VERTEX
  5
342
  8
Layer_0
  10
861.83018
  20
708.36194
  42
0.3034062
  0
VERTEX
  5
343
  8
Layer_0
  10
862.44742
  20
709.28583
  0
SEQEND
  0
POLYLINE
  5
345
  8
Layer_0
  62
0
  66
1
  10
0
  20
0
  30
0
  0
VERTEX
  5
345
  8
Layer_0
  10
862.44742
  20
702.78583
  42
0.19884544
  0
VERTEX
  5
346
  8
Layer_0
  10
862.15457
  20
703.49294
  42
0.19870528
  0
VERTEX
  5
347
  8
Layer_0
  10
861.44756
  20
703.78583
  42
0.07451261
  0
VERTEX
  5
348
  8
Layer_0
  10
861.15436
  20
703.74191
  42
0.22362499
  0
VERTEX
  5
349
  8
Layer_0
  10
860.5238
  20
703.1685
  0
VERTEX
  5
34a
  8
Layer_0
  10
860.49759
  20
703.09782
  42
0.28281217
  0
VERTEX
  5
34b
  8
Layer_0
  10
860.74054
  20
702.0787
  0
VERTEX
  5
34c
  8
Layer_0
  10
860.79581
  20
702.02745
  42
0.28300538
  0
VERTEX
  5
34d
  8
Layer_0
  10
861.83018
  20
701.86194
  42
0.30344304
  0
VERTEX
  5
34e
  8
Layer_0
  10
862.44742
  20
702.78583
  0
SEQEND
  0
POLYLINE
  5
350
  8
Layer_0
  62
0
  66
1
  10
0
  20
0
  30
0
  0
VERTEX
  5
350
  8
Layer_0
  10
887.3381
  20
744.77356
  42
0.25974217
  0
VERTEX
  5
351
  8
Layer_0
  10
886.9846
  20
745.41019
  0
VERTEX
  5
352
  8
Layer_0
  10
886.9631
  20
745.4231
  42
0.26806874
  0
VERTEX
  5
353
  8
Layer_0
  10
886.2131
  20
745.4231
  42
0.26721622
  0
VERTEX
  5
354
  8
Layer_0
  10
885.8381
  20
744.77356
  0
VERTEX
  5
355
  8
Layer_0
  10
885.8381
  20
714.29355
  42
0.19892073
  0
VERTEX
  5
356
  8
Layer_0
  10
886.05779
  20
713.76323
  42
0.16684855
  0
VERTEX
  5
357
  8
Layer_0
  10
886.49562
  20
713.54929
  42
0.006219903
  0
VERTEX
  5
358
  8
Layer_0
  10
886.53241
  20
713.54564
  42
0.0080348318
  0
VERTEX
  5
359
  8
Layer_0
  10
886.56949
  20
713.54379
  0
VERTEX
  5
35a
  8
Layer_0
  10
886.5881
  20
713.54356
  0
VERTEX
  5
35b
  8
Layer_0
  10
901.82811
  20
713.54356
  42
0.18664371
  0
VERTEX
  5
35c
  8
Layer_0
  10
902.33148
  20
713.73758
  0
VERTEX
  5
35d
  8
Layer_0
  10
902.34511
  20
713.75021
  0
VERTEX
  5
35e
  8
Layer_0
  10
902.35843
  20
713.76323
  42
0.19233156
  0
VERTEX
  5
35f
  8
Layer_0
  10
902.57788
  20
714.27493
  0
VERTEX
  5
360
  8
Layer_0
  10
902.57811
  20
714.29355
  0
VERTEX
  5
361
  8
Layer_0
  10
902.57811
  20
744.77356
  42
0.25809062
  0
VERTEX
  5
362
  8
Layer_0
  10
902.22461
  20
745.41019
  0
VERTEX
  5
363
  8
Layer_0
  10
902.20311
  20
745.4231
  42
0.26780873
  0
VERTEX
  5
364
  8
Layer_0
  10
901.45311
  20
745.4231
  42
0.25836209
  0
VERTEX
  5
365
  8
Layer_0
  10
901.07852
  20
744.79861
  0
VERTEX
  5
366
  8
Layer_0
  10
901.07811
  20
744.77356
  0
VERTEX
  5
367
  8
Layer_0
  10
901.07811
  20
715.04355
  0
VERTEX
  5
368
  8
Layer_0
  10
887.33812
  20
715.04355
  0
VERTEX
  5
369
  8
Layer_0
  10
887.3381
  20
744.77356
  0
SEQEND
  0
POLYLINE
  5
36b
  8
Layer_0
  62
0
  66
1
  10
0
  20
0
  30
0
  0
VERTEX
  5
36b
  8
Layer_0
  10
888.44373
  20
684.40475
  0
VERTEX
  5
36c
  8
Layer_0
  10
886.59988
  20
680.13098
  0
VERTEX
  5
36d
  8
Layer_0
  10
887.74095
  20
677.68394
  0
VERTEX
  5
36e
  8
Layer_0
  10
890.29926
  20
677.16667
  0
VERTEX
  5
36f
  8
Layer_0
  10
895.34073
  20
677.4763
  0
VERTEX
  5
370
  8
Layer_0
  10
900.14418
  20
679.71619
  0
VERTEX
  5
371
  8
Layer_0
  10
901.5856
  20
681.71237
  0
VERTEX
  5
372
  8
Layer_0
  10
900.44452
  20
684.15941
  0
VERTEX
  5
373
  8
Layer_0
  10
895.19785
  20
687.79771
  42
0.11571365
  0
VERTEX
  5
374
  8
Layer_0
  10
894.46603
  20
688.0536
  42
0.16902169
  0
VERTEX
  5
375
  8
Layer_0
  10
893.37839
  20
687.8006
  0
VERTEX
  5
376
  8
Layer_0
  10
888.77477
  20
684.77817
  42
0.14149497
  0
VERTEX
  5
377
  8
Layer_0
  10
888.44373
  20
684.40475
  0
SEQEND
  0
POLYLINE
  5
379
  8
Layer_0
  62
0
  66
1
  10
0
  20
0
  30
0
  0
VERTEX
  5
379
  8
Layer_0
  10
898.48729
  20
688.66347
  42
-0.19894191
  0
VERTEX
  5
37a
  8
Layer_0
  10
898.73625
  20
689.26451
  42
-0.19906696
  0
VERTEX
  5
37b
  8
Layer_0
  10
899.33728
  20
689.51347
  42
-0.0273647
  0
VERTEX
  5
37c
  8
Layer_0
  10
899.43298
  20
689.50809
  42
-0.27284142
  0
VERTEX
  5
37d
  8
Layer_0
  10
900.12259
  20
688.98875
  0
VERTEX
  5
37e
  8
Layer_0
  10
900.13432
  20
688.95883
  42
-0.29304283
  0
VERTEX
  5
37f
  8
Layer_0
  10
899.93832
  20
688.06242
  0
VERTEX
  5
380
  8
Layer_0
  10
899.91518
  20
688.04015
  42
-0.29313691
  0
VERTEX
  5
381
  8
Layer_0
  10
899.01201
  20
687.87817
  42
-0.30337928
  0
VERTEX
  5
382
  8
Layer_0
  10
898.48729
  20
688.66347
  0
SEQEND
  0
POLYLINE
  5
384
  8
Layer_0
  62
0
  66
1
  10
0
  20
0
  30
0
  0
VERTEX
  5
384
  8
Layer_0
  10
909.14441
  20
693
  0
VERTEX
  5
385
  8
Layer_0
  10
906.25728
  20
689.34908
  0
VERTEX
  5
386
  8
Layer_0
  10
906.72614
  20
686.69009
  0
VERTEX
  5
387
  8
Layer_0
  10
909.06339
  20
685.52831
  0
VERTEX
  5
388
  8
Layer_0
  10
914.01321
  20
684.52255
  0
VERTEX
  5
389
  8
Layer_0
  10
919.23271
  20
685.44289
  0
VERTEX
  5
38a
  8
Layer_0
  10
921.14166
  20
686.998
  0
VERTEX
  5
38b
  8
Layer_0
  10
920.67281
  20
689.65698
  0
VERTEX
  5
38c
  8
Layer_0
  10
916.54657
  20
694.52924
  42
0.16011096
  0
VERTEX
  5
38d
  8
Layer_0
  10
915.62152
  20
695.04785
  42
0.12448382
  0
VERTEX
  5
38e
  8
Layer_0
  10
914.78986
  20
695.00294
  0
VERTEX
  5
38f
  8
Layer_0
  10
909.56084
  20
693.27499
  42
0.14123032
  0
VERTEX
  5
390
  8
Layer_0
  10
909.14441
  20
693
  0
SEQEND
  0
POLYLINE
  5
392
  8
Layer_0
  62
0
  66
1
  10
0
  20
0
  30
0
  0
VERTEX
  5
392
  8
Layer_0
  10
920.76904
  20
695.14413
  42
-0.055698358
  0
VERTEX
  5
393
  8
Layer_0
  10
920.9579
  20
695.12292
  42
-0.24335123
  0
VERTEX
  5
394
  8
Layer_0
  10
921.55434
  20
694.61942
  0
VERTEX
  5
395
  8
Layer_0
  10
921.56607
  20
694.58951
  42
-0.29307171
  0
VERTEX
  5
396
  8
Layer_0
  10
921.37009
  20
693.69308
  0
VERTEX
  5
397
  8
Layer_0
  10
921.34694
  20
693.67081
  42
-0.29300171
  0
VERTEX
  5
398
  8
Layer_0
  10
920.44376
  20
693.50883
  42
-0.30345453
  0
VERTEX
  5
399
  8
Layer_0
  10
919.91904
  20
694.29414
  42
-0.1991918
  0
VERTEX
  5
39a
  8
Layer_0
  10
920.16788
  20
694.89523
  42
-0.19890117
  0
VERTEX
  5
39b
  8
Layer_0
  10
920.76904
  20
695.14413
  0
SEQEND
  0
POLYLINE
  5
39d
  8
Layer_0
  62
0
  66
1
  10
0
  20
0
  30
0
  0
VERTEX
  5
39d
  8
Layer_0
  10
937.23967
  20
696.0919
  42
-0.080302166
  0
VERTEX
  5
39e
  8
Layer_0
  10
937.77774
  20
696.02682
  42
-0.20520734
  0
VERTEX
  5
39f
  8
Layer_0
  10
938.81393
  20
695.17966
  0
VERTEX
  5
3a0
  8
Layer_0
  10
941.53854
  20
689.40547
  0
VERTEX
  5
3a1
  8
Layer_0
  10
941.30322
  20
686.71574
  0
VERTEX
  5
3a2
  8
Layer_0
  10
939.05681
  20
685.70769
  0
VERTEX
  5
3a3
  8
Layer_0
  10
933.77698
  20
686.16962
  0
VERTEX
  5
3a4
  8
Layer_0
  10
929.2561
  20
688.42221
  0
VERTEX
  5
3a5
  8
Layer_0
  10
927.29919
  20
690.14934
  0
VERTEX
  5
3a6
  8
Layer_0
  10
927.5345
  20
692.83905
  0
VERTEX
  5
3a7
  8
Layer_0
  10
931.26819
  20
695.61835
  42
-0.14139334
  0
VERTEX
  5
3a8
  8
Layer_0
  10
931.74161
  20
695.7762
  0
VERTEX
  5
3a9
  8
Layer_0
  10
937.23967
  20
696.0919
  0
SEQEND
  0
POLYLINE
  5
3ab
  8
Layer_0
  62
0
  66
1
  10
0
  20
0
  30
0
  0
VERTEX
  5
3ab
  8
Layer_0
  10
941.98166
  20
693.85971
  42
-0.19893307
  0
VERTEX
  5
3ac
  8
Layer_0
  10
942.23062
  20
694.46075
  42
-0.19879584
  0
VERTEX
  5
3ad
  8
Layer_0
  10
942.83167
  20
694.70972
  42
-0.065331956
  0
VERTEX
  5
3ae
  8
Layer_0
  10
943.0509
  20
694.681
  42
-0.23350327
  0
VERTEX
  5
3af
  8
Layer_0
  10
943.61697
  20
694.185
  0
VERTEX
  5
3b0
  8
Layer_0
  10
943.62871
  20
694.15508
  42
-0.29301761
  0
VERTEX
  5
3b1
  8
Layer_0
  10
943.43271
  20
693.25867
  0
VERTEX
  5
3b2
  8
Layer_0
  10
943.40958
  20
693.23637
  42
-0.29311997
  0
VERTEX
  5
3b3
  8
Layer_0
  10
942.50639
  20
693.0744
  42
-0.30331288
  0
VERTEX
  5
3b4
  8
Layer_0
  10
941.98166
  20
693.85971
  0
SEQEND
  0
POLYLINE
  5
3b6
  8
Layer_0
  62
0
  66
1
  10
0
  20
0
  30
0
  0
VERTEX
  5
3b6
  8
Layer_0
  10
914.08734
  20
715.07538
  42
-0.12462657
  0
VERTEX
  5
3b7
  8
Layer_0
  10
914.91417
  20
714.97519
  42
-0.15998565
  0
VERTEX
  5
3b8
  8
Layer_0
  10
915.73511
  20
714.30383
  0
VERTEX
  5
3b9
  8
Layer_0
  10
918.95261
  20
708.78906
  0
VERTEX
  5
3ba
  8
Layer_0
  10
918.95261
  20
706.08907
  0
VERTEX
  5
3bb
  8
Layer_0
  10
916.8026
  20
704.88907
  0
VERTEX
  5
3bc
  8
Layer_0
  10
911.50259
  20
704.88907
  0
VERTEX
  5
3bd
  8
Layer_0
  10
906.8026
  20
706.73907
  0
VERTEX
  5
3be
  8
Layer_0
  10
904.70261
  20
708.28906
  0
VERTEX
  5
3bf
  8
Layer_0
  10
904.70261
  20
710.98907
  0
VERTEX
  5
3c0
  8
Layer_0
  10
908.17987
  20
714.08319
  42
-0.14105022
  0
VERTEX
  5
3c1
  8
Layer_0
  10
908.63771
  20
714.28171
  0
VERTEX
  5
3c2
  8
Layer_0
  10
914.08734
  20
715.07538
  0
SEQEND
  0
POLYLINE
  5
3c4
  8
Layer_0
  62
0
  66
1
  10
0
  20
0
  30
0
  0
VERTEX
  5
3c4
  8
Layer_0
  10
919.00259
  20
713.33907
  42
-0.19911475
  0
VERTEX
  5
3c5
  8
Layer_0
  10
919.25156
  20
713.94011
  42
-0.19877199
  0
VERTEX
  5
3c6
  8
Layer_0
  10
919.8526
  20
714.18907
  42
-0.093209221
  0
VERTEX
  5
3c7
  8
Layer_0
  10
920.16058
  20
714.13135
  42
-0.20473895
  0
VERTEX
  5
3c8
  8
Layer_0
  10
920.63791
  20
713.66435
  0
VERTEX
  5
3c9
  8
Layer_0
  10
920.64963
  20
713.63443
  42
-0.29307817
  0
VERTEX
  5
3ca
  8
Layer_0
  10
920.45364
  20
712.73804
  0
VERTEX
  5
3cb
  8
Layer_0
  10
920.4305
  20
712.71574
  42
-0.29302531
  0
VERTEX
  5
3cc
  8
Layer_0
  10
919.52731
  20
712.55377
  42
-0.30334364
  0
VERTEX
  5
3cd
  8
Layer_0
  10
919.00259
  20
713.33907
  0
SEQEND
  0
POLYLINE
  5
3cf
  8
Layer_0
  62
0
  66
1
  10
0
  20
0
  30
0
  0
VERTEX
  5
3cf
  8
Layer_0
  10
926.17986
  20
716.08319
  0
VERTEX
  5
3d0
  8
Layer_0
  10
922.70261
  20
712.98907
  0
VERTEX
  5
3d1
  8
Layer_0
  10
922.70261
  20
710.28906
  0
VERTEX
  5
3d2
  8
Layer_0
  10
924.8026
  20
708.73907
  0
VERTEX
  5
3d3
  8
Layer_0
  10
929.50259
  20
706.88907
  0
VERTEX
  5
3d4
  8
Layer_0
  10
934.8026
  20
706.88907
  0
VERTEX
  5
3d5
  8
Layer_0
  10
936.95261
  20
708.08907
  0
VERTEX
  5
3d6
  8
Layer_0
  10
936.95261
  20
710.78906
  0
VERTEX
  5
3d7
  8
Layer_0
  10
933.73511
  20
716.30383
  42
0.1334589
  0
VERTEX
  5
3d8
  8
Layer_0
  10
933.07639
  20
716.90265
  42
0.1510798
  0
VERTEX
  5
3d9
  8
Layer_0
  10
932.08734
  20
717.07538
  0
VERTEX
  5
3da
  8
Layer_0
  10
926.63771
  20
716.28171
  42
0.14129404
  0
VERTEX
  5
3db
  8
Layer_0
  10
926.17986
  20
716.08319
  0
SEQEND
  0
POLYLINE
  5
3dd
  8
Layer_0
  62
0
  66
1
  10
0
  20
0
  30
0
  0
VERTEX
  5
3dd
  8
Layer_0
  10
937.00259
  20
715.33907
  42
0.29325094
  0
VERTEX
  5
3de
  8
Layer_0
  10
937.49786
  20
714.56662
  0
VERTEX
  5
3df
  8
Layer_0
  10
937.52731
  20
714.55377
  42
0.29300322
  0
VERTEX
  5
3e0
  8
Layer_0
  10
938.4305
  20
714.71574
  0
VERTEX
  5
3e1
  8
Layer_0
  10
938.45364
  20
714.73804
  42
0.29298782
  0
VERTEX
  5
3e2
  8
Layer_0
  10
938.64963
  20
715.63443
  0
VERTEX
  5
3e3
  8
Layer_0
  10
938.63791
  20
715.66435
  42
0.17619089
  0
VERTEX
  5
3e4
  8
Layer_0
  10
938.24515
  20
716.093
  42
0.12090997
  0
VERTEX
  5
3e5
  8
Layer_0
  10
937.8526
  20
716.18907
  42
0.19911571
  0
VERTEX
  5
3e6
  8
Layer_0
  10
937.2515
  20
715.94022
  42
0.19897286
  0
VERTEX
  5
3e7
  8
Layer_0
  10
937.00259
  20
715.33907
  0
SEQEND
  0
POLYLINE
  5
3e9
  8
Layer_0
  62
0
  66
1
  10
0
  20
0
  30
0
  0
VERTEX
  5
3e9
  8
Layer_0
  10
950.08734
  20
722.07538
  42
-0.18699377
  0
VERTEX
  5
3ea
  8
Layer_0
  10
951.27948
  20
721.78021
  42
-0.097987472
  0
VERTEX
  5
3eb
  8
Layer_0
  10
951.73511
  20
721.30383
  0
VERTEX
  5
3ec
  8
Layer_0
  10
954.95261
  20
715.78906
  0
VERTEX
  5
3ed
  8
Layer_0
  10
954.95261
  20
713.08907
  0
VERTEX
  5
3ee
  8
Layer_0
  10
952.8026
  20
711.88907
  0
VERTEX
  5
3ef
  8
Layer_0
  10
947.50259
  20
711.88907
  0
VERTEX
  5
3f0
  8
Layer_0
  10
942.8026
  20
713.73907
  0
VERTEX
  5
3f1
  8
Layer_0
  10
940.70261
  20
715.28906
  0
VERTEX
  5
3f2
  8
Layer_0
  10
940.70261
  20
717.98907
  0
VERTEX
  5
3f3
  8
Layer_0
  10
944.17986
  20
721.08319
  42
-0.14182195
  0
VERTEX
  5
3f4
  8
Layer_0
  10
944.63771
  20
721.28171
  0
VERTEX
  5
3f5
  8
Layer_0
  10
950.08734
  20
722.07538
  0
SEQEND
  0
POLYLINE
  5
3f7
  8
Layer_0
  62
0
  66
1
  10
0
  20
0
  30
0
  0
VERTEX
  5
3f7
  8
Layer_0
  10
955.25156
  20
720.94011
  42
-0.1988878
  0
VERTEX
  5
3f8
  8
Layer_0
  10
955.8526
  20
721.18907
  42
-0.16684805
  0
VERTEX
  5
3f9
  8
Layer_0
  10
956.37488
  20
721.00967
  42
-0.12984136
  0
VERTEX
  5
3fa
  8
Layer_0
  10
956.63791
  20
720.66435
  0
VERTEX
  5
3fb
  8
Layer_0
  10
956.64963
  20
720.63443
  42
-0.29297964
  0
VERTEX
  5
3fc
  8
Layer_0
  10
956.45364
  20
719.73804
  0
VERTEX
  5
3fd
  8
Layer_0
  10
956.43048
  20
719.71574
  42
-0.29307117
  0
VERTEX
  5
3fe
  8
Layer_0
  10
955.52731
  20
719.55377
  0
VERTEX
  5
3ff
  8
Layer_0
  10
955.49786
  20
719.56662
  42
-0.29310114
  0
VERTEX
  5
400
  8
Layer_0
  10
955.00259
  20
720.33907
  42
-0.19881757
  0
VERTEX
  5
401
  8
Layer_0
  10
955.25156
  20
720.94011
  0
SEQEND
  0
POLYLINE
  5
403
  8
Layer_0
  62
0
  66
1
  10
0
  20
0
  30
0
  0
VERTEX
  5
403
  8
Layer_0
  10
962.17987
  20
716.08319
  0
VERTEX
  5
404
  8
Layer_0
  10
958.70261
  20
712.98907
  0
VERTEX
  5
405
  8
Layer_0
  10
958.70261
  20
710.28906
  0
VERTEX
  5
406
  8
Layer_0
  10
960.80261
  20
708.73907
  0
VERTEX
  5
407
  8
Layer_0
  10
965.50259
  20
706.88907
  0
VERTEX
  5
408
  8
Layer_0
  10
970.80261
  20
706.88907
  0
VERTEX
  5
409
  8
Layer_0
  10
972.95261
  20
708.08907
  0
VERTEX
  5
40a
  8
Layer_0
  10
972.95261
  20
710.78906
  0
VERTEX
  5
40b
  8
Layer_0
  10
969.73511
  20
716.30383
  42
0.071364855
  0
VERTEX
  5
40c
  8
Layer_0
  10
969.42014
  20
716.66995
  42
0.21437222
  0
VERTEX
  5
40d
  8
Layer_0
  10
968.08734
  20
717.07538
  0
VERTEX
  5
40e
  8
Layer_0
  10
962.6377
  20
716.28171
  42
0.14156912
  0
VERTEX
  5
40f
  8
Layer_0
  10
962.17987
  20
716.08319
  0
SEQEND
  0
POLYLINE
  5
411
  8
Layer_0
  62
0
  66
1
  10
0
  20
0
  30
0
  0
VERTEX
  5
411
  8
Layer_0
  10
973.25156
  20
715.94011
  42
-0.19896363
  0
VERTEX
  5
412
  8
Layer_0
  10
973.8526
  20
716.18907
  42
-0.19527141
  0
VERTEX
  5
413
  8
Layer_0
  10
974.44485
  20
715.94879
  42
-0.10218794
  0
VERTEX
  5
414
  8
Layer_0
  10
974.63791
  20
715.66435
  0
VERTEX
  5
415
  8
Layer_0
  10
974.64963
  20
715.63443
  42
-0.29300137
  0
VERTEX
  5
416
  8
Layer_0
  10
974.45364
  20
714.73804
  0
VERTEX
  5
417
  8
Layer_0
  10
974.43048
  20
714.71574
  42
-0.29296543
  0
VERTEX
  5
418
  8
Layer_0
  10
973.52731
  20
714.55377
  0
VERTEX
  5
419
  8
Layer_0
  10
973.49786
  20
714.56662
  42
-0.29313267
  0
VERTEX
  5
41a
  8
Layer_0
  10
973.00259
  20
715.33907
  42
-0.19888598
  0
VERTEX
  5
41b
  8
Layer_0
  10
973.25156
  20
715.94011
  0
SEQEND
  0
POLYLINE
  5
41d
  8
Layer_0
  62
0
  66
1
  10
0
  20
0
  30
0
  0
VERTEX
  5
41d
  8
Layer_0
  10
980.17987
  20
704.08319
  0
VERTEX
  5
41e
  8
Layer_0
  10
976.70261
  20
700.98907
  0
VERTEX
  5
41f
  8
Layer_0
  10
976.70261
  20
698.28906
  0
VERTEX
  5
420
  8
Layer_0
  10
978.80261
  20
696.73907
  0
VERTEX
  5
421
  8
Layer_0
  10
983.50259
  20
694.88907
  0
VERTEX
  5
422
  8
Layer_0
  10
988.80261
  20
694.88907
  0
VERTEX
  5
423
  8
Layer_0
  10
990.95261
  20
696.08907
  0
VERTEX
  5
424
  8
Layer_0
  10
990.95261
  20
698.78906
  0
VERTEX
  5
425
  8
Layer_0
  10
987.73511
  20
704.30383
  42
0.053759964
  0
VERTEX
  5
426
  8
Layer_0
  10
987.50757
  20
704.58801
  42
0.23286908
  0
VERTEX
  5
427
  8
Layer_0
  10
986.08734
  20
705.07538
  0
VERTEX
  5
428
  8
Layer_0
  10
980.6377
  20
704.28171
  42
0.14149983
  0
VERTEX
  5
429
  8
Layer_0
  10
980.17987
  20
704.08319
  0
SEQEND
  0
POLYLINE
  5
42b
  8
Layer_0
  62
0
  66
1
  10
0
  20
0
  30
0
  0
VERTEX
  5
42b
  8
Layer_0
  10
991.00259
  20
703.33907
  42
0.29309933
  0
VERTEX
  5
42c
  8
Layer_0
  10
991.49786
  20
702.56662
  0
VERTEX
  5
42d
  8
Layer_0
  10
991.52731
  20
702.55377
  42
0.29307
  0
VERTEX
  5
42e
  8
Layer_0
  10
992.43048
  20
702.71574
  0
VERTEX
  5
42f
  8
Layer_0
  10
992.45364
  20
702.73804
  42
0.2930956
  0
VERTEX
  5
430
  8
Layer_0
  10
992.64963
  20
703.63443
  0
VERTEX
  5
431
  8
Layer_0
  10
992.63791
  20
703.66435
  42
0.074631471
  0
VERTEX
  5
432
  8
Layer_0
  10
992.50803
  20
703.88034
  42
0.22374522
  0
VERTEX
  5
433
  8
Layer_0
  10
991.8526
  20
704.18907
  42
0.41435278
  0
VERTEX
  5
434
  8
Layer_0
  10
991.00259
  20
703.33907
  0
SEQEND
  0
POLYLINE
  5
436
  8
Layer_0
  62
0
  66
1
  10
0
  20
0
  30
0
  0
VERTEX
  5
436
  8
Layer_0
  10
998.17987
  20
704.08319
  0
VERTEX
  5
437
  8
Layer_0
  10
994.70261
  20
700.98907
  0
VERTEX
  5
438
  8
Layer_0
  10
994.70261
  20
698.28906
  0
VERTEX
  5
439
  8
Layer_0
  10
996.80261
  20
696.73907
  0
VERTEX
  5
43a
  8
Layer_0
  10
1001.5026
  20
694.88907
  0
VERTEX
  5
43b
  8
Layer_0
  10
1006.8026
  20
694.88907
  0
VERTEX
  5
43c
  8
Layer_0
  10
1008.9526
  20
696.08907
  0
VERTEX
  5
43d
  8
Layer_0
  10
1008.9526
  20
698.78906
  0
VERTEX
  5
43e
  8
Layer_0
  10
1005.7351
  20
704.30383
  42
0.29022988
  0
VERTEX
  5
43f
  8
Layer_0
  10
1004.0873
  20
705.07539
  0
VERTEX
  5
440
  8
Layer_0
  10
998.6377
  20
704.28171
  42
0.14152837
  0
VERTEX
  5
441
  8
Layer_0
  10
998.17987
  20
704.08319
  0
SEQEND
  0
POLYLINE
  5
443
  8
Layer_0
  62
0
  66
1
  10
0
  20
0
  30
0
  0
VERTEX
  5
443
  8
Layer_0
  10
1009.2516
  20
703.94011
  42
0.19892971
  0
VERTEX
  5
444
  8
Layer_0
  10
1009.0026
  20
703.33907
  42
0.29308682
  0
VERTEX
  5
445
  8
Layer_0
  10
1009.4979
  20
702.56662
  0
VERTEX
  5
446
  8
Layer_0
  10
1009.5273
  20
702.55377
  42
0.29308656
  0
VERTEX
  5
447
  8
Layer_0
  10
1010.4305
  20
702.71574
  0
VERTEX
  5
448
  8
Layer_0
  10
1010.4536
  20
702.73804
  42
0.26282832
  0
VERTEX
  5
449
  8
Layer_0
  10
1010.6777
  20
703.54332
  42
0.037430053
  0
VERTEX
  5
44a
  8
Layer_0
  10
1010.6379
  20
703.66435
  42
0.30337556
  0
VERTEX
  5
44b
  8
Layer_0
  10
1009.8526
  20
704.18907
  42
0.19891081
  0
VERTEX
  5
44c
  8
Layer_0
  10
1009.2516
  20
703.94011
  0
SEQEND
  0
POLYLINE
  5
44e
  8
Layer_0
  62
0
  66
1
  10
0
  20
0
  30
0
  0
VERTEX
  5
44e
  8
Layer_0
  10
914.08734
  20
732.07538
  42
-0.1601859
  0
VERTEX
  5
44f
  8
Layer_0
  10
915.12868
  20
731.87474
  42
-0.12459646
  0
VERTEX
  5
450
  8
Layer_0
  10
915.73511
  20
731.30383
  0
VERTEX
  5
451
  8
Layer_0
  10
918.95261
  20
725.78906
  0
VERTEX
  5
452
  8
Layer_0
  10
918.95261
  20
723.08907
  0
VERTEX
  5
453
  8
Layer_0
  10
916.8026
  20
721.88907
  0
VERTEX
  5
454
  8
Layer_0
  10
911.50259
  20
721.88907
  0
VERTEX
  5
455
  8
Layer_0
  10
906.8026
  20
723.73907
  0
VERTEX
  5
456
  8
Layer_0
  10
904.70261
  20
725.28906
  0
VERTEX
  5
457
  8
Layer_0
  10
904.70261
  20
727.98907
  0
VERTEX
  5
458
  8
Layer_0
  10
908.17987
  20
731.08319
  42
-0.1413784
  0
VERTEX
  5
459
  8
Layer_0
  10
908.63771
  20
731.28171
  0
VERTEX
  5
45a
  8
Layer_0
  10
914.08734
  20
732.07538
  0
SEQEND
  0
POLYLINE
  5
45c
  8
Layer_0
  62
0
  66
1
  10
0
  20
0
  30
0
  0
VERTEX
  5
45c
  8
Layer_0
  10
919.25156
  20
730.94011
  0
VERTEX
  5
45d
  8
Layer_0
  10
919.26666
  20
730.95485
  0
VERTEX
  5
45e
  8
Layer_0
  10
919.2821
  20
730.96918
  42
-0.1859079
  0
VERTEX
  5
45f
  8
Layer_0
  10
919.8526
  20
731.18907
  42
-0.12959386
  0
VERTEX
  5
460
  8
Layer_0
  10
920.27228
  20
731.07823
  42
-0.16723912
  0
VERTEX
  5
461
  8
Layer_0
  10
920.63791
  20
730.66435
  0
VERTEX
  5
462
  8
Layer_0
  10
920.64963
  20
730.63443
  42
-0.293156
  0
VERTEX
  5
463
  8
Layer_0
  10
920.45364
  20
729.73804
  0
VERTEX
  5
464
  8
Layer_0
  10
920.4305
  20
729.71574
  42
-0.29343728
  0
VERTEX
  5
465
  8
Layer_0
  10
919.52731
  20
729.55377
  0
VERTEX
  5
466
  8
Layer_0
  10
919.49786
  20
729.56662
  42
-0.29334047
  0
VERTEX
  5
467
  8
Layer_0
  10
919.00259
  20
730.33907
  42
-0.19881561
  0
VERTEX
  5
468
  8
Layer_0
  10
919.25156
  20
730.94011
  0
SEQEND
  0
POLYLINE
  5
46a
  8
Layer_0
  62
0
  66
1
  10
0
  20
0
  30
0
  0
VERTEX
  5
46a
  8
Layer_0
  10
926.17986
  20
733.08319
  0
VERTEX
  5
46b
  8
Layer_0
  10
922.70261
  20
729.98907
  0
VERTEX
  5
46c
  8
Layer_0
  10
922.70261
  20
727.28906
  0
VERTEX
  5
46d
  8
Layer_0
  10
924.8026
  20
725.73907
  0
VERTEX
  5
46e
  8
Layer_0
  10
929.50259
  20
723.88907
  0
VERTEX
  5
46f
  8
Layer_0
  10
934.8026
  20
723.88907
  0
VERTEX
  5
470
  8
Layer_0
  10
936.95261
  20
725.08907
  0
VERTEX
  5
471
  8
Layer_0
  10
936.95261
  20
727.78906
  0
VERTEX
  5
472
  8
Layer_0
  10
933.73511
  20
733.30383
  42
0.098094764
  0
VERTEX
  5
473
  8
Layer_0
  10
933.27948
  20
733.78021
  42
0.18698493
  0
VERTEX
  5
474
  8
Layer_0
  10
932.08734
  20
734.07538
  0
VERTEX
  5
475
  8
Layer_0
  10
926.63771
  20
733.28171
  42
0.14133369
  0
VERTEX
  5
476
  8
Layer_0
  10
926.17986
  20
733.08319
  0
SEQEND
  0
POLYLINE
  5
478
  8
Layer_0
  62
0
  66
1
  10
0
  20
0
  30
0
  0
VERTEX
  5
478
  8
Layer_0
  10
937.00259
  20
732.33907
  42
0.29273852
  0
VERTEX
  5
479
  8
Layer_0
  10
937.49786
  20
731.56662
  0
VERTEX
  5
47a
  8
Layer_0
  10
937.52731
  20
731.55377
  42
0.29307781
  0
VERTEX
  5
47b
  8
Layer_0
  10
938.4305
  20
731.71574
  0
VERTEX
  5
47c
  8
Layer_0
  10
938.45364
  20
731.73804
  42
0.29323542
  0
VERTEX
  5
47d
  8
Layer_0
  10
938.64963
  20
732.63443
  0
VERTEX
  5
47e
  8
Layer_0
  10
938.63791
  20
732.66435
  42
0.13944753
  0
VERTEX
  5
47f
  8
Layer_0
  10
938.35019
  20
733.0282
  42
0.15767085
  0
VERTEX
  5
480
  8
Layer_0
  10
937.8526
  20
733.18907
  42
0.41434683
  0
VERTEX
  5
481
  8
Layer_0
  10
937.00259
  20
732.33907
  0
SEQEND
  0
POLYLINE
  5
483
  8
Layer_0
  62
0
  66
1
  10
0
  20
0
  30
0
  0
VERTEX
  5
483
  8
Layer_0
  10
944.17986
  20
738.08319
  0
VERTEX
  5
484
  8
Layer_0
  10
940.70261
  20
734.98907
  0
VERTEX
  5
485
  8
Layer_0
  10
940.70261
  20
732.28906
  0
VERTEX
  5
486
  8
Layer_0
  10
942.8026
  20
730.73907
  0
VERTEX
  5
487
  8
Layer_0
  10
947.50259
  20
728.88907
  0
VERTEX
  5
488
  8
Layer_0
  10
952.8026
  20
728.88907
  0
VERTEX
  5
489
  8
Layer_0
  10
954.95261
  20
730.08907
  0
VERTEX
  5
48a
  8
Layer_0
  10
954.95261
  20
732.78906
  0
VERTEX
  5
48b
  8
Layer_0
  10
951.73511
  20
738.30383
  42
0.06253082
  0
VERTEX
  5
48c
  8
Layer_0
  10
951.46452
  20
738.62981
  42
0.22366272
  0
VERTEX
  5
48d
  8
Layer_0
  10
950.08734
  20
739.07538
  0
VERTEX
  5
48e
  8
Layer_0
  10
944.63771
  20
738.28171
  42
0.14187028
  0
VERTEX
  5
48f
  8
Layer_0
  10
944.17986
  20
738.08319
  0
SEQEND
  0
POLYLINE
  5
491
  8
Layer_0
  62
0
  66
1
  10
0
  20
0
  30
0
  0
VERTEX
  5
491
  8
Layer_0
  10
955.25156
  20
737.94011
  42
0.19904297
  0
VERTEX
  5
492
  8
Layer_0
  10
955.00259
  20
737.33908
  42
0.29315058
  0
VERTEX
  5
493
  8
Layer_0
  10
955.49786
  20
736.56662
  0
VERTEX
  5
494
  8
Layer_0
  10
955.52731
  20
736.55377
  42
0.29313966
  0
VERTEX
  5
495
  8
Layer_0
  10
956.43048
  20
736.71573
  0
VERTEX
  5
496
  8
Layer_0
  10
956.45364
  20
736.73804
  42
0.29320954
  0
VERTEX
  5
497
  8
Layer_0
  10
956.64963
  20
737.63443
  0
VERTEX
  5
498
  8
Layer_0
  10
956.63791
  20
737.66435
  42
0.093761306
  0
VERTEX
  5
499
  8
Layer_0
  10
956.46671
  20
737.92679
  42
0.20479095
  0
VERTEX
  5
49a
  8
Layer_0
  10
955.8526
  20
738.18907
  42
0.19896612
  0
VERTEX
  5
49b
  8
Layer_0
  10
955.25156
  20
737.94011
  0
SEQEND
  0
POLYLINE
  5
49d
  8
Layer_0
  62
0
  66
1
  10
0
  20
0
  30
0
  0
VERTEX
  5
49d
  8
Layer_0
  10
962.17987
  20
733.08319
  0
VERTEX
  5
49e
  8
Layer_0
  10
958.70261
  20
729.98907
  0
VERTEX
  5
49f
  8
Layer_0
  10
958.70261
  20
727.28906
  0
VERTEX
  5
4a0
  8
Layer_0
  10
960.80261
  20
725.73907
  0
VERTEX
  5
4a1
  8
Layer_0
  10
965.50259
  20
723.88907
  0
VERTEX
  5
4a2
  8
Layer_0
  10
970.80261
  20
723.88907
  0
VERTEX
  5
4a3
  8
Layer_0
  10
972.95261
  20
725.08907
  0
VERTEX
  5
4a4
  8
Layer_0
  10
972.95261
  20
727.78906
  0
VERTEX
  5
4a5
  8
Layer_0
  10
969.73511
  20
733.30383
  42
0.02715238
  0
VERTEX
  5
4a6
  8
Layer_0
  10
969.62823
  20
733.45294
  42
0.26117564
  0
VERTEX
  5
4a7
  8
Layer_0
  10
968.08734
  20
734.07538
  0
VERTEX
  5
4a8
  8
Layer_0
  10
962.6377
  20
733.28171
  42
0.14168866
  0
VERTEX
  5
4a9
  8
Layer_0
  10
962.17987
  20
733.08319
  0
SEQEND
  0
POLYLINE
  5
4ab
  8
Layer_0
  62
0
  66
1
  10
0
  20
0
  30
0
  0
VERTEX
  5
4ab
  8
Layer_0
  10
973.25156
  20
732.94011
  42
0.19875791
  0
VERTEX
  5
4ac
  8
Layer_0
  10
973.00259
  20
732.33907
  42
0.29317698
  0
VERTEX
  5
4ad
  8
Layer_0
  10
973.49786
  20
731.56662
  0
VERTEX
  5
4ae
  8
Layer_0
  10
973.52731
  20
731.55377
  42
0.29311953
  0
VERTEX
  5
4af
  8
Layer_0
  10
974.43048
  20
731.71574
  0
VERTEX
  5
4b0
  8
Layer_0
  10
974.45364
  20
731.73804
  42
0.29316005
  0
VERTEX
  5
4b1
  8
Layer_0
  10
974.64963
  20
732.63443
  0
VERTEX
  5
4b2
  8
Layer_0
  10
974.63791
  20
732.66435
  42
0.06617149
  0
VERTEX
  5
4b3
  8
Layer_0
  10
974.52747
  20
732.85591
  42
0.23342209
  0
VERTEX
  5
4b4
  8
Layer_0
  10
973.8526
  20
733.18907
  42
0.19880437
  0
VERTEX
  5
4b5
  8
Layer_0
  10
973.25156
  20
732.94011
  0
SEQEND
  0
POLYLINE
  5
4b7
  8
Layer_0
  62
0
  66
1
  10
0
  20
0
  30
0
  0
VERTEX
  5
4b7
  8
Layer_0
  10
986.08734
  20
722.07538
  42
-0.29023693
  0
VERTEX
  5
4b8
  8
Layer_0
  10
987.73511
  20
721.30383
  0
VERTEX
  5
4b9
  8
Layer_0
  10
990.95261
  20
715.78906
  0
VERTEX
  5
4ba
  8
Layer_0
  10
990.95261
  20
713.08907
  0
VERTEX
  5
4bb
  8
Layer_0
  10
988.80261
  20
711.88907
  0
VERTEX
  5
4bc
  8
Layer_0
  10
983.50259
  20
711.88907
  0
VERTEX
  5
4bd
  8
Layer_0
  10
978.80261
  20
713.73907
  0
VERTEX
  5
4be
  8
Layer_0
  10
976.70261
  20
715.28906
  0
VERTEX
  5
4bf
  8
Layer_0
  10
976.70261
  20
717.98907
  0
VERTEX
  5
4c0
  8
Layer_0
  10
980.17987
  20
721.08319
  42
-0.14147607
  0
VERTEX
  5
4c1
  8
Layer_0
  10
980.6377
  20
721.28171
  0
VERTEX
  5
4c2
  8
Layer_0
  10
986.08734
  20
722.07538
  0
SEQEND
  0
POLYLINE
  5
4c4
  8
Layer_0
  62
0
  66
1
  10
0
  20
0
  30
0
  0
VERTEX
  5
4c4
  8
Layer_0
  10
991.00259
  20
720.33907
  42
0.29317166
  0
VERTEX
  5
4c5
  8
Layer_0
  10
991.49786
  20
719.56662
  0
VERTEX
  5
4c6
  8
Layer_0
  10
991.52731
  20
719.55377
  42
0.29302505
  0
VERTEX
  5
4c7
  8
Layer_0
  10
992.43048
  20
719.71574
  0
VERTEX
  5
4c8
  8
Layer_0
  10
992.45364
  20
719.73804
  42
0.29310462
  0
VERTEX
  5
4c9
  8
Layer_0
  10
992.64963
  20
720.63443
  0
VERTEX
  5
4ca
  8
Layer_0
  10
992.63791
  20
720.66435
  42
0.028455768
  0
VERTEX
  5
4cb
  8
Layer_0
  10
992.59631
  20
720.75069
  42
0.27281039
  0
VERTEX
  5
4cc
  8
Layer_0
  10
991.8526
  20
721.18907
  42
0.41433137
  0
VERTEX
  5
4cd
  8
Layer_0
  10
991.00259
  20
720.33907
  0
SEQEND
  0
POLYLINE
  5
4cf
  8
Layer_0
  62
0
  66
1
  10
0
  20
0
  30
0
  0
VERTEX
  5
4cf
  8
Layer_0
  10
998.17987
  20
721.08319
  0
VERTEX
  5
4d0
  8
Layer_0
  10
994.70261
  20
717.98907
  0
VERTEX
  5
4d1
  8
Layer_0
  10
994.70261
  20
715.28906
  0
VERTEX
  5
4d2
  8
Layer_0
  10
996.80261
  20
713.73907
  0
VERTEX
  5
4d3
  8
Layer_0
  10
1001.5026
  20
711.88907
  0
VERTEX
  5
4d4
  8
Layer_0
  10
1006.8026
  20
711.88907
  0
VERTEX
  5
4d5
  8
Layer_0
  10
1008.9526
  20
713.08907
  0
VERTEX
  5
4d6
  8
Layer_0
  10
1008.9526
  20
715.78906
  0
VERTEX
  5
4d7
  8
Layer_0
  10
1005.7351
  20
721.30383
  42
0.29022507
  0
VERTEX
  5
4d8
  8
Layer_0
  10
1004.0873
  20
722.07538
  0
VERTEX
  5
4d9
  8
Layer_0
  10
998.6377
  20
721.28171
  42
0.14151091
  0
VERTEX
  5
4da
  8
Layer_0
  10
998.17987
  20
721.08319
  0
SEQEND
  0
POLYLINE
  5
4dc
  8
Layer_0
  62
0
  66
1
  10
0
  20
0
  30
0
  0
VERTEX
  5
4dc
  8
Layer_0
  10
1009.2516
  20
720.94011
  42
0.19889775
  0
VERTEX
  5
4dd
  8
Layer_0
  10
1009.0026
  20
720.33907
  42
0.29309205
  0
VERTEX
  5
4de
  8
Layer_0
  10
1009.4979
  20
719.56662
  0
VERTEX
  5
4df
  8
Layer_0
  10
1009.5273
  20
719.55377
  42
0.29310305
  0
VERTEX
  5
4e0
  8
Layer_0
  10
1010.4305
  20
719.71574
  0
VERTEX
  5
4e1
  8
Layer_0
  10
1010.4536
  20
719.73804
  42
0.24311368
  0
VERTEX
  5
4e2
  8
Layer_0
  10
1010.6906
  20
720.48175
  42
0.056115938
  0
VERTEX
  5
4e3
  8
Layer_0
  10
1010.6379
  20
720.66435
  42
0.30338266
  0
VERTEX
  5
4e4
  8
Layer_0
  10
1009.8526
  20
721.18907
  42
0.19890241
  0
VERTEX
  5
4e5
  8
Layer_0
  10
1009.2516
  20
720.94011
  0
SEQEND
  0
POLYLINE
  5
4e7
  8
Layer_0
  62
0
  66
1
  10
0
  20
0
  30
0
  0
VERTEX
  5
4e7
  8
Layer_0
  10
908.17987
  20
748.08319
  0
VERTEX
  5
4e8
  8
Layer_0
  10
904.70261
  20
744.98907
  0
VERTEX
  5
4e9
  8
Layer_0
  10
904.70261
  20
742.28906
  0
VERTEX
  5
4ea
  8
Layer_0
  10
906.8026
  20
740.73907
  0
VERTEX
  5
4eb
  8
Layer_0
  10
911.50259
  20
738.88907
  0
VERTEX
  5
4ec
  8
Layer_0
  10
916.8026
  20
738.88907
  0
VERTEX
  5
4ed
  8
Layer_0
  10
918.95261
  20
740.08907
  0
VERTEX
  5
4ee
  8
Layer_0
  10
918.95261
  20
742.78906
  0
VERTEX
  5
4ef
  8
Layer_0
  10
915.73511
  20
748.30383
  42
0.098065698
  0
VERTEX
  5
4f0
  8
Layer_0
  10
915.27948
  20
748.78021
  42
0.1870652
  0
VERTEX
  5
4f1
  8
Layer_0
  10
914.08734
  20
749.07538
  0
VERTEX
  5
4f2
  8
Layer_0
  10
908.63771
  20
748.28171
  42
0.1411439
  0
VERTEX
  5
4f3
  8
Layer_0
  10
908.17987
  20
748.08319
  0
SEQEND
  0
POLYLINE
  5
4f5
  8
Layer_0
  62
0
  66
1
  10
0
  20
0
  30
0
  0
VERTEX
  5
4f5
  8
Layer_0
  10
919.25156
  20
747.94011
  42
-0.19914487
  0
VERTEX
  5
4f6
  8
Layer_0
  10
919.8526
  20
748.18907
  42
-0.16652924
  0
VERTEX
  5
4f7
  8
Layer_0
  10
920.37489
  20
748.00967
  42
-0.12989085
  0
VERTEX
  5
4f8
  8
Layer_0
  10
920.63791
  20
747.66435
  0
VERTEX
  5
4f9
  8
Layer_0
  10
920.64963
  20
747.63443
  42
-0.29308425
  0
VERTEX
  5
4fa
  8
Layer_0
  10
920.45364
  20
746.73804
  0
VERTEX
  5
4fb
  8
Layer_0
  10
920.4305
  20
746.71573
  42
-0.29313713
  0
VERTEX
  5
4fc
  8
Layer_0
  10
919.52731
  20
746.55377
  0
VERTEX
  5
4fd
  8
Layer_0
  10
919.49786
  20
746.56662
  42
-0.29309971
  0
VERTEX
  5
4fe
  8
Layer_0
  10
919.00259
  20
747.33908
  42
-0.19934521
  0
VERTEX
  5
4ff
  8
Layer_0
  10
919.25156
  20
747.94011
  0
SEQEND
  0
POLYLINE
  5
501
  8
Layer_0
  62
0
  66
1
  10
0
  20
0
  30
0
  0
VERTEX
  5
501
  8
Layer_0
  10
932.08734
  20
751.07538
  42
-0.21430364
  0
VERTEX
  5
502
  8
Layer_0
  10
933.42014
  20
750.66995
  42
-0.07181549
  0
VERTEX
  5
503
  8
Layer_0
  10
933.73511
  20
750.30383
  0
VERTEX
  5
504
  8
Layer_0
  10
936.95261
  20
744.78906
  0
VERTEX
  5
505
  8
Layer_0
  10
936.95261
  20
742.08908
  0
VERTEX
  5
506
  8
Layer_0
  10
934.8026
  20
740.88907
  0
VERTEX
  5
507
  8
Layer_0
  10
929.50259
  20
740.88907
  0
VERTEX
  5
508
  8
Layer_0
  10
924.8026
  20
742.73907
  0
VERTEX
  5
509
  8
Layer_0
  10
922.70261
  20
744.28906
  0
VERTEX
  5
50a
  8
Layer_0
  10
922.70261
  20
746.98907
  0
VERTEX
  5
50b
  8
Layer_0
  10
926.17986
  20
750.08319
  42
-0.14109071
  0
VERTEX
  5
50c
  8
Layer_0
  10
926.63771
  20
750.28171
  0
VERTEX
  5
50d
  8
Layer_0
  10
932.08734
  20
751.07538
  0
SEQEND
  0
POLYLINE
  5
50f
  8
Layer_0
  62
0
  66
1
  10
0
  20
0
  30
0
  0
VERTEX
  5
50f
  8
Layer_0
  10
937.00259
  20
749.33908
  42
0.29311318
  0
VERTEX
  5
510
  8
Layer_0
  10
937.49786
  20
748.56662
  0
VERTEX
  5
511
  8
Layer_0
  10
937.52731
  20
748.55377
  42
0.29342084
  0
VERTEX
  5
512
  8
Layer_0
  10
938.4305
  20
748.71573
  0
VERTEX
  5
513
  8
Layer_0
  10
938.45364
  20
748.73804
  42
0.29315578
  0
VERTEX
  5
514
  8
Layer_0
  10
938.64963
  20
749.63443
  0
VERTEX
  5
515
  8
Layer_0
  10
938.63791
  20
749.66435
  42
0.10290058
  0
VERTEX
  5
516
  8
Layer_0
  10
938.44485
  20
749.94879
  42
0.19466533
  0
VERTEX
  5
517
  8
Layer_0
  10
937.8526
  20
750.18907
  42
0.19864837
  0
VERTEX
  5
518
  8
Layer_0
  10
937.25137
  20
749.94009
  42
0.19944027
  0
VERTEX
  5
519
  8
Layer_0
  10
937.00259
  20
749.33908
  0
SEQEND
  0
POLYLINE
  5
51b
  8
Layer_0
  62
0
  66
1
  10
0
  20
0
  30
0
  0
VERTEX
  5
51b
  8
Layer_0
  10
944.17986
  20
755.08319
  0
VERTEX
  5
51c
  8
Layer_0
  10
940.70261
  20
751.98907
  0
VERTEX
  5
51d
  8
Layer_0
  10
940.70261
  20
749.28906
  0
VERTEX
  5
51e
  8
Layer_0
  10
942.8026
  20
747.73907
  0
VERTEX
  5
51f
  8
Layer_0
  10
947.50259
  20
745.88907
  0
VERTEX
  5
520
  8
Layer_0
  10
952.8026
  20
745.88907
  0
VERTEX
  5
521
  8
Layer_0
  10
954.95261
  20
747.08908
  0
VERTEX
  5
522
  8
Layer_0
  10
954.95261
  20
749.78906
  0
VERTEX
  5
523
  8
Layer_0
  10
951.73511
  20
755.30383
  42
0.035803786
  0
VERTEX
  5
524
  8
Layer_0
  10
951.58949
  20
755.49954
  42
0.25159647
  0
VERTEX
  5
525
  8
Layer_0
  10
950.08734
  20
756.07538
  0
VERTEX
  5
526
  8
Layer_0
  10
944.63771
  20
755.28171
  42
0.14105471
  0
VERTEX
  5
527
  8
Layer_0
  10
944.17986
  20
755.08319
  0
SEQEND
  0
POLYLINE
  5
529
  8
Layer_0
  62
0
  66
1
  10
0
  20
0
  30
0
  0
VERTEX
  5
529
  8
Layer_0
  10
955.25156
  20
754.94011
  42
0.19898131
  0
VERTEX
  5
52a
  8
Layer_0
  10
955.00259
  20
754.33908
  42
0.29304538
  0
VERTEX
  5
52b
  8
Layer_0
  10
955.49786
  20
753.56662
  0
VERTEX
  5
52c
  8
Layer_0
  10
955.52731
  20
753.55377
  42
0.29299371
  0
VERTEX
  5
52d
  8
Layer_0
  10
956.43048
  20
753.71573
  0
VERTEX
  5
52e
  8
Layer_0
  10
956.45364
  20
753.73804
  42
0.29298095
  0
VERTEX
  5
52f
  8
Layer_0
  10
956.64963
  20
754.63443
  0
VERTEX
  5
530
  8
Layer_0
  10
956.63791
  20
754.66435
  42
0.065302382
  0
VERTEX
  5
531
  8
Layer_0
  10
956.52747
  20
754.85591
  42
0.23347691
  0
VERTEX
  5
532
  8
Layer_0
  10
955.8526
  20
755.18907
  42
0.19903817
  0
VERTEX
  5
533
  8
Layer_0
  10
955.25156
  20
754.94011
  0
SEQEND
  0
POLYLINE
  5
535
  8
Layer_0
  62
0
  66
1
  10
0
  20
0
  30
0
  0
VERTEX
  5
535
  8
Layer_0
  10
968.08734
  20
751.07538
  42
-0.29023937
  0
VERTEX
  5
536
  8
Layer_0
  10
969.73511
  20
750.30383
  0
VERTEX
  5
537
  8
Layer_0
  10
972.95261
  20
744.78906
  0
VERTEX
  5
538
  8
Layer_0
  10
972.95261
  20
742.08908
  0
VERTEX
  5
539
  8
Layer_0
  10
970.80261
  20
740.88907
  0
VERTEX
  5
53a
  8
Layer_0
  10
965.50259
  20
740.88907
  0
VERTEX
  5
53b
  8
Layer_0
  10
960.80261
  20
742.73907
  0
VERTEX
  5
53c
  8
Layer_0
  10
958.70261
  20
744.28906
  0
VERTEX
  5
53d
  8
Layer_0
  10
958.70261
  20
746.98907
  0
VERTEX
  5
53e
  8
Layer_0
  10
962.17987
  20
750.08319
  42
-0.14142245
  0
VERTEX
  5
53f
  8
Layer_0
  10
962.6377
  20
750.28171
  0
VERTEX
  5
540
  8
Layer_0
  10
968.08734
  20
751.07538
  0
SEQEND
  0
POLYLINE
  5
542
  8
Layer_0
  62
0
  66
1
  10
0
  20
0
  30
0
  0
VERTEX
  5
542
  8
Layer_0
  10
973.25156
  20
749.94011
  42
0.19894733
  0
VERTEX
  5
543
  8
Layer_0
  10
973.00259
  20
749.33908
  42
0.29321846
  0
VERTEX
  5
544
  8
Layer_0
  10
973.49786
  20
748.56662
  0
VERTEX
  5
545
  8
Layer_0
  10
973.52731
  20
748.55377
  42
0.29314152
  0
VERTEX
  5
546
  8
Layer_0
  10
974.43048
  20
748.71573
  0
VERTEX
  5
547
  8
Layer_0
  10
974.45364
  20
748.73804
  42
0.29319339
  0
VERTEX
  5
548
  8
Layer_0
  10
974.64963
  20
749.63443
  0
VERTEX
  5
549
  8
Layer_0
  10
974.63791
  20
749.66435
  42
0.037016127
  0
VERTEX
  5
54a
  8
Layer_0
  10
974.58047
  20
749.77809
  42
0.26272699
  0
VERTEX
  5
54b
  8
Layer_0
  10
973.8526
  20
750.18907
  42
0.19894915
  0
VERTEX
  5
54c
  8
Layer_0
  10
973.25156
  20
749.94011
  0
SEQEND
  0
POLYLINE
  5
54e
  8
Layer_0
  62
0
  66
1
  10
0
  20
0
  30
0
  0
VERTEX
  5
54e
  8
Layer_0
  10
980.17987
  20
738.08319
  0
VERTEX
  5
54f
  8
Layer_0
  10
976.70261
  20
734.98907
  0
VERTEX
  5
550
  8
Layer_0
  10
976.70261
  20
732.28906
  0
VERTEX
  5
551
  8
Layer_0
  10
978.80261
  20
730.73907
  0
VERTEX
  5
552
  8
Layer_0
  10
983.50259
  20
728.88907
  0
VERTEX
  5
553
  8
Layer_0
  10
988.80261
  20
728.88907
  0
VERTEX
  5
554
  8
Layer_0
  10
990.95261
  20
730.08907
  0
VERTEX
  5
555
  8
Layer_0
  10
990.95261
  20
732.78906
  0
VERTEX
  5
556
  8
Layer_0
  10
987.73511
  20
738.30383
  42
0.29021765
  0
VERTEX
  5
557
  8
Layer_0
  10
986.08734
  20
739.07538
  0
VERTEX
  5
558
  8
Layer_0
  10
980.6377
  20
738.28171
  42
0.14162286
  0
VERTEX
  5
559
  8
Layer_0
  10
980.17987
  20
738.08319
  0
SEQEND
  0
POLYLINE
  5
55b
  8
Layer_0
  62
0
  66
1
  10
0
  20
0
  30
0
  0
VERTEX
  5
55b
  8
Layer_0
  10
991.00259
  20
737.33908
  42
0.29305524
  0
VERTEX
  5
55c
  8
Layer_0
  10
991.49786
  20
736.56662
  0
VERTEX
  5
55d
  8
Layer_0
  10
991.52731
  20
736.55377
  42
0.29302445
  0
VERTEX
  5
55e
  8
Layer_0
  10
992.43048
  20
736.71573
  0
VERTEX
  5
55f
  8
Layer_0
  10
992.45364
  20
736.73804
  42
0.29308784
  0
VERTEX
  5
560
  8
Layer_0
  10
992.64963
  20
737.63443
  0
VERTEX
  5
561
  8
Layer_0
  10
992.63791
  20
737.66435
  42
0.3034098
  0
VERTEX
  5
562
  8
Layer_0
  10
991.8526
  20
738.18907
  42
0.41429924
  0
VERTEX
  5
563
  8
Layer_0
  10
991.00259
  20
737.33908
  0
SEQEND
  0
POLYLINE
  5
565
  8
Layer_0
  62
0
  66
1
  10
0
  20
0
  30
0
  0
VERTEX
  5
565
  8
Layer_0
  10
998.17987
  20
738.08319
  0
VERTEX
  5
566
  8
Layer_0
  10
994.70261
  20
734.98907
  0
VERTEX
  5
567
  8
Layer_0
  10
994.70261
  20
732.28906
  0
VERTEX
  5
568
  8
Layer_0
  10
996.80261
  20
730.73907
  0
VERTEX
  5
569
  8
Layer_0
  10
1001.5026
  20
728.88907
  0
VERTEX
  5
56a
  8
Layer_0
  10
1006.8026
  20
728.88907
  0
VERTEX
  5
56b
  8
Layer_0
  10
1008.9526
  20
730.08907
  0
VERTEX
  5
56c
  8
Layer_0
  10
1008.9526
  20
732.78906
  0
VERTEX
  5
56d
  8
Layer_0
  10
1005.7351
  20
738.30383
  42
0.29023626
  0
VERTEX
  5
56e
  8
Layer_0
  10
1004.0873
  20
739.07538
  0
VERTEX
  5
56f
  8
Layer_0
  10
998.6377
  20
738.28171
  42
0.14149804
  0
VERTEX
  5
570
  8
Layer_0
  10
998.17987
  20
738.08319
  0
SEQEND
  0
POLYLINE
  5
572
  8
Layer_0
  62
0
  66
1
  10
0
  20
0
  30
0
  0
VERTEX
  5
572
  8
Layer_0
  10
1009.2516
  20
737.94011
  42
0.1989439
  0
VERTEX
  5
573
  8
Layer_0
  10
1009.0026
  20
737.33908
  42
0.29309298
  0
VERTEX
  5
574
  8
Layer_0
  10
1009.4979
  20
736.56662
  0
VERTEX
  5
575
  8
Layer_0
  10
1009.5273
  20
736.55377
  42
0.29307647
  0
VERTEX
  5
576
  8
Layer_0
  10
1010.4305
  20
736.71573
  0
VERTEX
  5
577
  8
Layer_0
  10
1010.4536
  20
736.73804
  42
0.23337797
  0
VERTEX
  5
578
  8
Layer_0
  10
1010.6953
  20
737.45081
  42
0.065321434
  0
VERTEX
  5
579
  8
Layer_0
  10
1010.6379
  20
737.66435
  42
0.30339151
  0
VERTEX
  5
57a
  8
Layer_0
  10
1009.8526
  20
738.18907
  42
0.19888909
  0
VERTEX
  5
57b
  8
Layer_0
  10
1009.2516
  20
737.94011
  0
SEQEND
  0
POLYLINE
  5
57d
  8
Layer_0
  62
0
  66
1
  10
0
  20
0
  30
0
  0
VERTEX
  5
57d
  8
Layer_0
  10
921.6526
  20
739.73907
  42
0.29316515
  0
VERTEX
  5
57e
  8
Layer_0
  10
922.64314
  20
738.19418
  0
VERTEX
  5
57f
  8
Layer_0
  10
922.70204
  20
738.16847
  42
0.29304423
  0
VERTEX
  5
580
  8
Layer_0
  10
924.50839
  20
738.4924
  0
VERTEX
  5
581
  8
Layer_0
  10
924.55469
  20
738.53699
  42
0.29302292
  0
VERTEX
  5
582
  8
Layer_0
  10
924.94667
  20
740.3298
  0
VERTEX
  5
583
  8
Layer_0
  10
924.9232
  20
740.38963
  42
0.13939978
  0
VERTEX
  5
584
  8
Layer_0
  10
924.34778
  20
741.11734
  42
0.15770264
  0
VERTEX
  5
585
  8
Layer_0
  10
923.3526
  20
741.43907
  42
0.41435397
  0
VERTEX
  5
586
  8
Layer_0
  10
921.6526
  20
739.73907
  0
SEQEND
  0
POLYLINE
  5
588
  8
Layer_0
  62
0
  66
1
  10
0
  20
0
  30
0
  0
VERTEX
  5
588
  8
Layer_0
  10
902.70261
  20
690.93907
  42
-0.19885853
  0
VERTEX
  5
589
  8
Layer_0
  10
903.20053
  20
692.14114
  42
-0.19899503
  0
VERTEX
  5
58a
  8
Layer_0
  10
904.4026
  20
692.63907
  42
-0.037222289
  0
VERTEX
  5
58b
  8
Layer_0
  10
904.65671
  20
692.62003
  42
-0.26287966
  0
VERTEX
  5
58c
  8
Layer_0
  10
905.97321
  20
691.58963
  0
VERTEX
  5
58d
  8
Layer_0
  10
905.99667
  20
691.5298
  42
-0.29308927
  0
VERTEX
  5
58e
  8
Layer_0
  10
905.60468
  20
689.73698
  0
VERTEX
  5
58f
  8
Layer_0
  10
905.55838
  20
689.69241
  42
-0.293082
  0
VERTEX
  5
590
  8
Layer_0
  10
903.75204
  20
689.36847
  42
-0.30336856
  0
VERTEX
  5
591
  8
Layer_0
  10
902.70261
  20
690.93907
  0
SEQEND
  0
POLYLINE
  5
593
  8
Layer_0
  62
0
  66
1
  10
0
  20
0
  30
0
  0
VERTEX
  5
593
  8
Layer_0
  10
993.65259
  20
711.83907
  42
0.29307672
  0
VERTEX
  5
594
  8
Layer_0
  10
994.64313
  20
710.29417
  0
VERTEX
  5
595
  8
Layer_0
  10
994.70203
  20
710.26846
  42
0.29308512
  0
VERTEX
  5
596
  8
Layer_0
  10
996.50839
  20
710.59241
  0
VERTEX
  5
597
  8
Layer_0
  10
996.55469
  20
710.63699
  42
0.29309625
  0
VERTEX
  5
598
  8
Layer_0
  10
996.94669
  20
712.42981
  0
VERTEX
  5
599
  8
Layer_0
  10
996.92319
  20
712.48962
  42
0.028094991
  0
VERTEX
  5
59a
  8
Layer_0
  10
996.84003
  20
712.66231
  42
0.27280448
  0
VERTEX
  5
59b
  8
Layer_0
  10
995.3526
  20
713.53906
  42
0.41435754
  0
VERTEX
  5
59c
  8
Layer_0
  10
993.65259
  20
711.83907
  0
SEQEND
  0
POLYLINE
  5
59e
  8
Layer_0
  62
0
  66
1
  10
0
  20
0
  30
0
  0
VERTEX
  5
59e
  8
Layer_0
  10
993.65259
  20
728.83907
  42
0.29309373
  0
VERTEX
  5
59f
  8
Layer_0
  10
994.64313
  20
727.29417
  0
VERTEX
  5
5a0
  8
Layer_0
  10
994.70203
  20
727.26846
  42
0.29308448
  0
VERTEX
  5
5a1
  8
Layer_0
  10
996.50839
  20
727.59241
  0
VERTEX
  5
5a2
  8
Layer_0
  10
996.55469
  20
727.63699
  42
0.29308838
  0
VERTEX
  5
5a3
  8
Layer_0
  10
996.94669
  20
729.42981
  0
VERTEX
  5
5a4
  8
Layer_0
  10
996.92319
  20
729.48962
  42
0.30338546
  0
VERTEX
  5
5a5
  8
Layer_0
  10
995.3526
  20
730.53906
  42
0.19903614
  0
VERTEX
  5
5a6
  8
Layer_0
  10
994.15033
  20
730.04132
  42
0.19905431
  0
VERTEX
  5
5a7
  8
Layer_0
  10
993.65259
  20
728.83907
  0
SEQEND
  0
POLYLINE
  5
5a9
  8
Layer_0
  62
0
  66
1
  10
0
  20
0
  30
0
  0
VERTEX
  5
5a9
  8
Layer_0
  10
904.35211
  20
748.90479
  42
-0.41421356
  0
VERTEX
  5
5aa
  8
Layer_0
  10
902.35211
  20
746.90479
  0
VERTEX
  5
5ab
  8
Layer_0
  10
883.00063
  20
746.90479
  42
0.19891765
  0
VERTEX
  5
5ac
  8
Layer_0
  10
881.58638
  20
746.31897
  42
0.19891456
  0
VERTEX
  5
5ad
  8
Layer_0
  10
881.00063
  20
744.90471
  0
VERTEX
  5
5ae
  8
Layer_0
  10
881.00275
  20
691.20068
  42
0.10991881
  0
VERTEX
  5
5af
  8
Layer_0
  10
881.19073
  20
690.35425
  0
VERTEX
  5
5b0
  8
Layer_0
  10
888.24982
  20
675.21606
  42
0.41028649
  0
VERTEX
  5
5b1
  8
Layer_0
  10
890.88092
  20
674.23633
  0
VERTEX
  5
5b2
  8
Layer_0
  10
898.22296
  20
677.53882
  0
VERTEX
  5
5b3
  8
Layer_0
  10
899.2337
  20
678.02856
  42
-0.133572
  0
VERTEX
  5
5b4
  8
Layer_0
  10
936.55231
  20
684.73901
  0
VERTEX
  5
5b5
  8
Layer_0
  10
943.85236
  20
684.16382
  42
0.18930115
  0
VERTEX
  5
5b6
  8
Layer_0
  10
950.60236
  20
686.21387
  0
VERTEX
  5
5b7
  8
Layer_0
  10
951.17316
  20
686.65894
  42
-0.16238578
  0
VERTEX
  5
5b8
  8
Layer_0
  10
971.85236
  20
693.73901
  0
VERTEX
  5
5b9
  8
Layer_0
  10
1012.3524
  20
693.73901
  42
0.19902387
  0
VERTEX
  5
5ba
  8
Layer_0
  10
1013.7666
  20
694.32468
  42
0.19890882
  0
VERTEX
  5
5bb
  8
Layer_0
  10
1014.3524
  20
695.73901
  0
VERTEX
  5
5bc
  8
Layer_0
  10
1014.3524
  20
744.93896
  42
0.41393842
  0
VERTEX
  5
5bd
  8
Layer_0
  10
1012.3524
  20
746.93896
  0
VERTEX
  5
5be
  8
Layer_0
  10
980.35236
  20
746.93896
  42
-0.41408409
  0
VERTEX
  5
5bf
  8
Layer_0
  10
978.35236
  20
748.93896
  0
VERTEX
  5
5c0
  8
Layer_0
  10
978.35236
  20
756.93896
  42
0.41412455
  0
VERTEX
  5
5c1
  8
Layer_0
  10
976.35236
  20
758.93896
  0
VERTEX
  5
5c2
  8
Layer_0
  10
962.35236
  20
758.93896
  42
-0.19891984
  0
VERTEX
  5
5c3
  8
Layer_0
  10
960.93811
  20
759.52472
  42
-0.19891984
  0
VERTEX
  5
5c4
  8
Layer_0
  10
960.35236
  20
760.93896
  0
VERTEX
  5
5c5
  8
Layer_0
  10
960.35236
  20
761.93896
  42
0.41422165
  0
VERTEX
  5
5c6
  8
Layer_0
  10
958.35236
  20
763.93896
  0
VERTEX
  5
5c7
  8
Layer_0
  10
942.35236
  20
763.93896
  42
0.4141205
  0
VERTEX
  5
5c8
  8
Layer_0
  10
940.35236
  20
761.93896
  0
VERTEX
  5
5c9
  8
Layer_0
  10
940.35236
  20
760.93896
  42
-0.19920008
  0
VERTEX
  5
5ca
  8
Layer_0
  10
939.76698
  20
759.5246
  42
-0.19872186
  0
VERTEX
  5
5cb
  8
Layer_0
  10
938.35236
  20
758.93896
  0
VERTEX
  5
5cc
  8
Layer_0
  10
924.05231
  20
758.93896
  42
0.2789618
  0
VERTEX
  5
5cd
  8
Layer_0
  10
922.31744
  20
757.88159
  0
VERTEX
  5
5ce
  8
Layer_0
  10
922.1651
  20
757.67261
  42
-0.22288147
  0
VERTEX
  5
5cf
  8
Layer_0
  10
920.60236
  20
756.93896
  0
VERTEX
  5
5d0
  8
Layer_0
  10
906.35211
  20
756.93896
  42
0.41421356
  0
VERTEX
  5
5d1
  8
Layer_0
  10
904.35211
  20
754.93896
  0
VERTEX
  5
5d2
  8
Layer_0
  10
904.35211
  20
748.90479
  0
SEQEND
  0
POLYLINE
  5
5d4
  8
Layer_0
  62
0
  66
1
  10
0
  20
0
  30
0
  0
VERTEX
  5
5d4
  8
Layer_0
  10
885.15118
  20
708.33585
  42
-0.19884311
  0
VERTEX
  5
5d5
  8
Layer_0
  10
885.44406
  20
709.04295
  42
-0.19883462
  0
VERTEX
  5
5d6
  8
Layer_0
  10
886.15115
  20
709.33585
  42
-0.074755331
  0
VERTEX
  5
5d7
  8
Layer_0
  10
886.44437
  20
709.29193
  42
-0.22416992
  0
VERTEX
  5
5d8
  8
Layer_0
  10
887.07501
  20
708.71854
  0
VERTEX
  5
5d9
  8
Layer_0
  10
887.10123
  20
708.64786
  42
-0.28306709
  0
VERTEX
  5
5da
  8
Layer_0
  10
886.85825
  20
707.62874
  0
VERTEX
  5
5db
  8
Layer_0
  10
886.80298
  20
707.57747
  42
-0.28282028
  0
VERTEX
  5
5dc
  8
Layer_0
  10
885.76848
  20
707.41196
  42
-0.30326129
  0
VERTEX
  5
5dd
  8
Layer_0
  10
885.15118
  20
708.33585
  0
SEQEND
  0
POLYLINE
  5
5df
  8
Layer_0
  62
0
  66
1
  10
0
  20
0
  30
0
  0
VERTEX
  5
5df
  8
Layer_0
  10
888.15111
  20
708.33585
  42
-0.19925091
  0
VERTEX
  5
5e0
  8
Layer_0
  10
888.444
  20
709.04295
  42
-0.19884217
  0
VERTEX
  5
5e1
  8
Layer_0
  10
889.15108
  20
709.33585
  42
-0.074501204
  0
VERTEX
  5
5e2
  8
Layer_0
  10
889.44429
  20
709.29193
  42
-0.22373431
  0
VERTEX
  5
5e3
  8
Layer_0
  10
890.07494
  20
708.71854
  0
VERTEX
  5
5e4
  8
Layer_0
  10
890.10115
  20
708.64786
  42
-0.28297954
  0
VERTEX
  5
5e5
  8
Layer_0
  10
889.85817
  20
707.62874
  0
VERTEX
  5
5e6
  8
Layer_0
  10
889.8029
  20
707.57747
  42
-0.28295977
  0
VERTEX
  5
5e7
  8
Layer_0
  10
888.7684
  20
707.41196
  42
-0.30345535
  0
VERTEX
  5
5e8
  8
Layer_0
  10
888.15111
  20
708.33585
  0
SEQEND
  0
POLYLINE
  5
5ea
  8
Layer_0
  62
0
  66
1
  10
0
  20
0
  30
0
  0
VERTEX
  5
5ea
  8
Layer_0
  10
892.151
  20
708.33585
  42
-0.19909104
  0
VERTEX
  5
5eb
  8
Layer_0
  10
892.44389
  20
709.04295
  42
-0.19885924
  0
VERTEX
  5
5ec
  8
Layer_0
  10
893.15097
  20
709.33585
  42
-0.093202681
  0
VERTEX
  5
5ed
  8
Layer_0
  10
893.51329
  20
709.26793
  42
-0.20457928
  0
VERTEX
  5
5ee
  8
Layer_0
  10
894.07483
  20
708.71854
  0
VERTEX
  5
5ef
  8
Layer_0
  10
894.10104
  20
708.64786
  42
-0.28278458
  0
VERTEX
  5
5f0
  8
Layer_0
  10
893.85808
  20
707.62874
  0
VERTEX
  5
5f1
  8
Layer_0
  10
893.8028
  20
707.57747
  42
-0.28307879
  0
VERTEX
  5
5f2
  8
Layer_0
  10
892.76831
  20
707.41196
  42
-0.30334921
  0
VERTEX
  5
5f3
  8
Layer_0
  10
892.151
  20
708.33585
  0
SEQEND
  0
POLYLINE
  5
5f5
  8
Layer_0
  62
0
  66
1
  10
0
  20
0
  30
0
  0
VERTEX
  5
5f5
  8
Layer_0
  10
893.25098
  20
703.73584
  42
-0.19888412
  0
VERTEX
  5
5f6
  8
Layer_0
  10
893.54379
  20
704.4431
  42
-0.1992071
  0
VERTEX
  5
5f7
  8
Layer_0
  10
894.25096
  20
704.73584
  42
-0.075108954
  0
VERTEX
  5
5f8
  8
Layer_0
  10
894.54417
  20
704.69193
  42
-0.22353771
  0
VERTEX
  5
5f9
  8
Layer_0
  10
895.1748
  20
704.11853
  0
VERTEX
  5
5fa
  8
Layer_0
  10
895.20102
  20
704.04785
  42
-0.28280382
  0
VERTEX
  5
5fb
  8
Layer_0
  10
894.95805
  20
703.02875
  0
VERTEX
  5
5fc
  8
Layer_0
  10
894.90279
  20
702.97748
  42
-0.28304996
  0
VERTEX
  5
5fd
  8
Layer_0
  10
893.86829
  20
702.81195
  42
-0.3034106
  0
VERTEX
  5
5fe
  8
Layer_0
  10
893.25098
  20
703.73584
  0
SEQEND
  0
POLYLINE
  5
600
  8
Layer_0
  62
0
  66
1
  10
0
  20
0
  30
0
  0
VERTEX
  5
600
  8
Layer_0
  10
897.55304
  20
709.28583
  42
-0.19900727
  0
VERTEX
  5
601
  8
Layer_0
  10
897.84589
  20
709.99294
  42
-0.19864057
  0
VERTEX
  5
602
  8
Layer_0
  10
898.5529
  20
710.28583
  42
-0.093261289
  0
VERTEX
  5
603
  8
Layer_0
  10
898.91518
  20
710.21791
  42
-0.20462648
  0
VERTEX
  5
604
  8
Layer_0
  10
899.47665
  20
709.6685
  0
VERTEX
  5
605
  8
Layer_0
  10
899.50287
  20
709.59782
  42
-0.28265771
  0
VERTEX
  5
606
  8
Layer_0
  10
899.25992
  20
708.5787
  0
VERTEX
  5
607
  8
Layer_0
  10
899.20465
  20
708.52745
  42
-0.28286023
  0
VERTEX
  5
608
  8
Layer_0
  10
898.17029
  20
708.36194
  42
-0.30340663
  0
VERTEX
  5
609
  8
Layer_0
  10
897.55304
  20
709.28583
  0
SEQEND
  0
POLYLINE
  5
60b
  8
Layer_0
  62
0
  66
1
  10
0
  20
0
  30
0
  0
VERTEX
  5
60b
  8
Layer_0
  10
897.55304
  20
702.78583
  42
-0.19884603
  0
VERTEX
  5
60c
  8
Layer_0
  10
897.84589
  20
703.49294
  42
-0.1987047
  0
VERTEX
  5
60d
  8
Layer_0
  10
898.5529
  20
703.78583
  42
-0.074512291
  0
VERTEX
  5
60e
  8
Layer_0
  10
898.8461
  20
703.74191
  42
-0.2236249
  0
VERTEX
  5
60f
  8
Layer_0
  10
899.47665
  20
703.1685
  0
VERTEX
  5
610
  8
Layer_0
  10
899.50287
  20
703.09782
  42
-0.28281314
  0
VERTEX
  5
611
  8
Layer_0
  10
899.25992
  20
702.0787
  0
VERTEX
  5
612
  8
Layer_0
  10
899.20465
  20
702.02745
  42
-0.28300434
  0
VERTEX
  5
613
  8
Layer_0
  10
898.17029
  20
701.86194
  42
-0.30344347
  0
VERTEX
  5
614
  8
Layer_0
  10
897.55304
  20
702.78583
  0
SEQEND
  0
ENDSEC
  0
EOF
