  0
SECTION
  2
HEADER
  9
$ACADVER
  1
AC1009
  0
ENDSEC
  0
SECTION
  2
ENTITIES
  0
CIRCLE
  5
90
  8
Layer_0
  62
0
  10
258.40179
  20
684.94348
  30
0
  40
1.0499969
  0
CIRCLE
  5
90
  8
Layer_0
  62
0
  10
349.35181
  20
722.84351
  30
0
  40
1.0499969
  0
CIRCLE
  5
90
  8
Layer_0
  62
0
  10
349.35181
  20
705.84351
  30
0
  40
1.0499969
  0
CIRCLE
  5
90
  8
Layer_0
  62
0
  10
277.35181
  20
733.74341
  30
0
  40
1.0499969
  0
POLYLINE
  5
90
  8
Layer_0
  62
0
  66
1
  10
0
  20
0
  30
0
  0
VERTEX
  5
90
  8
Layer_0
  10
258.3515
  20
742.90482
  42
-0.41421356
  0
VERTEX
  5
91
  8
Layer_0
  10
256.3515
  20
740.90482
  0
VERTEX
  5
92
  8
Layer_0
  10
237
  20
740.9048
  42
0.19891765
  0
VERTEX
  5
93
  8
Layer_0
  10
235.58575
  20
740.31898
  42
0.19891456
  0
VERTEX
  5
94
  8
Layer_0
  10
235
  20
738.90472
  0
VERTEX
  5
95
  8
Layer_0
  10
235.00214
  20
685.2007
  42
0.10991881
  0
VERTEX
  5
96
  8
Layer_0
  10
235.19012
  20
684.35425
  0
VERTEX
  5
97
  8
Layer_0
  10
242.24924
  20
669.21609
  42
0.41028649
  0
VERTEX
  5
98
  8
Layer_0
  10
244.88034
  20
668.23636
  0
VERTEX
  5
99
  8
Layer_0
  10
252.22235
  20
671.53885
  0
VERTEX
  5
9a
  8
Layer_0
  10
253.23309
  20
672.02859
  42
-0.133572
  0
VERTEX
  5
9b
  8
Layer_0
  10
290.5517
  20
678.73904
  0
VERTEX
  5
9c
  8
Layer_0
  10
297.85175
  20
678.16386
  42
0.18930115
  0
VERTEX
  5
9d
  8
Layer_0
  10
304.60175
  20
680.21391
  0
VERTEX
  5
9e
  8
Layer_0
  10
305.17255
  20
680.65898
  42
-0.16238578
  0
VERTEX
  5
9f
  8
Layer_0
  10
325.85175
  20
687.73907
  0
VERTEX
  5
a0
  8
Layer_0
  10
366.35175
  20
687.73909
  42
0.19902387
  0
VERTEX
  5
a1
  8
Layer_0
  10
367.76602
  20
688.32475
  42
0.19890882
  0
VERTEX
  5
a2
  8
Layer_0
  10
368.35175
  20
689.73909
  0
VERTEX
  5
a3
  8
Layer_0
  10
368.35175
  20
738.93904
  42
0.41393842
  0
VERTEX
  5
a4
  8
Layer_0
  10
366.35175
  20
740.93904
  0
VERTEX
  5
a5
  8
Layer_0
  10
334.35175
  20
740.93903
  42
-0.41408409
  0
VERTEX
  5
a6
  8
Layer_0
  10
332.35175
  20
742.93903
  0
VERTEX
  5
a7
  8
Layer_0
  10
332.35175
  20
750.93903
  42
0.41412455
  0
VERTEX
  5
a8
  8
Layer_0
  10
330.35175
  20
752.93903
  0
VERTEX
  5
a9
  8
Layer_0
  10
316.35175
  20
752.93901
  42
-0.19891984
  0
VERTEX
  5
aa
  8
Layer_0
  10
314.93747
  20
753.52475
  42
-0.19891984
  0
VERTEX
  5
ab
  8
Layer_0
  10
314.35175
  20
754.93901
  0
VERTEX
  5
ac
  8
Layer_0
  10
314.35175
  20
755.93901
  42
0.41422165
  0
VERTEX
  5
ad
  8
Layer_0
  10
312.35175
  20
757.93903
  0
VERTEX
  5
ae
  8
Layer_0
  10
296.35175
  20
757.93903
  42
0.4141205
  0
VERTEX
  5
af
  8
Layer_0
  10
294.35175
  20
755.93901
  0
VERTEX
  5
b0
  8
Layer_0
  10
294.35175
  20
754.93901
  42
-0.19920008
  0
VERTEX
  5
b1
  8
Layer_0
  10
293.76636
  20
753.52466
  42
-0.19872186
  0
VERTEX
  5
b2
  8
Layer_0
  10
292.35175
  20
752.93901
  0
VERTEX
  5
b3
  8
Layer_0
  10
278.0517
  20
752.939
  42
0.2789618
  0
VERTEX
  5
b4
  8
Layer_0
  10
276.31683
  20
751.88162
  0
VERTEX
  5
b5
  8
Layer_0
  10
276.16449
  20
751.67264
  42
-0.22288147
  0
VERTEX
  5
b6
  8
Layer_0
  10
274.60175
  20
750.939
  0
VERTEX
  5
b7
  8
Layer_0
  10
260.3515
  20
750.939
  42
0.41421356
  0
VERTEX
  5
b8
  8
Layer_0
  10
258.3515
  20
748.939
  0
VERTEX
  5
b9
  8
Layer_0
  10
258.3515
  20
742.90482
  0
SEQEND
  0
CIRCLE
  5
bb
  8
Layer_0
  62
0
  10
209.59821
  20
684.94348
  30
0
  40
1.0499969
  0
CIRCLE
  5
bb
  8
Layer_0
  62
0
  10
118.64819
  20
722.84351
  30
0
  40
1.0499969
  0
CIRCLE
  5
bb
  8
Layer_0
  62
0
  10
118.64819
  20
705.84351
  30
0
  40
1.0499969
  0
CIRCLE
  5
bb
  8
Layer_0
  62
0
  10
190.64819
  20
733.74341
  30
0
  40
1.0499969
  0
POLYLINE
  5
bb
  8
Layer_0
  62
0
  66
1
  10
0
  20
0
  30
0
  0
VERTEX
  5
bb
  8
Layer_0
  10
209.6485
  20
742.90482
  42
0.41421356
  0
VERTEX
  5
bc
  8
Layer_0
  10
211.6485
  20
740.90482
  0
VERTEX
  5
bd
  8
Layer_0
  10
231
  20
740.9048
  42
-0.19891765
  0
VERTEX
  5
be
  8
Layer_0
  10
232.41425
  20
740.31898
  42
-0.19891456
  0
VERTEX
  5
bf
  8
Layer_0
  10
233
  20
738.90472
  0
VERTEX
  5
c0
  8
Layer_0
  10
232.99786
  20
685.2007
  42
-0.10991881
  0
VERTEX
  5
c1
  8
Layer_0
  10
232.80988
  20
684.35425
  0
VERTEX
  5
c2
  8
Layer_0
  10
225.75076
  20
669.21609
  42
-0.41028649
  0
VERTEX
  5
c3
  8
Layer_0
  10
223.11966
  20
668.23636
  0
VERTEX
  5
c4
  8
Layer_0
  10
215.77765
  20
671.53885
  0
VERTEX
  5
c5
  8
Layer_0
  10
214.76691
  20
672.02859
  42
0.133572
  0
VERTEX
  5
c6
  8
Layer_0
  10
177.4483
  20
678.73904
  0
VERTEX
  5
c7
  8
Layer_0
  10
170.14825
  20
678.16386
  42
-0.18930115
  0
VERTEX
  5
c8
  8
Layer_0
  10
163.39825
  20
680.21391
  0
VERTEX
  5
c9
  8
Layer_0
  10
162.82745
  20
680.65898
  42
0.16238578
  0
VERTEX
  5
ca
  8
Layer_0
  10
142.14825
  20
687.73907
  0
VERTEX
  5
cb
  8
Layer_0
  10
101.64825
  20
687.73909
  42
-0.19902387
  0
VERTEX
  5
cc
  8
Layer_0
  10
100.23401
  20
688.32475
  42
-0.19890882
  0
VERTEX
  5
cd
  8
Layer_0
  10
99.648254
  20
689.73909
  0
VERTEX
  5
ce
  8
Layer_0
  10
99.648254
  20
738.93904
  42
-0.41393842
  0
VERTEX
  5
cf
  8
Layer_0
  10
101.64825
  20
740.93904
  0
VERTEX
  5
d0
  8
Layer_0
  10
133.64825
  20
740.93903
  42
0.41408409
  0
VERTEX
  5
d1
  8
Layer_0
  10
135.64825
  20
742.93903
  0
VERTEX
  5
d2
  8
Layer_0
  10
135.64825
  20
750.93903
  42
-0.41412455
  0
VERTEX
  5
d3
  8
Layer_0
  10
137.64825
  20
752.93903
  0
VERTEX
  5
d4
  8
Layer_0
  10
151.64825
  20
752.93901
  42
0.19891984
  0
VERTEX
  5
d5
  8
Layer_0
  10
153.0625
  20
753.52475
  42
0.19891984
  0
VERTEX
  5
d6
  8
Layer_0
  10
153.64825
  20
754.93901
  0
VERTEX
  5
d7
  8
Layer_0
  10
153.64825
  20
755.93901
  42
-0.41422165
  0
VERTEX
  5
d8
  8
Layer_0
  10
155.64825
  20
757.93903
  0
VERTEX
  5
d9
  8
Layer_0
  10
171.64825
  20
757.93903
  42
-0.4141205
  0
VERTEX
  5
da
  8
Layer_0
  10
173.64825
  20
755.93901
  0
VERTEX
  5
db
  8
Layer_0
  10
173.64825
  20
754.93901
  42
0.19920008
  0
VERTEX
  5
dc
  8
Layer_0
  10
174.23364
  20
753.52466
  42
0.19872186
  0
VERTEX
  5
dd
  8
Layer_0
  10
175.64825
  20
752.93901
  0
VERTEX
  5
de
  8
Layer_0
  10
189.9483
  20
752.939
  42
-0.2789618
  0
VERTEX
  5
df
  8
Layer_0
  10
191.68317
  20
751.88162
  0
VERTEX
  5
e0
  8
Layer_0
  10
191.83551
  20
751.67264
  42
0.22288147
  0
VERTEX
  5
e1
  8
Layer_0
  10
193.39825
  20
750.939
  0
VERTEX
  5
e2
  8
Layer_0
  10
207.6485
  20
750.939
  42
-0.41421356
  0
VERTEX
  5
e3
  8
Layer_0
  10
209.6485
  20
748.939
  0
VERTEX
  5
e4
  8
Layer_0
  10
209.6485
  20
742.90482
  0
SEQEND
  0
ENDSEC
  0
EOF
